M48
INCH,TZ
T1C0.0100
T2C0.0157
T3C0.0197
T4C0.0236
T5C0.0382
T6C0.0393
T7C0.0394
T8C0.0550
T9C0.0678
T10C0.0681
T11C0.0256
T12C0.0390
T13C0.0630
T14C0.0760
T15C0.0935
T16C0.1024
T17C0.1405
T18C0.1990
%
G90
G05
T1
X62991Y12600
X82870Y3000
X89070Y6100
X91520Y6100
X91977Y3416
T2
X6000Y6050
X7350Y7150
X7390Y4068
X14206Y1000
X14410Y3228
X17445Y2081
X18105Y1571
X19667Y2299
X19878Y1400
X21960Y12240
X25700Y6745
X25719Y7189
X26017Y7645
X26140Y6745
X27750Y7496
X28267Y7645
X36630Y1250
X37929Y8241
X38840Y9390
X39330Y8370
X39909Y6375
X40550Y6440
X44580Y1196
X45388Y6970
X46070Y6806
X46830Y6954
X47080Y1840
X48660Y1840
X49950Y8890
X50030Y12450
X50120Y5402
X50340Y2540
X50470Y5550
X50560Y1960
X50835Y5548
X51200Y5550
X51450Y7390
X51550Y10650
X51568Y9423
X51750Y11750
X52000Y3600
X52021Y2586
X52074Y12819
X52289Y9331
X52807Y3745
X52930Y4576
X53130Y3915
X53180Y12370
X53200Y5250
X53370Y1240
X53460Y9567
X53930Y9580
X54160Y8290
X54363Y6217
X55544Y8362
X55668Y10437
X55750Y12400
X55846Y8696
X56000Y10675
X56088Y9078
X56261Y5931
X56380Y12660
X56517Y10703
X56548Y8362
X57060Y12130
X57252Y10755
X57294Y7707
X57300Y12600
X57395Y9189
X57400Y6340
X57659Y12727
X57679Y7787
X57907Y10468
X57931Y7485
X57991Y5940
X58042Y6388
X58152Y12172
X58300Y8224
X58322Y9795
X58341Y10718
X58520Y9283
X58616Y10086
X58664Y8444
X58780Y7980
X58812Y10465
X58895Y11191
X59187Y6476
X59349Y6050
X59750Y6250
X59914Y5800
X59980Y3030
X59993Y8677
X60308Y8382
X60466Y7929
X61391Y4681
X61521Y9659
X61920Y9659
X62023Y8961
X62224Y9300
X62414Y5803
X62500Y9620
X62646Y9956
X63100Y10100
X63500Y10400
X63530Y10820
X66105Y6131
X66440Y12070
X66726Y6099
X66860Y12220
X67130Y11350
X67789Y5154
X67940Y2560
X68281Y12063
X70680Y4600
X74040Y5965
X74096Y6713
X74740Y7920
X76160Y4040
X77430Y640
X77760Y4460
X78240Y660
X78300Y7270
X79020Y4963
X79285Y5705
X79720Y5780
X79850Y5070
X80200Y2750
X80210Y6370
X80260Y5840
X80310Y2370
X80740Y3200
X80791Y6113
X81040Y2930
X81630Y2700
X82867Y11295
X83456Y9760
X84040Y6480
X84070Y7750
X84522Y7320
X84650Y6690
X84740Y2580
X84790Y3180
X86411Y7654
X88626Y4013
X89280Y9760
X89936Y4740
X90448Y8006
X90506Y4795
X93640Y7620
X99157Y4971
X99275Y6027
X100048Y6785
X100138Y6384
X101384Y7776
X101384Y7146
X101384Y6831
X101384Y6516
X101384Y6201
X101384Y5571
X101659Y7618
X101659Y7303
X101659Y6988
X101659Y6358
X101659Y6043
X101659Y5728
X16788Y3277
X16788Y2805
X16965Y3041
X17142Y3277
X17142Y2805
T4
X80778Y4164
X80782Y4967
X80782Y4578
X81152Y4967
X81152Y4578
X81152Y4164
X81546Y4967
X81546Y4578
X81546Y4164
T5
X79983Y850
X80770Y850
X81557Y850
T6
X33390Y12290
X34390Y12290
X35390Y12290
X36390Y12290
X37390Y12290
X38390Y12290
X39390Y12290
X40390Y12290
X89446Y1591
X90446Y1591
X17435Y6752
X18435Y6752
X19435Y6752
X20435Y6752
X21435Y6752
X22435Y6752
X23435Y6752
X24435Y6752
T7
X33813Y11387
X33813Y10387
X34813Y11387
X34813Y10387
X35813Y11387
X35813Y10387
X36813Y11387
X36813Y10387
T8
X94941Y9888
X94941Y3498
X97441Y9888
X97441Y3498
X99941Y9888
X99941Y3498
T9
X67678Y7559
X73538Y9559
T10
X64678Y8559
X67678Y9559
X73538Y7559
X76538Y8559
T11
X101128Y8091
T12
X26316Y3421
X28316Y3821
X28316Y3021
T13
X86230Y4188
X86230Y1432
T14
X76142Y1798
X76142Y617
T15
X26316Y4421
X26316Y2421
X27566Y4421
X27566Y2421
T16
X13523Y8583
X61403Y6693
T17
X102153Y11943
X61493Y11943
X30663Y11943
X9999Y6816
X102153Y1443
X61493Y1443
X30663Y1443
T18
X72330Y2621
X47950Y10765
X26570Y10765
X64365Y2621
X56400Y2621
X80430Y9395
X86440Y10765
X18540Y10765
X8494Y10748
X40680Y2621
X34670Y3991
T3
G00X101738Y8299
M15
G01X101502Y8299
M16
G05
G00X101738Y5047
M15
G01X101502Y5047
M16
G05
G00X103490Y8461
M15
G01X103254Y8461
M16
G05
G00X103490Y4925
M15
G01X103254Y4925
M16
G05
T11
G00X101128Y5315
M15
G01X101128Y5197
M16
G05
T0
M30
