G04 #@! TF.GenerationSoftware,KiCad,Pcbnew,(5.1.4-0-10_14)*
G04 #@! TF.CreationDate,2021-04-14T17:20:28-04:00*
G04 #@! TF.ProjectId,Vindor,56696e64-6f72-42e6-9b69-6361645f7063,rev?*
G04 #@! TF.SameCoordinates,Original*
G04 #@! TF.FileFunction,Soldermask,Top*
G04 #@! TF.FilePolarity,Negative*
%FSLAX46Y46*%
G04 Gerber Fmt 4.6, Leading zero omitted, Abs format (unit mm)*
G04 Created by KiCad (PCBNEW (5.1.4-0-10_14)) date 2021-04-14 17:20:28*
%MOMM*%
%LPD*%
G04 APERTURE LIST*
%ADD10C,0.500000*%
%ADD11C,0.100000*%
G04 APERTURE END LIST*
D10*
G36*
X204971400Y10232000D02*
G01*
X204821400Y10382000D01*
X204821400Y12882000D01*
X207471400Y12882000D01*
X207471400Y10232000D01*
X204971400Y10232000D01*
G37*
X204971400Y10232000D02*
X204821400Y10382000D01*
X204821400Y12882000D01*
X207471400Y12882000D01*
X207471400Y10232000D01*
X204971400Y10232000D01*
D11*
G36*
X193631606Y2556891D02*
G01*
X193697036Y2543876D01*
X193881936Y2467288D01*
X194048342Y2356099D01*
X194189859Y2214582D01*
X194301048Y2048176D01*
X194353371Y1921858D01*
X194377636Y1863275D01*
X194416680Y1666989D01*
X194416680Y1466851D01*
X194392641Y1346000D01*
X194377636Y1270564D01*
X194301048Y1085664D01*
X194189859Y919258D01*
X194048342Y777741D01*
X193881936Y666552D01*
X193697036Y589964D01*
X193631606Y576949D01*
X193500749Y550920D01*
X193300611Y550920D01*
X193169754Y576949D01*
X193104324Y589964D01*
X192919424Y666552D01*
X192753018Y777741D01*
X192611501Y919258D01*
X192500312Y1085664D01*
X192423724Y1270564D01*
X192408719Y1346000D01*
X192384680Y1466851D01*
X192384680Y1666989D01*
X192423724Y1863275D01*
X192447990Y1921858D01*
X192500312Y2048176D01*
X192611501Y2214582D01*
X192753018Y2356099D01*
X192919424Y2467288D01*
X193104324Y2543876D01*
X193169754Y2556891D01*
X193300611Y2582920D01*
X193500749Y2582920D01*
X193631606Y2556891D01*
X193631606Y2556891D01*
G37*
G36*
X216075200Y686779D02*
G01*
X213873200Y686779D01*
X213873200Y2788779D01*
X216075200Y2788779D01*
X216075200Y686779D01*
X216075200Y686779D01*
G37*
G36*
X40241220Y1122680D02*
G01*
X39138860Y1122680D01*
X39138860Y1925320D01*
X40241220Y1925320D01*
X40241220Y1122680D01*
X40241220Y1122680D01*
G37*
G36*
X175183800Y1139200D02*
G01*
X173681800Y1139200D01*
X173681800Y3341200D01*
X175183800Y3341200D01*
X175183800Y1139200D01*
X175183800Y1139200D01*
G37*
G36*
X170683800Y1139200D02*
G01*
X169181800Y1139200D01*
X169181800Y3341200D01*
X170683800Y3341200D01*
X170683800Y1139200D01*
X170683800Y1139200D01*
G37*
G36*
X44899100Y1165740D02*
G01*
X43737100Y1165740D01*
X43737100Y3817740D01*
X44899100Y3817740D01*
X44899100Y1165740D01*
X44899100Y1165740D01*
G37*
G36*
X42699100Y1165740D02*
G01*
X41537100Y1165740D01*
X41537100Y1917740D01*
X42699100Y1917740D01*
X42699100Y1165740D01*
X42699100Y1165740D01*
G37*
G36*
X207392742Y2940758D02*
G01*
X207540701Y2879471D01*
X207673855Y2790501D01*
X207787101Y2677255D01*
X207876071Y2544101D01*
X207937358Y2396142D01*
X207968600Y2239075D01*
X207968600Y2078925D01*
X207937358Y1921858D01*
X207876071Y1773899D01*
X207787101Y1640745D01*
X207673855Y1527499D01*
X207540701Y1438529D01*
X207392742Y1377242D01*
X207235675Y1346000D01*
X207075525Y1346000D01*
X206918458Y1377242D01*
X206770499Y1438529D01*
X206637345Y1527499D01*
X206524099Y1640745D01*
X206435129Y1773899D01*
X206373842Y1921858D01*
X206342600Y2078925D01*
X206342600Y2239075D01*
X206373842Y2396142D01*
X206435129Y2544101D01*
X206524099Y2677255D01*
X206637345Y2790501D01*
X206770499Y2879471D01*
X206918458Y2940758D01*
X207075525Y2972000D01*
X207235675Y2972000D01*
X207392742Y2940758D01*
X207392742Y2940758D01*
G37*
G36*
X205392742Y2940758D02*
G01*
X205540701Y2879471D01*
X205673855Y2790501D01*
X205787101Y2677255D01*
X205876071Y2544101D01*
X205937358Y2396142D01*
X205968600Y2239075D01*
X205968600Y2078925D01*
X205937358Y1921858D01*
X205876071Y1773899D01*
X205787101Y1640745D01*
X205673855Y1527499D01*
X205540701Y1438529D01*
X205392742Y1377242D01*
X205235675Y1346000D01*
X205075525Y1346000D01*
X204918458Y1377242D01*
X204770499Y1438529D01*
X204637345Y1527499D01*
X204524099Y1640745D01*
X204435129Y1773899D01*
X204373842Y1921858D01*
X204342600Y2078925D01*
X204342600Y2239075D01*
X204373842Y2396142D01*
X204435129Y2544101D01*
X204524099Y2677255D01*
X204637345Y2790501D01*
X204770499Y2879471D01*
X204918458Y2940758D01*
X205075525Y2972000D01*
X205235675Y2972000D01*
X205392742Y2940758D01*
X205392742Y2940758D01*
G37*
G36*
X203392742Y2940758D02*
G01*
X203540701Y2879471D01*
X203673855Y2790501D01*
X203787101Y2677255D01*
X203876071Y2544101D01*
X203937358Y2396142D01*
X203968600Y2239075D01*
X203968600Y2078925D01*
X203937358Y1921858D01*
X203876071Y1773899D01*
X203787101Y1640745D01*
X203673855Y1527499D01*
X203540701Y1438529D01*
X203392742Y1377242D01*
X203235675Y1346000D01*
X203075525Y1346000D01*
X202918458Y1377242D01*
X202770499Y1438529D01*
X202637345Y1527499D01*
X202524099Y1640745D01*
X202435129Y1773899D01*
X202373842Y1921858D01*
X202342600Y2078925D01*
X202342600Y2239075D01*
X202373842Y2396142D01*
X202435129Y2544101D01*
X202524099Y2677255D01*
X202637345Y2790501D01*
X202770499Y2879471D01*
X202918458Y2940758D01*
X203075525Y2972000D01*
X203235675Y2972000D01*
X203392742Y2940758D01*
X203392742Y2940758D01*
G37*
G36*
X224175200Y1386779D02*
G01*
X221973200Y1386779D01*
X221973200Y3688779D01*
X224175200Y3688779D01*
X224175200Y1386779D01*
X224175200Y1386779D01*
G37*
G36*
X259767498Y5476615D02*
G01*
X260003831Y5429606D01*
X260280467Y5315019D01*
X260337757Y5291289D01*
X260337761Y5291287D01*
X260638290Y5090480D01*
X260893870Y4834900D01*
X261094677Y4534371D01*
X261232996Y4200441D01*
X261280005Y3964108D01*
X261303510Y3845943D01*
X261303510Y3484497D01*
X261280005Y3366332D01*
X261232996Y3129999D01*
X261094677Y2796069D01*
X260893870Y2495540D01*
X260638290Y2239960D01*
X260337761Y2039153D01*
X260003831Y1900834D01*
X259767498Y1853825D01*
X259649333Y1830320D01*
X259287887Y1830320D01*
X259169722Y1853825D01*
X258933389Y1900834D01*
X258599459Y2039153D01*
X258298930Y2239960D01*
X258043350Y2495540D01*
X257842543Y2796069D01*
X257704224Y3129999D01*
X257657215Y3366332D01*
X257633710Y3484497D01*
X257633710Y3845943D01*
X257657215Y3964108D01*
X257704224Y4200441D01*
X257842543Y4534371D01*
X258043350Y4834900D01*
X258298930Y5090480D01*
X258599459Y5291287D01*
X258599464Y5291289D01*
X258656753Y5315019D01*
X258933389Y5429606D01*
X259169722Y5476615D01*
X259287887Y5500120D01*
X259649333Y5500120D01*
X259767498Y5476615D01*
X259767498Y5476615D01*
G37*
G36*
X78182908Y5476615D02*
G01*
X78419241Y5429606D01*
X78695877Y5315019D01*
X78753167Y5291289D01*
X78753171Y5291287D01*
X79053700Y5090480D01*
X79309280Y4834900D01*
X79510087Y4534371D01*
X79648406Y4200441D01*
X79695415Y3964108D01*
X79718920Y3845943D01*
X79718920Y3484497D01*
X79695415Y3366332D01*
X79648406Y3129999D01*
X79510087Y2796069D01*
X79309280Y2495540D01*
X79053700Y2239960D01*
X78753171Y2039153D01*
X78419241Y1900834D01*
X78182908Y1853825D01*
X78064743Y1830320D01*
X77703297Y1830320D01*
X77585132Y1853825D01*
X77348799Y1900834D01*
X77014869Y2039153D01*
X76714340Y2239960D01*
X76458760Y2495540D01*
X76257953Y2796069D01*
X76119634Y3129999D01*
X76072625Y3366332D01*
X76049120Y3484497D01*
X76049120Y3845943D01*
X76072625Y3964108D01*
X76119634Y4200441D01*
X76257953Y4534371D01*
X76458760Y4834900D01*
X76714340Y5090480D01*
X77014869Y5291287D01*
X77014874Y5291289D01*
X77072163Y5315019D01*
X77348799Y5429606D01*
X77585132Y5476615D01*
X77703297Y5500120D01*
X78064743Y5500120D01*
X78182908Y5476615D01*
X78182908Y5476615D01*
G37*
G36*
X156491108Y5476617D02*
G01*
X156727441Y5429608D01*
X157061371Y5291289D01*
X157361900Y5090482D01*
X157617480Y4834902D01*
X157818287Y4534373D01*
X157956606Y4200443D01*
X157972727Y4119398D01*
X158027120Y3845945D01*
X158027120Y3484499D01*
X158015070Y3423920D01*
X157956606Y3130001D01*
X157818287Y2796071D01*
X157617480Y2495542D01*
X157361900Y2239962D01*
X157061371Y2039155D01*
X157061370Y2039154D01*
X157061369Y2039154D01*
X157061364Y2039152D01*
X156727441Y1900836D01*
X156538613Y1863276D01*
X156372943Y1830322D01*
X156011497Y1830322D01*
X155845827Y1863276D01*
X155656999Y1900836D01*
X155323076Y2039152D01*
X155323071Y2039154D01*
X155323070Y2039154D01*
X155323069Y2039155D01*
X155022540Y2239962D01*
X154766960Y2495542D01*
X154566153Y2796071D01*
X154427834Y3130001D01*
X154369370Y3423920D01*
X154357320Y3484499D01*
X154357320Y3845945D01*
X154411713Y4119398D01*
X154427834Y4200443D01*
X154566153Y4534373D01*
X154766960Y4834902D01*
X155022540Y5090482D01*
X155323069Y5291289D01*
X155656999Y5429608D01*
X155893332Y5476617D01*
X156011497Y5500122D01*
X156372943Y5500122D01*
X156491108Y5476617D01*
X156491108Y5476617D01*
G37*
G36*
X40241220Y2621280D02*
G01*
X39138860Y2621280D01*
X39138860Y3423920D01*
X40241220Y3423920D01*
X40241220Y2621280D01*
X40241220Y2621280D01*
G37*
G36*
X198163180Y2674620D02*
G01*
X197162420Y2674620D01*
X197162420Y3675380D01*
X198163180Y3675380D01*
X198163180Y2674620D01*
X198163180Y2674620D01*
G37*
G36*
X129603500Y2771140D02*
G01*
X128800860Y2771140D01*
X128800860Y3873500D01*
X129603500Y3873500D01*
X129603500Y2771140D01*
X129603500Y2771140D01*
G37*
G36*
X131102100Y2771140D02*
G01*
X130299460Y2771140D01*
X130299460Y3873500D01*
X131102100Y3873500D01*
X131102100Y2771140D01*
X131102100Y2771140D01*
G37*
G36*
X219272312Y4456296D02*
G01*
X219427184Y4392146D01*
X219566565Y4299014D01*
X219685099Y4180480D01*
X219778231Y4041099D01*
X219842381Y3886227D01*
X219875084Y3721815D01*
X219875084Y3554183D01*
X219842381Y3389771D01*
X219778231Y3234899D01*
X219685099Y3095518D01*
X219566565Y2976984D01*
X219427184Y2883852D01*
X219272312Y2819702D01*
X219107900Y2786999D01*
X218940268Y2786999D01*
X218775856Y2819702D01*
X218620984Y2883852D01*
X218481603Y2976984D01*
X218363069Y3095518D01*
X218269937Y3234899D01*
X218205787Y3389771D01*
X218173084Y3554183D01*
X218173084Y3721815D01*
X218205787Y3886227D01*
X218269937Y4041099D01*
X218363069Y4180480D01*
X218481603Y4299014D01*
X218620984Y4392146D01*
X218775856Y4456296D01*
X218940268Y4488999D01*
X219107900Y4488999D01*
X219272312Y4456296D01*
X219272312Y4456296D01*
G37*
G36*
X42699100Y3065740D02*
G01*
X41537100Y3065740D01*
X41537100Y3817740D01*
X42699100Y3817740D01*
X42699100Y3065740D01*
X42699100Y3065740D01*
G37*
G36*
X229859296Y4834902D02*
G01*
X229967350Y4813409D01*
X230113689Y4752793D01*
X230245390Y4664793D01*
X230357393Y4552790D01*
X230445393Y4421089D01*
X230506009Y4274750D01*
X230536910Y4119398D01*
X230536910Y3961002D01*
X230506009Y3805650D01*
X230445393Y3659311D01*
X230357393Y3527610D01*
X230245390Y3415607D01*
X230113689Y3327607D01*
X229967350Y3266991D01*
X229889674Y3251540D01*
X229811999Y3236090D01*
X229653601Y3236090D01*
X229575926Y3251540D01*
X229498250Y3266991D01*
X229351911Y3327607D01*
X229220210Y3415607D01*
X229108207Y3527610D01*
X229020207Y3659311D01*
X228959591Y3805650D01*
X228928690Y3961002D01*
X228928690Y4119398D01*
X228959591Y4274750D01*
X229020207Y4421089D01*
X229108207Y4552790D01*
X229220210Y4664793D01*
X229351911Y4752793D01*
X229498250Y4813409D01*
X229606304Y4834902D01*
X229653601Y4844310D01*
X229811999Y4844310D01*
X229859296Y4834902D01*
X229859296Y4834902D01*
G37*
G36*
X227319296Y4834902D02*
G01*
X227427350Y4813409D01*
X227573689Y4752793D01*
X227705390Y4664793D01*
X227817393Y4552790D01*
X227905393Y4421089D01*
X227966009Y4274750D01*
X227996910Y4119398D01*
X227996910Y3961002D01*
X227966009Y3805650D01*
X227905393Y3659311D01*
X227817393Y3527610D01*
X227705390Y3415607D01*
X227573689Y3327607D01*
X227427350Y3266991D01*
X227349674Y3251540D01*
X227271999Y3236090D01*
X227113601Y3236090D01*
X227035926Y3251540D01*
X226958250Y3266991D01*
X226811911Y3327607D01*
X226680210Y3415607D01*
X226568207Y3527610D01*
X226480207Y3659311D01*
X226419591Y3805650D01*
X226388690Y3961002D01*
X226388690Y4119398D01*
X226419591Y4274750D01*
X226480207Y4421089D01*
X226568207Y4552790D01*
X226680210Y4664793D01*
X226811911Y4752793D01*
X226958250Y4813409D01*
X227066304Y4834902D01*
X227113601Y4844310D01*
X227271999Y4844310D01*
X227319296Y4834902D01*
X227319296Y4834902D01*
G37*
G36*
X216075200Y3286779D02*
G01*
X213873200Y3286779D01*
X213873200Y5588779D01*
X216075200Y5588779D01*
X216075200Y3286779D01*
X216075200Y3286779D01*
G37*
G36*
X126946720Y4402739D02*
G01*
X126121719Y4402739D01*
X126097333Y4400337D01*
X126073884Y4393224D01*
X126052273Y4381673D01*
X126033331Y4366128D01*
X126017786Y4347186D01*
X126006235Y4325575D01*
X125999122Y4302126D01*
X125996720Y4277740D01*
X125996720Y3302739D01*
X124944720Y3302739D01*
X124944720Y4254739D01*
X125719721Y4254739D01*
X125744107Y4257141D01*
X125767556Y4264254D01*
X125789167Y4275805D01*
X125808109Y4291350D01*
X125823654Y4310292D01*
X125835205Y4331903D01*
X125842318Y4355352D01*
X125844720Y4379738D01*
X125844720Y5127740D01*
X125842318Y5152126D01*
X125835205Y5175575D01*
X125823654Y5197186D01*
X125808109Y5216128D01*
X125789167Y5231673D01*
X125767556Y5243224D01*
X125744107Y5250337D01*
X125719721Y5252739D01*
X125394720Y5252739D01*
X125394720Y6754739D01*
X126946720Y6754739D01*
X126946720Y4402739D01*
X126946720Y4402739D01*
G37*
G36*
X117196720Y7052739D02*
G01*
X116471719Y7052739D01*
X116447333Y7050337D01*
X116423884Y7043224D01*
X116402273Y7031673D01*
X116383331Y7016128D01*
X116367786Y6997186D01*
X116356235Y6975575D01*
X116349122Y6952126D01*
X116346720Y6927740D01*
X116346720Y3302739D01*
X115044720Y3302739D01*
X115044720Y7194739D01*
X116369721Y7194739D01*
X116394107Y7197141D01*
X116417556Y7204254D01*
X116439167Y7215805D01*
X116458109Y7231350D01*
X116473654Y7250292D01*
X116485205Y7271903D01*
X116492318Y7295352D01*
X116494720Y7319738D01*
X116494720Y8404739D01*
X117196720Y8404739D01*
X117196720Y7052739D01*
X117196720Y7052739D01*
G37*
G36*
X28362800Y3516980D02*
G01*
X25260800Y3516980D01*
X25260800Y5218980D01*
X28362800Y5218980D01*
X28362800Y3516980D01*
X28362800Y3516980D01*
G37*
G36*
X193631606Y5556891D02*
G01*
X193697036Y5543876D01*
X193881936Y5467288D01*
X194048342Y5356099D01*
X194189859Y5214582D01*
X194301048Y5048176D01*
X194377636Y4863276D01*
X194383280Y4834902D01*
X194416680Y4666989D01*
X194416680Y4466851D01*
X194401820Y4392147D01*
X194377636Y4270564D01*
X194301048Y4085664D01*
X194189859Y3919258D01*
X194048342Y3777741D01*
X193881936Y3666552D01*
X193697036Y3589964D01*
X193631606Y3576949D01*
X193500749Y3550920D01*
X193300611Y3550920D01*
X193169754Y3576949D01*
X193104324Y3589964D01*
X192919424Y3666552D01*
X192753018Y3777741D01*
X192611501Y3919258D01*
X192500312Y4085664D01*
X192423724Y4270564D01*
X192399540Y4392147D01*
X192384680Y4466851D01*
X192384680Y4666989D01*
X192418080Y4834902D01*
X192423724Y4863276D01*
X192500312Y5048176D01*
X192611501Y5214582D01*
X192753018Y5356099D01*
X192919424Y5467288D01*
X193104324Y5543876D01*
X193169754Y5556891D01*
X193300611Y5582920D01*
X193500749Y5582920D01*
X193631606Y5556891D01*
X193631606Y5556891D01*
G37*
G36*
X184470251Y9136558D02*
G01*
X184664609Y9056052D01*
X184939473Y8942200D01*
X185361760Y8660036D01*
X185720886Y8300910D01*
X186003050Y7878623D01*
X186094467Y7657922D01*
X186197408Y7409401D01*
X186296490Y6911282D01*
X186296490Y6403398D01*
X186197408Y5905279D01*
X186149220Y5788944D01*
X186003050Y5436057D01*
X185720886Y5013770D01*
X185361760Y4654644D01*
X184939473Y4372480D01*
X184693425Y4270564D01*
X184470251Y4178122D01*
X183972132Y4079040D01*
X183464248Y4079040D01*
X182966129Y4178122D01*
X182742955Y4270564D01*
X182496907Y4372480D01*
X182074620Y4654644D01*
X181715494Y5013770D01*
X181433330Y5436057D01*
X181287160Y5788944D01*
X181238972Y5905279D01*
X181139890Y6403398D01*
X181139890Y6911282D01*
X181238972Y7409401D01*
X181341913Y7657922D01*
X181433330Y7878623D01*
X181715494Y8300910D01*
X182074620Y8660036D01*
X182496907Y8942200D01*
X182771771Y9056052D01*
X182966129Y9136558D01*
X183464248Y9235640D01*
X183972132Y9235640D01*
X184470251Y9136558D01*
X184470251Y9136558D01*
G37*
G36*
X144008061Y9136558D02*
G01*
X144202419Y9056052D01*
X144477283Y8942200D01*
X144899570Y8660036D01*
X145258696Y8300910D01*
X145540860Y7878623D01*
X145632277Y7657922D01*
X145735218Y7409401D01*
X145834300Y6911282D01*
X145834300Y6403398D01*
X145735218Y5905279D01*
X145687030Y5788944D01*
X145540860Y5436057D01*
X145258696Y5013770D01*
X144899570Y4654644D01*
X144477283Y4372480D01*
X144231235Y4270564D01*
X144008061Y4178122D01*
X143509942Y4079040D01*
X143002058Y4079040D01*
X142503939Y4178122D01*
X142280765Y4270564D01*
X142034717Y4372480D01*
X141612430Y4654644D01*
X141253304Y5013770D01*
X140971140Y5436057D01*
X140824970Y5788944D01*
X140776782Y5905279D01*
X140677700Y6403398D01*
X140677700Y6911282D01*
X140776782Y7409401D01*
X140879723Y7657922D01*
X140971140Y7878623D01*
X141253304Y8300910D01*
X141612430Y8660036D01*
X142034717Y8942200D01*
X142309581Y9056052D01*
X142503939Y9136558D01*
X143002058Y9235640D01*
X143509942Y9235640D01*
X144008061Y9136558D01*
X144008061Y9136558D01*
G37*
G36*
X104079251Y9136558D02*
G01*
X104273609Y9056052D01*
X104548473Y8942200D01*
X104970760Y8660036D01*
X105329886Y8300910D01*
X105612050Y7878623D01*
X105703467Y7657922D01*
X105806408Y7409401D01*
X105905490Y6911282D01*
X105905490Y6403398D01*
X105806408Y5905279D01*
X105758220Y5788944D01*
X105612050Y5436057D01*
X105329886Y5013770D01*
X104970760Y4654644D01*
X104548473Y4372480D01*
X104302425Y4270564D01*
X104079251Y4178122D01*
X103581132Y4079040D01*
X103073248Y4079040D01*
X102575129Y4178122D01*
X102351955Y4270564D01*
X102105907Y4372480D01*
X101683620Y4654644D01*
X101324494Y5013770D01*
X101042330Y5436057D01*
X100896160Y5788944D01*
X100847972Y5905279D01*
X100748890Y6403398D01*
X100748890Y6911282D01*
X100847972Y7409401D01*
X100950913Y7657922D01*
X101042330Y7878623D01*
X101324494Y8300910D01*
X101683620Y8660036D01*
X102105907Y8942200D01*
X102380771Y9056052D01*
X102575129Y9136558D01*
X103073248Y9235640D01*
X103581132Y9235640D01*
X104079251Y9136558D01*
X104079251Y9136558D01*
G37*
G36*
X164239161Y9136558D02*
G01*
X164433519Y9056052D01*
X164708383Y8942200D01*
X165130670Y8660036D01*
X165489796Y8300910D01*
X165771960Y7878623D01*
X165863377Y7657922D01*
X165966318Y7409401D01*
X166065400Y6911282D01*
X166065400Y6403398D01*
X165966318Y5905279D01*
X165918130Y5788944D01*
X165771960Y5436057D01*
X165489796Y5013770D01*
X165130670Y4654644D01*
X164708383Y4372480D01*
X164462335Y4270564D01*
X164239161Y4178122D01*
X163741042Y4079040D01*
X163233158Y4079040D01*
X162735039Y4178122D01*
X162511865Y4270564D01*
X162265817Y4372480D01*
X161843530Y4654644D01*
X161484404Y5013770D01*
X161202240Y5436057D01*
X161056070Y5788944D01*
X161007882Y5905279D01*
X160908800Y6403398D01*
X160908800Y6911282D01*
X161007882Y7409401D01*
X161110823Y7657922D01*
X161202240Y7878623D01*
X161484404Y8300910D01*
X161843530Y8660036D01*
X162265817Y8942200D01*
X162540681Y9056052D01*
X162735039Y9136558D01*
X163233158Y9235640D01*
X163741042Y9235640D01*
X164239161Y9136558D01*
X164239161Y9136558D01*
G37*
G36*
X198163180Y4173220D02*
G01*
X197162420Y4173220D01*
X197162420Y5173980D01*
X198163180Y5173980D01*
X198163180Y4173220D01*
X198163180Y4173220D01*
G37*
G36*
X209689700Y4909820D02*
G01*
X208887060Y4909820D01*
X208887060Y6012180D01*
X209689700Y6012180D01*
X209689700Y4909820D01*
X209689700Y4909820D01*
G37*
G36*
X211188300Y4909820D02*
G01*
X210385660Y4909820D01*
X210385660Y6012180D01*
X211188300Y6012180D01*
X211188300Y4909820D01*
X211188300Y4909820D01*
G37*
G36*
X70173831Y7381927D02*
G01*
X70379057Y7341106D01*
X70604450Y7247745D01*
X70807298Y7112206D01*
X70979806Y6939698D01*
X71115345Y6736850D01*
X71208706Y6511457D01*
X71256300Y6272182D01*
X71256300Y6028218D01*
X71208706Y5788943D01*
X71115345Y5563550D01*
X70979806Y5360702D01*
X70807298Y5188194D01*
X70604450Y5052655D01*
X70379057Y4959294D01*
X70173831Y4918473D01*
X70139783Y4911700D01*
X69895817Y4911700D01*
X69861769Y4918473D01*
X69656543Y4959294D01*
X69431150Y5052655D01*
X69228302Y5188194D01*
X69055794Y5360702D01*
X68920255Y5563550D01*
X68826894Y5788943D01*
X68779300Y6028218D01*
X68779300Y6272182D01*
X68826894Y6511457D01*
X68920255Y6736850D01*
X69055794Y6939698D01*
X69228302Y7112206D01*
X69431150Y7247745D01*
X69656543Y7341106D01*
X69861769Y7381927D01*
X69895817Y7388700D01*
X70139783Y7388700D01*
X70173831Y7381927D01*
X70173831Y7381927D01*
G37*
G36*
X66998831Y7381927D02*
G01*
X67204057Y7341106D01*
X67429450Y7247745D01*
X67632298Y7112206D01*
X67804806Y6939698D01*
X67940345Y6736850D01*
X68033706Y6511457D01*
X68081300Y6272182D01*
X68081300Y6028218D01*
X68033706Y5788943D01*
X67940345Y5563550D01*
X67804806Y5360702D01*
X67632298Y5188194D01*
X67429450Y5052655D01*
X67204057Y4959294D01*
X66998831Y4918473D01*
X66964783Y4911700D01*
X66720817Y4911700D01*
X66686769Y4918473D01*
X66481543Y4959294D01*
X66256150Y5052655D01*
X66053302Y5188194D01*
X65880794Y5360702D01*
X65745255Y5563550D01*
X65651894Y5788943D01*
X65604300Y6028218D01*
X65604300Y6272182D01*
X65651894Y6511457D01*
X65745255Y6736850D01*
X65880794Y6939698D01*
X66053302Y7112206D01*
X66256150Y7247745D01*
X66481543Y7341106D01*
X66686769Y7381927D01*
X66720817Y7388700D01*
X66964783Y7388700D01*
X66998831Y7381927D01*
X66998831Y7381927D01*
G37*
G36*
X33468310Y5683250D02*
G01*
X32566610Y5683250D01*
X32566610Y7184390D01*
X33468310Y7184390D01*
X33468310Y5683250D01*
X33468310Y5683250D01*
G37*
G36*
X31568390Y5683250D02*
G01*
X30666690Y5683250D01*
X30666690Y7184390D01*
X31568390Y7184390D01*
X31568390Y5683250D01*
X31568390Y5683250D01*
G37*
G36*
X129755900Y5864860D02*
G01*
X128953260Y5864860D01*
X128953260Y6967220D01*
X129755900Y6967220D01*
X129755900Y5864860D01*
X129755900Y5864860D01*
G37*
G36*
X131254500Y5864860D02*
G01*
X130451860Y5864860D01*
X130451860Y6967220D01*
X131254500Y6967220D01*
X131254500Y5864860D01*
X131254500Y5864860D01*
G37*
G36*
X39128700Y6286500D02*
G01*
X38026340Y6286500D01*
X38026340Y7089140D01*
X39128700Y7089140D01*
X39128700Y6286500D01*
X39128700Y6286500D01*
G37*
G36*
X27362800Y6416980D02*
G01*
X21760800Y6416980D01*
X21760800Y7518980D01*
X27362800Y7518980D01*
X27362800Y6416980D01*
X27362800Y6416980D01*
G37*
G36*
X41561100Y6479140D02*
G01*
X40421100Y6479140D01*
X40421100Y8969140D01*
X41561100Y8969140D01*
X41561100Y6479140D01*
X41561100Y6479140D01*
G37*
G36*
X45761100Y6479140D02*
G01*
X44621100Y6479140D01*
X44621100Y8969140D01*
X45761100Y8969140D01*
X45761100Y6479140D01*
X45761100Y6479140D01*
G37*
G36*
X195800980Y6616700D02*
G01*
X194099180Y6616700D01*
X194099180Y7719060D01*
X195800980Y7719060D01*
X195800980Y6616700D01*
X195800980Y6616700D01*
G37*
G36*
X192702180Y6616700D02*
G01*
X191000380Y6616700D01*
X191000380Y7719060D01*
X192702180Y7719060D01*
X192702180Y6616700D01*
X192702180Y6616700D01*
G37*
G36*
X44082100Y6683140D02*
G01*
X42100100Y6683140D01*
X42100100Y8765140D01*
X44082100Y8765140D01*
X44082100Y6683140D01*
X44082100Y6683140D01*
G37*
G36*
X202060810Y6742430D02*
G01*
X201159110Y6742430D01*
X201159110Y8243570D01*
X202060810Y8243570D01*
X202060810Y6742430D01*
X202060810Y6742430D01*
G37*
G36*
X200160890Y6742430D02*
G01*
X199259190Y6742430D01*
X199259190Y8243570D01*
X200160890Y8243570D01*
X200160890Y6742430D01*
X200160890Y6742430D01*
G37*
G36*
X49791620Y6893560D02*
G01*
X48988980Y6893560D01*
X48988980Y7995920D01*
X49791620Y7995920D01*
X49791620Y6893560D01*
X49791620Y6893560D01*
G37*
G36*
X48293020Y6893560D02*
G01*
X47490380Y6893560D01*
X47490380Y7995920D01*
X48293020Y7995920D01*
X48293020Y6893560D01*
X48293020Y6893560D01*
G37*
G36*
X123796720Y7052739D02*
G01*
X123094720Y7052739D01*
X123094720Y8404739D01*
X123796720Y8404739D01*
X123796720Y7052739D01*
X123796720Y7052739D01*
G37*
G36*
X124896720Y7052739D02*
G01*
X124194720Y7052739D01*
X124194720Y8404739D01*
X124896720Y8404739D01*
X124896720Y7052739D01*
X124896720Y7052739D01*
G37*
G36*
X122696720Y7052739D02*
G01*
X121994720Y7052739D01*
X121994720Y8404739D01*
X122696720Y8404739D01*
X122696720Y7052739D01*
X122696720Y7052739D01*
G37*
G36*
X121596720Y7052739D02*
G01*
X120894720Y7052739D01*
X120894720Y8404739D01*
X121596720Y8404739D01*
X121596720Y7052739D01*
X121596720Y7052739D01*
G37*
G36*
X120496720Y7052739D02*
G01*
X119794720Y7052739D01*
X119794720Y8404739D01*
X120496720Y8404739D01*
X120496720Y7052739D01*
X120496720Y7052739D01*
G37*
G36*
X119396720Y7052739D02*
G01*
X118694720Y7052739D01*
X118694720Y8404739D01*
X119396720Y8404739D01*
X119396720Y7052739D01*
X119396720Y7052739D01*
G37*
G36*
X118296720Y7052739D02*
G01*
X117594720Y7052739D01*
X117594720Y8404739D01*
X118296720Y8404739D01*
X118296720Y7052739D01*
X118296720Y7052739D01*
G37*
G36*
X212389720Y7068820D02*
G01*
X211587080Y7068820D01*
X211587080Y8171180D01*
X212389720Y8171180D01*
X212389720Y7068820D01*
X212389720Y7068820D01*
G37*
G36*
X210891120Y7068820D02*
G01*
X210088480Y7068820D01*
X210088480Y8171180D01*
X210891120Y8171180D01*
X210891120Y7068820D01*
X210891120Y7068820D01*
G37*
G36*
X72082208Y8199699D02*
G01*
X72168061Y8164137D01*
X72181665Y8158502D01*
X72217670Y8134444D01*
X72271172Y8098695D01*
X72347295Y8022572D01*
X72407103Y7933063D01*
X72448299Y7833608D01*
X72469300Y7728027D01*
X72469300Y7620373D01*
X72448299Y7514792D01*
X72407103Y7415337D01*
X72407102Y7415335D01*
X72403137Y7409401D01*
X72347295Y7325828D01*
X72271172Y7249705D01*
X72243702Y7231350D01*
X72181665Y7189898D01*
X72181664Y7189897D01*
X72181663Y7189897D01*
X72082208Y7148701D01*
X71976627Y7127700D01*
X71868973Y7127700D01*
X71763392Y7148701D01*
X71663937Y7189897D01*
X71663936Y7189897D01*
X71663935Y7189898D01*
X71601898Y7231350D01*
X71574428Y7249705D01*
X71498305Y7325828D01*
X71442463Y7409401D01*
X71438498Y7415335D01*
X71438497Y7415337D01*
X71397301Y7514792D01*
X71376300Y7620373D01*
X71376300Y7728027D01*
X71397301Y7833608D01*
X71438497Y7933063D01*
X71498305Y8022572D01*
X71574428Y8098695D01*
X71627930Y8134444D01*
X71663935Y8158502D01*
X71677539Y8164137D01*
X71763392Y8199699D01*
X71868973Y8220700D01*
X71976627Y8220700D01*
X72082208Y8199699D01*
X72082208Y8199699D01*
G37*
G36*
X88813861Y12616358D02*
G01*
X89008219Y12535852D01*
X89283083Y12422000D01*
X89705370Y12139836D01*
X90064496Y11780710D01*
X90346660Y11358423D01*
X90450298Y11108218D01*
X90541018Y10889201D01*
X90640100Y10391082D01*
X90640100Y9883198D01*
X90541018Y9385079D01*
X90470858Y9215699D01*
X90346660Y8915857D01*
X90064496Y8493570D01*
X89705370Y8134444D01*
X89283083Y7852280D01*
X89008219Y7738428D01*
X88813861Y7657922D01*
X88315742Y7558840D01*
X87807858Y7558840D01*
X87309739Y7657922D01*
X87115381Y7738428D01*
X86840517Y7852280D01*
X86418230Y8134444D01*
X86059104Y8493570D01*
X85776940Y8915857D01*
X85652742Y9215699D01*
X85582582Y9385079D01*
X85483500Y9883198D01*
X85483500Y10391082D01*
X85582582Y10889201D01*
X85673302Y11108218D01*
X85776940Y11358423D01*
X86059104Y11780710D01*
X86418230Y12139836D01*
X86840517Y12422000D01*
X87115381Y12535852D01*
X87309739Y12616358D01*
X87807858Y12715440D01*
X88315742Y12715440D01*
X88813861Y12616358D01*
X88813861Y12616358D01*
G37*
G36*
X254107715Y10180317D02*
G01*
X254235322Y10154935D01*
X254353461Y10106000D01*
X254475727Y10055356D01*
X254531501Y10018089D01*
X254692089Y9910788D01*
X254876088Y9726789D01*
X254958040Y9604138D01*
X255020656Y9510427D01*
X255046789Y9447335D01*
X255120235Y9270022D01*
X255135049Y9195544D01*
X255171000Y9014809D01*
X255171000Y8754591D01*
X255168898Y8744026D01*
X255120235Y8499378D01*
X255091141Y8429140D01*
X255020656Y8258973D01*
X255020655Y8258972D01*
X254876088Y8042611D01*
X254692089Y7858612D01*
X254600409Y7797354D01*
X254475727Y7714044D01*
X254376148Y7672797D01*
X254235322Y7614465D01*
X254107715Y7589083D01*
X253980109Y7563700D01*
X253719891Y7563700D01*
X253592285Y7589083D01*
X253464678Y7614465D01*
X253323852Y7672797D01*
X253224273Y7714044D01*
X253099591Y7797354D01*
X253007911Y7858612D01*
X252823912Y8042611D01*
X252679345Y8258972D01*
X252679344Y8258973D01*
X252608859Y8429140D01*
X252579765Y8499378D01*
X252531102Y8744026D01*
X252529000Y8754591D01*
X252529000Y9014809D01*
X252564951Y9195544D01*
X252579765Y9270022D01*
X252653211Y9447335D01*
X252679344Y9510427D01*
X252741960Y9604138D01*
X252823912Y9726789D01*
X253007911Y9910788D01*
X253168499Y10018089D01*
X253224273Y10055356D01*
X253346539Y10106000D01*
X253464678Y10154935D01*
X253592286Y10180318D01*
X253719891Y10205700D01*
X253980109Y10205700D01*
X254107715Y10180317D01*
X254107715Y10180317D01*
G37*
G36*
X247757715Y10180317D02*
G01*
X247885322Y10154935D01*
X248003461Y10106000D01*
X248125727Y10055356D01*
X248181501Y10018089D01*
X248342089Y9910788D01*
X248526088Y9726789D01*
X248608040Y9604138D01*
X248670656Y9510427D01*
X248696789Y9447335D01*
X248770235Y9270022D01*
X248785049Y9195544D01*
X248821000Y9014809D01*
X248821000Y8754591D01*
X248818898Y8744026D01*
X248770235Y8499378D01*
X248741141Y8429140D01*
X248670656Y8258973D01*
X248670655Y8258972D01*
X248526088Y8042611D01*
X248342089Y7858612D01*
X248250409Y7797354D01*
X248125727Y7714044D01*
X248026148Y7672797D01*
X247885322Y7614465D01*
X247757715Y7589083D01*
X247630109Y7563700D01*
X247369891Y7563700D01*
X247242285Y7589083D01*
X247114678Y7614465D01*
X246973852Y7672797D01*
X246874273Y7714044D01*
X246749591Y7797354D01*
X246657911Y7858612D01*
X246473912Y8042611D01*
X246329345Y8258972D01*
X246329344Y8258973D01*
X246258859Y8429140D01*
X246229765Y8499378D01*
X246181102Y8744026D01*
X246179000Y8754591D01*
X246179000Y9014809D01*
X246214951Y9195544D01*
X246229765Y9270022D01*
X246303211Y9447335D01*
X246329344Y9510427D01*
X246391960Y9604138D01*
X246473912Y9726789D01*
X246657911Y9910788D01*
X246818499Y10018089D01*
X246874273Y10055356D01*
X246996539Y10106000D01*
X247114678Y10154935D01*
X247242286Y10180318D01*
X247369891Y10205700D01*
X247630109Y10205700D01*
X247757715Y10180317D01*
X247757715Y10180317D01*
G37*
G36*
X241407715Y10180317D02*
G01*
X241535322Y10154935D01*
X241653461Y10106000D01*
X241775727Y10055356D01*
X241831501Y10018089D01*
X241992089Y9910788D01*
X242176088Y9726789D01*
X242258040Y9604138D01*
X242320656Y9510427D01*
X242346789Y9447335D01*
X242420235Y9270022D01*
X242435049Y9195544D01*
X242471000Y9014809D01*
X242471000Y8754591D01*
X242468898Y8744026D01*
X242420235Y8499378D01*
X242391141Y8429140D01*
X242320656Y8258973D01*
X242320655Y8258972D01*
X242176088Y8042611D01*
X241992089Y7858612D01*
X241900409Y7797354D01*
X241775727Y7714044D01*
X241676148Y7672797D01*
X241535322Y7614465D01*
X241407715Y7589083D01*
X241280109Y7563700D01*
X241019891Y7563700D01*
X240892285Y7589083D01*
X240764678Y7614465D01*
X240623852Y7672797D01*
X240524273Y7714044D01*
X240399591Y7797354D01*
X240307911Y7858612D01*
X240123912Y8042611D01*
X239979345Y8258972D01*
X239979344Y8258973D01*
X239908859Y8429140D01*
X239879765Y8499378D01*
X239831102Y8744026D01*
X239829000Y8754591D01*
X239829000Y9014809D01*
X239864951Y9195544D01*
X239879765Y9270022D01*
X239953211Y9447335D01*
X239979344Y9510427D01*
X240041960Y9604138D01*
X240123912Y9726789D01*
X240307911Y9910788D01*
X240468499Y10018089D01*
X240524273Y10055356D01*
X240646539Y10106000D01*
X240764678Y10154935D01*
X240892286Y10180318D01*
X241019891Y10205700D01*
X241280109Y10205700D01*
X241407715Y10180317D01*
X241407715Y10180317D01*
G37*
G36*
X70782456Y8482619D02*
G01*
X70863348Y8449112D01*
X70863350Y8449111D01*
X70911437Y8416980D01*
X70936152Y8400466D01*
X70998066Y8338552D01*
X71046712Y8265748D01*
X71080219Y8184856D01*
X71097300Y8098981D01*
X71097300Y8011419D01*
X71080219Y7925544D01*
X71046712Y7844652D01*
X71046711Y7844650D01*
X70998066Y7771848D01*
X70936152Y7709934D01*
X70863350Y7661289D01*
X70863349Y7661288D01*
X70863348Y7661288D01*
X70782456Y7627781D01*
X70696581Y7610700D01*
X70609019Y7610700D01*
X70523144Y7627781D01*
X70442252Y7661288D01*
X70442251Y7661288D01*
X70442250Y7661289D01*
X70369448Y7709934D01*
X70307534Y7771848D01*
X70258889Y7844650D01*
X70258888Y7844652D01*
X70225381Y7925544D01*
X70208300Y8011419D01*
X70208300Y8098981D01*
X70225381Y8184856D01*
X70258888Y8265748D01*
X70307534Y8338552D01*
X70369448Y8400466D01*
X70394163Y8416980D01*
X70442250Y8449111D01*
X70442252Y8449112D01*
X70523144Y8482619D01*
X70609019Y8499700D01*
X70696581Y8499700D01*
X70782456Y8482619D01*
X70782456Y8482619D01*
G37*
G36*
X69512456Y8482619D02*
G01*
X69593348Y8449112D01*
X69593350Y8449111D01*
X69641437Y8416980D01*
X69666152Y8400466D01*
X69728066Y8338552D01*
X69776712Y8265748D01*
X69810219Y8184856D01*
X69827300Y8098981D01*
X69827300Y8011419D01*
X69810219Y7925544D01*
X69776712Y7844652D01*
X69776711Y7844650D01*
X69728066Y7771848D01*
X69666152Y7709934D01*
X69593350Y7661289D01*
X69593349Y7661288D01*
X69593348Y7661288D01*
X69512456Y7627781D01*
X69426581Y7610700D01*
X69339019Y7610700D01*
X69253144Y7627781D01*
X69172252Y7661288D01*
X69172251Y7661288D01*
X69172250Y7661289D01*
X69099448Y7709934D01*
X69037534Y7771848D01*
X68988889Y7844650D01*
X68988888Y7844652D01*
X68955381Y7925544D01*
X68938300Y8011419D01*
X68938300Y8098981D01*
X68955381Y8184856D01*
X68988888Y8265748D01*
X69037534Y8338552D01*
X69099448Y8400466D01*
X69124163Y8416980D01*
X69172250Y8449111D01*
X69172252Y8449112D01*
X69253144Y8482619D01*
X69339019Y8499700D01*
X69426581Y8499700D01*
X69512456Y8482619D01*
X69512456Y8482619D01*
G37*
G36*
X68242456Y8482619D02*
G01*
X68323348Y8449112D01*
X68323350Y8449111D01*
X68371437Y8416980D01*
X68396152Y8400466D01*
X68458066Y8338552D01*
X68506712Y8265748D01*
X68540219Y8184856D01*
X68557300Y8098981D01*
X68557300Y8011419D01*
X68540219Y7925544D01*
X68506712Y7844652D01*
X68506711Y7844650D01*
X68458066Y7771848D01*
X68396152Y7709934D01*
X68323350Y7661289D01*
X68323349Y7661288D01*
X68323348Y7661288D01*
X68242456Y7627781D01*
X68156581Y7610700D01*
X68069019Y7610700D01*
X67983144Y7627781D01*
X67902252Y7661288D01*
X67902251Y7661288D01*
X67902250Y7661289D01*
X67829448Y7709934D01*
X67767534Y7771848D01*
X67718889Y7844650D01*
X67718888Y7844652D01*
X67685381Y7925544D01*
X67668300Y8011419D01*
X67668300Y8098981D01*
X67685381Y8184856D01*
X67718888Y8265748D01*
X67767534Y8338552D01*
X67829448Y8400466D01*
X67854163Y8416980D01*
X67902250Y8449111D01*
X67902252Y8449112D01*
X67983144Y8482619D01*
X68069019Y8499700D01*
X68156581Y8499700D01*
X68242456Y8482619D01*
X68242456Y8482619D01*
G37*
G36*
X39128700Y7785100D02*
G01*
X38026340Y7785100D01*
X38026340Y8587740D01*
X39128700Y8587740D01*
X39128700Y7785100D01*
X39128700Y7785100D01*
G37*
G36*
X195800980Y8115300D02*
G01*
X194099180Y8115300D01*
X194099180Y9217660D01*
X195800980Y9217660D01*
X195800980Y8115300D01*
X195800980Y8115300D01*
G37*
G36*
X192702180Y8115300D02*
G01*
X191000380Y8115300D01*
X191000380Y9217660D01*
X192702180Y9217660D01*
X192702180Y8115300D01*
X192702180Y8115300D01*
G37*
G36*
X67002208Y9215699D02*
G01*
X67101663Y9174503D01*
X67101665Y9174502D01*
X67191173Y9114694D01*
X67267294Y9038573D01*
X67321976Y8956737D01*
X67327103Y8949063D01*
X67368299Y8849608D01*
X67389300Y8744027D01*
X67389300Y8636373D01*
X67368299Y8530792D01*
X67327103Y8431337D01*
X67267295Y8341828D01*
X67191172Y8265705D01*
X67158045Y8243570D01*
X67101665Y8205898D01*
X67101664Y8205897D01*
X67101663Y8205897D01*
X67002208Y8164701D01*
X66896627Y8143700D01*
X66788973Y8143700D01*
X66683392Y8164701D01*
X66583937Y8205897D01*
X66583936Y8205897D01*
X66583935Y8205898D01*
X66527555Y8243570D01*
X66494428Y8265705D01*
X66418305Y8341828D01*
X66358497Y8431337D01*
X66317301Y8530792D01*
X66296300Y8636373D01*
X66296300Y8744027D01*
X66317301Y8849608D01*
X66358497Y8949063D01*
X66363625Y8956737D01*
X66418306Y9038573D01*
X66494427Y9114694D01*
X66583935Y9174502D01*
X66583937Y9174503D01*
X66683392Y9215699D01*
X66788973Y9236700D01*
X66896627Y9236700D01*
X67002208Y9215699D01*
X67002208Y9215699D01*
G37*
G36*
X27362800Y8416980D02*
G01*
X21760800Y8416980D01*
X21760800Y9518980D01*
X27362800Y9518980D01*
X27362800Y8416980D01*
X27362800Y8416980D01*
G37*
G36*
X76359620Y8564220D02*
G01*
X75207620Y8564220D01*
X75207620Y9316220D01*
X76359620Y9316220D01*
X76359620Y8564220D01*
X76359620Y8564220D01*
G37*
G36*
X80509620Y8564220D02*
G01*
X79357620Y8564220D01*
X79357620Y9316220D01*
X80509620Y9316220D01*
X80509620Y8564220D01*
X80509620Y8564220D01*
G37*
G36*
X201442320Y8872220D02*
G01*
X200639680Y8872220D01*
X200639680Y9974580D01*
X201442320Y9974580D01*
X201442320Y8872220D01*
X201442320Y8872220D01*
G37*
G36*
X199943720Y8872220D02*
G01*
X199141080Y8872220D01*
X199141080Y9974580D01*
X199943720Y9974580D01*
X199943720Y8872220D01*
X199943720Y8872220D01*
G37*
G36*
X49804320Y8874760D02*
G01*
X49001680Y8874760D01*
X49001680Y9977120D01*
X49804320Y9977120D01*
X49804320Y8874760D01*
X49804320Y8874760D01*
G37*
G36*
X48305720Y8874760D02*
G01*
X47503080Y8874760D01*
X47503080Y9977120D01*
X48305720Y9977120D01*
X48305720Y8874760D01*
X48305720Y8874760D01*
G37*
G36*
X68242456Y9752619D02*
G01*
X68323348Y9719112D01*
X68323350Y9719111D01*
X68396152Y9670466D01*
X68458066Y9608552D01*
X68502914Y9541433D01*
X68506712Y9535748D01*
X68540219Y9454856D01*
X68557300Y9368981D01*
X68557300Y9281419D01*
X68540219Y9195544D01*
X68515785Y9136557D01*
X68506711Y9114650D01*
X68458066Y9041848D01*
X68396152Y8979934D01*
X68323350Y8931289D01*
X68323349Y8931288D01*
X68323348Y8931288D01*
X68242456Y8897781D01*
X68156581Y8880700D01*
X68069019Y8880700D01*
X67983144Y8897781D01*
X67902252Y8931288D01*
X67902251Y8931288D01*
X67902250Y8931289D01*
X67829448Y8979934D01*
X67767534Y9041848D01*
X67718889Y9114650D01*
X67709815Y9136557D01*
X67685381Y9195544D01*
X67668300Y9281419D01*
X67668300Y9368981D01*
X67685381Y9454856D01*
X67718888Y9535748D01*
X67722687Y9541433D01*
X67767534Y9608552D01*
X67829448Y9670466D01*
X67902250Y9719111D01*
X67902252Y9719112D01*
X67983144Y9752619D01*
X68069019Y9769700D01*
X68156581Y9769700D01*
X68242456Y9752619D01*
X68242456Y9752619D01*
G37*
G36*
X69512456Y9752619D02*
G01*
X69593348Y9719112D01*
X69593350Y9719111D01*
X69666152Y9670466D01*
X69728066Y9608552D01*
X69772914Y9541433D01*
X69776712Y9535748D01*
X69810219Y9454856D01*
X69827300Y9368981D01*
X69827300Y9281419D01*
X69810219Y9195544D01*
X69785785Y9136557D01*
X69776711Y9114650D01*
X69728066Y9041848D01*
X69666152Y8979934D01*
X69593350Y8931289D01*
X69593349Y8931288D01*
X69593348Y8931288D01*
X69512456Y8897781D01*
X69426581Y8880700D01*
X69339019Y8880700D01*
X69253144Y8897781D01*
X69172252Y8931288D01*
X69172251Y8931288D01*
X69172250Y8931289D01*
X69099448Y8979934D01*
X69037534Y9041848D01*
X68988889Y9114650D01*
X68979815Y9136557D01*
X68955381Y9195544D01*
X68938300Y9281419D01*
X68938300Y9368981D01*
X68955381Y9454856D01*
X68988888Y9535748D01*
X68992687Y9541433D01*
X69037534Y9608552D01*
X69099448Y9670466D01*
X69172250Y9719111D01*
X69172252Y9719112D01*
X69253144Y9752619D01*
X69339019Y9769700D01*
X69426581Y9769700D01*
X69512456Y9752619D01*
X69512456Y9752619D01*
G37*
G36*
X70782456Y9752619D02*
G01*
X70863348Y9719112D01*
X70863350Y9719111D01*
X70936152Y9670466D01*
X70998066Y9608552D01*
X71042914Y9541433D01*
X71046712Y9535748D01*
X71080219Y9454856D01*
X71097300Y9368981D01*
X71097300Y9281419D01*
X71080219Y9195544D01*
X71055785Y9136557D01*
X71046711Y9114650D01*
X70998066Y9041848D01*
X70936152Y8979934D01*
X70863350Y8931289D01*
X70863349Y8931288D01*
X70863348Y8931288D01*
X70782456Y8897781D01*
X70696581Y8880700D01*
X70609019Y8880700D01*
X70523144Y8897781D01*
X70442252Y8931288D01*
X70442251Y8931288D01*
X70442250Y8931289D01*
X70369448Y8979934D01*
X70307534Y9041848D01*
X70258889Y9114650D01*
X70249815Y9136557D01*
X70225381Y9195544D01*
X70208300Y9281419D01*
X70208300Y9368981D01*
X70225381Y9454856D01*
X70258888Y9535748D01*
X70262687Y9541433D01*
X70307534Y9608552D01*
X70369448Y9670466D01*
X70442250Y9719111D01*
X70442252Y9719112D01*
X70523144Y9752619D01*
X70609019Y9769700D01*
X70696581Y9769700D01*
X70782456Y9752619D01*
X70782456Y9752619D01*
G37*
G36*
X204558148Y9557090D02*
G01*
X204582652Y9557090D01*
X204587228Y9558000D01*
X207704450Y9558000D01*
X207722399Y9556232D01*
X207734651Y9556834D01*
X207755140Y9558852D01*
X207892860Y9558852D01*
X207908999Y9557263D01*
X207918608Y9554348D01*
X207927472Y9549610D01*
X207934051Y9544211D01*
X207934053Y9544209D01*
X207935237Y9543237D01*
X207942944Y9533366D01*
X207944357Y9531011D01*
X207947405Y9527107D01*
X208090302Y9288944D01*
X208092943Y9283368D01*
X208092944Y9283366D01*
X208093865Y9281421D01*
X208097245Y9274284D01*
X208100062Y9263057D01*
X208100852Y9252385D01*
X208100852Y9013140D01*
X208099263Y8997001D01*
X208096348Y8987392D01*
X208091610Y8978528D01*
X208085237Y8970763D01*
X208077472Y8964390D01*
X208068608Y8959652D01*
X208058999Y8956737D01*
X208042860Y8955148D01*
X207755140Y8955148D01*
X207734651Y8957166D01*
X207710147Y8957166D01*
X207704285Y8956000D01*
X204585751Y8956000D01*
X204570401Y8957512D01*
X204558148Y8956910D01*
X204540259Y8955148D01*
X204252540Y8955148D01*
X204236401Y8956737D01*
X204226792Y8959652D01*
X204217928Y8964390D01*
X204210163Y8970763D01*
X204203790Y8978528D01*
X204199052Y8987392D01*
X204196137Y8997001D01*
X204194548Y9013140D01*
X204194548Y9250860D01*
X204196137Y9266999D01*
X204199497Y9278075D01*
X204204313Y9287637D01*
X204348779Y9528414D01*
X204358444Y9541434D01*
X204365889Y9548174D01*
X204365888Y9548174D01*
X204365891Y9548176D01*
X204374510Y9553337D01*
X204383971Y9556717D01*
X204396400Y9558247D01*
X204399153Y9558247D01*
X204404068Y9558852D01*
X204540259Y9558852D01*
X204558148Y9557090D01*
X204558148Y9557090D01*
G37*
G36*
X33468310Y8985250D02*
G01*
X32566610Y8985250D01*
X32566610Y10486390D01*
X33468310Y10486390D01*
X33468310Y8985250D01*
X33468310Y8985250D01*
G37*
G36*
X31568390Y8985250D02*
G01*
X30666690Y8985250D01*
X30666690Y10486390D01*
X31568390Y10486390D01*
X31568390Y8985250D01*
X31568390Y8985250D01*
G37*
G36*
X214359380Y9113520D02*
G01*
X213206220Y9113520D01*
X213206220Y11866880D01*
X214359380Y11866880D01*
X214359380Y9113520D01*
X214359380Y9113520D01*
G37*
G36*
X211463780Y9113520D02*
G01*
X210310620Y9113520D01*
X210310620Y11866880D01*
X211463780Y11866880D01*
X211463780Y9113520D01*
X211463780Y9113520D01*
G37*
G36*
X72082208Y10231699D02*
G01*
X72175586Y10193020D01*
X72181665Y10190502D01*
X72226723Y10160395D01*
X72271172Y10130695D01*
X72347295Y10054572D01*
X72407103Y9965063D01*
X72448299Y9865608D01*
X72469300Y9760027D01*
X72469300Y9652373D01*
X72448299Y9546792D01*
X72407103Y9447337D01*
X72347295Y9357828D01*
X72271172Y9281705D01*
X72253687Y9270022D01*
X72181665Y9221898D01*
X72181664Y9221897D01*
X72181663Y9221897D01*
X72082208Y9180701D01*
X71976627Y9159700D01*
X71868973Y9159700D01*
X71763392Y9180701D01*
X71663937Y9221897D01*
X71663936Y9221897D01*
X71663935Y9221898D01*
X71591913Y9270022D01*
X71574428Y9281705D01*
X71498305Y9357828D01*
X71438497Y9447337D01*
X71397301Y9546792D01*
X71376300Y9652373D01*
X71376300Y9760027D01*
X71397301Y9865608D01*
X71438497Y9965063D01*
X71498305Y10054572D01*
X71574428Y10130695D01*
X71618877Y10160395D01*
X71663935Y10190502D01*
X71670014Y10193020D01*
X71763392Y10231699D01*
X71868973Y10252700D01*
X71976627Y10252700D01*
X72082208Y10231699D01*
X72082208Y10231699D01*
G37*
G36*
X15232380Y9390380D02*
G01*
X14130020Y9390380D01*
X14130020Y10193020D01*
X15232380Y10193020D01*
X15232380Y9390380D01*
X15232380Y9390380D01*
G37*
G36*
X208705099Y13507323D02*
G01*
X208714708Y13504408D01*
X208723572Y13499670D01*
X208731337Y13493297D01*
X208737710Y13485532D01*
X208742448Y13476668D01*
X208745363Y13467059D01*
X208746952Y13450920D01*
X208746952Y13163201D01*
X208745184Y13145252D01*
X208745184Y13120748D01*
X208747400Y13109606D01*
X208747400Y10018089D01*
X208749802Y9993703D01*
X208752783Y9981803D01*
X208758063Y9964399D01*
X208759652Y9948260D01*
X208759652Y9660540D01*
X208758063Y9644401D01*
X208755148Y9634792D01*
X208750410Y9625928D01*
X208744037Y9618163D01*
X208736272Y9611790D01*
X208727408Y9607052D01*
X208717799Y9604137D01*
X208701660Y9602548D01*
X208463940Y9602548D01*
X208447801Y9604137D01*
X208436725Y9607497D01*
X208427163Y9612313D01*
X208186386Y9756779D01*
X208173366Y9766444D01*
X208166626Y9773889D01*
X208166624Y9773891D01*
X208161463Y9782510D01*
X208158083Y9791971D01*
X208156553Y9804400D01*
X208156553Y9807153D01*
X208155948Y9812068D01*
X208155948Y9948260D01*
X208157966Y9968749D01*
X208157966Y9993253D01*
X208153186Y10017286D01*
X208145400Y10036082D01*
X208145400Y13130786D01*
X208145618Y13132999D01*
X208145016Y13145252D01*
X208143248Y13163201D01*
X208143248Y13300920D01*
X208144837Y13317059D01*
X208147752Y13326668D01*
X208152490Y13335532D01*
X208157889Y13342111D01*
X208157891Y13342113D01*
X208158863Y13343297D01*
X208168734Y13351004D01*
X208171089Y13352417D01*
X208174993Y13355465D01*
X208413156Y13498362D01*
X208418732Y13501003D01*
X208418734Y13501004D01*
X208421472Y13502300D01*
X208427816Y13505305D01*
X208439043Y13508122D01*
X208449715Y13508912D01*
X208688960Y13508912D01*
X208705099Y13507323D01*
X208705099Y13507323D01*
G37*
G36*
X203855159Y13507323D02*
G01*
X203866235Y13503963D01*
X203875797Y13499147D01*
X204116574Y13354681D01*
X204129594Y13345016D01*
X204135262Y13338755D01*
X204136336Y13337569D01*
X204141497Y13328950D01*
X204144877Y13319489D01*
X204146407Y13307060D01*
X204146407Y13304307D01*
X204147012Y13299392D01*
X204147012Y13163201D01*
X204145244Y13145252D01*
X204145244Y13120748D01*
X204147400Y13109908D01*
X204147400Y10006561D01*
X204147044Y10005387D01*
X204144642Y9981001D01*
X204145244Y9968748D01*
X204147012Y9950799D01*
X204147012Y9813080D01*
X204145423Y9796941D01*
X204142508Y9787332D01*
X204137770Y9778468D01*
X204132371Y9771889D01*
X204132369Y9771887D01*
X204131397Y9770703D01*
X204121526Y9762996D01*
X204119171Y9761583D01*
X204115267Y9758535D01*
X203877104Y9615638D01*
X203871528Y9612997D01*
X203871526Y9612996D01*
X203868979Y9611790D01*
X203862444Y9608695D01*
X203851217Y9605878D01*
X203840545Y9605088D01*
X203601300Y9605088D01*
X203585161Y9606677D01*
X203575552Y9609592D01*
X203566688Y9614330D01*
X203558923Y9620703D01*
X203552550Y9628468D01*
X203547812Y9637332D01*
X203544897Y9646941D01*
X203543308Y9663080D01*
X203543308Y9950799D01*
X203545076Y9968748D01*
X203545076Y9981001D01*
X203545400Y9981001D01*
X203545400Y13130177D01*
X203545678Y13132999D01*
X203545076Y13145252D01*
X203543308Y13163201D01*
X203543308Y13450920D01*
X203544897Y13467059D01*
X203547812Y13476668D01*
X203552550Y13485532D01*
X203558923Y13493297D01*
X203566688Y13499670D01*
X203575552Y13504408D01*
X203585161Y13507323D01*
X203601300Y13508912D01*
X203839020Y13508912D01*
X203855159Y13507323D01*
X203855159Y13507323D01*
G37*
G36*
X219272312Y11456296D02*
G01*
X219427184Y11392146D01*
X219566565Y11299014D01*
X219685099Y11180480D01*
X219778231Y11041099D01*
X219842381Y10886227D01*
X219875084Y10721815D01*
X219875084Y10554183D01*
X219842381Y10389771D01*
X219778231Y10234899D01*
X219685099Y10095518D01*
X219566565Y9976984D01*
X219427184Y9883852D01*
X219272312Y9819702D01*
X219107900Y9786999D01*
X218940268Y9786999D01*
X218775856Y9819702D01*
X218620984Y9883852D01*
X218481603Y9976984D01*
X218363069Y10095518D01*
X218269937Y10234899D01*
X218205787Y10389771D01*
X218173084Y10554183D01*
X218173084Y10721815D01*
X218205787Y10886227D01*
X218269937Y11041099D01*
X218363069Y11180480D01*
X218481603Y11299014D01*
X218620984Y11392146D01*
X218775856Y11456296D01*
X218940268Y11488999D01*
X219107900Y11488999D01*
X219272312Y11456296D01*
X219272312Y11456296D01*
G37*
G36*
X207797400Y9906000D02*
G01*
X204495400Y9906000D01*
X204495400Y13208000D01*
X207797400Y13208000D01*
X207797400Y9906000D01*
X207797400Y9906000D01*
G37*
G36*
X66998831Y12461927D02*
G01*
X67204057Y12421106D01*
X67429450Y12327745D01*
X67632298Y12192206D01*
X67804806Y12019698D01*
X67940345Y11816850D01*
X68033706Y11591457D01*
X68081300Y11352182D01*
X68081300Y11108218D01*
X68033706Y10868943D01*
X67940345Y10643550D01*
X67804806Y10440702D01*
X67632298Y10268194D01*
X67429450Y10132655D01*
X67204057Y10039294D01*
X67015287Y10001746D01*
X66964783Y9991700D01*
X66720817Y9991700D01*
X66670313Y10001746D01*
X66481543Y10039294D01*
X66256150Y10132655D01*
X66053302Y10268194D01*
X65880794Y10440702D01*
X65745255Y10643550D01*
X65651894Y10868943D01*
X65604300Y11108218D01*
X65604300Y11352182D01*
X65651894Y11591457D01*
X65745255Y11816850D01*
X65880794Y12019698D01*
X66053302Y12192206D01*
X66256150Y12327745D01*
X66481543Y12421106D01*
X66686769Y12461927D01*
X66720817Y12468700D01*
X66964783Y12468700D01*
X66998831Y12461927D01*
X66998831Y12461927D01*
G37*
G36*
X70173831Y12461927D02*
G01*
X70379057Y12421106D01*
X70604450Y12327745D01*
X70807298Y12192206D01*
X70979806Y12019698D01*
X71115345Y11816850D01*
X71208706Y11591457D01*
X71256300Y11352182D01*
X71256300Y11108218D01*
X71208706Y10868943D01*
X71115345Y10643550D01*
X70979806Y10440702D01*
X70807298Y10268194D01*
X70604450Y10132655D01*
X70379057Y10039294D01*
X70190287Y10001746D01*
X70139783Y9991700D01*
X69895817Y9991700D01*
X69845313Y10001746D01*
X69656543Y10039294D01*
X69431150Y10132655D01*
X69228302Y10268194D01*
X69055794Y10440702D01*
X68920255Y10643550D01*
X68826894Y10868943D01*
X68779300Y11108218D01*
X68779300Y11352182D01*
X68826894Y11591457D01*
X68920255Y11816850D01*
X69055794Y12019698D01*
X69228302Y12192206D01*
X69431150Y12327745D01*
X69656543Y12421106D01*
X69861769Y12461927D01*
X69895817Y12468700D01*
X70139783Y12468700D01*
X70173831Y12461927D01*
X70173831Y12461927D01*
G37*
G36*
X170683800Y10239200D02*
G01*
X169181800Y10239200D01*
X169181800Y12441200D01*
X170683800Y12441200D01*
X170683800Y10239200D01*
X170683800Y10239200D01*
G37*
G36*
X175183800Y10239200D02*
G01*
X173681800Y10239200D01*
X173681800Y12441200D01*
X175183800Y12441200D01*
X175183800Y10239200D01*
X175183800Y10239200D01*
G37*
G36*
X224172990Y10436789D02*
G01*
X221970990Y10436789D01*
X221970990Y13238789D01*
X224172990Y13238789D01*
X224172990Y10436789D01*
X224172990Y10436789D01*
G37*
G36*
X28362800Y10516980D02*
G01*
X25260800Y10516980D01*
X25260800Y12218980D01*
X28362800Y12218980D01*
X28362800Y10516980D01*
X28362800Y10516980D01*
G37*
G36*
X199918320Y10599420D02*
G01*
X199115680Y10599420D01*
X199115680Y11701780D01*
X199918320Y11701780D01*
X199918320Y10599420D01*
X199918320Y10599420D01*
G37*
G36*
X201416920Y10599420D02*
G01*
X200614280Y10599420D01*
X200614280Y11701780D01*
X201416920Y11701780D01*
X201416920Y10599420D01*
X201416920Y10599420D01*
G37*
G36*
X80509620Y10714220D02*
G01*
X79357620Y10714220D01*
X79357620Y11466220D01*
X80509620Y11466220D01*
X80509620Y10714220D01*
X80509620Y10714220D01*
G37*
G36*
X76359620Y10714220D02*
G01*
X75207620Y10714220D01*
X75207620Y11466220D01*
X76359620Y11466220D01*
X76359620Y10714220D01*
X76359620Y10714220D01*
G37*
G36*
X15232380Y10888980D02*
G01*
X14130020Y10888980D01*
X14130020Y11691620D01*
X15232380Y11691620D01*
X15232380Y10888980D01*
X15232380Y10888980D01*
G37*
G36*
X191066420Y11513820D02*
G01*
X190263780Y11513820D01*
X190263780Y12616180D01*
X191066420Y12616180D01*
X191066420Y11513820D01*
X191066420Y11513820D01*
G37*
G36*
X189567820Y11513820D02*
G01*
X188765180Y11513820D01*
X188765180Y12616180D01*
X189567820Y12616180D01*
X189567820Y11513820D01*
X189567820Y11513820D01*
G37*
G36*
X193530220Y11513820D02*
G01*
X192727580Y11513820D01*
X192727580Y12616180D01*
X193530220Y12616180D01*
X193530220Y11513820D01*
X193530220Y11513820D01*
G37*
G36*
X195028820Y11513820D02*
G01*
X194226180Y11513820D01*
X194226180Y12616180D01*
X195028820Y12616180D01*
X195028820Y11513820D01*
X195028820Y11513820D01*
G37*
G36*
X262973135Y13053027D02*
G01*
X263076999Y13021521D01*
X263102294Y13008000D01*
X263172720Y12970357D01*
X263256621Y12901501D01*
X263325477Y12817600D01*
X263343831Y12783261D01*
X263376641Y12721879D01*
X263408147Y12618015D01*
X263418786Y12510000D01*
X263408147Y12401985D01*
X263376641Y12298121D01*
X263376639Y12298118D01*
X263325477Y12202400D01*
X263256621Y12118499D01*
X263172720Y12049643D01*
X263104175Y12013005D01*
X263076999Y11998479D01*
X262973135Y11966973D01*
X262892187Y11959000D01*
X262238053Y11959000D01*
X262157105Y11966973D01*
X262053241Y11998479D01*
X262026065Y12013005D01*
X261957520Y12049643D01*
X261873619Y12118499D01*
X261804763Y12202400D01*
X261753601Y12298118D01*
X261753599Y12298121D01*
X261722093Y12401985D01*
X261711454Y12510000D01*
X261722093Y12618015D01*
X261753599Y12721879D01*
X261786409Y12783261D01*
X261804763Y12817600D01*
X261873619Y12901501D01*
X261957520Y12970357D01*
X262027946Y13008000D01*
X262053241Y13021521D01*
X262157105Y13053027D01*
X262238053Y13061000D01*
X262892187Y13061000D01*
X262973135Y13053027D01*
X262973135Y13053027D01*
G37*
G36*
X257617503Y20087511D02*
G01*
X257617506Y20087510D01*
X257617505Y20087510D01*
X257681378Y20061054D01*
X257738868Y20022640D01*
X257787760Y19973748D01*
X257826174Y19916258D01*
X257847744Y19864182D01*
X257852631Y19852383D01*
X257866120Y19784570D01*
X257866120Y19772433D01*
X257868522Y19748047D01*
X257875635Y19724598D01*
X257887186Y19702987D01*
X257902731Y19684045D01*
X257921673Y19668500D01*
X257943284Y19656949D01*
X257966733Y19649836D01*
X257991119Y19647434D01*
X258015505Y19649836D01*
X258038954Y19656949D01*
X258066841Y19668500D01*
X258112737Y19687511D01*
X258180550Y19701000D01*
X258249690Y19701000D01*
X258317503Y19687511D01*
X258317506Y19687510D01*
X258317505Y19687510D01*
X258381378Y19661054D01*
X258438868Y19622640D01*
X258487760Y19573748D01*
X258526174Y19516258D01*
X258540405Y19481900D01*
X258552631Y19452383D01*
X258566120Y19384570D01*
X258566120Y19315430D01*
X258552631Y19247617D01*
X258552630Y19247615D01*
X258526174Y19183742D01*
X258487760Y19126252D01*
X258438868Y19077360D01*
X258403807Y19053933D01*
X258384865Y19038387D01*
X258369320Y19019445D01*
X258357769Y18997835D01*
X258350656Y18974386D01*
X258348254Y18950000D01*
X258350656Y18925614D01*
X258357769Y18902165D01*
X258369320Y18880554D01*
X258384866Y18861612D01*
X258403807Y18846067D01*
X258438868Y18822640D01*
X258487760Y18773748D01*
X258526174Y18716258D01*
X258547744Y18664182D01*
X258552631Y18652383D01*
X258566120Y18584570D01*
X258566120Y18515430D01*
X258552631Y18447617D01*
X258552630Y18447615D01*
X258526174Y18383742D01*
X258487760Y18326252D01*
X258438868Y18277360D01*
X258403807Y18253933D01*
X258384865Y18238387D01*
X258369320Y18219445D01*
X258357769Y18197835D01*
X258350656Y18174386D01*
X258348254Y18150000D01*
X258350656Y18125614D01*
X258357769Y18102165D01*
X258369320Y18080554D01*
X258384866Y18061612D01*
X258403807Y18046067D01*
X258438868Y18022640D01*
X258487760Y17973748D01*
X258526174Y17916258D01*
X258542285Y17877361D01*
X258552631Y17852383D01*
X258566120Y17784570D01*
X258566120Y17715430D01*
X258552631Y17647617D01*
X258549451Y17639939D01*
X258526174Y17583742D01*
X258487760Y17526252D01*
X258438868Y17477360D01*
X258381378Y17438946D01*
X258329302Y17417376D01*
X258317503Y17412489D01*
X258249690Y17399000D01*
X258180550Y17399000D01*
X258112737Y17412489D01*
X258104372Y17415954D01*
X258048859Y17438948D01*
X258048858Y17438949D01*
X258038954Y17443051D01*
X258015505Y17450164D01*
X257991119Y17452566D01*
X257966733Y17450164D01*
X257943284Y17443051D01*
X257921673Y17431500D01*
X257902731Y17415954D01*
X257887186Y17397013D01*
X257875635Y17375402D01*
X257868522Y17351953D01*
X257866120Y17327567D01*
X257866120Y17315430D01*
X257852631Y17247617D01*
X257852630Y17247615D01*
X257826174Y17183742D01*
X257787760Y17126252D01*
X257738868Y17077360D01*
X257703807Y17053933D01*
X257684865Y17038387D01*
X257669320Y17019445D01*
X257657769Y16997835D01*
X257650656Y16974386D01*
X257648254Y16950000D01*
X257650656Y16925614D01*
X257657769Y16902165D01*
X257669320Y16880554D01*
X257684866Y16861612D01*
X257703807Y16846067D01*
X257738868Y16822640D01*
X257787760Y16773748D01*
X257826174Y16716258D01*
X257847744Y16664182D01*
X257852631Y16652383D01*
X257866120Y16584570D01*
X257866120Y16572433D01*
X257868522Y16548047D01*
X257875635Y16524598D01*
X257887186Y16502987D01*
X257902731Y16484045D01*
X257921673Y16468500D01*
X257943284Y16456949D01*
X257966733Y16449836D01*
X257991119Y16447434D01*
X258015505Y16449836D01*
X258038954Y16456949D01*
X258066841Y16468500D01*
X258112737Y16487511D01*
X258180550Y16501000D01*
X258249690Y16501000D01*
X258317503Y16487511D01*
X258317506Y16487510D01*
X258317505Y16487510D01*
X258381378Y16461054D01*
X258438868Y16422640D01*
X258487760Y16373748D01*
X258526174Y16316258D01*
X258543768Y16273780D01*
X258552631Y16252383D01*
X258566120Y16184570D01*
X258566120Y16115430D01*
X258552631Y16047617D01*
X258552630Y16047615D01*
X258526174Y15983742D01*
X258487760Y15926252D01*
X258438868Y15877360D01*
X258403807Y15853933D01*
X258384865Y15838387D01*
X258369320Y15819445D01*
X258357769Y15797835D01*
X258350656Y15774386D01*
X258348254Y15750000D01*
X258350656Y15725614D01*
X258357769Y15702165D01*
X258369320Y15680554D01*
X258384866Y15661612D01*
X258403807Y15646067D01*
X258438868Y15622640D01*
X258487760Y15573748D01*
X258526174Y15516258D01*
X258541974Y15478111D01*
X258552631Y15452383D01*
X258566120Y15384570D01*
X258566120Y15315430D01*
X258552631Y15247617D01*
X258552630Y15247615D01*
X258526174Y15183742D01*
X258487760Y15126252D01*
X258438868Y15077360D01*
X258403807Y15053933D01*
X258384865Y15038387D01*
X258369320Y15019445D01*
X258357769Y14997835D01*
X258350656Y14974386D01*
X258348254Y14950000D01*
X258350656Y14925614D01*
X258357769Y14902165D01*
X258369320Y14880554D01*
X258384866Y14861612D01*
X258403807Y14846067D01*
X258438868Y14822640D01*
X258487760Y14773748D01*
X258526174Y14716258D01*
X258547744Y14664182D01*
X258552631Y14652383D01*
X258566120Y14584570D01*
X258566120Y14515430D01*
X258552631Y14447617D01*
X258552630Y14447615D01*
X258526174Y14383742D01*
X258487760Y14326252D01*
X258438868Y14277360D01*
X258381378Y14238946D01*
X258329302Y14217376D01*
X258317503Y14212489D01*
X258249690Y14199000D01*
X258180550Y14199000D01*
X258112737Y14212489D01*
X258048859Y14238948D01*
X258048858Y14238949D01*
X258038954Y14243051D01*
X258015505Y14250164D01*
X257991119Y14252566D01*
X257966733Y14250164D01*
X257943284Y14243051D01*
X257921673Y14231500D01*
X257902731Y14215954D01*
X257887186Y14197013D01*
X257875635Y14175402D01*
X257868522Y14151953D01*
X257866120Y14127567D01*
X257866120Y14115430D01*
X257852631Y14047617D01*
X257852630Y14047615D01*
X257826174Y13983742D01*
X257787760Y13926252D01*
X257738868Y13877360D01*
X257681378Y13838946D01*
X257637143Y13820624D01*
X257617503Y13812489D01*
X257549690Y13799000D01*
X257480550Y13799000D01*
X257412737Y13812489D01*
X257365205Y13832177D01*
X257341757Y13839289D01*
X257317370Y13841691D01*
X257292984Y13839289D01*
X257269536Y13832175D01*
X257247925Y13820624D01*
X257228983Y13805079D01*
X257213438Y13786136D01*
X257201887Y13764526D01*
X257194775Y13741077D01*
X257192373Y13716690D01*
X257194775Y13692304D01*
X257207133Y13657767D01*
X257214179Y13644585D01*
X257235680Y13573706D01*
X257241120Y13518471D01*
X257241120Y13326016D01*
X257243522Y13301630D01*
X257250635Y13278181D01*
X257262186Y13256570D01*
X257277731Y13237628D01*
X257296673Y13222083D01*
X257318284Y13210532D01*
X257341733Y13203419D01*
X257366119Y13201017D01*
X257390505Y13203419D01*
X257413954Y13210532D01*
X257445417Y13229390D01*
X257507521Y13280357D01*
X257576185Y13317059D01*
X257603241Y13331521D01*
X257707105Y13363027D01*
X257788053Y13371000D01*
X258442187Y13371000D01*
X258523135Y13363027D01*
X258626999Y13331521D01*
X258646802Y13320936D01*
X258722720Y13280357D01*
X258806621Y13211501D01*
X258875477Y13127600D01*
X258887122Y13105813D01*
X258926641Y13031879D01*
X258958147Y12928015D01*
X258968786Y12820000D01*
X258958147Y12711985D01*
X258926641Y12608121D01*
X258926639Y12608118D01*
X258875477Y12512400D01*
X258806621Y12428499D01*
X258722720Y12359643D01*
X258654175Y12323005D01*
X258626999Y12308479D01*
X258523135Y12276973D01*
X258442187Y12269000D01*
X257788053Y12269000D01*
X257707105Y12276973D01*
X257603241Y12308479D01*
X257576065Y12323005D01*
X257507520Y12359643D01*
X257423619Y12428499D01*
X257354763Y12512400D01*
X257303601Y12608118D01*
X257303599Y12608121D01*
X257272093Y12711985D01*
X257264304Y12791061D01*
X257259526Y12815086D01*
X257250148Y12837725D01*
X257236535Y12858099D01*
X257219208Y12875426D01*
X257198833Y12889040D01*
X257176195Y12898417D01*
X257152161Y12903198D01*
X257127657Y12903198D01*
X257103624Y12898418D01*
X257080986Y12889041D01*
X257009703Y12850940D01*
X256938829Y12829440D01*
X256865120Y12822181D01*
X256791410Y12829440D01*
X256720535Y12850940D01*
X256655216Y12885854D01*
X256597961Y12932841D01*
X256550975Y12990094D01*
X256516060Y13055417D01*
X256494560Y13126291D01*
X256489120Y13181529D01*
X256489120Y13518472D01*
X256494560Y13573708D01*
X256505311Y13609147D01*
X256516061Y13644585D01*
X256550976Y13709905D01*
X256556544Y13716690D01*
X256597962Y13767159D01*
X256655217Y13814146D01*
X256720536Y13849060D01*
X256791411Y13870560D01*
X256865120Y13877819D01*
X256938830Y13870560D01*
X257009702Y13849061D01*
X257022887Y13842013D01*
X257045525Y13832636D01*
X257069559Y13827855D01*
X257094063Y13827855D01*
X257118096Y13832635D01*
X257140735Y13842012D01*
X257161109Y13855626D01*
X257178437Y13872952D01*
X257192051Y13893327D01*
X257201428Y13915965D01*
X257206209Y13939999D01*
X257206209Y13964503D01*
X257197297Y14000086D01*
X257177609Y14047617D01*
X257164120Y14115430D01*
X257164120Y14184570D01*
X257177609Y14252383D01*
X257187955Y14277361D01*
X257204066Y14316258D01*
X257242480Y14373748D01*
X257291372Y14422640D01*
X257348862Y14461054D01*
X257412735Y14487510D01*
X257412734Y14487510D01*
X257412737Y14487511D01*
X257480550Y14501000D01*
X257549690Y14501000D01*
X257617503Y14487511D01*
X257663400Y14468500D01*
X257691286Y14456949D01*
X257714735Y14449836D01*
X257739121Y14447434D01*
X257763507Y14449836D01*
X257786956Y14456949D01*
X257808567Y14468500D01*
X257827509Y14484046D01*
X257843054Y14502987D01*
X257854605Y14524598D01*
X257861718Y14548047D01*
X257864120Y14572433D01*
X257864120Y14584570D01*
X257865130Y14589649D01*
X257877609Y14652383D01*
X257882496Y14664182D01*
X257904066Y14716258D01*
X257942480Y14773748D01*
X257991372Y14822640D01*
X258026433Y14846067D01*
X258045375Y14861613D01*
X258060920Y14880555D01*
X258072471Y14902165D01*
X258079584Y14925614D01*
X258081986Y14950000D01*
X258079584Y14974386D01*
X258072471Y14997835D01*
X258060920Y15019446D01*
X258045374Y15038388D01*
X258026433Y15053933D01*
X257991372Y15077360D01*
X257942480Y15126252D01*
X257904066Y15183742D01*
X257877610Y15247615D01*
X257877609Y15247617D01*
X257864120Y15315430D01*
X257864120Y15327567D01*
X257861718Y15351953D01*
X257854605Y15375402D01*
X257843054Y15397013D01*
X257827509Y15415955D01*
X257808567Y15431500D01*
X257786956Y15443051D01*
X257763507Y15450164D01*
X257739121Y15452566D01*
X257714735Y15450164D01*
X257691286Y15443051D01*
X257681382Y15438949D01*
X257681381Y15438948D01*
X257617503Y15412489D01*
X257549690Y15399000D01*
X257480550Y15399000D01*
X257412737Y15412489D01*
X257400938Y15417376D01*
X257348862Y15438946D01*
X257291372Y15477360D01*
X257242480Y15526252D01*
X257204066Y15583742D01*
X257177610Y15647615D01*
X257177609Y15647617D01*
X257164120Y15715430D01*
X257164120Y15784570D01*
X257177609Y15852383D01*
X257187955Y15877361D01*
X257204066Y15916258D01*
X257242480Y15973748D01*
X257291372Y16022640D01*
X257326433Y16046067D01*
X257345375Y16061613D01*
X257360920Y16080555D01*
X257372471Y16102165D01*
X257379584Y16125614D01*
X257381986Y16150000D01*
X257379584Y16174386D01*
X257372471Y16197835D01*
X257360920Y16219446D01*
X257345374Y16238388D01*
X257326433Y16253933D01*
X257291372Y16277360D01*
X257242480Y16326252D01*
X257204066Y16383742D01*
X257177610Y16447615D01*
X257177609Y16447617D01*
X257164120Y16515430D01*
X257164120Y16584570D01*
X257177609Y16652383D01*
X257182496Y16664182D01*
X257204066Y16716258D01*
X257242480Y16773748D01*
X257291372Y16822640D01*
X257326433Y16846067D01*
X257345375Y16861613D01*
X257360920Y16880555D01*
X257372471Y16902165D01*
X257379584Y16925614D01*
X257381986Y16950000D01*
X257379584Y16974386D01*
X257372471Y16997835D01*
X257360920Y17019446D01*
X257345374Y17038388D01*
X257326433Y17053933D01*
X257291372Y17077360D01*
X257242480Y17126252D01*
X257204066Y17183742D01*
X257177610Y17247615D01*
X257177609Y17247617D01*
X257164120Y17315430D01*
X257164120Y17384570D01*
X257177609Y17452383D01*
X257187955Y17477361D01*
X257204066Y17516258D01*
X257242480Y17573748D01*
X257291372Y17622640D01*
X257326433Y17646067D01*
X257345375Y17661613D01*
X257360920Y17680555D01*
X257372471Y17702165D01*
X257379584Y17725614D01*
X257381986Y17750000D01*
X257379584Y17774386D01*
X257372471Y17797835D01*
X257360920Y17819446D01*
X257345374Y17838388D01*
X257326433Y17853933D01*
X257291372Y17877360D01*
X257242480Y17926252D01*
X257204066Y17983742D01*
X257177610Y18047615D01*
X257177609Y18047617D01*
X257164120Y18115430D01*
X257164120Y18184570D01*
X257177609Y18252383D01*
X257196952Y18299082D01*
X257204066Y18316258D01*
X257242480Y18373748D01*
X257291372Y18422640D01*
X257348862Y18461054D01*
X257412735Y18487510D01*
X257412734Y18487510D01*
X257412737Y18487511D01*
X257480550Y18501000D01*
X257549690Y18501000D01*
X257617503Y18487511D01*
X257674245Y18464008D01*
X257691286Y18456949D01*
X257714735Y18449836D01*
X257739121Y18447434D01*
X257763507Y18449836D01*
X257786956Y18456949D01*
X257808567Y18468500D01*
X257827509Y18484046D01*
X257843054Y18502987D01*
X257854605Y18524598D01*
X257861718Y18548047D01*
X257864120Y18572433D01*
X257864120Y18584570D01*
X257870770Y18618000D01*
X257877609Y18652383D01*
X257882496Y18664182D01*
X257904066Y18716258D01*
X257942480Y18773748D01*
X257991372Y18822640D01*
X258026433Y18846067D01*
X258045375Y18861613D01*
X258060920Y18880555D01*
X258072471Y18902165D01*
X258079584Y18925614D01*
X258081986Y18950000D01*
X258079584Y18974386D01*
X258072471Y18997835D01*
X258060920Y19019446D01*
X258045374Y19038388D01*
X258026433Y19053933D01*
X257991372Y19077360D01*
X257942480Y19126252D01*
X257904066Y19183742D01*
X257877610Y19247615D01*
X257877609Y19247617D01*
X257864120Y19315430D01*
X257864120Y19327567D01*
X257861718Y19351953D01*
X257854605Y19375402D01*
X257843054Y19397013D01*
X257827509Y19415955D01*
X257808567Y19431500D01*
X257786956Y19443051D01*
X257763507Y19450164D01*
X257739121Y19452566D01*
X257714735Y19450164D01*
X257691286Y19443051D01*
X257681382Y19438949D01*
X257681381Y19438948D01*
X257625871Y19415955D01*
X257617503Y19412489D01*
X257549690Y19399000D01*
X257480550Y19399000D01*
X257412737Y19412489D01*
X257400938Y19417376D01*
X257348862Y19438946D01*
X257291372Y19477360D01*
X257242480Y19526252D01*
X257204066Y19583742D01*
X257177610Y19647615D01*
X257177609Y19647617D01*
X257164120Y19715430D01*
X257164120Y19784570D01*
X257177609Y19852383D01*
X257182496Y19864182D01*
X257204066Y19916258D01*
X257242480Y19973748D01*
X257291372Y20022640D01*
X257348862Y20061054D01*
X257412735Y20087510D01*
X257412734Y20087510D01*
X257412737Y20087511D01*
X257480550Y20101000D01*
X257549690Y20101000D01*
X257617503Y20087511D01*
X257617503Y20087511D01*
G37*
G36*
X214359380Y12813520D02*
G01*
X213206220Y12813520D01*
X213206220Y15566880D01*
X214359380Y15566880D01*
X214359380Y12813520D01*
X214359380Y12813520D01*
G37*
G36*
X211463780Y12813520D02*
G01*
X210310620Y12813520D01*
X210310620Y15566880D01*
X211463780Y15566880D01*
X211463780Y12813520D01*
X211463780Y12813520D01*
G37*
G36*
X13716200Y13258600D02*
G01*
X12090200Y13258600D01*
X12090200Y15900600D01*
X13716200Y15900600D01*
X13716200Y13258600D01*
X13716200Y13258600D01*
G37*
G36*
X11176200Y13258600D02*
G01*
X9550200Y13258600D01*
X9550200Y15900600D01*
X11176200Y15900600D01*
X11176200Y13258600D01*
X11176200Y13258600D01*
G37*
G36*
X8636200Y13258600D02*
G01*
X7010200Y13258600D01*
X7010200Y15900600D01*
X8636200Y15900600D01*
X8636200Y13258600D01*
X8636200Y13258600D01*
G37*
G36*
X6096200Y13258600D02*
G01*
X4470200Y13258600D01*
X4470200Y15900600D01*
X6096200Y15900600D01*
X6096200Y13258600D01*
X6096200Y13258600D01*
G37*
G36*
X193514980Y13301980D02*
G01*
X192712340Y13301980D01*
X192712340Y14404340D01*
X193514980Y14404340D01*
X193514980Y13301980D01*
X193514980Y13301980D01*
G37*
G36*
X195013580Y13301980D02*
G01*
X194210940Y13301980D01*
X194210940Y14404340D01*
X195013580Y14404340D01*
X195013580Y13301980D01*
X195013580Y13301980D01*
G37*
G36*
X204558148Y14158324D02*
G01*
X204570401Y14158324D01*
X204570401Y14158000D01*
X207719577Y14158000D01*
X207722399Y14157722D01*
X207734652Y14158324D01*
X207752601Y14160092D01*
X208040320Y14160092D01*
X208056459Y14158503D01*
X208066068Y14155588D01*
X208074932Y14150850D01*
X208082697Y14144477D01*
X208089070Y14136712D01*
X208093808Y14127848D01*
X208096723Y14118239D01*
X208098312Y14102100D01*
X208098312Y13864380D01*
X208096723Y13848241D01*
X208093363Y13837165D01*
X208088547Y13827603D01*
X207944081Y13586826D01*
X207934416Y13573806D01*
X207928155Y13568138D01*
X207926969Y13567064D01*
X207918350Y13561903D01*
X207908889Y13558523D01*
X207896460Y13556993D01*
X207893707Y13556993D01*
X207888792Y13556388D01*
X207752601Y13556388D01*
X207734652Y13558156D01*
X207710148Y13558156D01*
X207699308Y13556000D01*
X204595961Y13556000D01*
X204594787Y13556356D01*
X204570401Y13558758D01*
X204558148Y13558156D01*
X204540199Y13556388D01*
X204402480Y13556388D01*
X204386341Y13557977D01*
X204376732Y13560892D01*
X204367868Y13565630D01*
X204361289Y13571029D01*
X204361287Y13571031D01*
X204360103Y13572003D01*
X204352396Y13581874D01*
X204350983Y13584229D01*
X204347935Y13588133D01*
X204205038Y13826296D01*
X204202254Y13832175D01*
X204201100Y13834612D01*
X204198095Y13840956D01*
X204195278Y13852183D01*
X204194488Y13862855D01*
X204194488Y14102100D01*
X204196077Y14118239D01*
X204198992Y14127848D01*
X204203730Y14136712D01*
X204210103Y14144477D01*
X204217868Y14150850D01*
X204226732Y14155588D01*
X204236341Y14158503D01*
X204252480Y14160092D01*
X204540199Y14160092D01*
X204558148Y14158324D01*
X204558148Y14158324D01*
G37*
G36*
X157264610Y17849000D02*
G01*
X157255018Y17849000D01*
X157230632Y17846598D01*
X157207183Y17839485D01*
X157185572Y17827934D01*
X157166630Y17812389D01*
X157151085Y17793447D01*
X157139534Y17771836D01*
X157132421Y17748387D01*
X157130019Y17724001D01*
X157132421Y17699615D01*
X157139534Y17676166D01*
X157151085Y17654556D01*
X157160851Y17639941D01*
X157262692Y17394072D01*
X157314610Y17133063D01*
X157314610Y16866937D01*
X157262692Y16605928D01*
X157160851Y16360059D01*
X157151085Y16345444D01*
X157139534Y16323833D01*
X157132421Y16300384D01*
X157130019Y16275998D01*
X157132421Y16251612D01*
X157139534Y16228163D01*
X157151086Y16206553D01*
X157166631Y16187611D01*
X157185573Y16172066D01*
X157207184Y16160515D01*
X157230633Y16153402D01*
X157255018Y16151000D01*
X157264610Y16151000D01*
X157264610Y13849000D01*
X154662610Y13849000D01*
X154662610Y16151000D01*
X154672202Y16151000D01*
X154696588Y16153402D01*
X154720037Y16160515D01*
X154741648Y16172066D01*
X154760590Y16187611D01*
X154776135Y16206553D01*
X154787686Y16228164D01*
X154794799Y16251613D01*
X154797201Y16275999D01*
X154794799Y16300385D01*
X154787686Y16323834D01*
X154776135Y16345444D01*
X154766369Y16360059D01*
X154664528Y16605928D01*
X154612610Y16866937D01*
X154612610Y17133063D01*
X154664528Y17394072D01*
X154766369Y17639941D01*
X154776135Y17654556D01*
X154787686Y17676167D01*
X154794799Y17699616D01*
X154797201Y17724002D01*
X154794799Y17748388D01*
X154787686Y17771837D01*
X154776134Y17793447D01*
X154760589Y17812389D01*
X154741647Y17827934D01*
X154720036Y17839485D01*
X154696587Y17846598D01*
X154672202Y17849000D01*
X154662610Y17849000D01*
X154662610Y20151000D01*
X157264610Y20151000D01*
X157264610Y17849000D01*
X157264610Y17849000D01*
G37*
G36*
X219677128Y14589649D02*
G01*
X216875128Y14589649D01*
X216875128Y17291649D01*
X219677128Y17291649D01*
X219677128Y14589649D01*
X219677128Y14589649D01*
G37*
G36*
X207043020Y15171420D02*
G01*
X206240380Y15171420D01*
X206240380Y16273780D01*
X207043020Y16273780D01*
X207043020Y15171420D01*
X207043020Y15171420D01*
G37*
G36*
X208541620Y15171420D02*
G01*
X207738980Y15171420D01*
X207738980Y16273780D01*
X208541620Y16273780D01*
X208541620Y15171420D01*
X208541620Y15171420D01*
G37*
G36*
X25686695Y19126252D02*
G01*
X25932306Y19077397D01*
X26266236Y18939078D01*
X26566765Y18738271D01*
X26822345Y18482691D01*
X27023152Y18182162D01*
X27161471Y17848232D01*
X27231985Y17493733D01*
X27231985Y17132289D01*
X27161471Y16777790D01*
X27109526Y16652385D01*
X27024633Y16447434D01*
X27023152Y16443860D01*
X26822345Y16143331D01*
X26566765Y15887751D01*
X26266236Y15686944D01*
X26266235Y15686943D01*
X26266234Y15686943D01*
X26208942Y15663212D01*
X25932306Y15548625D01*
X25695973Y15501616D01*
X25577808Y15478111D01*
X25216362Y15478111D01*
X25098197Y15501616D01*
X24861864Y15548625D01*
X24585228Y15663212D01*
X24527936Y15686943D01*
X24527935Y15686943D01*
X24527934Y15686944D01*
X24227405Y15887751D01*
X23971825Y16143331D01*
X23771018Y16443860D01*
X23769538Y16447434D01*
X23684644Y16652385D01*
X23632699Y16777790D01*
X23562185Y17132289D01*
X23562185Y17493733D01*
X23632699Y17848232D01*
X23771018Y18182162D01*
X23971825Y18482691D01*
X24227405Y18738271D01*
X24527934Y18939078D01*
X24861864Y19077397D01*
X25107475Y19126252D01*
X25216362Y19147911D01*
X25577808Y19147911D01*
X25686695Y19126252D01*
X25686695Y19126252D01*
G37*
G36*
X134293600Y15986200D02*
G01*
X133041600Y15986200D01*
X133041600Y17488200D01*
X134293600Y17488200D01*
X134293600Y15986200D01*
X134293600Y15986200D01*
G37*
G36*
X135893600Y15986200D02*
G01*
X134641600Y15986200D01*
X134641600Y17488200D01*
X135893600Y17488200D01*
X135893600Y15986200D01*
X135893600Y15986200D01*
G37*
G36*
X62221874Y17939111D02*
G01*
X62299550Y17923660D01*
X62445889Y17863044D01*
X62577590Y17775044D01*
X62689593Y17663041D01*
X62777593Y17531340D01*
X62838209Y17385001D01*
X62849633Y17327567D01*
X62865537Y17247615D01*
X62869110Y17229649D01*
X62869110Y17071253D01*
X62838209Y16915901D01*
X62777593Y16769562D01*
X62689593Y16637861D01*
X62577590Y16525858D01*
X62445889Y16437858D01*
X62299550Y16377242D01*
X62221874Y16361792D01*
X62144199Y16346341D01*
X61985801Y16346341D01*
X61908126Y16361792D01*
X61830450Y16377242D01*
X61684111Y16437858D01*
X61552410Y16525858D01*
X61440407Y16637861D01*
X61352407Y16769562D01*
X61291791Y16915901D01*
X61260890Y17071253D01*
X61260890Y17229649D01*
X61264464Y17247615D01*
X61280367Y17327567D01*
X61291791Y17385001D01*
X61352407Y17531340D01*
X61440407Y17663041D01*
X61552410Y17775044D01*
X61684111Y17863044D01*
X61830450Y17923660D01*
X61908126Y17939111D01*
X61985801Y17954561D01*
X62144199Y17954561D01*
X62221874Y17939111D01*
X62221874Y17939111D01*
G37*
G36*
X59681874Y17939111D02*
G01*
X59759550Y17923660D01*
X59905889Y17863044D01*
X60037590Y17775044D01*
X60149593Y17663041D01*
X60237593Y17531340D01*
X60298209Y17385001D01*
X60309633Y17327567D01*
X60325537Y17247615D01*
X60329110Y17229649D01*
X60329110Y17071253D01*
X60298209Y16915901D01*
X60237593Y16769562D01*
X60149593Y16637861D01*
X60037590Y16525858D01*
X59905889Y16437858D01*
X59759550Y16377242D01*
X59681874Y16361792D01*
X59604199Y16346341D01*
X59445801Y16346341D01*
X59368126Y16361792D01*
X59290450Y16377242D01*
X59144111Y16437858D01*
X59012410Y16525858D01*
X58900407Y16637861D01*
X58812407Y16769562D01*
X58751791Y16915901D01*
X58720890Y17071253D01*
X58720890Y17229649D01*
X58724464Y17247615D01*
X58740367Y17327567D01*
X58751791Y17385001D01*
X58812407Y17531340D01*
X58900407Y17663041D01*
X59012410Y17775044D01*
X59144111Y17863044D01*
X59290450Y17923660D01*
X59368126Y17939111D01*
X59445801Y17954561D01*
X59604199Y17954561D01*
X59681874Y17939111D01*
X59681874Y17939111D01*
G37*
G36*
X46981874Y17939111D02*
G01*
X47059550Y17923660D01*
X47205889Y17863044D01*
X47337590Y17775044D01*
X47449593Y17663041D01*
X47537593Y17531340D01*
X47598209Y17385001D01*
X47609633Y17327567D01*
X47625537Y17247615D01*
X47629110Y17229649D01*
X47629110Y17071253D01*
X47598209Y16915901D01*
X47537593Y16769562D01*
X47449593Y16637861D01*
X47337590Y16525858D01*
X47205889Y16437858D01*
X47059550Y16377242D01*
X46981874Y16361792D01*
X46904199Y16346341D01*
X46745801Y16346341D01*
X46668126Y16361792D01*
X46590450Y16377242D01*
X46444111Y16437858D01*
X46312410Y16525858D01*
X46200407Y16637861D01*
X46112407Y16769562D01*
X46051791Y16915901D01*
X46020890Y17071253D01*
X46020890Y17229649D01*
X46024464Y17247615D01*
X46040367Y17327567D01*
X46051791Y17385001D01*
X46112407Y17531340D01*
X46200407Y17663041D01*
X46312410Y17775044D01*
X46444111Y17863044D01*
X46590450Y17923660D01*
X46668126Y17939111D01*
X46745801Y17954561D01*
X46904199Y17954561D01*
X46981874Y17939111D01*
X46981874Y17939111D01*
G37*
G36*
X49521874Y17939111D02*
G01*
X49599550Y17923660D01*
X49745889Y17863044D01*
X49877590Y17775044D01*
X49989593Y17663041D01*
X50077593Y17531340D01*
X50138209Y17385001D01*
X50149633Y17327567D01*
X50165537Y17247615D01*
X50169110Y17229649D01*
X50169110Y17071253D01*
X50138209Y16915901D01*
X50077593Y16769562D01*
X49989593Y16637861D01*
X49877590Y16525858D01*
X49745889Y16437858D01*
X49599550Y16377242D01*
X49521874Y16361792D01*
X49444199Y16346341D01*
X49285801Y16346341D01*
X49208126Y16361792D01*
X49130450Y16377242D01*
X48984111Y16437858D01*
X48852410Y16525858D01*
X48740407Y16637861D01*
X48652407Y16769562D01*
X48591791Y16915901D01*
X48560890Y17071253D01*
X48560890Y17229649D01*
X48564464Y17247615D01*
X48580367Y17327567D01*
X48591791Y17385001D01*
X48652407Y17531340D01*
X48740407Y17663041D01*
X48852410Y17775044D01*
X48984111Y17863044D01*
X49130450Y17923660D01*
X49208126Y17939111D01*
X49285801Y17954561D01*
X49444199Y17954561D01*
X49521874Y17939111D01*
X49521874Y17939111D01*
G37*
G36*
X57141874Y17939111D02*
G01*
X57219550Y17923660D01*
X57365889Y17863044D01*
X57497590Y17775044D01*
X57609593Y17663041D01*
X57697593Y17531340D01*
X57758209Y17385001D01*
X57769633Y17327567D01*
X57785537Y17247615D01*
X57789110Y17229649D01*
X57789110Y17071253D01*
X57758209Y16915901D01*
X57697593Y16769562D01*
X57609593Y16637861D01*
X57497590Y16525858D01*
X57365889Y16437858D01*
X57219550Y16377242D01*
X57141874Y16361792D01*
X57064199Y16346341D01*
X56905801Y16346341D01*
X56828126Y16361792D01*
X56750450Y16377242D01*
X56604111Y16437858D01*
X56472410Y16525858D01*
X56360407Y16637861D01*
X56272407Y16769562D01*
X56211791Y16915901D01*
X56180890Y17071253D01*
X56180890Y17229649D01*
X56184464Y17247615D01*
X56200367Y17327567D01*
X56211791Y17385001D01*
X56272407Y17531340D01*
X56360407Y17663041D01*
X56472410Y17775044D01*
X56604111Y17863044D01*
X56750450Y17923660D01*
X56828126Y17939111D01*
X56905801Y17954561D01*
X57064199Y17954561D01*
X57141874Y17939111D01*
X57141874Y17939111D01*
G37*
G36*
X44441874Y17939111D02*
G01*
X44519550Y17923660D01*
X44665889Y17863044D01*
X44797590Y17775044D01*
X44909593Y17663041D01*
X44997593Y17531340D01*
X45058209Y17385001D01*
X45069633Y17327567D01*
X45085537Y17247615D01*
X45089110Y17229649D01*
X45089110Y17071253D01*
X45058209Y16915901D01*
X44997593Y16769562D01*
X44909593Y16637861D01*
X44797590Y16525858D01*
X44665889Y16437858D01*
X44519550Y16377242D01*
X44441874Y16361792D01*
X44364199Y16346341D01*
X44205801Y16346341D01*
X44128126Y16361792D01*
X44050450Y16377242D01*
X43904111Y16437858D01*
X43772410Y16525858D01*
X43660407Y16637861D01*
X43572407Y16769562D01*
X43511791Y16915901D01*
X43480890Y17071253D01*
X43480890Y17229649D01*
X43484464Y17247615D01*
X43500367Y17327567D01*
X43511791Y17385001D01*
X43572407Y17531340D01*
X43660407Y17663041D01*
X43772410Y17775044D01*
X43904111Y17863044D01*
X44050450Y17923660D01*
X44128126Y17939111D01*
X44205801Y17954561D01*
X44364199Y17954561D01*
X44441874Y17939111D01*
X44441874Y17939111D01*
G37*
G36*
X54601874Y17939111D02*
G01*
X54679550Y17923660D01*
X54825889Y17863044D01*
X54957590Y17775044D01*
X55069593Y17663041D01*
X55157593Y17531340D01*
X55218209Y17385001D01*
X55229633Y17327567D01*
X55245537Y17247615D01*
X55249110Y17229649D01*
X55249110Y17071253D01*
X55218209Y16915901D01*
X55157593Y16769562D01*
X55069593Y16637861D01*
X54957590Y16525858D01*
X54825889Y16437858D01*
X54679550Y16377242D01*
X54601874Y16361792D01*
X54524199Y16346341D01*
X54365801Y16346341D01*
X54288126Y16361792D01*
X54210450Y16377242D01*
X54064111Y16437858D01*
X53932410Y16525858D01*
X53820407Y16637861D01*
X53732407Y16769562D01*
X53671791Y16915901D01*
X53640890Y17071253D01*
X53640890Y17229649D01*
X53644464Y17247615D01*
X53660367Y17327567D01*
X53671791Y17385001D01*
X53732407Y17531340D01*
X53820407Y17663041D01*
X53932410Y17775044D01*
X54064111Y17863044D01*
X54210450Y17923660D01*
X54288126Y17939111D01*
X54365801Y17954561D01*
X54524199Y17954561D01*
X54601874Y17939111D01*
X54601874Y17939111D01*
G37*
G36*
X52061874Y17939111D02*
G01*
X52139550Y17923660D01*
X52285889Y17863044D01*
X52417590Y17775044D01*
X52529593Y17663041D01*
X52617593Y17531340D01*
X52678209Y17385001D01*
X52689633Y17327567D01*
X52705537Y17247615D01*
X52709110Y17229649D01*
X52709110Y17071253D01*
X52678209Y16915901D01*
X52617593Y16769562D01*
X52529593Y16637861D01*
X52417590Y16525858D01*
X52285889Y16437858D01*
X52139550Y16377242D01*
X52061874Y16361792D01*
X51984199Y16346341D01*
X51825801Y16346341D01*
X51748126Y16361792D01*
X51670450Y16377242D01*
X51524111Y16437858D01*
X51392410Y16525858D01*
X51280407Y16637861D01*
X51192407Y16769562D01*
X51131791Y16915901D01*
X51100890Y17071253D01*
X51100890Y17229649D01*
X51104464Y17247615D01*
X51120367Y17327567D01*
X51131791Y17385001D01*
X51192407Y17531340D01*
X51280407Y17663041D01*
X51392410Y17775044D01*
X51524111Y17863044D01*
X51670450Y17923660D01*
X51748126Y17939111D01*
X51825801Y17954561D01*
X51984199Y17954561D01*
X52061874Y17939111D01*
X52061874Y17939111D01*
G37*
G36*
X232283200Y16662200D02*
G01*
X230708000Y16662200D01*
X230708000Y21691800D01*
X232283200Y21691800D01*
X232283200Y16662200D01*
X232283200Y16662200D01*
G37*
G36*
X226441200Y16662200D02*
G01*
X224866000Y16662200D01*
X224866000Y21691800D01*
X226441200Y21691800D01*
X226441200Y16662200D01*
X226441200Y16662200D01*
G37*
G36*
X149120500Y17124400D02*
G01*
X141233500Y17124400D01*
X141233500Y18326400D01*
X149120500Y18326400D01*
X149120500Y17124400D01*
X149120500Y17124400D01*
G37*
G36*
X210930600Y17191800D02*
G01*
X209928600Y17191800D01*
X209928600Y18093800D01*
X210930600Y18093800D01*
X210930600Y17191800D01*
X210930600Y17191800D01*
G37*
G36*
X222084820Y17289020D02*
G01*
X221282180Y17289020D01*
X221282180Y18391380D01*
X222084820Y18391380D01*
X222084820Y17289020D01*
X222084820Y17289020D01*
G37*
G36*
X223583420Y17289020D02*
G01*
X222780780Y17289020D01*
X222780780Y18391380D01*
X223583420Y18391380D01*
X223583420Y17289020D01*
X223583420Y17289020D01*
G37*
G36*
X172164035Y20728103D02*
G01*
X172355210Y20690076D01*
X172637474Y20573159D01*
X172891505Y20403421D01*
X173107541Y20187385D01*
X173277279Y19933354D01*
X173391769Y19656949D01*
X173394196Y19651089D01*
X173453800Y19351441D01*
X173453800Y19045919D01*
X173452413Y19038948D01*
X173394196Y18746270D01*
X173277279Y18464006D01*
X173107541Y18209975D01*
X172891505Y17993939D01*
X172637474Y17824201D01*
X172355210Y17707284D01*
X172316660Y17699616D01*
X172055561Y17647680D01*
X171750039Y17647680D01*
X171488940Y17699616D01*
X171450390Y17707284D01*
X171168126Y17824201D01*
X170914095Y17993939D01*
X170698059Y18209975D01*
X170528321Y18464006D01*
X170411404Y18746270D01*
X170353187Y19038948D01*
X170351800Y19045919D01*
X170351800Y19351441D01*
X170411404Y19651089D01*
X170413831Y19656949D01*
X170528321Y19933354D01*
X170698059Y20187385D01*
X170914095Y20403421D01*
X171168126Y20573159D01*
X171450390Y20690076D01*
X171641565Y20728103D01*
X171750039Y20749680D01*
X172055561Y20749680D01*
X172164035Y20728103D01*
X172164035Y20728103D01*
G37*
G36*
X187048415Y20728103D02*
G01*
X187239590Y20690076D01*
X187521854Y20573159D01*
X187775885Y20403421D01*
X187991921Y20187385D01*
X188161659Y19933354D01*
X188276149Y19656949D01*
X188278576Y19651089D01*
X188338180Y19351441D01*
X188338180Y19045919D01*
X188336793Y19038948D01*
X188278576Y18746270D01*
X188161659Y18464006D01*
X187991921Y18209975D01*
X187775885Y17993939D01*
X187521854Y17824201D01*
X187239590Y17707284D01*
X187201040Y17699616D01*
X186939941Y17647680D01*
X186634419Y17647680D01*
X186373320Y17699616D01*
X186334770Y17707284D01*
X186052506Y17824201D01*
X185798475Y17993939D01*
X185582439Y18209975D01*
X185412701Y18464006D01*
X185295784Y18746270D01*
X185237567Y19038948D01*
X185236180Y19045919D01*
X185236180Y19351441D01*
X185295784Y19651089D01*
X185298211Y19656949D01*
X185412701Y19933354D01*
X185582439Y20187385D01*
X185798475Y20403421D01*
X186052506Y20573159D01*
X186334770Y20690076D01*
X186525945Y20728103D01*
X186634419Y20749680D01*
X186939941Y20749680D01*
X187048415Y20728103D01*
X187048415Y20728103D01*
G37*
G36*
X212930600Y18141800D02*
G01*
X211928600Y18141800D01*
X211928600Y19043800D01*
X212930600Y19043800D01*
X212930600Y18141800D01*
X212930600Y18141800D01*
G37*
G36*
X135893600Y18986200D02*
G01*
X134641600Y18986200D01*
X134641600Y20488200D01*
X135893600Y20488200D01*
X135893600Y18986200D01*
X135893600Y18986200D01*
G37*
G36*
X134293600Y18986200D02*
G01*
X133041600Y18986200D01*
X133041600Y20488200D01*
X134293600Y20488200D01*
X134293600Y18986200D01*
X134293600Y18986200D01*
G37*
G36*
X223633420Y19089020D02*
G01*
X222830780Y19089020D01*
X222830780Y20191380D01*
X223633420Y20191380D01*
X223633420Y19089020D01*
X223633420Y19089020D01*
G37*
G36*
X222134820Y19089020D02*
G01*
X221332180Y19089020D01*
X221332180Y20191380D01*
X222134820Y20191380D01*
X222134820Y19089020D01*
X222134820Y19089020D01*
G37*
G36*
X210930600Y19091800D02*
G01*
X209928600Y19091800D01*
X209928600Y19993800D01*
X210930600Y19993800D01*
X210930600Y19091800D01*
X210930600Y19091800D01*
G37*
G36*
X140078000Y19481900D02*
G01*
X138876000Y19481900D01*
X138876000Y27368900D01*
X140078000Y27368900D01*
X140078000Y19481900D01*
X140078000Y19481900D01*
G37*
G36*
X151478000Y19481900D02*
G01*
X150276000Y19481900D01*
X150276000Y27368900D01*
X151478000Y27368900D01*
X151478000Y19481900D01*
X151478000Y19481900D01*
G37*
G36*
X258523135Y21623027D02*
G01*
X258626999Y21591521D01*
X258637479Y21585919D01*
X258722720Y21540357D01*
X258806621Y21471501D01*
X258875477Y21387600D01*
X258885472Y21368900D01*
X258926641Y21291879D01*
X258958147Y21188015D01*
X258968786Y21080000D01*
X258958147Y20971985D01*
X258926641Y20868121D01*
X258916170Y20848532D01*
X258875477Y20772400D01*
X258806621Y20688499D01*
X258722720Y20619643D01*
X258654175Y20583005D01*
X258626999Y20568479D01*
X258523135Y20536973D01*
X258442187Y20529000D01*
X257788053Y20529000D01*
X257707105Y20536973D01*
X257603241Y20568479D01*
X257559213Y20592013D01*
X257507521Y20619643D01*
X257445417Y20670610D01*
X257425043Y20684223D01*
X257402404Y20693601D01*
X257378371Y20698381D01*
X257353867Y20698381D01*
X257329834Y20693601D01*
X257307195Y20684223D01*
X257286820Y20670609D01*
X257269493Y20653282D01*
X257255880Y20632908D01*
X257246502Y20610269D01*
X257241120Y20573984D01*
X257241120Y20512966D01*
X257236194Y20488200D01*
X257226670Y20440325D01*
X257198327Y20371897D01*
X257157178Y20310314D01*
X257104806Y20257942D01*
X257043223Y20216793D01*
X256974795Y20188450D01*
X256974794Y20188450D01*
X256974792Y20188449D01*
X256902154Y20174000D01*
X256828086Y20174000D01*
X256755448Y20188449D01*
X256755446Y20188450D01*
X256755445Y20188450D01*
X256687017Y20216793D01*
X256625434Y20257942D01*
X256573062Y20310314D01*
X256531913Y20371897D01*
X256503570Y20440325D01*
X256494047Y20488200D01*
X256489120Y20512966D01*
X256489120Y20587034D01*
X256503569Y20659672D01*
X256508099Y20670609D01*
X256531913Y20728103D01*
X256573062Y20789686D01*
X256625434Y20842058D01*
X256687017Y20883207D01*
X256755445Y20911550D01*
X256755446Y20911550D01*
X256755448Y20911551D01*
X256828086Y20926000D01*
X256902154Y20926000D01*
X256974792Y20911551D01*
X256974794Y20911550D01*
X256974795Y20911550D01*
X257043223Y20883207D01*
X257077835Y20860080D01*
X257099438Y20848532D01*
X257122887Y20841419D01*
X257147273Y20839017D01*
X257171659Y20841419D01*
X257195108Y20848532D01*
X257216719Y20860083D01*
X257235661Y20875628D01*
X257251206Y20894569D01*
X257262758Y20916180D01*
X257269871Y20939629D01*
X257272273Y20964015D01*
X257271671Y20976268D01*
X257266241Y21031400D01*
X257261454Y21080000D01*
X257272093Y21188015D01*
X257303599Y21291879D01*
X257344768Y21368900D01*
X257354763Y21387600D01*
X257423619Y21471501D01*
X257507520Y21540357D01*
X257592761Y21585919D01*
X257603241Y21591521D01*
X257707105Y21623027D01*
X257788053Y21631000D01*
X258442187Y21631000D01*
X258523135Y21623027D01*
X258523135Y21623027D01*
G37*
G36*
X164585385Y23259878D02*
G01*
X164735210Y23230076D01*
X165017474Y23113159D01*
X165271505Y22943421D01*
X165487541Y22727385D01*
X165657279Y22473354D01*
X165774196Y22191090D01*
X165833800Y21891440D01*
X165833800Y21585920D01*
X165774196Y21286270D01*
X165657279Y21004006D01*
X165487541Y20749975D01*
X165271505Y20533939D01*
X165017474Y20364201D01*
X164735210Y20247284D01*
X164585385Y20217482D01*
X164435561Y20187680D01*
X164130039Y20187680D01*
X163980215Y20217482D01*
X163830390Y20247284D01*
X163548126Y20364201D01*
X163294095Y20533939D01*
X163078059Y20749975D01*
X162908321Y21004006D01*
X162791404Y21286270D01*
X162731800Y21585920D01*
X162731800Y21891440D01*
X162791404Y22191090D01*
X162908321Y22473354D01*
X163078059Y22727385D01*
X163294095Y22943421D01*
X163548126Y23113159D01*
X163830390Y23230076D01*
X163980215Y23259878D01*
X164130039Y23289680D01*
X164435561Y23289680D01*
X164585385Y23259878D01*
X164585385Y23259878D01*
G37*
G36*
X194709765Y23259878D02*
G01*
X194859590Y23230076D01*
X195141854Y23113159D01*
X195395885Y22943421D01*
X195611921Y22727385D01*
X195781659Y22473354D01*
X195898576Y22191090D01*
X195958180Y21891440D01*
X195958180Y21585920D01*
X195898576Y21286270D01*
X195781659Y21004006D01*
X195611921Y20749975D01*
X195395885Y20533939D01*
X195141854Y20364201D01*
X194859590Y20247284D01*
X194709765Y20217482D01*
X194559941Y20187680D01*
X194254419Y20187680D01*
X194104595Y20217482D01*
X193954770Y20247284D01*
X193672506Y20364201D01*
X193418475Y20533939D01*
X193202439Y20749975D01*
X193032701Y21004006D01*
X192915784Y21286270D01*
X192856180Y21585920D01*
X192856180Y21891440D01*
X192915784Y22191090D01*
X193032701Y22473354D01*
X193202439Y22727385D01*
X193418475Y22943421D01*
X193672506Y23113159D01*
X193954770Y23230076D01*
X194104595Y23259878D01*
X194254419Y23289680D01*
X194559941Y23289680D01*
X194709765Y23259878D01*
X194709765Y23259878D01*
G37*
G36*
X34743112Y23099082D02*
G01*
X34803811Y23073940D01*
X34988979Y22997241D01*
X35011908Y22981920D01*
X35210251Y22849391D01*
X35398431Y22661211D01*
X35411256Y22642017D01*
X35523954Y22473354D01*
X35546282Y22439937D01*
X35648122Y22194072D01*
X35700040Y21933063D01*
X35700040Y21666937D01*
X35686330Y21598013D01*
X35648122Y21405928D01*
X35546281Y21160061D01*
X35471853Y21048672D01*
X35398431Y20938789D01*
X35210251Y20750609D01*
X35124933Y20693601D01*
X34988979Y20602759D01*
X34988978Y20602758D01*
X34988977Y20602758D01*
X34743112Y20500918D01*
X34482103Y20449000D01*
X34215977Y20449000D01*
X33954968Y20500918D01*
X33709103Y20602758D01*
X33709102Y20602758D01*
X33709101Y20602759D01*
X33573147Y20693601D01*
X33487829Y20750609D01*
X33299649Y20938789D01*
X33226227Y21048672D01*
X33151799Y21160061D01*
X33049958Y21405928D01*
X33011750Y21598013D01*
X32998040Y21666937D01*
X32998040Y21933063D01*
X33049958Y22194072D01*
X33151798Y22439937D01*
X33174127Y22473354D01*
X33286824Y22642017D01*
X33299649Y22661211D01*
X33487829Y22849391D01*
X33686172Y22981920D01*
X33709101Y22997241D01*
X33894270Y23073940D01*
X33954968Y23099082D01*
X34215977Y23151000D01*
X34482103Y23151000D01*
X34743112Y23099082D01*
X34743112Y23099082D01*
G37*
G36*
X262973135Y22033027D02*
G01*
X263076999Y22001521D01*
X263104175Y21986995D01*
X263172720Y21950357D01*
X263256621Y21881501D01*
X263325477Y21797600D01*
X263362115Y21729055D01*
X263376641Y21701879D01*
X263408147Y21598015D01*
X263418786Y21490000D01*
X263408147Y21381985D01*
X263376641Y21278121D01*
X263376639Y21278118D01*
X263325477Y21182400D01*
X263256621Y21098499D01*
X263172720Y21029643D01*
X263124756Y21004006D01*
X263076999Y20978479D01*
X262973135Y20946973D01*
X262892187Y20939000D01*
X262238053Y20939000D01*
X262157105Y20946973D01*
X262053241Y20978479D01*
X262005484Y21004006D01*
X261957520Y21029643D01*
X261873619Y21098499D01*
X261804763Y21182400D01*
X261753601Y21278118D01*
X261753599Y21278121D01*
X261722093Y21381985D01*
X261711454Y21490000D01*
X261722093Y21598015D01*
X261753599Y21701879D01*
X261768125Y21729055D01*
X261804763Y21797600D01*
X261873619Y21881501D01*
X261957520Y21950357D01*
X262026065Y21986995D01*
X262053241Y22001521D01*
X262157105Y22033027D01*
X262238053Y22041000D01*
X262892187Y22041000D01*
X262973135Y22033027D01*
X262973135Y22033027D01*
G37*
G36*
X205044251Y26342518D02*
G01*
X205238609Y26262012D01*
X205513473Y26148160D01*
X205935760Y25865996D01*
X206294886Y25506870D01*
X206577050Y25084583D01*
X206668467Y24863882D01*
X206771408Y24615361D01*
X206870490Y24117242D01*
X206870490Y23609358D01*
X206771408Y23111239D01*
X206701895Y22943421D01*
X206577050Y22642017D01*
X206294886Y22219730D01*
X205935760Y21860604D01*
X205513473Y21578440D01*
X205299959Y21490000D01*
X205044251Y21384082D01*
X204546132Y21285000D01*
X204038248Y21285000D01*
X203540129Y21384082D01*
X203284421Y21490000D01*
X203070907Y21578440D01*
X202648620Y21860604D01*
X202289494Y22219730D01*
X202007330Y22642017D01*
X201882485Y22943421D01*
X201812972Y23111239D01*
X201713890Y23609358D01*
X201713890Y24117242D01*
X201812972Y24615361D01*
X201915913Y24863882D01*
X202007330Y25084583D01*
X202289494Y25506870D01*
X202648620Y25865996D01*
X203070907Y26148160D01*
X203345771Y26262012D01*
X203540129Y26342518D01*
X204038248Y26441600D01*
X204546132Y26441600D01*
X205044251Y26342518D01*
X205044251Y26342518D01*
G37*
G36*
X92600780Y21607780D02*
G01*
X91498420Y21607780D01*
X91498420Y22410420D01*
X92600780Y22410420D01*
X92600780Y21607780D01*
X92600780Y21607780D01*
G37*
G36*
X88968580Y21633180D02*
G01*
X87866220Y21633180D01*
X87866220Y22435820D01*
X88968580Y22435820D01*
X88968580Y21633180D01*
X88968580Y21633180D01*
G37*
G36*
X110126780Y22014180D02*
G01*
X109024420Y22014180D01*
X109024420Y22816820D01*
X110126780Y22816820D01*
X110126780Y22014180D01*
X110126780Y22014180D01*
G37*
G36*
X115257580Y22166580D02*
G01*
X114155220Y22166580D01*
X114155220Y22969220D01*
X115257580Y22969220D01*
X115257580Y22166580D01*
X115257580Y22166580D01*
G37*
G36*
X113276380Y22179280D02*
G01*
X112174020Y22179280D01*
X112174020Y22981920D01*
X113276380Y22981920D01*
X113276380Y22179280D01*
X113276380Y22179280D01*
G37*
G36*
X230411020Y22512020D02*
G01*
X229608380Y22512020D01*
X229608380Y23614380D01*
X230411020Y23614380D01*
X230411020Y22512020D01*
X230411020Y22512020D01*
G37*
G36*
X231909620Y22512020D02*
G01*
X231106980Y22512020D01*
X231106980Y23614380D01*
X231909620Y23614380D01*
X231909620Y22512020D01*
X231909620Y22512020D01*
G37*
G36*
X172205385Y25799878D02*
G01*
X172355210Y25770076D01*
X172637474Y25653159D01*
X172891505Y25483421D01*
X173107541Y25267385D01*
X173277279Y25013354D01*
X173394196Y24731090D01*
X173394196Y24731089D01*
X173453800Y24431441D01*
X173453800Y24125919D01*
X173446498Y24089212D01*
X173394196Y23826270D01*
X173277279Y23544006D01*
X173107541Y23289975D01*
X172891505Y23073939D01*
X172637474Y22904201D01*
X172355210Y22787284D01*
X172205385Y22757482D01*
X172055561Y22727680D01*
X171750039Y22727680D01*
X171600215Y22757482D01*
X171450390Y22787284D01*
X171168126Y22904201D01*
X170914095Y23073939D01*
X170698059Y23289975D01*
X170528321Y23544006D01*
X170411404Y23826270D01*
X170359102Y24089212D01*
X170351800Y24125919D01*
X170351800Y24431441D01*
X170411404Y24731089D01*
X170411404Y24731090D01*
X170528321Y25013354D01*
X170698059Y25267385D01*
X170914095Y25483421D01*
X171168126Y25653159D01*
X171450390Y25770076D01*
X171600215Y25799878D01*
X171750039Y25829680D01*
X172055561Y25829680D01*
X172205385Y25799878D01*
X172205385Y25799878D01*
G37*
G36*
X187089765Y25799878D02*
G01*
X187239590Y25770076D01*
X187521854Y25653159D01*
X187775885Y25483421D01*
X187991921Y25267385D01*
X188161659Y25013354D01*
X188278576Y24731090D01*
X188278576Y24731089D01*
X188338180Y24431441D01*
X188338180Y24125919D01*
X188330878Y24089212D01*
X188278576Y23826270D01*
X188161659Y23544006D01*
X187991921Y23289975D01*
X187775885Y23073939D01*
X187521854Y22904201D01*
X187239590Y22787284D01*
X187089765Y22757482D01*
X186939941Y22727680D01*
X186634419Y22727680D01*
X186484595Y22757482D01*
X186334770Y22787284D01*
X186052506Y22904201D01*
X185798475Y23073939D01*
X185582439Y23289975D01*
X185412701Y23544006D01*
X185295784Y23826270D01*
X185243482Y24089212D01*
X185236180Y24125919D01*
X185236180Y24431441D01*
X185295784Y24731089D01*
X185295784Y24731090D01*
X185412701Y25013354D01*
X185582439Y25267385D01*
X185798475Y25483421D01*
X186052506Y25653159D01*
X186334770Y25770076D01*
X186484595Y25799878D01*
X186634419Y25829680D01*
X186939941Y25829680D01*
X187089765Y25799878D01*
X187089765Y25799878D01*
G37*
G36*
X96842580Y23080980D02*
G01*
X95740220Y23080980D01*
X95740220Y23883620D01*
X96842580Y23883620D01*
X96842580Y23080980D01*
X96842580Y23080980D01*
G37*
G36*
X92600780Y23106380D02*
G01*
X91498420Y23106380D01*
X91498420Y23909020D01*
X92600780Y23909020D01*
X92600780Y23106380D01*
X92600780Y23106380D01*
G37*
G36*
X88968580Y23131780D02*
G01*
X87866220Y23131780D01*
X87866220Y23934420D01*
X88968580Y23934420D01*
X88968580Y23131780D01*
X88968580Y23131780D01*
G37*
G36*
X107732600Y25514799D02*
G01*
X107735002Y25490413D01*
X107742115Y25466964D01*
X107753666Y25445353D01*
X107769211Y25426411D01*
X107788153Y25410866D01*
X107809764Y25399315D01*
X107833213Y25392202D01*
X107857599Y25389800D01*
X108020100Y25389800D01*
X108020100Y23987800D01*
X107857599Y23987800D01*
X107833213Y23985398D01*
X107809764Y23978285D01*
X107788153Y23966734D01*
X107769211Y23951189D01*
X107753666Y23932247D01*
X107742115Y23910636D01*
X107735002Y23887187D01*
X107732600Y23862801D01*
X107732600Y23200300D01*
X105830600Y23200300D01*
X105830600Y23862801D01*
X105828198Y23887187D01*
X105821085Y23910636D01*
X105809534Y23932247D01*
X105793989Y23951189D01*
X105775047Y23966734D01*
X105753436Y23978285D01*
X105729987Y23985398D01*
X105705601Y23987800D01*
X105543100Y23987800D01*
X105543100Y25389800D01*
X105705601Y25389800D01*
X105729987Y25392202D01*
X105753436Y25399315D01*
X105755280Y25400301D01*
X106195100Y25400301D01*
X106195100Y23977299D01*
X106197502Y23952913D01*
X106204615Y23929464D01*
X106216166Y23907853D01*
X106231711Y23888911D01*
X106250653Y23873366D01*
X106272264Y23861815D01*
X106295713Y23854702D01*
X106320099Y23852300D01*
X107243101Y23852300D01*
X107267487Y23854702D01*
X107290936Y23861815D01*
X107312547Y23873366D01*
X107331489Y23888911D01*
X107347034Y23907853D01*
X107358585Y23929464D01*
X107365698Y23952913D01*
X107368100Y23977299D01*
X107368100Y25400301D01*
X107365698Y25424687D01*
X107358585Y25448136D01*
X107347034Y25469747D01*
X107331489Y25488689D01*
X107312547Y25504234D01*
X107290936Y25515785D01*
X107267487Y25522898D01*
X107243101Y25525300D01*
X106320099Y25525300D01*
X106295713Y25522898D01*
X106272264Y25515785D01*
X106250653Y25504234D01*
X106231711Y25488689D01*
X106216166Y25469747D01*
X106204615Y25448136D01*
X106197502Y25424687D01*
X106195100Y25400301D01*
X105755280Y25400301D01*
X105775047Y25410866D01*
X105793989Y25426411D01*
X105809534Y25445353D01*
X105821085Y25466964D01*
X105828198Y25490413D01*
X105830600Y25514799D01*
X105830600Y26177300D01*
X107732600Y26177300D01*
X107732600Y25514799D01*
X107732600Y25514799D01*
G37*
G36*
X104538780Y23284180D02*
G01*
X103436420Y23284180D01*
X103436420Y24086820D01*
X104538780Y24086820D01*
X104538780Y23284180D01*
X104538780Y23284180D01*
G37*
G36*
X110126780Y23512780D02*
G01*
X109024420Y23512780D01*
X109024420Y24315420D01*
X110126780Y24315420D01*
X110126780Y23512780D01*
X110126780Y23512780D01*
G37*
G36*
X115257580Y23665180D02*
G01*
X114155220Y23665180D01*
X114155220Y24467820D01*
X115257580Y24467820D01*
X115257580Y23665180D01*
X115257580Y23665180D01*
G37*
G36*
X113276380Y23677880D02*
G01*
X112174020Y23677880D01*
X112174020Y24480520D01*
X113276380Y24480520D01*
X113276380Y23677880D01*
X113276380Y23677880D01*
G37*
G36*
X241407714Y26410918D02*
G01*
X241535322Y26385535D01*
X241639176Y26342517D01*
X241775727Y26285956D01*
X241775728Y26285955D01*
X241992089Y26141388D01*
X242176088Y25957389D01*
X242261420Y25829680D01*
X242320656Y25741027D01*
X242337844Y25699530D01*
X242420235Y25500622D01*
X242434996Y25426411D01*
X242466629Y25267385D01*
X242471000Y25245407D01*
X242471000Y24985193D01*
X242420235Y24729978D01*
X242372759Y24615362D01*
X242320656Y24489573D01*
X242320655Y24489572D01*
X242176088Y24273211D01*
X241992089Y24089212D01*
X241847521Y23992615D01*
X241775727Y23944644D01*
X241689722Y23909020D01*
X241535322Y23845065D01*
X241440837Y23826271D01*
X241280109Y23794300D01*
X241019891Y23794300D01*
X240859163Y23826271D01*
X240764678Y23845065D01*
X240610278Y23909020D01*
X240524273Y23944644D01*
X240452479Y23992615D01*
X240307911Y24089212D01*
X240123912Y24273211D01*
X239979345Y24489572D01*
X239979344Y24489573D01*
X239927241Y24615362D01*
X239879765Y24729978D01*
X239829000Y24985193D01*
X239829000Y25245407D01*
X239833372Y25267385D01*
X239865004Y25426411D01*
X239879765Y25500622D01*
X239962156Y25699530D01*
X239979344Y25741027D01*
X240038580Y25829680D01*
X240123912Y25957389D01*
X240307911Y26141388D01*
X240524272Y26285955D01*
X240524273Y26285956D01*
X240660824Y26342517D01*
X240764678Y26385535D01*
X240892286Y26410918D01*
X241019891Y26436300D01*
X241280109Y26436300D01*
X241407714Y26410918D01*
X241407714Y26410918D01*
G37*
G36*
X254107714Y26410918D02*
G01*
X254235322Y26385535D01*
X254339176Y26342517D01*
X254475727Y26285956D01*
X254475728Y26285955D01*
X254692089Y26141388D01*
X254876088Y25957389D01*
X254961420Y25829680D01*
X255020656Y25741027D01*
X255037844Y25699530D01*
X255120235Y25500622D01*
X255134996Y25426411D01*
X255166629Y25267385D01*
X255171000Y25245407D01*
X255171000Y24985193D01*
X255120235Y24729978D01*
X255072759Y24615362D01*
X255020656Y24489573D01*
X255020655Y24489572D01*
X254876088Y24273211D01*
X254692089Y24089212D01*
X254547521Y23992615D01*
X254475727Y23944644D01*
X254389722Y23909020D01*
X254235322Y23845065D01*
X254140837Y23826271D01*
X253980109Y23794300D01*
X253719891Y23794300D01*
X253559163Y23826271D01*
X253464678Y23845065D01*
X253310278Y23909020D01*
X253224273Y23944644D01*
X253152479Y23992615D01*
X253007911Y24089212D01*
X252823912Y24273211D01*
X252679345Y24489572D01*
X252679344Y24489573D01*
X252627241Y24615362D01*
X252579765Y24729978D01*
X252529000Y24985193D01*
X252529000Y25245407D01*
X252533372Y25267385D01*
X252565004Y25426411D01*
X252579765Y25500622D01*
X252662156Y25699530D01*
X252679344Y25741027D01*
X252738580Y25829680D01*
X252823912Y25957389D01*
X253007911Y26141388D01*
X253224272Y26285955D01*
X253224273Y26285956D01*
X253360824Y26342517D01*
X253464678Y26385535D01*
X253592286Y26410918D01*
X253719891Y26436300D01*
X253980109Y26436300D01*
X254107714Y26410918D01*
X254107714Y26410918D01*
G37*
G36*
X247757714Y26410918D02*
G01*
X247885322Y26385535D01*
X247989176Y26342517D01*
X248125727Y26285956D01*
X248125728Y26285955D01*
X248342089Y26141388D01*
X248526088Y25957389D01*
X248611420Y25829680D01*
X248670656Y25741027D01*
X248687844Y25699530D01*
X248770235Y25500622D01*
X248784996Y25426411D01*
X248816629Y25267385D01*
X248821000Y25245407D01*
X248821000Y24985193D01*
X248770235Y24729978D01*
X248722759Y24615362D01*
X248670656Y24489573D01*
X248670655Y24489572D01*
X248526088Y24273211D01*
X248342089Y24089212D01*
X248197521Y23992615D01*
X248125727Y23944644D01*
X248039722Y23909020D01*
X247885322Y23845065D01*
X247790837Y23826271D01*
X247630109Y23794300D01*
X247369891Y23794300D01*
X247209163Y23826271D01*
X247114678Y23845065D01*
X246960278Y23909020D01*
X246874273Y23944644D01*
X246802479Y23992615D01*
X246657911Y24089212D01*
X246473912Y24273211D01*
X246329345Y24489572D01*
X246329344Y24489573D01*
X246277241Y24615362D01*
X246229765Y24729978D01*
X246179000Y24985193D01*
X246179000Y25245407D01*
X246183372Y25267385D01*
X246215004Y25426411D01*
X246229765Y25500622D01*
X246312156Y25699530D01*
X246329344Y25741027D01*
X246388580Y25829680D01*
X246473912Y25957389D01*
X246657911Y26141388D01*
X246874272Y26285955D01*
X246874273Y26285956D01*
X247010824Y26342517D01*
X247114678Y26385535D01*
X247242286Y26410918D01*
X247369891Y26436300D01*
X247630109Y26436300D01*
X247757714Y26410918D01*
X247757714Y26410918D01*
G37*
G36*
X96842580Y24579580D02*
G01*
X95740220Y24579580D01*
X95740220Y25382220D01*
X96842580Y25382220D01*
X96842580Y24579580D01*
X96842580Y24579580D01*
G37*
G36*
X22327061Y29779218D02*
G01*
X22454574Y29726400D01*
X22796283Y29584860D01*
X23218570Y29302696D01*
X23577696Y28943570D01*
X23859860Y28521283D01*
X23971226Y28252420D01*
X24054218Y28052061D01*
X24153300Y27553942D01*
X24153300Y27046058D01*
X24054218Y26547939D01*
X24023765Y26474420D01*
X23859860Y26078717D01*
X23577696Y25656430D01*
X23218570Y25297304D01*
X22796283Y25015140D01*
X22521419Y24901288D01*
X22327061Y24820782D01*
X21828942Y24721700D01*
X21321058Y24721700D01*
X20822939Y24820782D01*
X20628581Y24901288D01*
X20353717Y25015140D01*
X19931430Y25297304D01*
X19572304Y25656430D01*
X19290140Y26078717D01*
X19126235Y26474420D01*
X19095782Y26547939D01*
X18996700Y27046058D01*
X18996700Y27553942D01*
X19095782Y28052061D01*
X19178774Y28252420D01*
X19290140Y28521283D01*
X19572304Y28943570D01*
X19931430Y29302696D01*
X20353717Y29584860D01*
X20695426Y29726400D01*
X20822939Y29779218D01*
X21321058Y29878300D01*
X21828942Y29878300D01*
X22327061Y29779218D01*
X22327061Y29779218D01*
G37*
G36*
X47843661Y29822318D02*
G01*
X47993040Y29760443D01*
X48312883Y29627960D01*
X48735170Y29345796D01*
X49094296Y28986670D01*
X49376460Y28564383D01*
X49407154Y28490280D01*
X49570818Y28095161D01*
X49669900Y27597042D01*
X49669900Y27089158D01*
X49570818Y26591039D01*
X49508918Y26441600D01*
X49376460Y26121817D01*
X49094296Y25699530D01*
X48735170Y25340404D01*
X48312883Y25058240D01*
X48136531Y24985193D01*
X47843661Y24863882D01*
X47345542Y24764800D01*
X46837658Y24764800D01*
X46339539Y24863882D01*
X46046669Y24985193D01*
X45870317Y25058240D01*
X45448030Y25340404D01*
X45088904Y25699530D01*
X44806740Y26121817D01*
X44674282Y26441600D01*
X44612382Y26591039D01*
X44513300Y27089158D01*
X44513300Y27597042D01*
X44612382Y28095161D01*
X44776046Y28490280D01*
X44806740Y28564383D01*
X45088904Y28986670D01*
X45448030Y29345796D01*
X45870317Y29627960D01*
X46190160Y29760443D01*
X46339539Y29822318D01*
X46837658Y29921400D01*
X47345542Y29921400D01*
X47843661Y29822318D01*
X47843661Y29822318D01*
G37*
G36*
X220309661Y29822318D02*
G01*
X220459040Y29760443D01*
X220778883Y29627960D01*
X221201170Y29345796D01*
X221560296Y28986670D01*
X221842460Y28564383D01*
X221873154Y28490280D01*
X222036818Y28095161D01*
X222135900Y27597042D01*
X222135900Y27089158D01*
X222036818Y26591039D01*
X221974918Y26441600D01*
X221842460Y26121817D01*
X221560296Y25699530D01*
X221201170Y25340404D01*
X220778883Y25058240D01*
X220602531Y24985193D01*
X220309661Y24863882D01*
X219811542Y24764800D01*
X219303658Y24764800D01*
X218805539Y24863882D01*
X218512669Y24985193D01*
X218336317Y25058240D01*
X217914030Y25340404D01*
X217554904Y25699530D01*
X217272740Y26121817D01*
X217140282Y26441600D01*
X217078382Y26591039D01*
X216979300Y27089158D01*
X216979300Y27597042D01*
X217078382Y28095161D01*
X217242046Y28490280D01*
X217272740Y28564383D01*
X217554904Y28986670D01*
X217914030Y29345796D01*
X218336317Y29627960D01*
X218656160Y29760443D01*
X218805539Y29822318D01*
X219303658Y29921400D01*
X219811542Y29921400D01*
X220309661Y29822318D01*
X220309661Y29822318D01*
G37*
G36*
X122545061Y29822318D02*
G01*
X122694440Y29760443D01*
X123014283Y29627960D01*
X123436570Y29345796D01*
X123795696Y28986670D01*
X124077860Y28564383D01*
X124108554Y28490280D01*
X124272218Y28095161D01*
X124371300Y27597042D01*
X124371300Y27089158D01*
X124272218Y26591039D01*
X124210318Y26441600D01*
X124077860Y26121817D01*
X123795696Y25699530D01*
X123436570Y25340404D01*
X123014283Y25058240D01*
X122837931Y24985193D01*
X122545061Y24863882D01*
X122046942Y24764800D01*
X121539058Y24764800D01*
X121040939Y24863882D01*
X120748069Y24985193D01*
X120571717Y25058240D01*
X120149430Y25340404D01*
X119790304Y25699530D01*
X119508140Y26121817D01*
X119375682Y26441600D01*
X119313782Y26591039D01*
X119214700Y27089158D01*
X119214700Y27597042D01*
X119313782Y28095161D01*
X119477446Y28490280D01*
X119508140Y28564383D01*
X119790304Y28986670D01*
X120149430Y29345796D01*
X120571717Y29627960D01*
X120891560Y29760443D01*
X121040939Y29822318D01*
X121539058Y29921400D01*
X122046942Y29921400D01*
X122545061Y29822318D01*
X122545061Y29822318D01*
G37*
G36*
X68239861Y29822318D02*
G01*
X68389240Y29760443D01*
X68709083Y29627960D01*
X69131370Y29345796D01*
X69490496Y28986670D01*
X69772660Y28564383D01*
X69803354Y28490280D01*
X69967018Y28095161D01*
X70066100Y27597042D01*
X70066100Y27089158D01*
X69967018Y26591039D01*
X69905118Y26441600D01*
X69772660Y26121817D01*
X69490496Y25699530D01*
X69131370Y25340404D01*
X68709083Y25058240D01*
X68532731Y24985193D01*
X68239861Y24863882D01*
X67741742Y24764800D01*
X67233858Y24764800D01*
X66735739Y24863882D01*
X66442869Y24985193D01*
X66266517Y25058240D01*
X65844230Y25340404D01*
X65485104Y25699530D01*
X65202940Y26121817D01*
X65070482Y26441600D01*
X65008582Y26591039D01*
X64909500Y27089158D01*
X64909500Y27597042D01*
X65008582Y28095161D01*
X65172246Y28490280D01*
X65202940Y28564383D01*
X65485104Y28986670D01*
X65844230Y29345796D01*
X66266517Y29627960D01*
X66586360Y29760443D01*
X66735739Y29822318D01*
X67233858Y29921400D01*
X67741742Y29921400D01*
X68239861Y29822318D01*
X68239861Y29822318D01*
G37*
G36*
X104538780Y24782780D02*
G01*
X103436420Y24782780D01*
X103436420Y25585420D01*
X104538780Y25585420D01*
X104538780Y24782780D01*
X104538780Y24782780D01*
G37*
G36*
X86785000Y25483000D02*
G01*
X84983000Y25483000D01*
X84983000Y27285000D01*
X86785000Y27285000D01*
X86785000Y25483000D01*
X86785000Y25483000D01*
G37*
G36*
X88534443Y27278481D02*
G01*
X88600627Y27271963D01*
X88770466Y27220443D01*
X88926991Y27136778D01*
X88962729Y27107448D01*
X89064186Y27024186D01*
X89147448Y26922729D01*
X89176778Y26886991D01*
X89260443Y26730466D01*
X89311963Y26560627D01*
X89329359Y26384000D01*
X89311963Y26207373D01*
X89260443Y26037534D01*
X89176778Y25881009D01*
X89166840Y25868900D01*
X89064186Y25743814D01*
X88962729Y25660552D01*
X88926991Y25631222D01*
X88770466Y25547557D01*
X88600627Y25496037D01*
X88534442Y25489518D01*
X88468260Y25483000D01*
X88379740Y25483000D01*
X88313557Y25489519D01*
X88247373Y25496037D01*
X88077534Y25547557D01*
X87921009Y25631222D01*
X87885271Y25660552D01*
X87783814Y25743814D01*
X87681160Y25868900D01*
X87671222Y25881009D01*
X87587557Y26037534D01*
X87536037Y26207373D01*
X87518641Y26384000D01*
X87536037Y26560627D01*
X87587557Y26730466D01*
X87671222Y26886991D01*
X87700552Y26922729D01*
X87783814Y27024186D01*
X87885271Y27107448D01*
X87921009Y27136778D01*
X88077534Y27220443D01*
X88247373Y27271963D01*
X88313557Y27278481D01*
X88379740Y27285000D01*
X88468260Y27285000D01*
X88534443Y27278481D01*
X88534443Y27278481D01*
G37*
G36*
X93614443Y27278481D02*
G01*
X93680627Y27271963D01*
X93850466Y27220443D01*
X94006991Y27136778D01*
X94042729Y27107448D01*
X94144186Y27024186D01*
X94227448Y26922729D01*
X94256778Y26886991D01*
X94340443Y26730466D01*
X94391963Y26560627D01*
X94409359Y26384000D01*
X94391963Y26207373D01*
X94340443Y26037534D01*
X94256778Y25881009D01*
X94246840Y25868900D01*
X94144186Y25743814D01*
X94042729Y25660552D01*
X94006991Y25631222D01*
X93850466Y25547557D01*
X93680627Y25496037D01*
X93614442Y25489518D01*
X93548260Y25483000D01*
X93459740Y25483000D01*
X93393557Y25489519D01*
X93327373Y25496037D01*
X93157534Y25547557D01*
X93001009Y25631222D01*
X92965271Y25660552D01*
X92863814Y25743814D01*
X92761160Y25868900D01*
X92751222Y25881009D01*
X92667557Y26037534D01*
X92616037Y26207373D01*
X92598641Y26384000D01*
X92616037Y26560627D01*
X92667557Y26730466D01*
X92751222Y26886991D01*
X92780552Y26922729D01*
X92863814Y27024186D01*
X92965271Y27107448D01*
X93001009Y27136778D01*
X93157534Y27220443D01*
X93327373Y27271963D01*
X93393557Y27278481D01*
X93459740Y27285000D01*
X93548260Y27285000D01*
X93614443Y27278481D01*
X93614443Y27278481D01*
G37*
G36*
X91074443Y27278481D02*
G01*
X91140627Y27271963D01*
X91310466Y27220443D01*
X91466991Y27136778D01*
X91502729Y27107448D01*
X91604186Y27024186D01*
X91687448Y26922729D01*
X91716778Y26886991D01*
X91800443Y26730466D01*
X91851963Y26560627D01*
X91869359Y26384000D01*
X91851963Y26207373D01*
X91800443Y26037534D01*
X91716778Y25881009D01*
X91706840Y25868900D01*
X91604186Y25743814D01*
X91502729Y25660552D01*
X91466991Y25631222D01*
X91310466Y25547557D01*
X91140627Y25496037D01*
X91074442Y25489518D01*
X91008260Y25483000D01*
X90919740Y25483000D01*
X90853557Y25489519D01*
X90787373Y25496037D01*
X90617534Y25547557D01*
X90461009Y25631222D01*
X90425271Y25660552D01*
X90323814Y25743814D01*
X90221160Y25868900D01*
X90211222Y25881009D01*
X90127557Y26037534D01*
X90076037Y26207373D01*
X90058641Y26384000D01*
X90076037Y26560627D01*
X90127557Y26730466D01*
X90211222Y26886991D01*
X90240552Y26922729D01*
X90323814Y27024186D01*
X90425271Y27107448D01*
X90461009Y27136778D01*
X90617534Y27220443D01*
X90787373Y27271963D01*
X90853557Y27278481D01*
X90919740Y27285000D01*
X91008260Y27285000D01*
X91074443Y27278481D01*
X91074443Y27278481D01*
G37*
G36*
X137497820Y26474420D02*
G01*
X136695180Y26474420D01*
X136695180Y27576780D01*
X137497820Y27576780D01*
X137497820Y26474420D01*
X137497820Y26474420D01*
G37*
G36*
X135999220Y26474420D02*
G01*
X135196580Y26474420D01*
X135196580Y27576780D01*
X135999220Y27576780D01*
X135999220Y26474420D01*
X135999220Y26474420D01*
G37*
G36*
X91074442Y29818482D02*
G01*
X91140627Y29811963D01*
X91310466Y29760443D01*
X91310468Y29760442D01*
X91388728Y29718611D01*
X91466991Y29676778D01*
X91502729Y29647448D01*
X91604186Y29564186D01*
X91684708Y29466068D01*
X91716778Y29426991D01*
X91800443Y29270466D01*
X91851963Y29100627D01*
X91869359Y28924000D01*
X91851963Y28747373D01*
X91800443Y28577534D01*
X91716778Y28421009D01*
X91687448Y28385271D01*
X91604186Y28283814D01*
X91502729Y28200552D01*
X91466991Y28171222D01*
X91310466Y28087557D01*
X91140627Y28036037D01*
X91074443Y28029519D01*
X91008260Y28023000D01*
X90919740Y28023000D01*
X90853557Y28029519D01*
X90787373Y28036037D01*
X90617534Y28087557D01*
X90461009Y28171222D01*
X90425271Y28200552D01*
X90323814Y28283814D01*
X90240552Y28385271D01*
X90211222Y28421009D01*
X90127557Y28577534D01*
X90076037Y28747373D01*
X90058641Y28924000D01*
X90076037Y29100627D01*
X90127557Y29270466D01*
X90211222Y29426991D01*
X90243292Y29466068D01*
X90323814Y29564186D01*
X90425271Y29647448D01*
X90461009Y29676778D01*
X90539271Y29718610D01*
X90617532Y29760442D01*
X90617534Y29760443D01*
X90787373Y29811963D01*
X90853558Y29818482D01*
X90919740Y29825000D01*
X91008260Y29825000D01*
X91074442Y29818482D01*
X91074442Y29818482D01*
G37*
G36*
X93614442Y29818482D02*
G01*
X93680627Y29811963D01*
X93850466Y29760443D01*
X93850468Y29760442D01*
X93928728Y29718611D01*
X94006991Y29676778D01*
X94042729Y29647448D01*
X94144186Y29564186D01*
X94224708Y29466068D01*
X94256778Y29426991D01*
X94340443Y29270466D01*
X94391963Y29100627D01*
X94409359Y28924000D01*
X94391963Y28747373D01*
X94340443Y28577534D01*
X94256778Y28421009D01*
X94227448Y28385271D01*
X94144186Y28283814D01*
X94042729Y28200552D01*
X94006991Y28171222D01*
X93850466Y28087557D01*
X93680627Y28036037D01*
X93614443Y28029519D01*
X93548260Y28023000D01*
X93459740Y28023000D01*
X93393557Y28029519D01*
X93327373Y28036037D01*
X93157534Y28087557D01*
X93001009Y28171222D01*
X92965271Y28200552D01*
X92863814Y28283814D01*
X92780552Y28385271D01*
X92751222Y28421009D01*
X92667557Y28577534D01*
X92616037Y28747373D01*
X92598641Y28924000D01*
X92616037Y29100627D01*
X92667557Y29270466D01*
X92751222Y29426991D01*
X92783292Y29466068D01*
X92863814Y29564186D01*
X92965271Y29647448D01*
X93001009Y29676778D01*
X93079271Y29718610D01*
X93157532Y29760442D01*
X93157534Y29760443D01*
X93327373Y29811963D01*
X93393558Y29818482D01*
X93459740Y29825000D01*
X93548260Y29825000D01*
X93614442Y29818482D01*
X93614442Y29818482D01*
G37*
G36*
X88534442Y29818482D02*
G01*
X88600627Y29811963D01*
X88770466Y29760443D01*
X88770468Y29760442D01*
X88848728Y29718611D01*
X88926991Y29676778D01*
X88962729Y29647448D01*
X89064186Y29564186D01*
X89144708Y29466068D01*
X89176778Y29426991D01*
X89260443Y29270466D01*
X89311963Y29100627D01*
X89329359Y28924000D01*
X89311963Y28747373D01*
X89260443Y28577534D01*
X89176778Y28421009D01*
X89147448Y28385271D01*
X89064186Y28283814D01*
X88962729Y28200552D01*
X88926991Y28171222D01*
X88770466Y28087557D01*
X88600627Y28036037D01*
X88534443Y28029519D01*
X88468260Y28023000D01*
X88379740Y28023000D01*
X88313557Y28029519D01*
X88247373Y28036037D01*
X88077534Y28087557D01*
X87921009Y28171222D01*
X87885271Y28200552D01*
X87783814Y28283814D01*
X87700552Y28385271D01*
X87671222Y28421009D01*
X87587557Y28577534D01*
X87536037Y28747373D01*
X87518641Y28924000D01*
X87536037Y29100627D01*
X87587557Y29270466D01*
X87671222Y29426991D01*
X87703292Y29466068D01*
X87783814Y29564186D01*
X87885271Y29647448D01*
X87921009Y29676778D01*
X87999271Y29718610D01*
X88077532Y29760442D01*
X88077534Y29760443D01*
X88247373Y29811963D01*
X88313558Y29818482D01*
X88379740Y29825000D01*
X88468260Y29825000D01*
X88534442Y29818482D01*
X88534442Y29818482D01*
G37*
G36*
X85994442Y29818482D02*
G01*
X86060627Y29811963D01*
X86230466Y29760443D01*
X86230468Y29760442D01*
X86308728Y29718611D01*
X86386991Y29676778D01*
X86422729Y29647448D01*
X86524186Y29564186D01*
X86604708Y29466068D01*
X86636778Y29426991D01*
X86720443Y29270466D01*
X86771963Y29100627D01*
X86789359Y28924000D01*
X86771963Y28747373D01*
X86720443Y28577534D01*
X86636778Y28421009D01*
X86607448Y28385271D01*
X86524186Y28283814D01*
X86422729Y28200552D01*
X86386991Y28171222D01*
X86230466Y28087557D01*
X86060627Y28036037D01*
X85994443Y28029519D01*
X85928260Y28023000D01*
X85839740Y28023000D01*
X85773557Y28029519D01*
X85707373Y28036037D01*
X85537534Y28087557D01*
X85381009Y28171222D01*
X85345271Y28200552D01*
X85243814Y28283814D01*
X85160552Y28385271D01*
X85131222Y28421009D01*
X85047557Y28577534D01*
X84996037Y28747373D01*
X84978641Y28924000D01*
X84996037Y29100627D01*
X85047557Y29270466D01*
X85131222Y29426991D01*
X85163292Y29466068D01*
X85243814Y29564186D01*
X85345271Y29647448D01*
X85381009Y29676778D01*
X85459271Y29718610D01*
X85537532Y29760442D01*
X85537534Y29760443D01*
X85707373Y29811963D01*
X85773558Y29818482D01*
X85839740Y29825000D01*
X85928260Y29825000D01*
X85994442Y29818482D01*
X85994442Y29818482D01*
G37*
G36*
X130821430Y28252420D02*
G01*
X128969770Y28252420D01*
X128969770Y29405580D01*
X130821430Y29405580D01*
X130821430Y28252420D01*
X130821430Y28252420D01*
G37*
G36*
X135069580Y28287980D02*
G01*
X133967220Y28287980D01*
X133967220Y29090620D01*
X135069580Y29090620D01*
X135069580Y28287980D01*
X135069580Y28287980D01*
G37*
G36*
X133367780Y28300680D02*
G01*
X132265420Y28300680D01*
X132265420Y29103320D01*
X133367780Y29103320D01*
X133367780Y28300680D01*
X133367780Y28300680D01*
G37*
G36*
X178733980Y28488880D02*
G01*
X177631620Y28488880D01*
X177631620Y29291520D01*
X178733980Y29291520D01*
X178733980Y28488880D01*
X178733980Y28488880D01*
G37*
G36*
X176333980Y28490280D02*
G01*
X175231620Y28490280D01*
X175231620Y29292920D01*
X176333980Y29292920D01*
X176333980Y28490280D01*
X176333980Y28490280D01*
G37*
G36*
X259767498Y32146614D02*
G01*
X260003831Y32099605D01*
X260337761Y31961286D01*
X260638290Y31760479D01*
X260893870Y31504899D01*
X261094677Y31204370D01*
X261232996Y30870440D01*
X261266101Y30704010D01*
X261298220Y30542539D01*
X261303510Y30515941D01*
X261303510Y30154497D01*
X261232996Y29799998D01*
X261094677Y29466068D01*
X260893870Y29165539D01*
X260638290Y28909959D01*
X260337761Y28709152D01*
X260003831Y28570833D01*
X259770396Y28524400D01*
X259649333Y28500319D01*
X259287887Y28500319D01*
X259166824Y28524400D01*
X258933389Y28570833D01*
X258599459Y28709152D01*
X258298930Y28909959D01*
X258043350Y29165539D01*
X257842543Y29466068D01*
X257704224Y29799998D01*
X257633710Y30154497D01*
X257633710Y30515941D01*
X257639001Y30542539D01*
X257671119Y30704010D01*
X257704224Y30870440D01*
X257842543Y31204370D01*
X258043350Y31504899D01*
X258298930Y31760479D01*
X258599459Y31961286D01*
X258933389Y32099605D01*
X259169722Y32146614D01*
X259287887Y32170119D01*
X259649333Y32170119D01*
X259767498Y32146614D01*
X259767498Y32146614D01*
G37*
G36*
X78182908Y32146614D02*
G01*
X78419241Y32099605D01*
X78753171Y31961286D01*
X79053700Y31760479D01*
X79309280Y31504899D01*
X79510087Y31204370D01*
X79648406Y30870440D01*
X79681511Y30704010D01*
X79713630Y30542539D01*
X79718920Y30515941D01*
X79718920Y30154497D01*
X79648406Y29799998D01*
X79510087Y29466068D01*
X79309280Y29165539D01*
X79053700Y28909959D01*
X78753171Y28709152D01*
X78419241Y28570833D01*
X78185806Y28524400D01*
X78064743Y28500319D01*
X77703297Y28500319D01*
X77582234Y28524400D01*
X77348799Y28570833D01*
X77014869Y28709152D01*
X76714340Y28909959D01*
X76458760Y29165539D01*
X76257953Y29466068D01*
X76119634Y29799998D01*
X76049120Y30154497D01*
X76049120Y30515941D01*
X76054411Y30542539D01*
X76086529Y30704010D01*
X76119634Y30870440D01*
X76257953Y31204370D01*
X76458760Y31504899D01*
X76714340Y31760479D01*
X77014869Y31961286D01*
X77348799Y32099605D01*
X77585132Y32146614D01*
X77703297Y32170119D01*
X78064743Y32170119D01*
X78182908Y32146614D01*
X78182908Y32146614D01*
G37*
G36*
X156491108Y32146614D02*
G01*
X156727441Y32099605D01*
X157061371Y31961286D01*
X157361900Y31760479D01*
X157617480Y31504899D01*
X157818287Y31204370D01*
X157956606Y30870440D01*
X157989711Y30704010D01*
X158021830Y30542539D01*
X158027120Y30515941D01*
X158027120Y30154497D01*
X157956606Y29799998D01*
X157818287Y29466068D01*
X157617480Y29165539D01*
X157361900Y28909959D01*
X157061371Y28709152D01*
X156727441Y28570833D01*
X156494006Y28524400D01*
X156372943Y28500319D01*
X156011497Y28500319D01*
X155890434Y28524400D01*
X155656999Y28570833D01*
X155323069Y28709152D01*
X155022540Y28909959D01*
X154766960Y29165539D01*
X154566153Y29466068D01*
X154427834Y29799998D01*
X154357320Y30154497D01*
X154357320Y30515941D01*
X154362611Y30542539D01*
X154394729Y30704010D01*
X154427834Y30870440D01*
X154566153Y31204370D01*
X154766960Y31504899D01*
X155022540Y31760479D01*
X155323069Y31961286D01*
X155656999Y32099605D01*
X155893332Y32146614D01*
X156011497Y32170119D01*
X156372943Y32170119D01*
X156491108Y32146614D01*
X156491108Y32146614D01*
G37*
G36*
X149120500Y28524400D02*
G01*
X141233500Y28524400D01*
X141233500Y29726400D01*
X149120500Y29726400D01*
X149120500Y28524400D01*
X149120500Y28524400D01*
G37*
G36*
X163460430Y28531820D02*
G01*
X161608770Y28531820D01*
X161608770Y29684980D01*
X163460430Y29684980D01*
X163460430Y28531820D01*
X163460430Y28531820D01*
G37*
G36*
X183683420Y28939020D02*
G01*
X182880780Y28939020D01*
X182880780Y30041380D01*
X183683420Y30041380D01*
X183683420Y28939020D01*
X183683420Y28939020D01*
G37*
G36*
X182184820Y28939020D02*
G01*
X181382180Y28939020D01*
X181382180Y30041380D01*
X182184820Y30041380D01*
X182184820Y28939020D01*
X182184820Y28939020D01*
G37*
G36*
X138723468Y30616835D02*
G01*
X138762138Y30605104D01*
X138797777Y30586054D01*
X138829017Y30560417D01*
X138854654Y30529177D01*
X138873704Y30493538D01*
X138885435Y30454868D01*
X138890000Y30408512D01*
X138890000Y29332288D01*
X138885435Y29285932D01*
X138873704Y29247262D01*
X138854654Y29211623D01*
X138829017Y29180383D01*
X138797777Y29154746D01*
X138762138Y29135696D01*
X138723468Y29123965D01*
X138677112Y29119400D01*
X138025888Y29119400D01*
X137979532Y29123965D01*
X137940862Y29135696D01*
X137905223Y29154746D01*
X137873983Y29180383D01*
X137848346Y29211623D01*
X137829296Y29247262D01*
X137817565Y29285932D01*
X137813000Y29332288D01*
X137813000Y30408512D01*
X137817565Y30454868D01*
X137829296Y30493538D01*
X137848346Y30529177D01*
X137873983Y30560417D01*
X137905223Y30586054D01*
X137940862Y30605104D01*
X137979532Y30616835D01*
X138025888Y30621400D01*
X138677112Y30621400D01*
X138723468Y30616835D01*
X138723468Y30616835D01*
G37*
G36*
X136848468Y30616835D02*
G01*
X136887138Y30605104D01*
X136922777Y30586054D01*
X136954017Y30560417D01*
X136979654Y30529177D01*
X136998704Y30493538D01*
X137010435Y30454868D01*
X137015000Y30408512D01*
X137015000Y29332288D01*
X137010435Y29285932D01*
X136998704Y29247262D01*
X136979654Y29211623D01*
X136954017Y29180383D01*
X136922777Y29154746D01*
X136887138Y29135696D01*
X136848468Y29123965D01*
X136802112Y29119400D01*
X136150888Y29119400D01*
X136104532Y29123965D01*
X136065862Y29135696D01*
X136030223Y29154746D01*
X135998983Y29180383D01*
X135973346Y29211623D01*
X135954296Y29247262D01*
X135942565Y29285932D01*
X135938000Y29332288D01*
X135938000Y30408512D01*
X135942565Y30454868D01*
X135954296Y30493538D01*
X135973346Y30529177D01*
X135998983Y30560417D01*
X136030223Y30586054D01*
X136065862Y30605104D01*
X136104532Y30616835D01*
X136150888Y30621400D01*
X136802112Y30621400D01*
X136848468Y30616835D01*
X136848468Y30616835D01*
G37*
G36*
X167847800Y29382600D02*
G01*
X166685800Y29382600D01*
X166685800Y32034600D01*
X167847800Y32034600D01*
X167847800Y29382600D01*
X167847800Y29382600D01*
G37*
G36*
X165647800Y29382600D02*
G01*
X164485800Y29382600D01*
X164485800Y30134600D01*
X165647800Y30134600D01*
X165647800Y29382600D01*
X165647800Y29382600D01*
G37*
G36*
X135069580Y29786580D02*
G01*
X133967220Y29786580D01*
X133967220Y30589220D01*
X135069580Y30589220D01*
X135069580Y29786580D01*
X135069580Y29786580D01*
G37*
G36*
X133367780Y29799280D02*
G01*
X132265420Y29799280D01*
X132265420Y30601920D01*
X133367780Y30601920D01*
X133367780Y29799280D01*
X133367780Y29799280D01*
G37*
G36*
X178733980Y29987480D02*
G01*
X177631620Y29987480D01*
X177631620Y30790120D01*
X178733980Y30790120D01*
X178733980Y29987480D01*
X178733980Y29987480D01*
G37*
G36*
X176333980Y29988880D02*
G01*
X175231620Y29988880D01*
X175231620Y30791520D01*
X176333980Y30791520D01*
X176333980Y29988880D01*
X176333980Y29988880D01*
G37*
G36*
X11176200Y30022600D02*
G01*
X9550200Y30022600D01*
X9550200Y32664600D01*
X11176200Y32664600D01*
X11176200Y30022600D01*
X11176200Y30022600D01*
G37*
G36*
X13716200Y30022600D02*
G01*
X12090200Y30022600D01*
X12090200Y32664600D01*
X13716200Y32664600D01*
X13716200Y30022600D01*
X13716200Y30022600D01*
G37*
G36*
X6096200Y30022600D02*
G01*
X4470200Y30022600D01*
X4470200Y32664600D01*
X6096200Y32664600D01*
X6096200Y30022600D01*
X6096200Y30022600D01*
G37*
G36*
X8636200Y30022600D02*
G01*
X7010200Y30022600D01*
X7010200Y32664600D01*
X8636200Y32664600D01*
X8636200Y30022600D01*
X8636200Y30022600D01*
G37*
G36*
X95127474Y32005260D02*
G01*
X95205150Y31989809D01*
X95351489Y31929193D01*
X95483190Y31841193D01*
X95595193Y31729190D01*
X95683193Y31597489D01*
X95743809Y31451150D01*
X95746949Y31435365D01*
X95774710Y31295799D01*
X95774710Y31137401D01*
X95743809Y30982051D01*
X95697578Y30870438D01*
X95683193Y30835711D01*
X95595193Y30704010D01*
X95483190Y30592007D01*
X95351489Y30504007D01*
X95205150Y30443391D01*
X95127474Y30427941D01*
X95049799Y30412490D01*
X94891401Y30412490D01*
X94813726Y30427941D01*
X94736050Y30443391D01*
X94589711Y30504007D01*
X94458010Y30592007D01*
X94346007Y30704010D01*
X94258007Y30835711D01*
X94243623Y30870438D01*
X94197391Y30982051D01*
X94166490Y31137401D01*
X94166490Y31295799D01*
X94194251Y31435365D01*
X94197391Y31451150D01*
X94258007Y31597489D01*
X94346007Y31729190D01*
X94458010Y31841193D01*
X94589711Y31929193D01*
X94736050Y31989809D01*
X94813726Y32005260D01*
X94891401Y32020710D01*
X95049799Y32020710D01*
X95127474Y32005260D01*
X95127474Y32005260D01*
G37*
G36*
X102747474Y32005260D02*
G01*
X102825150Y31989809D01*
X102971489Y31929193D01*
X103103190Y31841193D01*
X103215193Y31729190D01*
X103303193Y31597489D01*
X103363809Y31451150D01*
X103366949Y31435365D01*
X103394710Y31295799D01*
X103394710Y31137401D01*
X103363809Y30982051D01*
X103317578Y30870438D01*
X103303193Y30835711D01*
X103215193Y30704010D01*
X103103190Y30592007D01*
X102971489Y30504007D01*
X102825150Y30443391D01*
X102747474Y30427941D01*
X102669799Y30412490D01*
X102511401Y30412490D01*
X102433726Y30427941D01*
X102356050Y30443391D01*
X102209711Y30504007D01*
X102078010Y30592007D01*
X101966007Y30704010D01*
X101878007Y30835711D01*
X101863623Y30870438D01*
X101817391Y30982051D01*
X101786490Y31137401D01*
X101786490Y31295799D01*
X101814251Y31435365D01*
X101817391Y31451150D01*
X101878007Y31597489D01*
X101966007Y31729190D01*
X102078010Y31841193D01*
X102209711Y31929193D01*
X102356050Y31989809D01*
X102433726Y32005260D01*
X102511401Y32020710D01*
X102669799Y32020710D01*
X102747474Y32005260D01*
X102747474Y32005260D01*
G37*
G36*
X100207474Y32005260D02*
G01*
X100285150Y31989809D01*
X100431489Y31929193D01*
X100563190Y31841193D01*
X100675193Y31729190D01*
X100763193Y31597489D01*
X100823809Y31451150D01*
X100826949Y31435365D01*
X100854710Y31295799D01*
X100854710Y31137401D01*
X100823809Y30982051D01*
X100777578Y30870438D01*
X100763193Y30835711D01*
X100675193Y30704010D01*
X100563190Y30592007D01*
X100431489Y30504007D01*
X100285150Y30443391D01*
X100207474Y30427941D01*
X100129799Y30412490D01*
X99971401Y30412490D01*
X99893726Y30427941D01*
X99816050Y30443391D01*
X99669711Y30504007D01*
X99538010Y30592007D01*
X99426007Y30704010D01*
X99338007Y30835711D01*
X99323623Y30870438D01*
X99277391Y30982051D01*
X99246490Y31137401D01*
X99246490Y31295799D01*
X99274251Y31435365D01*
X99277391Y31451150D01*
X99338007Y31597489D01*
X99426007Y31729190D01*
X99538010Y31841193D01*
X99669711Y31929193D01*
X99816050Y31989809D01*
X99893726Y32005260D01*
X99971401Y32020710D01*
X100129799Y32020710D01*
X100207474Y32005260D01*
X100207474Y32005260D01*
G37*
G36*
X97667474Y32005260D02*
G01*
X97745150Y31989809D01*
X97891489Y31929193D01*
X98023190Y31841193D01*
X98135193Y31729190D01*
X98223193Y31597489D01*
X98283809Y31451150D01*
X98286949Y31435365D01*
X98314710Y31295799D01*
X98314710Y31137401D01*
X98283809Y30982051D01*
X98237578Y30870438D01*
X98223193Y30835711D01*
X98135193Y30704010D01*
X98023190Y30592007D01*
X97891489Y30504007D01*
X97745150Y30443391D01*
X97667474Y30427941D01*
X97589799Y30412490D01*
X97431401Y30412490D01*
X97353726Y30427941D01*
X97276050Y30443391D01*
X97129711Y30504007D01*
X96998010Y30592007D01*
X96886007Y30704010D01*
X96798007Y30835711D01*
X96783623Y30870438D01*
X96737391Y30982051D01*
X96706490Y31137401D01*
X96706490Y31295799D01*
X96734251Y31435365D01*
X96737391Y31451150D01*
X96798007Y31597489D01*
X96886007Y31729190D01*
X96998010Y31841193D01*
X97129711Y31929193D01*
X97276050Y31989809D01*
X97353726Y32005260D01*
X97431401Y32020710D01*
X97589799Y32020710D01*
X97667474Y32005260D01*
X97667474Y32005260D01*
G37*
G36*
X92587474Y32005260D02*
G01*
X92665150Y31989809D01*
X92811489Y31929193D01*
X92943190Y31841193D01*
X93055193Y31729190D01*
X93143193Y31597489D01*
X93203809Y31451150D01*
X93206949Y31435365D01*
X93234710Y31295799D01*
X93234710Y31137401D01*
X93203809Y30982051D01*
X93157578Y30870438D01*
X93143193Y30835711D01*
X93055193Y30704010D01*
X92943190Y30592007D01*
X92811489Y30504007D01*
X92665150Y30443391D01*
X92587474Y30427941D01*
X92509799Y30412490D01*
X92351401Y30412490D01*
X92273726Y30427941D01*
X92196050Y30443391D01*
X92049711Y30504007D01*
X91918010Y30592007D01*
X91806007Y30704010D01*
X91718007Y30835711D01*
X91703623Y30870438D01*
X91657391Y30982051D01*
X91626490Y31137401D01*
X91626490Y31295799D01*
X91654251Y31435365D01*
X91657391Y31451150D01*
X91718007Y31597489D01*
X91806007Y31729190D01*
X91918010Y31841193D01*
X92049711Y31929193D01*
X92196050Y31989809D01*
X92273726Y32005260D01*
X92351401Y32020710D01*
X92509799Y32020710D01*
X92587474Y32005260D01*
X92587474Y32005260D01*
G37*
G36*
X90047474Y32005260D02*
G01*
X90125150Y31989809D01*
X90271489Y31929193D01*
X90403190Y31841193D01*
X90515193Y31729190D01*
X90603193Y31597489D01*
X90663809Y31451150D01*
X90666949Y31435365D01*
X90694710Y31295799D01*
X90694710Y31137401D01*
X90663809Y30982051D01*
X90617578Y30870438D01*
X90603193Y30835711D01*
X90515193Y30704010D01*
X90403190Y30592007D01*
X90271489Y30504007D01*
X90125150Y30443391D01*
X90047474Y30427941D01*
X89969799Y30412490D01*
X89811401Y30412490D01*
X89733726Y30427941D01*
X89656050Y30443391D01*
X89509711Y30504007D01*
X89378010Y30592007D01*
X89266007Y30704010D01*
X89178007Y30835711D01*
X89163623Y30870438D01*
X89117391Y30982051D01*
X89086490Y31137401D01*
X89086490Y31295799D01*
X89114251Y31435365D01*
X89117391Y31451150D01*
X89178007Y31597489D01*
X89266007Y31729190D01*
X89378010Y31841193D01*
X89509711Y31929193D01*
X89656050Y31989809D01*
X89733726Y32005260D01*
X89811401Y32020710D01*
X89969799Y32020710D01*
X90047474Y32005260D01*
X90047474Y32005260D01*
G37*
G36*
X87507474Y32005260D02*
G01*
X87585150Y31989809D01*
X87731489Y31929193D01*
X87863190Y31841193D01*
X87975193Y31729190D01*
X88063193Y31597489D01*
X88123809Y31451150D01*
X88126949Y31435365D01*
X88154710Y31295799D01*
X88154710Y31137401D01*
X88123809Y30982051D01*
X88077578Y30870438D01*
X88063193Y30835711D01*
X87975193Y30704010D01*
X87863190Y30592007D01*
X87731489Y30504007D01*
X87585150Y30443391D01*
X87507474Y30427941D01*
X87429799Y30412490D01*
X87271401Y30412490D01*
X87193726Y30427941D01*
X87116050Y30443391D01*
X86969711Y30504007D01*
X86838010Y30592007D01*
X86726007Y30704010D01*
X86638007Y30835711D01*
X86623623Y30870438D01*
X86577391Y30982051D01*
X86546490Y31137401D01*
X86546490Y31295799D01*
X86574251Y31435365D01*
X86577391Y31451150D01*
X86638007Y31597489D01*
X86726007Y31729190D01*
X86838010Y31841193D01*
X86969711Y31929193D01*
X87116050Y31989809D01*
X87193726Y32005260D01*
X87271401Y32020710D01*
X87429799Y32020710D01*
X87507474Y32005260D01*
X87507474Y32005260D01*
G37*
G36*
X84967474Y32005260D02*
G01*
X85045150Y31989809D01*
X85191489Y31929193D01*
X85323190Y31841193D01*
X85435193Y31729190D01*
X85523193Y31597489D01*
X85583809Y31451150D01*
X85586949Y31435365D01*
X85614710Y31295799D01*
X85614710Y31137401D01*
X85583809Y30982051D01*
X85537578Y30870438D01*
X85523193Y30835711D01*
X85435193Y30704010D01*
X85323190Y30592007D01*
X85191489Y30504007D01*
X85045150Y30443391D01*
X84967474Y30427941D01*
X84889799Y30412490D01*
X84731401Y30412490D01*
X84653726Y30427941D01*
X84576050Y30443391D01*
X84429711Y30504007D01*
X84298010Y30592007D01*
X84186007Y30704010D01*
X84098007Y30835711D01*
X84083623Y30870438D01*
X84037391Y30982051D01*
X84006490Y31137401D01*
X84006490Y31295799D01*
X84034251Y31435365D01*
X84037391Y31451150D01*
X84098007Y31597489D01*
X84186007Y31729190D01*
X84298010Y31841193D01*
X84429711Y31929193D01*
X84576050Y31989809D01*
X84653726Y32005260D01*
X84731401Y32020710D01*
X84889799Y32020710D01*
X84967474Y32005260D01*
X84967474Y32005260D01*
G37*
G36*
X149268180Y30421580D02*
G01*
X148165820Y30421580D01*
X148165820Y31224220D01*
X149268180Y31224220D01*
X149268180Y30421580D01*
X149268180Y30421580D01*
G37*
G36*
X151046180Y30421580D02*
G01*
X149943820Y30421580D01*
X149943820Y31224220D01*
X151046180Y31224220D01*
X151046180Y30421580D01*
X151046180Y30421580D01*
G37*
G36*
X130821430Y31148020D02*
G01*
X128969770Y31148020D01*
X128969770Y32301180D01*
X130821430Y32301180D01*
X130821430Y31148020D01*
X130821430Y31148020D01*
G37*
G36*
X165647800Y31282600D02*
G01*
X164485800Y31282600D01*
X164485800Y32034600D01*
X165647800Y32034600D01*
X165647800Y31282600D01*
X165647800Y31282600D01*
G37*
G36*
X163460430Y31427420D02*
G01*
X161608770Y31427420D01*
X161608770Y32580580D01*
X163460430Y32580580D01*
X163460430Y31427420D01*
X163460430Y31427420D01*
G37*
G36*
X136823068Y32928235D02*
G01*
X136861738Y32916504D01*
X136897377Y32897454D01*
X136928617Y32871817D01*
X136954254Y32840577D01*
X136973304Y32804938D01*
X136985035Y32766268D01*
X136989600Y32719912D01*
X136989600Y31643688D01*
X136985035Y31597332D01*
X136973304Y31558662D01*
X136954254Y31523023D01*
X136928617Y31491783D01*
X136897377Y31466146D01*
X136861738Y31447096D01*
X136823068Y31435365D01*
X136776712Y31430800D01*
X136125488Y31430800D01*
X136079132Y31435365D01*
X136040462Y31447096D01*
X136004823Y31466146D01*
X135973583Y31491783D01*
X135947946Y31523023D01*
X135928896Y31558662D01*
X135917165Y31597332D01*
X135912600Y31643688D01*
X135912600Y32719912D01*
X135917165Y32766268D01*
X135928896Y32804938D01*
X135947946Y32840577D01*
X135973583Y32871817D01*
X136004823Y32897454D01*
X136040462Y32916504D01*
X136079132Y32928235D01*
X136125488Y32932800D01*
X136776712Y32932800D01*
X136823068Y32928235D01*
X136823068Y32928235D01*
G37*
G36*
X138698068Y32928235D02*
G01*
X138736738Y32916504D01*
X138772377Y32897454D01*
X138803617Y32871817D01*
X138829254Y32840577D01*
X138848304Y32804938D01*
X138860035Y32766268D01*
X138864600Y32719912D01*
X138864600Y31643688D01*
X138860035Y31597332D01*
X138848304Y31558662D01*
X138829254Y31523023D01*
X138803617Y31491783D01*
X138772377Y31466146D01*
X138736738Y31447096D01*
X138698068Y31435365D01*
X138651712Y31430800D01*
X138000488Y31430800D01*
X137954132Y31435365D01*
X137915462Y31447096D01*
X137879823Y31466146D01*
X137848583Y31491783D01*
X137822946Y31523023D01*
X137803896Y31558662D01*
X137792165Y31597332D01*
X137787600Y31643688D01*
X137787600Y32719912D01*
X137792165Y32766268D01*
X137803896Y32804938D01*
X137822946Y32840577D01*
X137848583Y32871817D01*
X137879823Y32897454D01*
X137915462Y32916504D01*
X137954132Y32928235D01*
X138000488Y32932800D01*
X138651712Y32932800D01*
X138698068Y32928235D01*
X138698068Y32928235D01*
G37*
G36*
X151046180Y31920180D02*
G01*
X149943820Y31920180D01*
X149943820Y32722820D01*
X151046180Y32722820D01*
X151046180Y31920180D01*
X151046180Y31920180D01*
G37*
G36*
X149268180Y31920180D02*
G01*
X148165820Y31920180D01*
X148165820Y32722820D01*
X149268180Y32722820D01*
X149268180Y31920180D01*
X149268180Y31920180D01*
G37*
M02*
