G04 #@! TF.GenerationSoftware,KiCad,Pcbnew,(5.1.4-0-10_14)*
G04 #@! TF.CreationDate,2021-04-14T17:20:28-04:00*
G04 #@! TF.ProjectId,Vindor,56696e64-6f72-42e6-9b69-6361645f7063,rev?*
G04 #@! TF.SameCoordinates,Original*
G04 #@! TF.FileFunction,Profile,NP*
%FSLAX46Y46*%
G04 Gerber Fmt 4.6, Leading zero omitted, Abs format (unit mm)*
G04 Created by KiCad (PCBNEW (5.1.4-0-10_14)) date 2021-04-14 17:20:28*
%MOMM*%
%LPD*%
G04 APERTURE LIST*
%ADD10C,0.120000*%
%ADD11C,0.100000*%
G04 APERTURE END LIST*
D10*
X0Y0D02*
X0Y34000000D01*
X0Y34000000D02*
X264000000Y34000000D01*
X264000000Y0D02*
X264000000Y34000000D01*
X0Y0D02*
X264000000Y0D01*
D11*
X258115120Y21330000D02*
X257815120Y21330000D01*
X257815120Y21330000D02*
G75*
G03X257565120Y21080000I0J-250000D01*
G01*
X257565120Y21080000D02*
G75*
G03X257815120Y20830000I250000J0D01*
G01*
X257815120Y20830000D02*
X258115120Y20830000D01*
X258115120Y20830000D02*
X258415120Y20830000D01*
X258415120Y20830000D02*
G75*
G03X258665120Y21080000I0J250000D01*
G01*
X258665120Y21080000D02*
G75*
G03X258415120Y21330000I-250000J0D01*
G01*
X258415120Y21330000D02*
X258115120Y21330000D01*
X258115120Y13070000D02*
X257815120Y13070000D01*
X257815120Y13070000D02*
G75*
G03X257565120Y12820000I0J-250000D01*
G01*
X257565120Y12820000D02*
G75*
G03X257815120Y12570000I250000J0D01*
G01*
X257815120Y12570000D02*
X258115120Y12570000D01*
X258115120Y12570000D02*
X258415120Y12570000D01*
X258415120Y12570000D02*
G75*
G03X258665120Y12820000I0J250000D01*
G01*
X258665120Y12820000D02*
G75*
G03X258415120Y13070000I-250000J0D01*
G01*
X258415120Y13070000D02*
X258115120Y13070000D01*
X256540120Y13350000D02*
X256540120Y13200000D01*
X256540120Y13200000D02*
G75*
G03X256865120Y12875000I325000J0D01*
G01*
X256865120Y12875000D02*
G75*
G03X257190120Y13200000I0J325000D01*
G01*
X257190120Y13200000D02*
X257190120Y13350000D01*
X257190120Y13350000D02*
X257190120Y13500000D01*
X257190120Y13500000D02*
G75*
G03X256865120Y13825000I-325000J0D01*
G01*
X256865120Y13825000D02*
G75*
G03X256540120Y13500000I0J-325000D01*
G01*
X256540120Y13500000D02*
X256540120Y13350000D01*
X262565120Y21740000D02*
X262265120Y21740000D01*
X262265120Y21740000D02*
G75*
G03X262015120Y21490000I0J-250000D01*
G01*
X262015120Y21490000D02*
G75*
G03X262265120Y21240000I250000J0D01*
G01*
X262265120Y21240000D02*
X262565120Y21240000D01*
X262565120Y21240000D02*
X262865120Y21240000D01*
X262865120Y21240000D02*
G75*
G03X263115120Y21490000I0J250000D01*
G01*
X263115120Y21490000D02*
G75*
G03X262865120Y21740000I-250000J0D01*
G01*
X262865120Y21740000D02*
X262565120Y21740000D01*
X262565120Y12760000D02*
X262265120Y12760000D01*
X262265120Y12760000D02*
G75*
G03X262015120Y12510000I0J-250000D01*
G01*
X262015120Y12510000D02*
G75*
G03X262265120Y12260000I250000J0D01*
G01*
X262265120Y12260000D02*
X262565120Y12260000D01*
X262565120Y12260000D02*
X262865120Y12260000D01*
X262865120Y12260000D02*
G75*
G03X263115120Y12510000I0J250000D01*
G01*
X263115120Y12510000D02*
G75*
G03X262865120Y12760000I-250000J0D01*
G01*
X262865120Y12760000D02*
X262565120Y12760000D01*
M02*
