G04 #@! TF.GenerationSoftware,KiCad,Pcbnew,(5.1.4-0-10_14)*
G04 #@! TF.CreationDate,2021-04-14T17:20:28-04:00*
G04 #@! TF.ProjectId,Vindor,56696e64-6f72-42e6-9b69-6361645f7063,rev?*
G04 #@! TF.SameCoordinates,Original*
G04 #@! TF.FileFunction,Legend,Top*
G04 #@! TF.FilePolarity,Positive*
%FSLAX46Y46*%
G04 Gerber Fmt 4.6, Leading zero omitted, Abs format (unit mm)*
G04 Created by KiCad (PCBNEW (5.1.4-0-10_14)) date 2021-04-14 17:20:28*
%MOMM*%
%LPD*%
G04 APERTURE LIST*
%ADD10C,0.120000*%
%ADD11C,0.100000*%
%ADD12C,0.381000*%
%ADD13C,0.300000*%
%ADD14C,0.101600*%
%ADD15C,0.127000*%
%ADD16C,0.150000*%
%ADD17C,0.254000*%
%ADD18C,0.508000*%
%ADD19C,0.600000*%
%ADD20C,0.200000*%
%ADD21C,0.203200*%
%ADD22C,0.152400*%
%ADD23C,0.063500*%
%ADD24C,0.406400*%
%ADD25C,0.050000*%
G04 APERTURE END LIST*
D10*
X181392600Y21793200D02*
X180427400Y21793200D01*
X178954200Y21793200D02*
X177811200Y21793200D01*
X178370000Y21183600D02*
X178370000Y22377400D01*
X176891720Y21201380D02*
X177374320Y21201380D01*
X176891720Y22438360D02*
X176891720Y21201380D01*
X177356540Y22438360D02*
X176899340Y22438360D01*
X181824400Y23088600D02*
X177379400Y23088600D01*
X181824400Y20523200D02*
X181824400Y23088600D01*
X177379400Y20497800D02*
X181824400Y20497800D01*
X177379400Y23088600D02*
X177379400Y20497800D01*
D11*
X1800666Y1460500D02*
X1758333Y1418166D01*
X1631333Y1375833D01*
X1546666Y1375833D01*
X1419666Y1418166D01*
X1335000Y1502833D01*
X1292666Y1587500D01*
X1250333Y1756833D01*
X1250333Y1883833D01*
X1292666Y2053166D01*
X1335000Y2137833D01*
X1419666Y2222500D01*
X1546666Y2264833D01*
X1631333Y2264833D01*
X1758333Y2222500D01*
X1800666Y2180166D01*
X2308666Y1375833D02*
X2224000Y1418166D01*
X2181666Y1460500D01*
X2139333Y1545166D01*
X2139333Y1799166D01*
X2181666Y1883833D01*
X2224000Y1926166D01*
X2308666Y1968500D01*
X2435666Y1968500D01*
X2520333Y1926166D01*
X2562666Y1883833D01*
X2605000Y1799166D01*
X2605000Y1545166D01*
X2562666Y1460500D01*
X2520333Y1418166D01*
X2435666Y1375833D01*
X2308666Y1375833D01*
X2986000Y1968500D02*
X2986000Y1079500D01*
X2986000Y1926166D02*
X3070666Y1968500D01*
X3240000Y1968500D01*
X3324666Y1926166D01*
X3367000Y1883833D01*
X3409333Y1799166D01*
X3409333Y1545166D01*
X3367000Y1460500D01*
X3324666Y1418166D01*
X3240000Y1375833D01*
X3070666Y1375833D01*
X2986000Y1418166D01*
X3705666Y1968500D02*
X3917333Y1375833D01*
X4129000Y1968500D02*
X3917333Y1375833D01*
X3832666Y1164166D01*
X3790333Y1121833D01*
X3705666Y1079500D01*
X4467666Y1375833D02*
X4467666Y1968500D01*
X4467666Y1799166D02*
X4510000Y1883833D01*
X4552333Y1926166D01*
X4637000Y1968500D01*
X4721666Y1968500D01*
X5018000Y1375833D02*
X5018000Y1968500D01*
X5018000Y2264833D02*
X4975666Y2222500D01*
X5018000Y2180166D01*
X5060333Y2222500D01*
X5018000Y2264833D01*
X5018000Y2180166D01*
X5822333Y1968500D02*
X5822333Y1248833D01*
X5780000Y1164166D01*
X5737666Y1121833D01*
X5653000Y1079500D01*
X5526000Y1079500D01*
X5441333Y1121833D01*
X5822333Y1418166D02*
X5737666Y1375833D01*
X5568333Y1375833D01*
X5483666Y1418166D01*
X5441333Y1460500D01*
X5399000Y1545166D01*
X5399000Y1799166D01*
X5441333Y1883833D01*
X5483666Y1926166D01*
X5568333Y1968500D01*
X5737666Y1968500D01*
X5822333Y1926166D01*
X6245666Y1375833D02*
X6245666Y2264833D01*
X6626666Y1375833D02*
X6626666Y1841500D01*
X6584333Y1926166D01*
X6499666Y1968500D01*
X6372666Y1968500D01*
X6288000Y1926166D01*
X6245666Y1883833D01*
X6923000Y1968500D02*
X7261666Y1968500D01*
X7050000Y2264833D02*
X7050000Y1502833D01*
X7092333Y1418166D01*
X7177000Y1375833D01*
X7261666Y1375833D01*
X8192999Y2180166D02*
X8235333Y2222500D01*
X8319999Y2264833D01*
X8531666Y2264833D01*
X8616333Y2222500D01*
X8658666Y2180166D01*
X8701000Y2095500D01*
X8701000Y2010833D01*
X8658666Y1883833D01*
X8150666Y1375833D01*
X8701000Y1375833D01*
X9251333Y2264833D02*
X9336000Y2264833D01*
X9420666Y2222500D01*
X9463000Y2180166D01*
X9505333Y2095500D01*
X9547666Y1926166D01*
X9547666Y1714500D01*
X9505333Y1545166D01*
X9463000Y1460500D01*
X9420666Y1418166D01*
X9336000Y1375833D01*
X9251333Y1375833D01*
X9166666Y1418166D01*
X9124333Y1460500D01*
X9082000Y1545166D01*
X9039666Y1714500D01*
X9039666Y1926166D01*
X9082000Y2095500D01*
X9124333Y2180166D01*
X9166666Y2222500D01*
X9251333Y2264833D01*
X10394333Y1375833D02*
X9886333Y1375833D01*
X10140333Y1375833D02*
X10140333Y2264833D01*
X10055666Y2137833D01*
X9971000Y2053166D01*
X9886333Y2010833D01*
X10690666Y2264833D02*
X11241000Y2264833D01*
X10944666Y1926166D01*
X11071666Y1926166D01*
X11156333Y1883833D01*
X11198666Y1841500D01*
X11241000Y1756833D01*
X11241000Y1545166D01*
X11198666Y1460500D01*
X11156333Y1418166D01*
X11071666Y1375833D01*
X10817666Y1375833D01*
X10733000Y1418166D01*
X10690666Y1460500D01*
X11621999Y1714500D02*
X12299333Y1714500D01*
X12680333Y2180166D02*
X12722666Y2222500D01*
X12807333Y2264833D01*
X13018999Y2264833D01*
X13103666Y2222500D01*
X13145999Y2180166D01*
X13188333Y2095500D01*
X13188333Y2010833D01*
X13145999Y1883833D01*
X12637999Y1375833D01*
X13188333Y1375833D01*
X13738666Y2264833D02*
X13823333Y2264833D01*
X13907999Y2222500D01*
X13950333Y2180166D01*
X13992666Y2095500D01*
X14034999Y1926166D01*
X14034999Y1714500D01*
X13992666Y1545166D01*
X13950333Y1460500D01*
X13907999Y1418166D01*
X13823333Y1375833D01*
X13738666Y1375833D01*
X13653999Y1418166D01*
X13611666Y1460500D01*
X13569333Y1545166D01*
X13526999Y1714500D01*
X13526999Y1926166D01*
X13569333Y2095500D01*
X13611666Y2180166D01*
X13653999Y2222500D01*
X13738666Y2264833D01*
X14373666Y2180166D02*
X14415999Y2222500D01*
X14500666Y2264833D01*
X14712333Y2264833D01*
X14796999Y2222500D01*
X14839333Y2180166D01*
X14881666Y2095500D01*
X14881666Y2010833D01*
X14839333Y1883833D01*
X14331333Y1375833D01*
X14881666Y1375833D01*
X15431999Y2264833D02*
X15516666Y2264833D01*
X15601333Y2222500D01*
X15643666Y2180166D01*
X15685999Y2095500D01*
X15728333Y1926166D01*
X15728333Y1714500D01*
X15685999Y1545166D01*
X15643666Y1460500D01*
X15601333Y1418166D01*
X15516666Y1375833D01*
X15431999Y1375833D01*
X15347333Y1418166D01*
X15304999Y1460500D01*
X15262666Y1545166D01*
X15220333Y1714500D01*
X15220333Y1926166D01*
X15262666Y2095500D01*
X15304999Y2180166D01*
X15347333Y2222500D01*
X15431999Y2264833D01*
X16786666Y1375833D02*
X16786666Y2264833D01*
X16786666Y1926166D02*
X16871333Y1968500D01*
X17040666Y1968500D01*
X17125333Y1926166D01*
X17167666Y1883833D01*
X17209999Y1799166D01*
X17209999Y1545166D01*
X17167666Y1460500D01*
X17125333Y1418166D01*
X17040666Y1375833D01*
X16871333Y1375833D01*
X16786666Y1418166D01*
X17506333Y1968500D02*
X17717999Y1375833D01*
X17929666Y1968500D02*
X17717999Y1375833D01*
X17633333Y1164166D01*
X17590999Y1121833D01*
X17506333Y1079500D01*
X18818666Y2264833D02*
X19114999Y1375833D01*
X19411333Y2264833D01*
X19707666Y1375833D02*
X19707666Y1968500D01*
X19707666Y2264833D02*
X19665333Y2222500D01*
X19707666Y2180166D01*
X19749999Y2222500D01*
X19707666Y2264833D01*
X19707666Y2180166D01*
X20130999Y1968500D02*
X20130999Y1375833D01*
X20130999Y1883833D02*
X20173333Y1926166D01*
X20257999Y1968500D01*
X20384999Y1968500D01*
X20469666Y1926166D01*
X20511999Y1841500D01*
X20511999Y1375833D01*
X21316333Y1375833D02*
X21316333Y2264833D01*
X21316333Y1418166D02*
X21231666Y1375833D01*
X21062333Y1375833D01*
X20977666Y1418166D01*
X20935333Y1460500D01*
X20892999Y1545166D01*
X20892999Y1799166D01*
X20935333Y1883833D01*
X20977666Y1926166D01*
X21062333Y1968500D01*
X21231666Y1968500D01*
X21316333Y1926166D01*
X21866666Y1375833D02*
X21781999Y1418166D01*
X21739666Y1460500D01*
X21697333Y1545166D01*
X21697333Y1799166D01*
X21739666Y1883833D01*
X21781999Y1926166D01*
X21866666Y1968500D01*
X21993666Y1968500D01*
X22078333Y1926166D01*
X22120666Y1883833D01*
X22162999Y1799166D01*
X22162999Y1545166D01*
X22120666Y1460500D01*
X22078333Y1418166D01*
X21993666Y1375833D01*
X21866666Y1375833D01*
X22543999Y1375833D02*
X22543999Y1968500D01*
X22543999Y1799166D02*
X22586333Y1883833D01*
X22628666Y1926166D01*
X22713333Y1968500D01*
X22797999Y1968500D01*
X23771666Y1375833D02*
X23771666Y2264833D01*
X24067999Y1629833D01*
X24364333Y2264833D01*
X24364333Y1375833D01*
X25168666Y1968500D02*
X25168666Y1375833D01*
X24787666Y1968500D02*
X24787666Y1502833D01*
X24829999Y1418166D01*
X24914666Y1375833D01*
X25041666Y1375833D01*
X25126333Y1418166D01*
X25168666Y1460500D01*
X25549666Y1418166D02*
X25634333Y1375833D01*
X25803666Y1375833D01*
X25888333Y1418166D01*
X25930666Y1502833D01*
X25930666Y1545166D01*
X25888333Y1629833D01*
X25803666Y1672166D01*
X25676666Y1672166D01*
X25591999Y1714500D01*
X25549666Y1799166D01*
X25549666Y1841500D01*
X25591999Y1926166D01*
X25676666Y1968500D01*
X25803666Y1968500D01*
X25888333Y1926166D01*
X26311666Y1375833D02*
X26311666Y1968500D01*
X26311666Y2264833D02*
X26269333Y2222500D01*
X26311666Y2180166D01*
X26353999Y2222500D01*
X26311666Y2264833D01*
X26311666Y2180166D01*
X27115999Y1418166D02*
X27031333Y1375833D01*
X26861999Y1375833D01*
X26777333Y1418166D01*
X26734999Y1460500D01*
X26692666Y1545166D01*
X26692666Y1799166D01*
X26734999Y1883833D01*
X26777333Y1926166D01*
X26861999Y1968500D01*
X27031333Y1968500D01*
X27115999Y1926166D01*
X27539333Y1418166D02*
X27539333Y1375833D01*
X27496999Y1291166D01*
X27454666Y1248833D01*
X28597666Y1375833D02*
X28597666Y2264833D01*
X29020999Y1968500D02*
X29020999Y1375833D01*
X29020999Y1883833D02*
X29063333Y1926166D01*
X29147999Y1968500D01*
X29274999Y1968500D01*
X29359666Y1926166D01*
X29401999Y1841500D01*
X29401999Y1375833D01*
X30206333Y1418166D02*
X30121666Y1375833D01*
X29952333Y1375833D01*
X29867666Y1418166D01*
X29825333Y1460500D01*
X29782999Y1545166D01*
X29782999Y1799166D01*
X29825333Y1883833D01*
X29867666Y1926166D01*
X29952333Y1968500D01*
X30121666Y1968500D01*
X30206333Y1926166D01*
X30587333Y1460500D02*
X30629666Y1418166D01*
X30587333Y1375833D01*
X30544999Y1418166D01*
X30587333Y1460500D01*
X30587333Y1375833D01*
D12*
X3791554Y3444723D02*
X2436888Y5379961D01*
X1469269Y3444723D02*
X1469269Y7508723D01*
X3017459Y7508723D01*
X3404507Y7315200D01*
X3598030Y7121676D01*
X3791554Y6734628D01*
X3791554Y6154057D01*
X3598030Y5767009D01*
X3404507Y5573485D01*
X3017459Y5379961D01*
X1469269Y5379961D01*
X7274983Y7508723D02*
X6500888Y7508723D01*
X6113840Y7315200D01*
X5920316Y7121676D01*
X5533269Y6541104D01*
X5339745Y5767009D01*
X5339745Y4218819D01*
X5533269Y3831771D01*
X5726792Y3638247D01*
X6113840Y3444723D01*
X6887935Y3444723D01*
X7274983Y3638247D01*
X7468507Y3831771D01*
X7662030Y4218819D01*
X7662030Y5186438D01*
X7468507Y5573485D01*
X7274983Y5767009D01*
X6887935Y5960533D01*
X6113840Y5960533D01*
X5726792Y5767009D01*
X5533269Y5573485D01*
X5339745Y5186438D01*
X10177840Y7508723D02*
X10564888Y7508723D01*
X10951935Y7315200D01*
X11145459Y7121676D01*
X11338983Y6734628D01*
X11532507Y5960533D01*
X11532507Y4992914D01*
X11338983Y4218819D01*
X11145459Y3831771D01*
X10951935Y3638247D01*
X10564888Y3444723D01*
X10177840Y3444723D01*
X9790792Y3638247D01*
X9597269Y3831771D01*
X9403745Y4218819D01*
X9210221Y4992914D01*
X9210221Y5960533D01*
X9403745Y6734628D01*
X9597269Y7121676D01*
X9790792Y7315200D01*
X10177840Y7508723D01*
X15015935Y3638247D02*
X14628888Y3444723D01*
X13854792Y3444723D01*
X13467745Y3638247D01*
X13274221Y3831771D01*
X13080697Y4218819D01*
X13080697Y5379961D01*
X13274221Y5767009D01*
X13467745Y5960533D01*
X13854792Y6154057D01*
X14628888Y6154057D01*
X15015935Y5960533D01*
D13*
X45231100Y6014140D02*
G75*
G03X45231100Y6014140I-100000J0D01*
G01*
D11*
X44691100Y9324140D02*
X44441100Y9324140D01*
X44691100Y9324140D02*
X44691100Y9074140D01*
X44691100Y6124140D02*
X44441100Y6124140D01*
X44691100Y6124140D02*
X44691100Y6374140D01*
X41491100Y6124140D02*
X41741100Y6124140D01*
X41491100Y6124140D02*
X41491100Y6424140D01*
X41491100Y6424140D02*
X40291100Y6424140D01*
X41491100Y9324140D02*
X41741100Y9324140D01*
X41491100Y9324140D02*
X41491100Y9074140D01*
D14*
X204096400Y9107000D02*
X203696400Y9107000D01*
X203696400Y9107000D02*
X203696400Y9507000D01*
X203696400Y13607000D02*
X203696400Y14007000D01*
X203696400Y14007000D02*
X204096400Y14007000D01*
X208196400Y14007000D02*
X208596400Y14007000D01*
X208596400Y14007000D02*
X208596400Y13607000D01*
X208596400Y9507000D02*
X208596400Y9107000D01*
X208596400Y9107000D02*
X208196400Y9107000D01*
D11*
X204137400Y8686800D02*
G75*
G03X204137400Y8686800I-150000J0D01*
G01*
D15*
X50053240Y10124440D02*
X47254160Y10124440D01*
X50053240Y8727440D02*
X50053240Y10124440D01*
X47254160Y8727440D02*
X50053240Y8727440D01*
X47254160Y10124440D02*
X47254160Y8727440D01*
X210135360Y8892540D02*
X214534640Y8892540D01*
X210135360Y12065000D02*
X210135360Y8892540D01*
X214534640Y12065000D02*
X210135360Y12065000D01*
X214534640Y8892540D02*
X214534640Y12065000D01*
X210135360Y12592540D02*
X214534640Y12592540D01*
X210135360Y15765000D02*
X210135360Y12592540D01*
X214534640Y15765000D02*
X210135360Y15765000D01*
X214534640Y12592540D02*
X214534640Y15765000D01*
X40388540Y873760D02*
X40388540Y3672840D01*
X38991540Y873760D02*
X40388540Y873760D01*
X38991540Y3672840D02*
X38991540Y873760D01*
X40388540Y3672840D02*
X38991540Y3672840D01*
D16*
X132767600Y20737200D02*
X136167600Y20737200D01*
X132767600Y15737200D02*
X132767600Y20737200D01*
X136167600Y15737200D02*
X132767600Y15737200D01*
X136167600Y20737200D02*
X136167600Y15737200D01*
D10*
X133667600Y21217200D02*
G75*
G03X133667600Y21217200I-200000J0D01*
G01*
D16*
X67382800Y7490200D02*
X67382800Y9890200D01*
X71382800Y7490200D02*
X67382800Y7490200D01*
X71382800Y9890200D02*
X71382800Y7490200D01*
X67382800Y9890200D02*
X71382800Y9890200D01*
D10*
X84554000Y25054000D02*
X84554000Y26384000D01*
X85884000Y25054000D02*
X84554000Y25054000D01*
X84554000Y27654000D02*
X84554000Y30254000D01*
X87154000Y27654000D02*
X84554000Y27654000D01*
X87154000Y25054000D02*
X87154000Y27654000D01*
X84554000Y30254000D02*
X94834000Y30254000D01*
X87154000Y25054000D02*
X94834000Y25054000D01*
X94834000Y25054000D02*
X94834000Y30254000D01*
D16*
X259798400Y12025400D02*
X260298400Y10000000D01*
X261298400Y10000000D02*
X261798400Y12025400D01*
X260798400Y12025400D02*
X261298400Y10000000D01*
X260298400Y10000000D02*
X260798400Y12025400D01*
X261301600Y24000000D02*
X260801600Y21974600D01*
X261801600Y21974600D02*
X261301600Y24000000D01*
X260301600Y24000000D02*
X259801600Y21974600D01*
X260801600Y21974600D02*
X260301600Y24000000D01*
X262460600Y21978400D02*
X259514200Y21978400D01*
X262460600Y12021600D02*
X262460600Y21978400D01*
X259488800Y12021600D02*
X262460600Y12021600D01*
D17*
X239880000Y23210300D02*
X239880000Y26100000D01*
X240515000Y22575300D02*
X239880000Y23210300D01*
X241785000Y22575300D02*
X240515000Y22575300D01*
X242420000Y23210300D02*
X241785000Y22575300D01*
X242420000Y26100000D02*
X242420000Y23210300D01*
X246230000Y23210300D02*
X246230000Y26100000D01*
X246865000Y22575300D02*
X246230000Y23210300D01*
X248135000Y22575300D02*
X246865000Y22575300D01*
X248770000Y23210300D02*
X248135000Y22575300D01*
X248770000Y26100000D02*
X248770000Y23210300D01*
X252580000Y23210300D02*
X252580000Y26100000D01*
X253215000Y22575300D02*
X252580000Y23210300D01*
X254485000Y22575300D02*
X253215000Y22575300D01*
X255120000Y23210300D02*
X254485000Y22575300D01*
X255120000Y26100000D02*
X255120000Y23210300D01*
D18*
X235500000Y7900000D02*
X259500000Y7900000D01*
X235500000Y26100000D02*
X235500000Y7900000D01*
X259500000Y26100000D02*
X235500000Y26100000D01*
X259500000Y7900000D02*
X259500000Y26100000D01*
D15*
X42380000Y15880451D02*
X42380000Y15245451D01*
X43015000Y16515451D02*
X42380000Y15880451D01*
X43650000Y15880451D02*
X43015000Y16515451D01*
X43015000Y15245451D02*
X43650000Y15880451D01*
X42380000Y15245451D02*
X43015000Y15245451D01*
X43035320Y15900771D02*
X43035320Y18400131D01*
X63314680Y15900771D02*
X43035320Y15900771D01*
X63314680Y18400131D02*
X63314680Y15900771D01*
X43035320Y18400131D02*
X63314680Y18400131D01*
X91351100Y24157940D02*
X91351100Y21358860D01*
X92748100Y24157940D02*
X91351100Y24157940D01*
X92748100Y21358860D02*
X92748100Y24157940D01*
X91351100Y21358860D02*
X92748100Y21358860D01*
X95592900Y25631140D02*
X95592900Y22832060D01*
X96989900Y25631140D02*
X95592900Y25631140D01*
X96989900Y22832060D02*
X96989900Y25631140D01*
X95592900Y22832060D02*
X96989900Y22832060D01*
X89115900Y21384260D02*
X89115900Y24183340D01*
X87718900Y21384260D02*
X89115900Y21384260D01*
X87718900Y24183340D02*
X87718900Y21384260D01*
X89115900Y24183340D02*
X87718900Y24183340D01*
D16*
X206905600Y9000D02*
X206905600Y-741000D01*
X206905600Y-741000D02*
X205405600Y-741000D01*
X205405600Y-741000D02*
X205405600Y9000D01*
X200055600Y4309000D02*
X200055600Y9000D01*
X200055600Y9000D02*
X210255600Y9000D01*
X210255600Y4309000D02*
X210255600Y9000D01*
X200055600Y4309000D02*
X210255600Y4309000D01*
X15493200Y13161600D02*
X2693200Y13161600D01*
X15493200Y32761600D02*
X15493200Y13161600D01*
X2693200Y32761600D02*
X15493200Y32761600D01*
X2693200Y13161600D02*
X2693200Y32761600D01*
X1422400Y26644600D02*
X3175000Y26644600D01*
X1414600Y23596600D02*
X1414600Y26644600D01*
X3175000Y23596600D02*
X1422400Y23596600D01*
D19*
X3779800Y14224000D02*
G75*
G03X3779800Y14224000I-300000J0D01*
G01*
D16*
X3187700Y17056100D02*
X14998700Y17056100D01*
X14998700Y17056100D02*
X14998700Y28867100D01*
X3187700Y28867100D02*
X14998700Y28867100D01*
X3187700Y17056100D02*
X3187700Y28867100D01*
D20*
X107694400Y26847800D02*
G75*
G03X107694400Y26847800I-100000J0D01*
G01*
D10*
X108141600Y23728800D02*
X108141600Y23078800D01*
X108141600Y23078800D02*
X107991600Y23078800D01*
X105421600Y25648800D02*
X105421600Y26298800D01*
X105421600Y26298800D02*
X105571600Y26298800D01*
X105421600Y23728800D02*
X105421600Y23078800D01*
X105421600Y23078800D02*
X105571600Y23078800D01*
X108141600Y25648800D02*
X108141600Y26298800D01*
D15*
X108877100Y24564340D02*
X108877100Y21765260D01*
X110274100Y24564340D02*
X108877100Y24564340D01*
X110274100Y21765260D02*
X110274100Y24564340D01*
X108877100Y21765260D02*
X110274100Y21765260D01*
X103289100Y25834340D02*
X103289100Y23035260D01*
X104686100Y25834340D02*
X103289100Y25834340D01*
X104686100Y23035260D02*
X104686100Y25834340D01*
X103289100Y23035260D02*
X104686100Y23035260D01*
D16*
X125298696Y9637939D02*
G75*
G03X125298696Y9637939I-234176J0D01*
G01*
X115095720Y9053739D02*
X115095720Y3353739D01*
X115095720Y3353739D02*
X126895720Y3353739D01*
X126895720Y9053739D02*
X126895720Y3353739D01*
X115095720Y9053739D02*
X126895720Y9053739D01*
D15*
X209839560Y6921500D02*
X212638640Y6921500D01*
X209839560Y8318500D02*
X209839560Y6921500D01*
X212638640Y8318500D02*
X209839560Y8318500D01*
X212638640Y6921500D02*
X212638640Y8318500D01*
X37879020Y8836660D02*
X37879020Y6037580D01*
X39276020Y8836660D02*
X37879020Y8836660D01*
X39276020Y6037580D02*
X39276020Y8836660D01*
X37879020Y6037580D02*
X39276020Y6037580D01*
X229359460Y22364700D02*
X232158540Y22364700D01*
X229359460Y23761700D02*
X229359460Y22364700D01*
X232158540Y23761700D02*
X229359460Y23761700D01*
X232158540Y22364700D02*
X232158540Y23761700D01*
X208790540Y16421100D02*
X205991460Y16421100D01*
X208790540Y15024100D02*
X208790540Y16421100D01*
X205991460Y15024100D02*
X208790540Y15024100D01*
X205991460Y16421100D02*
X205991460Y15024100D01*
X198866760Y10452100D02*
X201665840Y10452100D01*
X198866760Y11849100D02*
X198866760Y10452100D01*
X201665840Y11849100D02*
X198866760Y11849100D01*
X201665840Y10452100D02*
X201665840Y11849100D01*
X201691240Y10121900D02*
X198892160Y10121900D01*
X201691240Y8724900D02*
X201691240Y10121900D01*
X198892160Y8724900D02*
X201691240Y8724900D01*
X198892160Y10121900D02*
X198892160Y8724900D01*
X149249000Y27243400D02*
G75*
G03X149249000Y27243400I-254000J0D01*
G01*
D21*
X150177000Y27425400D02*
X149177000Y28425400D01*
X150177000Y18425400D02*
X150177000Y27425400D01*
X140177000Y18425400D02*
X150177000Y18425400D01*
X140177000Y28425400D02*
X140177000Y18425400D01*
X149177000Y28425400D02*
X140177000Y28425400D01*
D15*
X151193500Y30172660D02*
X151193500Y32971740D01*
X149796500Y30172660D02*
X151193500Y30172660D01*
X149796500Y32971740D02*
X149796500Y30172660D01*
X151193500Y32971740D02*
X149796500Y32971740D01*
X163634420Y28356560D02*
X163634420Y32755840D01*
X161434780Y28356560D02*
X163634420Y28356560D01*
X161434780Y32755840D02*
X161434780Y28356560D01*
X163634420Y32755840D02*
X161434780Y32755840D01*
X149415500Y30172660D02*
X149415500Y32971740D01*
X148018500Y30172660D02*
X149415500Y30172660D01*
X148018500Y32971740D02*
X148018500Y30172660D01*
X149415500Y32971740D02*
X148018500Y32971740D01*
D11*
X228879400Y21717000D02*
G75*
G02X228269800Y21717000I-304800J0D01*
G01*
D22*
X228269800Y21717000D02*
X226695000Y21717000D01*
X228879400Y21717000D02*
X228269800Y21717000D01*
X230454200Y21717000D02*
X228879400Y21717000D01*
X226695000Y16637000D02*
X230454200Y16637000D01*
D15*
X50040540Y8143240D02*
X47241460Y8143240D01*
X50040540Y6746240D02*
X50040540Y8143240D01*
X47241460Y6746240D02*
X50040540Y6746240D01*
X47241460Y8143240D02*
X47241460Y6746240D01*
X198861680Y6593840D02*
X202458320Y6593840D01*
X198861680Y8392160D02*
X198861680Y6593840D01*
X202458320Y8392160D02*
X198861680Y8392160D01*
X202458320Y6593840D02*
X202458320Y8392160D01*
X33865820Y10634980D02*
X30269180Y10634980D01*
X33865820Y8836660D02*
X33865820Y10634980D01*
X30269180Y8836660D02*
X33865820Y8836660D01*
X30269180Y10634980D02*
X30269180Y8836660D01*
X33865820Y7332980D02*
X30269180Y7332980D01*
X33865820Y5534660D02*
X33865820Y7332980D01*
X30269180Y5534660D02*
X33865820Y5534660D01*
X30269180Y7332980D02*
X30269180Y5534660D01*
X128795780Y32476440D02*
X128795780Y28077160D01*
X130995420Y32476440D02*
X128795780Y32476440D01*
X130995420Y28077160D02*
X130995420Y32476440D01*
X128795780Y28077160D02*
X130995420Y28077160D01*
X132118100Y30850840D02*
X132118100Y28051760D01*
X133515100Y30850840D02*
X132118100Y30850840D01*
X133515100Y28051760D02*
X133515100Y30850840D01*
X132118100Y28051760D02*
X133515100Y28051760D01*
X133819900Y30838140D02*
X133819900Y28039060D01*
X135216900Y30838140D02*
X133819900Y30838140D01*
X135216900Y28039060D02*
X135216900Y30838140D01*
X133819900Y28039060D02*
X135216900Y28039060D01*
X134947660Y26327100D02*
X137746740Y26327100D01*
X134947660Y27724100D02*
X134947660Y26327100D01*
X137746740Y27724100D02*
X134947660Y27724100D01*
X137746740Y26327100D02*
X137746740Y27724100D01*
X131503420Y7114540D02*
X128704340Y7114540D01*
X131503420Y5717540D02*
X131503420Y7114540D01*
X128704340Y5717540D02*
X131503420Y5717540D01*
X128704340Y7114540D02*
X128704340Y5717540D01*
X197363080Y3774440D02*
X197662800Y4074160D01*
X197962520Y3774440D02*
X197363080Y3774440D01*
X197662800Y4074160D02*
X197962520Y3774440D01*
X196913500Y5422900D02*
X198412100Y5422900D01*
X196913500Y5623560D02*
X196913500Y5422900D01*
X198412100Y5623560D02*
X196913500Y5623560D01*
X198412100Y5422900D02*
X198412100Y5623560D01*
X198412100Y2425700D02*
X198412100Y5422900D01*
X196913500Y2425700D02*
X198412100Y2425700D01*
X196913500Y5422900D02*
X196913500Y2425700D01*
X198412100Y5422900D02*
X196913500Y5422900D01*
D23*
X193795811Y7917180D02*
G75*
G03X193795811Y7917180I-395131J0D01*
G01*
D15*
X190210440Y9177020D02*
X190202820Y9110980D01*
X190235840Y9237980D02*
X190210440Y9177020D01*
X190276480Y9291320D02*
X190235840Y9237980D01*
X190329820Y9331960D02*
X190276480Y9291320D01*
X190390780Y9357360D02*
X190329820Y9331960D01*
X190456820Y9364980D02*
X190390780Y9357360D01*
X190520320Y9357360D02*
X190456820Y9364980D01*
X190578740Y9331960D02*
X190520320Y9357360D01*
X190629540Y9293860D02*
X190578740Y9331960D01*
X190670180Y9243060D02*
X190629540Y9293860D01*
X190693040Y9184640D02*
X190670180Y9243060D01*
X190703200Y9121140D02*
X190693040Y9184640D01*
X190693040Y9055100D02*
X190703200Y9121140D01*
X190667640Y8994140D02*
X190693040Y9055100D01*
X190627000Y8940800D02*
X190667640Y8994140D01*
X190576200Y8900160D02*
X190627000Y8940800D01*
X190512700Y8874760D02*
X190576200Y8900160D01*
X190449200Y8867140D02*
X190512700Y8874760D01*
X190383160Y8874760D02*
X190449200Y8867140D01*
X190324740Y8897620D02*
X190383160Y8874760D01*
X190273940Y8938260D02*
X190324740Y8897620D01*
X190235840Y8989060D02*
X190273940Y8938260D01*
X190210440Y9047480D02*
X190235840Y8989060D01*
X190202820Y9110980D02*
X190210440Y9047480D01*
X191803020Y9316720D02*
X191803020Y9265920D01*
X191803020Y6517640D02*
X191803020Y6568440D01*
X194998340Y9316720D02*
X194998340Y9265920D01*
X194998340Y6517640D02*
X194998340Y6568440D01*
X194998340Y7767320D02*
X194998340Y8067040D01*
X191803020Y7767320D02*
X191803020Y8016240D01*
X194998340Y6517640D02*
X191803020Y6517640D01*
X191803020Y9316720D02*
X194998340Y9316720D01*
D10*
X137647178Y32891800D02*
X137130022Y32891800D01*
X137647178Y31471800D02*
X137130022Y31471800D01*
X137672578Y30580400D02*
X137155422Y30580400D01*
X137672578Y29160400D02*
X137155422Y29160400D01*
D22*
X29361800Y8367980D02*
X29361800Y7567980D01*
X24861800Y3867980D02*
X24261800Y3867980D01*
X24261800Y3867980D02*
X24261800Y4467980D01*
X24861800Y12067980D02*
X24261800Y12067980D01*
X24261800Y12067980D02*
X24261800Y11467980D01*
X28761800Y3867980D02*
X29361800Y3867980D01*
X29361800Y3867980D02*
X29361800Y4467980D01*
X28761800Y12067980D02*
X29361800Y12067980D01*
X29361800Y12067980D02*
X29361800Y11467980D01*
D15*
X112026700Y24729440D02*
X112026700Y21930360D01*
X113423700Y24729440D02*
X112026700Y24729440D01*
X113423700Y21930360D02*
X113423700Y24729440D01*
X112026700Y21930360D02*
X113423700Y21930360D01*
X114007900Y24716740D02*
X114007900Y21917660D01*
X115404900Y24716740D02*
X114007900Y24716740D01*
X115404900Y21917660D02*
X115404900Y24716740D01*
X114007900Y21917660D02*
X115404900Y21917660D01*
X175084300Y31040440D02*
X175084300Y28241360D01*
X176481300Y31040440D02*
X175084300Y31040440D01*
X176481300Y28241360D02*
X176481300Y31040440D01*
X175084300Y28241360D02*
X176481300Y28241360D01*
X178881300Y28239960D02*
X178881300Y31039040D01*
X177484300Y28239960D02*
X178881300Y28239960D01*
X177484300Y31039040D02*
X177484300Y28239960D01*
X178881300Y31039040D02*
X177484300Y31039040D01*
X221033260Y17141700D02*
X223832340Y17141700D01*
X221033260Y18538700D02*
X221033260Y17141700D01*
X223832340Y18538700D02*
X221033260Y18538700D01*
X223832340Y17141700D02*
X223832340Y18538700D01*
X221083260Y18941700D02*
X223882340Y18941700D01*
X221083260Y20338700D02*
X221083260Y18941700D01*
X223882340Y20338700D02*
X221083260Y20338700D01*
X223882340Y18941700D02*
X223882340Y20338700D01*
X211437220Y6159500D02*
X208638140Y6159500D01*
X211437220Y4762500D02*
X211437220Y6159500D01*
X208638140Y4762500D02*
X211437220Y4762500D01*
X208638140Y6159500D02*
X208638140Y4762500D01*
X131351020Y4020820D02*
X128551940Y4020820D01*
X131351020Y2623820D02*
X131351020Y4020820D01*
X128551940Y2623820D02*
X131351020Y2623820D01*
X128551940Y4020820D02*
X128551940Y2623820D01*
X192478660Y11366500D02*
X195277740Y11366500D01*
X192478660Y12763500D02*
X192478660Y11366500D01*
X195277740Y12763500D02*
X192478660Y12763500D01*
X195277740Y11366500D02*
X195277740Y12763500D01*
X192463420Y13154660D02*
X195262500Y13154660D01*
X192463420Y14551660D02*
X192463420Y13154660D01*
X195262500Y14551660D02*
X192463420Y14551660D01*
X195262500Y13154660D02*
X195262500Y14551660D01*
X188516260Y11366500D02*
X191315340Y11366500D01*
X188516260Y12763500D02*
X188516260Y11366500D01*
X191315340Y12763500D02*
X188516260Y12763500D01*
X191315340Y11366500D02*
X191315340Y12763500D01*
D24*
X176182800Y11290200D02*
G75*
G03X176182800Y11290200I-300000J0D01*
G01*
D15*
X169182800Y9790200D02*
X169182800Y3790200D01*
X175182800Y9790200D02*
X175182800Y3790200D01*
X175182800Y3790200D02*
X169182800Y3790200D01*
X175182800Y9790200D02*
X169182800Y9790200D01*
D20*
X74858620Y11115220D02*
G75*
G03X74858620Y11115220I-100000J0D01*
G01*
D15*
X79958620Y9515220D02*
X79958620Y10515220D01*
X75758620Y9515220D02*
X75758620Y10515220D01*
X79958620Y8395220D02*
X75758620Y8395220D01*
X75758620Y11635220D02*
X79958620Y11635220D01*
D10*
X165266800Y29098600D02*
X167716800Y29098600D01*
X167066800Y32318600D02*
X165266800Y32318600D01*
X42318100Y881740D02*
X44768100Y881740D01*
X44118100Y4101740D02*
X42318100Y4101740D01*
X212189600Y17012800D02*
X210729600Y17012800D01*
X212189600Y20172800D02*
X210029600Y20172800D01*
X212189600Y20172800D02*
X212189600Y19242800D01*
X212189600Y17012800D02*
X212189600Y17942800D01*
D15*
X183932340Y30188700D02*
X181133260Y30188700D01*
X183932340Y28791700D02*
X183932340Y30188700D01*
X181133260Y28791700D02*
X183932340Y28791700D01*
X181133260Y30188700D02*
X181133260Y28791700D01*
X13982700Y11940540D02*
X13982700Y9141460D01*
X15379700Y11940540D02*
X13982700Y11940540D01*
X15379700Y9141460D02*
X15379700Y11940540D01*
X13982700Y9141460D02*
X15379700Y9141460D01*
X82905600Y29946600D02*
X82905600Y29311600D01*
X83540600Y30581600D02*
X82905600Y29946600D01*
X84175600Y29946600D02*
X83540600Y30581600D01*
X83540600Y29311600D02*
X84175600Y29946600D01*
X82905600Y29311600D02*
X83540600Y29311600D01*
X83560920Y29966920D02*
X83560920Y32466280D01*
X103840280Y29966920D02*
X83560920Y29966920D01*
X103840280Y32466280D02*
X103840280Y29966920D01*
X83560920Y32466280D02*
X103840280Y32466280D01*
X225943120Y5289880D02*
X230982480Y5289880D01*
X230982480Y5289880D02*
X230982480Y2790520D01*
X230982480Y2790520D02*
X225943120Y2790520D01*
X225943120Y2790520D02*
X225943120Y5289880D01*
X225287800Y2135200D02*
X225922800Y2135200D01*
X225922800Y2135200D02*
X226557800Y2770200D01*
X226557800Y2770200D02*
X225922800Y3405200D01*
X225922800Y3405200D02*
X225287800Y2770200D01*
X225287800Y2770200D02*
X225287800Y2135200D01*
D16*
X42379995Y10938759D02*
X42379995Y10129235D01*
X42427614Y10033997D01*
X42475233Y9986378D01*
X42570471Y9938759D01*
X42760947Y9938759D01*
X42856185Y9986378D01*
X42903804Y10033997D01*
X42951423Y10129235D01*
X42951423Y10938759D01*
X43570471Y10510187D02*
X43475233Y10557806D01*
X43427614Y10605425D01*
X43379995Y10700663D01*
X43379995Y10748282D01*
X43427614Y10843520D01*
X43475233Y10891140D01*
X43570471Y10938759D01*
X43760947Y10938759D01*
X43856185Y10891140D01*
X43903804Y10843520D01*
X43951423Y10748282D01*
X43951423Y10700663D01*
X43903804Y10605425D01*
X43856185Y10557806D01*
X43760947Y10510187D01*
X43570471Y10510187D01*
X43475233Y10462568D01*
X43427614Y10414949D01*
X43379995Y10319711D01*
X43379995Y10129235D01*
X43427614Y10033997D01*
X43475233Y9986378D01*
X43570471Y9938759D01*
X43760947Y9938759D01*
X43856185Y9986378D01*
X43903804Y10033997D01*
X43951423Y10129235D01*
X43951423Y10319711D01*
X43903804Y10414949D01*
X43856185Y10462568D01*
X43760947Y10510187D01*
D22*
X202308506Y8997959D02*
X203119470Y8997959D01*
X203214878Y9045662D01*
X203262582Y9093366D01*
X203310286Y9188774D01*
X203310286Y9379589D01*
X203262582Y9474997D01*
X203214878Y9522700D01*
X203119470Y9570404D01*
X202308506Y9570404D01*
X202308506Y10476777D02*
X202308506Y10285961D01*
X202356210Y10190554D01*
X202403913Y10142850D01*
X202547025Y10047442D01*
X202737840Y9999739D01*
X203119470Y9999739D01*
X203214878Y10047442D01*
X203262582Y10095146D01*
X203310286Y10190554D01*
X203310286Y10381369D01*
X203262582Y10476777D01*
X203214878Y10524480D01*
X203119470Y10572184D01*
X202880951Y10572184D01*
X202785544Y10524480D01*
X202737840Y10476777D01*
X202690136Y10381369D01*
X202690136Y10190554D01*
X202737840Y10095146D01*
X202785544Y10047442D01*
X202880951Y9999739D01*
X51160438Y8966320D02*
X50821771Y9450130D01*
X50579866Y8966320D02*
X50579866Y9982320D01*
X50966914Y9982320D01*
X51063676Y9933940D01*
X51112057Y9885559D01*
X51160438Y9788797D01*
X51160438Y9643654D01*
X51112057Y9546892D01*
X51063676Y9498511D01*
X50966914Y9450130D01*
X50579866Y9450130D01*
X51547485Y9256606D02*
X52031295Y9256606D01*
X51450723Y8966320D02*
X51789390Y9982320D01*
X52128057Y8966320D01*
X52998914Y8966320D02*
X52418342Y8966320D01*
X52708628Y8966320D02*
X52708628Y9982320D01*
X52611866Y9837178D01*
X52515104Y9740416D01*
X52418342Y9692035D01*
X215378038Y10327342D02*
X215329657Y10278961D01*
X215184514Y10230580D01*
X215087752Y10230580D01*
X214942609Y10278961D01*
X214845847Y10375723D01*
X214797466Y10472485D01*
X214749085Y10666009D01*
X214749085Y10811152D01*
X214797466Y11004676D01*
X214845847Y11101438D01*
X214942609Y11198200D01*
X215087752Y11246580D01*
X215184514Y11246580D01*
X215329657Y11198200D01*
X215378038Y11149819D01*
X215765085Y10520866D02*
X216248895Y10520866D01*
X215668323Y10230580D02*
X216006990Y11246580D01*
X216345657Y10230580D01*
X216635942Y11149819D02*
X216684323Y11198200D01*
X216781085Y11246580D01*
X217022990Y11246580D01*
X217119752Y11198200D01*
X217168133Y11149819D01*
X217216514Y11053057D01*
X217216514Y10956295D01*
X217168133Y10811152D01*
X216587561Y10230580D01*
X217216514Y10230580D01*
X215278038Y13927342D02*
X215229657Y13878961D01*
X215084514Y13830580D01*
X214987752Y13830580D01*
X214842609Y13878961D01*
X214745847Y13975723D01*
X214697466Y14072485D01*
X214649085Y14266009D01*
X214649085Y14411152D01*
X214697466Y14604676D01*
X214745847Y14701438D01*
X214842609Y14798200D01*
X214987752Y14846580D01*
X215084514Y14846580D01*
X215229657Y14798200D01*
X215278038Y14749819D01*
X215665085Y14120866D02*
X216148895Y14120866D01*
X215568323Y13830580D02*
X215906990Y14846580D01*
X216245657Y13830580D01*
X217116514Y13830580D02*
X216535942Y13830580D01*
X216826228Y13830580D02*
X216826228Y14846580D01*
X216729466Y14701438D01*
X216632704Y14604676D01*
X216535942Y14556295D01*
X41660717Y482237D02*
X41709098Y433856D01*
X41757479Y288713D01*
X41757479Y191951D01*
X41709098Y46808D01*
X41612336Y-49953D01*
X41515574Y-98334D01*
X41322050Y-146715D01*
X41176907Y-146715D01*
X40983383Y-98334D01*
X40886621Y-49953D01*
X40789860Y46808D01*
X40741479Y191951D01*
X40741479Y288713D01*
X40789860Y433856D01*
X40838240Y482237D01*
X40838240Y869284D02*
X40789860Y917665D01*
X40741479Y1014427D01*
X40741479Y1256332D01*
X40789860Y1353094D01*
X40838240Y1401475D01*
X40935002Y1449856D01*
X41031764Y1449856D01*
X41176907Y1401475D01*
X41757479Y820903D01*
X41757479Y1449856D01*
X41757479Y2417475D02*
X41757479Y1836903D01*
X41757479Y2127189D02*
X40741479Y2127189D01*
X40886621Y2030427D01*
X40983383Y1933665D01*
X41031764Y1836903D01*
D16*
X197305011Y19489475D02*
X197352630Y19632332D01*
X197400249Y19679951D01*
X197495487Y19727570D01*
X197638344Y19727570D01*
X197733582Y19679951D01*
X197781201Y19632332D01*
X197828820Y19537094D01*
X197828820Y19156141D01*
X196828820Y19156141D01*
X196828820Y19489475D01*
X196876440Y19584713D01*
X196924059Y19632332D01*
X197019297Y19679951D01*
X197114535Y19679951D01*
X197209773Y19632332D01*
X197257392Y19584713D01*
X197305011Y19489475D01*
X197305011Y19156141D01*
X196828820Y20013284D02*
X196828820Y20584713D01*
X197828820Y20298999D02*
X196828820Y20298999D01*
X197828820Y20918046D02*
X196828820Y20918046D01*
X197828820Y21489475D01*
X196828820Y21489475D01*
X197305011Y21965665D02*
X197305011Y22298999D01*
X197828820Y22441856D02*
X197828820Y21965665D01*
X196828820Y21965665D01*
X196828820Y22441856D01*
X196876440Y23394237D02*
X196828820Y23298999D01*
X196828820Y23156141D01*
X196876440Y23013284D01*
X196971678Y22918046D01*
X197066916Y22870427D01*
X197257392Y22822808D01*
X197400249Y22822808D01*
X197590725Y22870427D01*
X197685963Y22918046D01*
X197781201Y23013284D01*
X197828820Y23156141D01*
X197828820Y23251380D01*
X197781201Y23394237D01*
X197733582Y23441856D01*
X197400249Y23441856D01*
X197400249Y23251380D01*
X197828820Y24394237D02*
X197828820Y23822808D01*
X197828820Y24108522D02*
X196828820Y24108522D01*
X196971678Y24013284D01*
X197066916Y23918046D01*
X197114535Y23822808D01*
X136790180Y15883190D02*
X137790180Y16549857D01*
X136790180Y16549857D02*
X137790180Y15883190D01*
X136790180Y16787952D02*
X136790180Y17359380D01*
X137790180Y17073666D02*
X136790180Y17073666D01*
X137504466Y17645095D02*
X137504466Y18121285D01*
X137790180Y17549857D02*
X136790180Y17883190D01*
X137790180Y18216523D01*
X137790180Y19026047D02*
X137790180Y18549857D01*
X136790180Y18549857D01*
X137790180Y19883190D02*
X137790180Y19311761D01*
X137790180Y19597476D02*
X136790180Y19597476D01*
X136933038Y19502238D01*
X137028276Y19407000D01*
X137075895Y19311761D01*
X62690895Y9127819D02*
X63262323Y9127819D01*
X62976609Y8127819D02*
X62976609Y9127819D01*
X64167085Y8223057D02*
X64119466Y8175438D01*
X63976609Y8127819D01*
X63881371Y8127819D01*
X63738514Y8175438D01*
X63643276Y8270676D01*
X63595657Y8365914D01*
X63548038Y8556390D01*
X63548038Y8699247D01*
X63595657Y8889723D01*
X63643276Y8984961D01*
X63738514Y9080200D01*
X63881371Y9127819D01*
X63976609Y9127819D01*
X64119466Y9080200D01*
X64167085Y9032580D01*
X65119466Y8127819D02*
X64548038Y8127819D01*
X64833752Y8127819D02*
X64833752Y9127819D01*
X64738514Y8984961D01*
X64643276Y8889723D01*
X64548038Y8842104D01*
X83006380Y27320666D02*
X83720666Y27320666D01*
X83863523Y27273047D01*
X83958761Y27177809D01*
X84006380Y27034952D01*
X84006380Y26939714D01*
X83006380Y28225428D02*
X83006380Y28034952D01*
X83054000Y27939714D01*
X83101619Y27892095D01*
X83244476Y27796857D01*
X83434952Y27749238D01*
X83815904Y27749238D01*
X83911142Y27796857D01*
X83958761Y27844476D01*
X84006380Y27939714D01*
X84006380Y28130190D01*
X83958761Y28225428D01*
X83911142Y28273047D01*
X83815904Y28320666D01*
X83577809Y28320666D01*
X83482571Y28273047D01*
X83434952Y28225428D01*
X83387333Y28130190D01*
X83387333Y27939714D01*
X83434952Y27844476D01*
X83482571Y27796857D01*
X83577809Y27749238D01*
D25*
X210825859Y1583315D02*
X211541516Y1583315D01*
X211684648Y1535605D01*
X211780069Y1440184D01*
X211827779Y1297052D01*
X211827779Y1201631D01*
X210921280Y2012709D02*
X210873570Y2060420D01*
X210825859Y2155841D01*
X210825859Y2394393D01*
X210873570Y2489814D01*
X210921280Y2537525D01*
X211016701Y2585235D01*
X211112122Y2585235D01*
X211255253Y2537525D01*
X211827779Y1964999D01*
X211827779Y2585235D01*
D22*
X245567285Y27852619D02*
X245567285Y27043095D01*
X245610142Y26947857D01*
X245653000Y26900238D01*
X245738714Y26852619D01*
X245910142Y26852619D01*
X245995857Y26900238D01*
X246038714Y26947857D01*
X246081571Y27043095D01*
X246081571Y27852619D01*
X246553000Y26852619D02*
X246724428Y26852619D01*
X246810142Y26900238D01*
X246853000Y26947857D01*
X246938714Y27090714D01*
X246981571Y27281190D01*
X246981571Y27662142D01*
X246938714Y27757380D01*
X246895857Y27805000D01*
X246810142Y27852619D01*
X246638714Y27852619D01*
X246553000Y27805000D01*
X246510142Y27757380D01*
X246467285Y27662142D01*
X246467285Y27424047D01*
X246510142Y27328809D01*
X246553000Y27281190D01*
X246638714Y27233571D01*
X246810142Y27233571D01*
X246895857Y27281190D01*
X246938714Y27328809D01*
X246981571Y27424047D01*
X45236653Y19713431D02*
X45236653Y18987717D01*
X45188272Y18842574D01*
X45091510Y18745812D01*
X44946367Y18697431D01*
X44849605Y18697431D01*
X46204272Y19713431D02*
X45720462Y19713431D01*
X45672081Y19229622D01*
X45720462Y19278003D01*
X45817224Y19326384D01*
X46059129Y19326384D01*
X46155891Y19278003D01*
X46204272Y19229622D01*
X46252653Y19132860D01*
X46252653Y18890955D01*
X46204272Y18794193D01*
X46155891Y18745812D01*
X46059129Y18697431D01*
X45817224Y18697431D01*
X45720462Y18745812D01*
X45672081Y18794193D01*
D16*
X190942055Y2524499D02*
X190942055Y3524499D01*
X190942055Y3048308D02*
X191513483Y3048308D01*
X191513483Y2524499D02*
X191513483Y3524499D01*
X192132531Y3095927D02*
X192037293Y3143546D01*
X191989674Y3191165D01*
X191942055Y3286403D01*
X191942055Y3334022D01*
X191989674Y3429260D01*
X192037293Y3476880D01*
X192132531Y3524499D01*
X192323007Y3524499D01*
X192418245Y3476880D01*
X192465864Y3429260D01*
X192513483Y3334022D01*
X192513483Y3286403D01*
X192465864Y3191165D01*
X192418245Y3143546D01*
X192323007Y3095927D01*
X192132531Y3095927D01*
X192037293Y3048308D01*
X191989674Y3000689D01*
X191942055Y2905451D01*
X191942055Y2714975D01*
X191989674Y2619737D01*
X192037293Y2572118D01*
X192132531Y2524499D01*
X192323007Y2524499D01*
X192418245Y2572118D01*
X192465864Y2619737D01*
X192513483Y2714975D01*
X192513483Y2905451D01*
X192465864Y3000689D01*
X192418245Y3048308D01*
X192323007Y3095927D01*
D22*
X92374357Y19001377D02*
X92422738Y18952996D01*
X92471119Y18807853D01*
X92471119Y18711091D01*
X92422738Y18565948D01*
X92325976Y18469186D01*
X92229214Y18420805D01*
X92035690Y18372424D01*
X91890547Y18372424D01*
X91697023Y18420805D01*
X91600261Y18469186D01*
X91503500Y18565948D01*
X91455119Y18711091D01*
X91455119Y18807853D01*
X91503500Y18952996D01*
X91551880Y19001377D01*
X92471119Y19968996D02*
X92471119Y19388424D01*
X92471119Y19678710D02*
X91455119Y19678710D01*
X91600261Y19581948D01*
X91697023Y19485186D01*
X91745404Y19388424D01*
X91455119Y20307662D02*
X91455119Y20984996D01*
X92471119Y20549567D01*
X96728159Y20360277D02*
X96244349Y20021610D01*
X96728159Y19779705D02*
X95712159Y19779705D01*
X95712159Y20166753D01*
X95760540Y20263515D01*
X95808920Y20311896D01*
X95905682Y20360277D01*
X96050825Y20360277D01*
X96147587Y20311896D01*
X96195968Y20263515D01*
X96244349Y20166753D01*
X96244349Y19779705D01*
X96728159Y21327896D02*
X96728159Y20747324D01*
X96728159Y21037610D02*
X95712159Y21037610D01*
X95857301Y20940848D01*
X95954063Y20844086D01*
X96002444Y20747324D01*
X95712159Y21666562D02*
X95712159Y22343896D01*
X96728159Y21908467D01*
X88846539Y18955657D02*
X88362729Y18616990D01*
X88846539Y18375085D02*
X87830539Y18375085D01*
X87830539Y18762133D01*
X87878920Y18858895D01*
X87927300Y18907276D01*
X88024062Y18955657D01*
X88169205Y18955657D01*
X88265967Y18907276D01*
X88314348Y18858895D01*
X88362729Y18762133D01*
X88362729Y18375085D01*
X88846539Y19923276D02*
X88846539Y19342704D01*
X88846539Y19632990D02*
X87830539Y19632990D01*
X87975681Y19536228D01*
X88072443Y19439466D01*
X88120824Y19342704D01*
X87830539Y20794133D02*
X87830539Y20600609D01*
X87878920Y20503847D01*
X87927300Y20455466D01*
X88072443Y20358704D01*
X88265967Y20310323D01*
X88653015Y20310323D01*
X88749777Y20358704D01*
X88798158Y20407085D01*
X88846539Y20503847D01*
X88846539Y20697371D01*
X88798158Y20794133D01*
X88749777Y20842514D01*
X88653015Y20890895D01*
X88411110Y20890895D01*
X88314348Y20842514D01*
X88265967Y20794133D01*
X88217586Y20697371D01*
X88217586Y20503847D01*
X88265967Y20407085D01*
X88314348Y20358704D01*
X88411110Y20310323D01*
D16*
X201345895Y4731118D02*
X201488752Y4683499D01*
X201726847Y4683499D01*
X201822085Y4731118D01*
X201869704Y4778737D01*
X201917323Y4873975D01*
X201917323Y4969213D01*
X201869704Y5064451D01*
X201822085Y5112070D01*
X201726847Y5159689D01*
X201536371Y5207308D01*
X201441133Y5254927D01*
X201393514Y5302546D01*
X201345895Y5397784D01*
X201345895Y5493022D01*
X201393514Y5588260D01*
X201441133Y5635880D01*
X201536371Y5683499D01*
X201774466Y5683499D01*
X201917323Y5635880D01*
X202250657Y5683499D02*
X202869704Y5683499D01*
X202536371Y5302546D01*
X202679228Y5302546D01*
X202774466Y5254927D01*
X202822085Y5207308D01*
X202869704Y5112070D01*
X202869704Y4873975D01*
X202822085Y4778737D01*
X202774466Y4731118D01*
X202679228Y4683499D01*
X202393514Y4683499D01*
X202298276Y4731118D01*
X202250657Y4778737D01*
X155141396Y21439119D02*
X155141396Y20724833D01*
X155093777Y20581976D01*
X154998539Y20486738D01*
X154855681Y20439119D01*
X154760443Y20439119D01*
X155522348Y21439119D02*
X156189015Y20439119D01*
X156189015Y21439119D02*
X155522348Y20439119D01*
X156522348Y21343880D02*
X156569967Y21391500D01*
X156665205Y21439119D01*
X156903300Y21439119D01*
X156998539Y21391500D01*
X157046158Y21343880D01*
X157093777Y21248642D01*
X157093777Y21153404D01*
X157046158Y21010547D01*
X156474729Y20439119D01*
X157093777Y20439119D01*
X976380Y17176904D02*
X1785904Y17176904D01*
X1881142Y17224523D01*
X1928761Y17272142D01*
X1976380Y17367380D01*
X1976380Y17557857D01*
X1928761Y17653095D01*
X1881142Y17700714D01*
X1785904Y17748333D01*
X976380Y17748333D01*
X1976380Y18748333D02*
X1976380Y18176904D01*
X1976380Y18462619D02*
X976380Y18462619D01*
X1119238Y18367380D01*
X1214476Y18272142D01*
X1262095Y18176904D01*
X1976380Y19700714D02*
X1976380Y19129285D01*
X1976380Y19415000D02*
X976380Y19415000D01*
X1119238Y19319761D01*
X1214476Y19224523D01*
X1262095Y19129285D01*
X106284780Y27057504D02*
X107094304Y27057504D01*
X107189542Y27105123D01*
X107237161Y27152742D01*
X107284780Y27247980D01*
X107284780Y27438457D01*
X107237161Y27533695D01*
X107189542Y27581314D01*
X107094304Y27628933D01*
X106284780Y27628933D01*
X107284780Y28628933D02*
X107284780Y28057504D01*
X107284780Y28343219D02*
X106284780Y28343219D01*
X106427638Y28247980D01*
X106522876Y28152742D01*
X106570495Y28057504D01*
X106284780Y29247980D02*
X106284780Y29343219D01*
X106332400Y29438457D01*
X106380019Y29486076D01*
X106475257Y29533695D01*
X106665733Y29581314D01*
X106903828Y29581314D01*
X107094304Y29533695D01*
X107189542Y29486076D01*
X107237161Y29438457D01*
X107284780Y29343219D01*
X107284780Y29247980D01*
X107237161Y29152742D01*
X107189542Y29105123D01*
X107094304Y29057504D01*
X106903828Y29009885D01*
X106665733Y29009885D01*
X106475257Y29057504D01*
X106380019Y29105123D01*
X106332400Y29152742D01*
X106284780Y29247980D01*
D22*
X109963857Y19590657D02*
X110012238Y19542276D01*
X110060619Y19397133D01*
X110060619Y19300371D01*
X110012238Y19155228D01*
X109915476Y19058466D01*
X109818714Y19010085D01*
X109625190Y18961704D01*
X109480047Y18961704D01*
X109286523Y19010085D01*
X109189761Y19058466D01*
X109093000Y19155228D01*
X109044619Y19300371D01*
X109044619Y19397133D01*
X109093000Y19542276D01*
X109141380Y19590657D01*
X110060619Y20558276D02*
X110060619Y19977704D01*
X110060619Y20267990D02*
X109044619Y20267990D01*
X109189761Y20171228D01*
X109286523Y20074466D01*
X109334904Y19977704D01*
X109044619Y21429133D02*
X109044619Y21235609D01*
X109093000Y21138847D01*
X109141380Y21090466D01*
X109286523Y20993704D01*
X109480047Y20945323D01*
X109867095Y20945323D01*
X109963857Y20993704D01*
X110012238Y21042085D01*
X110060619Y21138847D01*
X110060619Y21332371D01*
X110012238Y21429133D01*
X109963857Y21477514D01*
X109867095Y21525895D01*
X109625190Y21525895D01*
X109528428Y21477514D01*
X109480047Y21429133D01*
X109431666Y21332371D01*
X109431666Y21138847D01*
X109480047Y21042085D01*
X109528428Y20993704D01*
X109625190Y20945323D01*
X102674057Y23680057D02*
X102722438Y23631676D01*
X102770819Y23486533D01*
X102770819Y23389771D01*
X102722438Y23244628D01*
X102625676Y23147866D01*
X102528914Y23099485D01*
X102335390Y23051104D01*
X102190247Y23051104D01*
X101996723Y23099485D01*
X101899961Y23147866D01*
X101803200Y23244628D01*
X101754819Y23389771D01*
X101754819Y23486533D01*
X101803200Y23631676D01*
X101851580Y23680057D01*
X102770819Y24647676D02*
X102770819Y24067104D01*
X102770819Y24357390D02*
X101754819Y24357390D01*
X101899961Y24260628D01*
X101996723Y24163866D01*
X102045104Y24067104D01*
X101754819Y25566914D02*
X101754819Y25083104D01*
X102238628Y25034723D01*
X102190247Y25083104D01*
X102141866Y25179866D01*
X102141866Y25421771D01*
X102190247Y25518533D01*
X102238628Y25566914D01*
X102335390Y25615295D01*
X102577295Y25615295D01*
X102674057Y25566914D01*
X102722438Y25518533D01*
X102770819Y25421771D01*
X102770819Y25179866D01*
X102722438Y25083104D01*
X102674057Y25034723D01*
D16*
X123110666Y10580619D02*
X123110666Y9866333D01*
X123063047Y9723476D01*
X122967809Y9628238D01*
X122824952Y9580619D01*
X122729714Y9580619D01*
X124015428Y10247285D02*
X124015428Y9580619D01*
X123777333Y10628238D02*
X123539238Y9913952D01*
X124158285Y9913952D01*
D22*
X214008546Y7048862D02*
X213960165Y7000481D01*
X213815022Y6952100D01*
X213718260Y6952100D01*
X213573118Y7000481D01*
X213476356Y7097243D01*
X213427975Y7194005D01*
X213379594Y7387529D01*
X213379594Y7532672D01*
X213427975Y7726196D01*
X213476356Y7822958D01*
X213573118Y7919720D01*
X213718260Y7968100D01*
X213815022Y7968100D01*
X213960165Y7919720D01*
X214008546Y7871339D01*
X214492356Y6952100D02*
X214685880Y6952100D01*
X214782641Y7000481D01*
X214831022Y7048862D01*
X214927784Y7194005D01*
X214976165Y7387529D01*
X214976165Y7774577D01*
X214927784Y7871339D01*
X214879403Y7919720D01*
X214782641Y7968100D01*
X214589118Y7968100D01*
X214492356Y7919720D01*
X214443975Y7871339D01*
X214395594Y7774577D01*
X214395594Y7532672D01*
X214443975Y7435910D01*
X214492356Y7387529D01*
X214589118Y7339148D01*
X214782641Y7339148D01*
X214879403Y7387529D01*
X214927784Y7435910D01*
X214976165Y7532672D01*
X38927677Y3817257D02*
X38976058Y3768876D01*
X39024439Y3623733D01*
X39024439Y3526971D01*
X38976058Y3381828D01*
X38879296Y3285066D01*
X38782534Y3236685D01*
X38589010Y3188304D01*
X38443867Y3188304D01*
X38250343Y3236685D01*
X38153581Y3285066D01*
X38056820Y3381828D01*
X38008439Y3526971D01*
X38008439Y3623733D01*
X38056820Y3768876D01*
X38105200Y3817257D01*
X39024439Y4784876D02*
X39024439Y4204304D01*
X39024439Y4494590D02*
X38008439Y4494590D01*
X38153581Y4397828D01*
X38250343Y4301066D01*
X38298724Y4204304D01*
X38105200Y5171923D02*
X38056820Y5220304D01*
X38008439Y5317066D01*
X38008439Y5558971D01*
X38056820Y5655733D01*
X38105200Y5704114D01*
X38201962Y5752495D01*
X38298724Y5752495D01*
X38443867Y5704114D01*
X39024439Y5123542D01*
X39024439Y5752495D01*
X230121097Y24280222D02*
X230072716Y24231841D01*
X229927573Y24183460D01*
X229830811Y24183460D01*
X229685668Y24231841D01*
X229588906Y24328603D01*
X229540525Y24425365D01*
X229492144Y24618889D01*
X229492144Y24764032D01*
X229540525Y24957556D01*
X229588906Y25054318D01*
X229685668Y25151080D01*
X229830811Y25199460D01*
X229927573Y25199460D01*
X230072716Y25151080D01*
X230121097Y25102699D01*
X231088716Y24183460D02*
X230508144Y24183460D01*
X230798430Y24183460D02*
X230798430Y25199460D01*
X230701668Y25054318D01*
X230604906Y24957556D01*
X230508144Y24909175D01*
X232056335Y24183460D02*
X231475763Y24183460D01*
X231766049Y24183460D02*
X231766049Y25199460D01*
X231669287Y25054318D01*
X231572525Y24957556D01*
X231475763Y24909175D01*
X203636517Y15367362D02*
X203588136Y15318981D01*
X203442993Y15270600D01*
X203346231Y15270600D01*
X203201088Y15318981D01*
X203104326Y15415743D01*
X203055945Y15512505D01*
X203007564Y15706029D01*
X203007564Y15851172D01*
X203055945Y16044696D01*
X203104326Y16141458D01*
X203201088Y16238220D01*
X203346231Y16286600D01*
X203442993Y16286600D01*
X203588136Y16238220D01*
X203636517Y16189839D01*
X204604136Y15270600D02*
X204023564Y15270600D01*
X204313850Y15270600D02*
X204313850Y16286600D01*
X204217088Y16141458D01*
X204120326Y16044696D01*
X204023564Y15996315D01*
X205233088Y16286600D02*
X205329850Y16286600D01*
X205426612Y16238220D01*
X205474993Y16189839D01*
X205523374Y16093077D01*
X205571755Y15899553D01*
X205571755Y15657648D01*
X205523374Y15464124D01*
X205474993Y15367362D01*
X205426612Y15318981D01*
X205329850Y15270600D01*
X205233088Y15270600D01*
X205136326Y15318981D01*
X205087945Y15367362D01*
X205039564Y15464124D01*
X204991183Y15657648D01*
X204991183Y15899553D01*
X205039564Y16093077D01*
X205087945Y16189839D01*
X205136326Y16238220D01*
X205233088Y16286600D01*
X197656026Y10063842D02*
X197607645Y10015461D01*
X197462502Y9967080D01*
X197365740Y9967080D01*
X197220598Y10015461D01*
X197123836Y10112223D01*
X197075455Y10208985D01*
X197027074Y10402509D01*
X197027074Y10547652D01*
X197075455Y10741176D01*
X197123836Y10837938D01*
X197220598Y10934700D01*
X197365740Y10983080D01*
X197462502Y10983080D01*
X197607645Y10934700D01*
X197656026Y10886319D01*
X198236598Y10547652D02*
X198139836Y10596033D01*
X198091455Y10644414D01*
X198043074Y10741176D01*
X198043074Y10789557D01*
X198091455Y10886319D01*
X198139836Y10934700D01*
X198236598Y10983080D01*
X198430121Y10983080D01*
X198526883Y10934700D01*
X198575264Y10886319D01*
X198623645Y10789557D01*
X198623645Y10741176D01*
X198575264Y10644414D01*
X198526883Y10596033D01*
X198430121Y10547652D01*
X198236598Y10547652D01*
X198139836Y10499271D01*
X198091455Y10450890D01*
X198043074Y10354128D01*
X198043074Y10160604D01*
X198091455Y10063842D01*
X198139836Y10015461D01*
X198236598Y9967080D01*
X198430121Y9967080D01*
X198526883Y10015461D01*
X198575264Y10063842D01*
X198623645Y10160604D01*
X198623645Y10354128D01*
X198575264Y10450890D01*
X198526883Y10499271D01*
X198430121Y10547652D01*
X197572206Y8605882D02*
X197523825Y8557501D01*
X197378682Y8509120D01*
X197281920Y8509120D01*
X197136778Y8557501D01*
X197040016Y8654263D01*
X196991635Y8751025D01*
X196943254Y8944549D01*
X196943254Y9089692D01*
X196991635Y9283216D01*
X197040016Y9379978D01*
X197136778Y9476740D01*
X197281920Y9525120D01*
X197378682Y9525120D01*
X197523825Y9476740D01*
X197572206Y9428359D01*
X197910873Y9525120D02*
X198588206Y9525120D01*
X198152778Y8509120D01*
D16*
X161476771Y19529165D02*
X161524390Y19672022D01*
X161572009Y19719641D01*
X161667247Y19767260D01*
X161810104Y19767260D01*
X161905342Y19719641D01*
X161952961Y19672022D01*
X162000580Y19576784D01*
X162000580Y19195832D01*
X161000580Y19195832D01*
X161000580Y19529165D01*
X161048200Y19624403D01*
X161095819Y19672022D01*
X161191057Y19719641D01*
X161286295Y19719641D01*
X161381533Y19672022D01*
X161429152Y19624403D01*
X161476771Y19529165D01*
X161476771Y19195832D01*
X161000580Y20052975D02*
X161000580Y20624403D01*
X162000580Y20338689D02*
X161000580Y20338689D01*
X162000580Y20957737D02*
X161000580Y20957737D01*
X161000580Y21338689D01*
X161048200Y21433927D01*
X161095819Y21481546D01*
X161191057Y21529165D01*
X161333914Y21529165D01*
X161429152Y21481546D01*
X161476771Y21433927D01*
X161524390Y21338689D01*
X161524390Y20957737D01*
X161000580Y22148213D02*
X161000580Y22338689D01*
X161048200Y22433927D01*
X161143438Y22529165D01*
X161333914Y22576784D01*
X161667247Y22576784D01*
X161857723Y22529165D01*
X161952961Y22433927D01*
X162000580Y22338689D01*
X162000580Y22148213D01*
X161952961Y22052975D01*
X161857723Y21957737D01*
X161667247Y21910118D01*
X161333914Y21910118D01*
X161143438Y21957737D01*
X161048200Y22052975D01*
X161000580Y22148213D01*
X161952961Y22957737D02*
X162000580Y23100594D01*
X162000580Y23338689D01*
X161952961Y23433927D01*
X161905342Y23481546D01*
X161810104Y23529165D01*
X161714866Y23529165D01*
X161619628Y23481546D01*
X161572009Y23433927D01*
X161524390Y23338689D01*
X161476771Y23148213D01*
X161429152Y23052975D01*
X161381533Y23005356D01*
X161286295Y22957737D01*
X161191057Y22957737D01*
X161095819Y23005356D01*
X161048200Y23052975D01*
X161000580Y23148213D01*
X161000580Y23386308D01*
X161048200Y23529165D01*
X162000580Y24481546D02*
X162000580Y23910118D01*
X162000580Y24195832D02*
X161000580Y24195832D01*
X161143438Y24100594D01*
X161238676Y24005356D01*
X161286295Y23910118D01*
D25*
X151614380Y23933495D02*
X152423904Y23933495D01*
X152519142Y23981114D01*
X152566761Y24028733D01*
X152614380Y24123971D01*
X152614380Y24314447D01*
X152566761Y24409685D01*
X152519142Y24457304D01*
X152423904Y24504923D01*
X151614380Y24504923D01*
X152614380Y25504923D02*
X152614380Y24933495D01*
X152614380Y25219209D02*
X151614380Y25219209D01*
X151757238Y25123971D01*
X151852476Y25028733D01*
X151900095Y24933495D01*
D22*
X152491077Y30957157D02*
X152539458Y30908776D01*
X152587839Y30763633D01*
X152587839Y30666871D01*
X152539458Y30521728D01*
X152442696Y30424966D01*
X152345934Y30376585D01*
X152152410Y30328204D01*
X152007267Y30328204D01*
X151813743Y30376585D01*
X151716981Y30424966D01*
X151620220Y30521728D01*
X151571839Y30666871D01*
X151571839Y30763633D01*
X151620220Y30908776D01*
X151668600Y30957157D01*
X151668600Y31344204D02*
X151620220Y31392585D01*
X151571839Y31489347D01*
X151571839Y31731252D01*
X151620220Y31828014D01*
X151668600Y31876395D01*
X151765362Y31924776D01*
X151862124Y31924776D01*
X152007267Y31876395D01*
X152587839Y31295823D01*
X152587839Y31924776D01*
X151571839Y32553728D02*
X151571839Y32650490D01*
X151620220Y32747252D01*
X151668600Y32795633D01*
X151765362Y32844014D01*
X151958886Y32892395D01*
X152200791Y32892395D01*
X152394315Y32844014D01*
X152491077Y32795633D01*
X152539458Y32747252D01*
X152587839Y32650490D01*
X152587839Y32553728D01*
X152539458Y32456966D01*
X152491077Y32408585D01*
X152394315Y32360204D01*
X152200791Y32311823D01*
X151958886Y32311823D01*
X151765362Y32360204D01*
X151668600Y32408585D01*
X151620220Y32456966D01*
X151571839Y32553728D01*
X160916257Y29547457D02*
X160964638Y29499076D01*
X161013019Y29353933D01*
X161013019Y29257171D01*
X160964638Y29112028D01*
X160867876Y29015266D01*
X160771114Y28966885D01*
X160577590Y28918504D01*
X160432447Y28918504D01*
X160238923Y28966885D01*
X160142161Y29015266D01*
X160045400Y29112028D01*
X159997019Y29257171D01*
X159997019Y29353933D01*
X160045400Y29499076D01*
X160093780Y29547457D01*
X161013019Y30515076D02*
X161013019Y29934504D01*
X161013019Y30224790D02*
X159997019Y30224790D01*
X160142161Y30128028D01*
X160238923Y30031266D01*
X160287304Y29934504D01*
X161013019Y30998885D02*
X161013019Y31192409D01*
X160964638Y31289171D01*
X160916257Y31337552D01*
X160771114Y31434314D01*
X160577590Y31482695D01*
X160190542Y31482695D01*
X160093780Y31434314D01*
X160045400Y31385933D01*
X159997019Y31289171D01*
X159997019Y31095647D01*
X160045400Y30998885D01*
X160093780Y30950504D01*
X160190542Y30902123D01*
X160432447Y30902123D01*
X160529209Y30950504D01*
X160577590Y30998885D01*
X160625971Y31095647D01*
X160625971Y31289171D01*
X160577590Y31385933D01*
X160529209Y31434314D01*
X160432447Y31482695D01*
X147479657Y31000337D02*
X147528038Y30951956D01*
X147576419Y30806813D01*
X147576419Y30710051D01*
X147528038Y30564908D01*
X147431276Y30468146D01*
X147334514Y30419765D01*
X147140990Y30371384D01*
X146995847Y30371384D01*
X146802323Y30419765D01*
X146705561Y30468146D01*
X146608800Y30564908D01*
X146560419Y30710051D01*
X146560419Y30806813D01*
X146608800Y30951956D01*
X146657180Y31000337D01*
X147576419Y31967956D02*
X147576419Y31387384D01*
X147576419Y31677670D02*
X146560419Y31677670D01*
X146705561Y31580908D01*
X146802323Y31484146D01*
X146850704Y31387384D01*
X146995847Y32548527D02*
X146947466Y32451765D01*
X146899085Y32403384D01*
X146802323Y32355003D01*
X146753942Y32355003D01*
X146657180Y32403384D01*
X146608800Y32451765D01*
X146560419Y32548527D01*
X146560419Y32742051D01*
X146608800Y32838813D01*
X146657180Y32887194D01*
X146753942Y32935575D01*
X146802323Y32935575D01*
X146899085Y32887194D01*
X146947466Y32838813D01*
X146995847Y32742051D01*
X146995847Y32548527D01*
X147044228Y32451765D01*
X147092609Y32403384D01*
X147189371Y32355003D01*
X147382895Y32355003D01*
X147479657Y32403384D01*
X147528038Y32451765D01*
X147576419Y32548527D01*
X147576419Y32742051D01*
X147528038Y32838813D01*
X147479657Y32887194D01*
X147382895Y32935575D01*
X147189371Y32935575D01*
X147092609Y32887194D01*
X147044228Y32838813D01*
X146995847Y32742051D01*
X225888978Y23753732D02*
X225888978Y22425053D01*
X225967135Y22268737D01*
X226045293Y22190580D01*
X226201608Y22112422D01*
X226514239Y22112422D01*
X226670554Y22190580D01*
X226748711Y22268737D01*
X226826869Y22425053D01*
X226826869Y23753732D01*
X227452130Y23753732D02*
X228546337Y23753732D01*
X227842918Y22112422D01*
X51223938Y6985120D02*
X50885271Y7468930D01*
X50643366Y6985120D02*
X50643366Y8001120D01*
X51030414Y8001120D01*
X51127176Y7952740D01*
X51175557Y7904359D01*
X51223938Y7807597D01*
X51223938Y7662454D01*
X51175557Y7565692D01*
X51127176Y7517311D01*
X51030414Y7468930D01*
X50643366Y7468930D01*
X51610985Y7275406D02*
X52094795Y7275406D01*
X51514223Y6985120D02*
X51852890Y8001120D01*
X52191557Y6985120D01*
X52481842Y7904359D02*
X52530223Y7952740D01*
X52626985Y8001120D01*
X52868890Y8001120D01*
X52965652Y7952740D01*
X53014033Y7904359D01*
X53062414Y7807597D01*
X53062414Y7710835D01*
X53014033Y7565692D01*
X52433461Y6985120D01*
X53062414Y6985120D01*
X196435133Y7438571D02*
X196096466Y7438571D01*
X196096466Y6906380D02*
X196096466Y7922380D01*
X196580276Y7922380D01*
X197305990Y7438571D02*
X197451133Y7390190D01*
X197499514Y7341809D01*
X197547895Y7245047D01*
X197547895Y7099904D01*
X197499514Y7003142D01*
X197451133Y6954761D01*
X197354371Y6906380D01*
X196967323Y6906380D01*
X196967323Y7922380D01*
X197305990Y7922380D01*
X197402752Y7874000D01*
X197451133Y7825619D01*
X197499514Y7728857D01*
X197499514Y7632095D01*
X197451133Y7535333D01*
X197402752Y7486952D01*
X197305990Y7438571D01*
X196967323Y7438571D01*
X197886561Y7922380D02*
X198515514Y7922380D01*
X198176847Y7535333D01*
X198321990Y7535333D01*
X198418752Y7486952D01*
X198467133Y7438571D01*
X198515514Y7341809D01*
X198515514Y7099904D01*
X198467133Y7003142D01*
X198418752Y6954761D01*
X198321990Y6906380D01*
X198031704Y6906380D01*
X197934942Y6954761D01*
X197886561Y7003142D01*
X31236073Y11619411D02*
X30897406Y11619411D01*
X30897406Y11087220D02*
X30897406Y12103220D01*
X31381216Y12103220D01*
X32106930Y11619411D02*
X32252073Y11571030D01*
X32300454Y11522649D01*
X32348835Y11425887D01*
X32348835Y11280744D01*
X32300454Y11183982D01*
X32252073Y11135601D01*
X32155311Y11087220D01*
X31768263Y11087220D01*
X31768263Y12103220D01*
X32106930Y12103220D01*
X32203692Y12054840D01*
X32252073Y12006459D01*
X32300454Y11909697D01*
X32300454Y11812935D01*
X32252073Y11716173D01*
X32203692Y11667792D01*
X32106930Y11619411D01*
X31768263Y11619411D01*
X33219692Y11764554D02*
X33219692Y11087220D01*
X32977787Y12151601D02*
X32735882Y11425887D01*
X33364835Y11425887D01*
X31322433Y4380411D02*
X30983766Y4380411D01*
X30983766Y3848220D02*
X30983766Y4864220D01*
X31467576Y4864220D01*
X32193290Y4380411D02*
X32338433Y4332030D01*
X32386814Y4283649D01*
X32435195Y4186887D01*
X32435195Y4041744D01*
X32386814Y3944982D01*
X32338433Y3896601D01*
X32241671Y3848220D01*
X31854623Y3848220D01*
X31854623Y4864220D01*
X32193290Y4864220D01*
X32290052Y4815840D01*
X32338433Y4767459D01*
X32386814Y4670697D01*
X32386814Y4573935D01*
X32338433Y4477173D01*
X32290052Y4428792D01*
X32193290Y4380411D01*
X31854623Y4380411D01*
X33354433Y4864220D02*
X32870623Y4864220D01*
X32822242Y4380411D01*
X32870623Y4428792D01*
X32967385Y4477173D01*
X33209290Y4477173D01*
X33306052Y4428792D01*
X33354433Y4380411D01*
X33402814Y4283649D01*
X33402814Y4041744D01*
X33354433Y3944982D01*
X33306052Y3896601D01*
X33209290Y3848220D01*
X32967385Y3848220D01*
X32870623Y3896601D01*
X32822242Y3944982D01*
X128378857Y28659666D02*
X128427238Y28611285D01*
X128475619Y28466142D01*
X128475619Y28369380D01*
X128427238Y28224238D01*
X128330476Y28127476D01*
X128233714Y28079095D01*
X128040190Y28030714D01*
X127895047Y28030714D01*
X127701523Y28079095D01*
X127604761Y28127476D01*
X127508000Y28224238D01*
X127459619Y28369380D01*
X127459619Y28466142D01*
X127508000Y28611285D01*
X127556380Y28659666D01*
X128475619Y29627285D02*
X128475619Y29046714D01*
X128475619Y29337000D02*
X127459619Y29337000D01*
X127604761Y29240238D01*
X127701523Y29143476D01*
X127749904Y29046714D01*
X133585857Y31948966D02*
X133634238Y31900585D01*
X133682619Y31755442D01*
X133682619Y31658680D01*
X133634238Y31513538D01*
X133537476Y31416776D01*
X133440714Y31368395D01*
X133247190Y31320014D01*
X133102047Y31320014D01*
X132908523Y31368395D01*
X132811761Y31416776D01*
X132715000Y31513538D01*
X132666619Y31658680D01*
X132666619Y31755442D01*
X132715000Y31900585D01*
X132763380Y31948966D01*
X132763380Y32336014D02*
X132715000Y32384395D01*
X132666619Y32481157D01*
X132666619Y32723061D01*
X132715000Y32819823D01*
X132763380Y32868204D01*
X132860142Y32916585D01*
X132956904Y32916585D01*
X133102047Y32868204D01*
X133682619Y32287633D01*
X133682619Y32916585D01*
X134881257Y31809266D02*
X134929638Y31760885D01*
X134978019Y31615742D01*
X134978019Y31518980D01*
X134929638Y31373838D01*
X134832876Y31277076D01*
X134736114Y31228695D01*
X134542590Y31180314D01*
X134397447Y31180314D01*
X134203923Y31228695D01*
X134107161Y31277076D01*
X134010400Y31373838D01*
X133962019Y31518980D01*
X133962019Y31615742D01*
X134010400Y31760885D01*
X134058780Y31809266D01*
X133962019Y32147933D02*
X133962019Y32776885D01*
X134349066Y32438219D01*
X134349066Y32583361D01*
X134397447Y32680123D01*
X134445828Y32728504D01*
X134542590Y32776885D01*
X134784495Y32776885D01*
X134881257Y32728504D01*
X134929638Y32680123D01*
X134978019Y32583361D01*
X134978019Y32293076D01*
X134929638Y32196314D01*
X134881257Y32147933D01*
X135974666Y25087942D02*
X135926285Y25039561D01*
X135781142Y24991180D01*
X135684380Y24991180D01*
X135539238Y25039561D01*
X135442476Y25136323D01*
X135394095Y25233085D01*
X135345714Y25426609D01*
X135345714Y25571752D01*
X135394095Y25765276D01*
X135442476Y25862038D01*
X135539238Y25958800D01*
X135684380Y26007180D01*
X135781142Y26007180D01*
X135926285Y25958800D01*
X135974666Y25910419D01*
X136845523Y25668514D02*
X136845523Y24991180D01*
X136603619Y26055561D02*
X136361714Y25329847D01*
X136990666Y25329847D01*
X130588657Y7661002D02*
X130540276Y7612621D01*
X130395133Y7564240D01*
X130298371Y7564240D01*
X130153228Y7612621D01*
X130056466Y7709383D01*
X130008085Y7806145D01*
X129959704Y7999669D01*
X129959704Y8144812D01*
X130008085Y8338336D01*
X130056466Y8435098D01*
X130153228Y8531860D01*
X130298371Y8580240D01*
X130395133Y8580240D01*
X130540276Y8531860D01*
X130588657Y8483479D01*
X131556276Y7564240D02*
X130975704Y7564240D01*
X131265990Y7564240D02*
X131265990Y8580240D01*
X131169228Y8435098D01*
X131072466Y8338336D01*
X130975704Y8289955D01*
X131894942Y8580240D02*
X132523895Y8580240D01*
X132185228Y8193193D01*
X132330371Y8193193D01*
X132427133Y8144812D01*
X132475514Y8096431D01*
X132523895Y7999669D01*
X132523895Y7757764D01*
X132475514Y7661002D01*
X132427133Y7612621D01*
X132330371Y7564240D01*
X132040085Y7564240D01*
X131943323Y7612621D01*
X131894942Y7661002D01*
X196527299Y2958495D02*
X195511299Y2958495D01*
X195511299Y3200400D01*
X195559680Y3345542D01*
X195656441Y3442304D01*
X195753203Y3490685D01*
X195946727Y3539066D01*
X196091870Y3539066D01*
X196285394Y3490685D01*
X196382156Y3442304D01*
X196478918Y3345542D01*
X196527299Y3200400D01*
X196527299Y2958495D01*
X195608060Y3926114D02*
X195559680Y3974495D01*
X195511299Y4071257D01*
X195511299Y4313161D01*
X195559680Y4409923D01*
X195608060Y4458304D01*
X195704822Y4506685D01*
X195801584Y4506685D01*
X195946727Y4458304D01*
X196527299Y3877733D01*
X196527299Y4506685D01*
X191020095Y9700380D02*
X191020095Y10716380D01*
X191262000Y10716380D01*
X191407142Y10668000D01*
X191503904Y10571238D01*
X191552285Y10474476D01*
X191600666Y10280952D01*
X191600666Y10135809D01*
X191552285Y9942285D01*
X191503904Y9845523D01*
X191407142Y9748761D01*
X191262000Y9700380D01*
X191020095Y9700380D01*
X191939333Y10716380D02*
X192568285Y10716380D01*
X192229619Y10329333D01*
X192374761Y10329333D01*
X192471523Y10280952D01*
X192519904Y10232571D01*
X192568285Y10135809D01*
X192568285Y9893904D01*
X192519904Y9797142D01*
X192471523Y9748761D01*
X192374761Y9700380D01*
X192084476Y9700380D01*
X191987714Y9748761D01*
X191939333Y9797142D01*
D16*
X139527066Y32329428D02*
X139193733Y32329428D01*
X139193733Y31805619D02*
X139193733Y32805619D01*
X139669923Y32805619D01*
X140384209Y32329428D02*
X140527066Y32281809D01*
X140574685Y32234190D01*
X140622304Y32138952D01*
X140622304Y31996095D01*
X140574685Y31900857D01*
X140527066Y31853238D01*
X140431828Y31805619D01*
X140050876Y31805619D01*
X140050876Y32805619D01*
X140384209Y32805619D01*
X140479447Y32758000D01*
X140527066Y32710380D01*
X140574685Y32615142D01*
X140574685Y32519904D01*
X140527066Y32424666D01*
X140479447Y32377047D01*
X140384209Y32329428D01*
X140050876Y32329428D01*
X141574685Y31805619D02*
X141003257Y31805619D01*
X141288971Y31805619D02*
X141288971Y32805619D01*
X141193733Y32662761D01*
X141098495Y32567523D01*
X141003257Y32519904D01*
X139605566Y30348228D02*
X139272233Y30348228D01*
X139272233Y29824419D02*
X139272233Y30824419D01*
X139748423Y30824419D01*
X140462709Y30348228D02*
X140605566Y30300609D01*
X140653185Y30252990D01*
X140700804Y30157752D01*
X140700804Y30014895D01*
X140653185Y29919657D01*
X140605566Y29872038D01*
X140510328Y29824419D01*
X140129376Y29824419D01*
X140129376Y30824419D01*
X140462709Y30824419D01*
X140557947Y30776800D01*
X140605566Y30729180D01*
X140653185Y30633942D01*
X140653185Y30538704D01*
X140605566Y30443466D01*
X140557947Y30395847D01*
X140462709Y30348228D01*
X140129376Y30348228D01*
X141081757Y30729180D02*
X141129376Y30776800D01*
X141224614Y30824419D01*
X141462709Y30824419D01*
X141557947Y30776800D01*
X141605566Y30729180D01*
X141653185Y30633942D01*
X141653185Y30538704D01*
X141605566Y30395847D01*
X141034138Y29824419D01*
X141653185Y29824419D01*
X19950180Y7662586D02*
X20664466Y7662586D01*
X20807323Y7614967D01*
X20902561Y7519729D01*
X20950180Y7376872D01*
X20950180Y7281634D01*
X19950180Y8043539D02*
X19950180Y8662586D01*
X20331133Y8329253D01*
X20331133Y8472110D01*
X20378752Y8567348D01*
X20426371Y8614967D01*
X20521609Y8662586D01*
X20759704Y8662586D01*
X20854942Y8614967D01*
X20902561Y8567348D01*
X20950180Y8472110D01*
X20950180Y8186396D01*
X20902561Y8091158D01*
X20854942Y8043539D01*
D22*
X113311819Y20582466D02*
X112828009Y20243800D01*
X113311819Y20001895D02*
X112295819Y20001895D01*
X112295819Y20388942D01*
X112344200Y20485704D01*
X112392580Y20534085D01*
X112489342Y20582466D01*
X112634485Y20582466D01*
X112731247Y20534085D01*
X112779628Y20485704D01*
X112828009Y20388942D01*
X112828009Y20001895D01*
X112295819Y20921133D02*
X112295819Y21550085D01*
X112682866Y21211419D01*
X112682866Y21356561D01*
X112731247Y21453323D01*
X112779628Y21501704D01*
X112876390Y21550085D01*
X113118295Y21550085D01*
X113215057Y21501704D01*
X113263438Y21453323D01*
X113311819Y21356561D01*
X113311819Y21066276D01*
X113263438Y20969514D01*
X113215057Y20921133D01*
X115191419Y20633266D02*
X114707609Y20294600D01*
X115191419Y20052695D02*
X114175419Y20052695D01*
X114175419Y20439742D01*
X114223800Y20536504D01*
X114272180Y20584885D01*
X114368942Y20633266D01*
X114514085Y20633266D01*
X114610847Y20584885D01*
X114659228Y20536504D01*
X114707609Y20439742D01*
X114707609Y20052695D01*
X114514085Y21504123D02*
X115191419Y21504123D01*
X114127038Y21262219D02*
X114852752Y21020314D01*
X114852752Y21649266D01*
X176293219Y32036966D02*
X175809409Y31698300D01*
X176293219Y31456395D02*
X175277219Y31456395D01*
X175277219Y31843442D01*
X175325600Y31940204D01*
X175373980Y31988585D01*
X175470742Y32036966D01*
X175615885Y32036966D01*
X175712647Y31988585D01*
X175761028Y31940204D01*
X175809409Y31843442D01*
X175809409Y31456395D01*
X175277219Y32375633D02*
X175277219Y33052966D01*
X176293219Y32617538D01*
X178693219Y32035566D02*
X178209409Y31696900D01*
X178693219Y31454995D02*
X177677219Y31454995D01*
X177677219Y31842042D01*
X177725600Y31938804D01*
X177773980Y31987185D01*
X177870742Y32035566D01*
X178015885Y32035566D01*
X178112647Y31987185D01*
X178161028Y31938804D01*
X178209409Y31842042D01*
X178209409Y31454995D01*
X178112647Y32616138D02*
X178064266Y32519376D01*
X178015885Y32470995D01*
X177919123Y32422614D01*
X177870742Y32422614D01*
X177773980Y32470995D01*
X177725600Y32519376D01*
X177677219Y32616138D01*
X177677219Y32809661D01*
X177725600Y32906423D01*
X177773980Y32954804D01*
X177870742Y33003185D01*
X177919123Y33003185D01*
X178015885Y32954804D01*
X178064266Y32906423D01*
X178112647Y32809661D01*
X178112647Y32616138D01*
X178161028Y32519376D01*
X178209409Y32470995D01*
X178306171Y32422614D01*
X178499695Y32422614D01*
X178596457Y32470995D01*
X178644838Y32519376D01*
X178693219Y32616138D01*
X178693219Y32809661D01*
X178644838Y32906423D01*
X178596457Y32954804D01*
X178499695Y33003185D01*
X178306171Y33003185D01*
X178209409Y32954804D01*
X178161028Y32906423D01*
X178112647Y32809661D01*
X219393266Y17405980D02*
X219054600Y17889790D01*
X218812695Y17405980D02*
X218812695Y18421980D01*
X219199742Y18421980D01*
X219296504Y18373600D01*
X219344885Y18325219D01*
X219393266Y18228457D01*
X219393266Y18083314D01*
X219344885Y17986552D01*
X219296504Y17938171D01*
X219199742Y17889790D01*
X218812695Y17889790D01*
X219877076Y17405980D02*
X220070600Y17405980D01*
X220167361Y17454361D01*
X220215742Y17502742D01*
X220312504Y17647885D01*
X220360885Y17841409D01*
X220360885Y18228457D01*
X220312504Y18325219D01*
X220264123Y18373600D01*
X220167361Y18421980D01*
X219973838Y18421980D01*
X219877076Y18373600D01*
X219828695Y18325219D01*
X219780314Y18228457D01*
X219780314Y17986552D01*
X219828695Y17889790D01*
X219877076Y17841409D01*
X219973838Y17793028D01*
X220167361Y17793028D01*
X220264123Y17841409D01*
X220312504Y17889790D01*
X220360885Y17986552D01*
X218578457Y19180580D02*
X218239790Y19664390D01*
X217997885Y19180580D02*
X217997885Y20196580D01*
X218384933Y20196580D01*
X218481695Y20148200D01*
X218530076Y20099819D01*
X218578457Y20003057D01*
X218578457Y19857914D01*
X218530076Y19761152D01*
X218481695Y19712771D01*
X218384933Y19664390D01*
X217997885Y19664390D01*
X219546076Y19180580D02*
X218965504Y19180580D01*
X219255790Y19180580D02*
X219255790Y20196580D01*
X219159028Y20051438D01*
X219062266Y19954676D01*
X218965504Y19906295D01*
X220175028Y20196580D02*
X220271790Y20196580D01*
X220368552Y20148200D01*
X220416933Y20099819D01*
X220465314Y20003057D01*
X220513695Y19809533D01*
X220513695Y19567628D01*
X220465314Y19374104D01*
X220416933Y19277342D01*
X220368552Y19228961D01*
X220271790Y19180580D01*
X220175028Y19180580D01*
X220078266Y19228961D01*
X220029885Y19277342D01*
X219981504Y19374104D01*
X219933123Y19567628D01*
X219933123Y19809533D01*
X219981504Y20003057D01*
X220029885Y20099819D01*
X220078266Y20148200D01*
X220175028Y20196580D01*
X206458457Y5026780D02*
X206119790Y5510590D01*
X205877885Y5026780D02*
X205877885Y6042780D01*
X206264933Y6042780D01*
X206361695Y5994400D01*
X206410076Y5946019D01*
X206458457Y5849257D01*
X206458457Y5704114D01*
X206410076Y5607352D01*
X206361695Y5558971D01*
X206264933Y5510590D01*
X205877885Y5510590D01*
X207426076Y5026780D02*
X206845504Y5026780D01*
X207135790Y5026780D02*
X207135790Y6042780D01*
X207039028Y5897638D01*
X206942266Y5800876D01*
X206845504Y5752495D01*
X208393695Y5026780D02*
X207813123Y5026780D01*
X208103409Y5026780D02*
X208103409Y6042780D01*
X208006647Y5897638D01*
X207909885Y5800876D01*
X207813123Y5752495D01*
X130436257Y4470520D02*
X130097590Y4954330D01*
X129855685Y4470520D02*
X129855685Y5486520D01*
X130242733Y5486520D01*
X130339495Y5438140D01*
X130387876Y5389759D01*
X130436257Y5292997D01*
X130436257Y5147854D01*
X130387876Y5051092D01*
X130339495Y5002711D01*
X130242733Y4954330D01*
X129855685Y4954330D01*
X131403876Y4470520D02*
X130823304Y4470520D01*
X131113590Y4470520D02*
X131113590Y5486520D01*
X131016828Y5341378D01*
X130920066Y5244616D01*
X130823304Y5196235D01*
X131790923Y5389759D02*
X131839304Y5438140D01*
X131936066Y5486520D01*
X132177971Y5486520D01*
X132274733Y5438140D01*
X132323114Y5389759D01*
X132371495Y5292997D01*
X132371495Y5196235D01*
X132323114Y5051092D01*
X131742542Y4470520D01*
X132371495Y4470520D01*
X196466097Y11610460D02*
X196127430Y12094270D01*
X195885525Y11610460D02*
X195885525Y12626460D01*
X196272573Y12626460D01*
X196369335Y12578080D01*
X196417716Y12529699D01*
X196466097Y12432937D01*
X196466097Y12287794D01*
X196417716Y12191032D01*
X196369335Y12142651D01*
X196272573Y12094270D01*
X195885525Y12094270D01*
X197433716Y11610460D02*
X196853144Y11610460D01*
X197143430Y11610460D02*
X197143430Y12626460D01*
X197046668Y12481318D01*
X196949906Y12384556D01*
X196853144Y12336175D01*
X197772382Y12626460D02*
X198401335Y12626460D01*
X198062668Y12239413D01*
X198207811Y12239413D01*
X198304573Y12191032D01*
X198352954Y12142651D01*
X198401335Y12045889D01*
X198401335Y11803984D01*
X198352954Y11707222D01*
X198304573Y11658841D01*
X198207811Y11610460D01*
X197917525Y11610460D01*
X197820763Y11658841D01*
X197772382Y11707222D01*
X196577857Y13510380D02*
X196239190Y13994190D01*
X195997285Y13510380D02*
X195997285Y14526380D01*
X196384333Y14526380D01*
X196481095Y14478000D01*
X196529476Y14429619D01*
X196577857Y14332857D01*
X196577857Y14187714D01*
X196529476Y14090952D01*
X196481095Y14042571D01*
X196384333Y13994190D01*
X195997285Y13994190D01*
X197545476Y13510380D02*
X196964904Y13510380D01*
X197255190Y13510380D02*
X197255190Y14526380D01*
X197158428Y14381238D01*
X197061666Y14284476D01*
X196964904Y14236095D01*
X198416333Y14187714D02*
X198416333Y13510380D01*
X198174428Y14574761D02*
X197932523Y13849047D01*
X198561476Y13849047D01*
X186163857Y11508860D02*
X185825190Y11992670D01*
X185583285Y11508860D02*
X185583285Y12524860D01*
X185970333Y12524860D01*
X186067095Y12476480D01*
X186115476Y12428099D01*
X186163857Y12331337D01*
X186163857Y12186194D01*
X186115476Y12089432D01*
X186067095Y12041051D01*
X185970333Y11992670D01*
X185583285Y11992670D01*
X187131476Y11508860D02*
X186550904Y11508860D01*
X186841190Y11508860D02*
X186841190Y12524860D01*
X186744428Y12379718D01*
X186647666Y12282956D01*
X186550904Y12234575D01*
X188050714Y12524860D02*
X187566904Y12524860D01*
X187518523Y12041051D01*
X187566904Y12089432D01*
X187663666Y12137813D01*
X187905571Y12137813D01*
X188002333Y12089432D01*
X188050714Y12041051D01*
X188099095Y11944289D01*
X188099095Y11702384D01*
X188050714Y11605622D01*
X188002333Y11557241D01*
X187905571Y11508860D01*
X187663666Y11508860D01*
X187566904Y11557241D01*
X187518523Y11605622D01*
D25*
X176626311Y6788305D02*
X176673970Y6931282D01*
X176673970Y7169577D01*
X176626311Y7264895D01*
X176578652Y7312554D01*
X176483334Y7360213D01*
X176388016Y7360213D01*
X176292698Y7312554D01*
X176245039Y7264895D01*
X176197380Y7169577D01*
X176149721Y6978941D01*
X176102062Y6883623D01*
X176054403Y6835964D01*
X175959085Y6788305D01*
X175863767Y6788305D01*
X175768449Y6835964D01*
X175720790Y6883623D01*
X175673130Y6978941D01*
X175673130Y7217236D01*
X175720790Y7360213D01*
X176673970Y8313394D02*
X176673970Y7741486D01*
X176673970Y8027440D02*
X175673130Y8027440D01*
X175816108Y7932122D01*
X175911426Y7836804D01*
X175959085Y7741486D01*
X176881736Y1048010D02*
X176881736Y1620570D01*
X177883716Y1334290D02*
X176881736Y1334290D01*
X177883716Y2431696D02*
X177883716Y1954563D01*
X176881736Y1954563D01*
X176881736Y2670263D02*
X176881736Y3290536D01*
X177263443Y2956543D01*
X177263443Y3099683D01*
X177311156Y3195110D01*
X177358870Y3242823D01*
X177454296Y3290536D01*
X177692863Y3290536D01*
X177788290Y3242823D01*
X177836003Y3195110D01*
X177883716Y3099683D01*
X177883716Y2813403D01*
X177836003Y2717976D01*
X177788290Y2670263D01*
X176881736Y3624530D02*
X176881736Y4244803D01*
X177263443Y3910810D01*
X177263443Y4053950D01*
X177311156Y4149376D01*
X177358870Y4197090D01*
X177454296Y4244803D01*
X177692863Y4244803D01*
X177788290Y4197090D01*
X177836003Y4149376D01*
X177883716Y4053950D01*
X177883716Y3767670D01*
X177836003Y3672243D01*
X177788290Y3624530D01*
X176881736Y4865076D02*
X176881736Y4960503D01*
X176929450Y5055930D01*
X176977163Y5103643D01*
X177072590Y5151356D01*
X177263443Y5199070D01*
X177502010Y5199070D01*
X177692863Y5151356D01*
X177788290Y5103643D01*
X177836003Y5055930D01*
X177883716Y4960503D01*
X177883716Y4865076D01*
X177836003Y4769650D01*
X177788290Y4721936D01*
X177692863Y4674223D01*
X177502010Y4626510D01*
X177263443Y4626510D01*
X177072590Y4674223D01*
X176977163Y4721936D01*
X176929450Y4769650D01*
X176881736Y4865076D01*
X177883716Y6153336D02*
X177883716Y5580776D01*
X177883716Y5867056D02*
X176881736Y5867056D01*
X177024876Y5771630D01*
X177120303Y5676203D01*
X177168016Y5580776D01*
X177358870Y6582756D02*
X177358870Y6916750D01*
X177883716Y7059890D02*
X177883716Y6582756D01*
X176881736Y6582756D01*
X176881736Y7059890D01*
X177358870Y7823303D02*
X177358870Y7489310D01*
X177883716Y7489310D02*
X176881736Y7489310D01*
X176881736Y7966443D01*
X177883716Y8872996D02*
X177883716Y8300436D01*
X177883716Y8586716D02*
X176881736Y8586716D01*
X177024876Y8491290D01*
X177120303Y8395863D01*
X177168016Y8300436D01*
X176881736Y9493270D02*
X176881736Y9588696D01*
X176929450Y9684123D01*
X176977163Y9731836D01*
X177072590Y9779550D01*
X177263443Y9827263D01*
X177502010Y9827263D01*
X177692863Y9779550D01*
X177788290Y9731836D01*
X177836003Y9684123D01*
X177883716Y9588696D01*
X177883716Y9493270D01*
X177836003Y9397843D01*
X177788290Y9350130D01*
X177692863Y9302416D01*
X177502010Y9254703D01*
X177263443Y9254703D01*
X177072590Y9302416D01*
X176977163Y9350130D01*
X176929450Y9397843D01*
X176881736Y9493270D01*
X176881736Y10447536D02*
X176881736Y10542963D01*
X176929450Y10638390D01*
X176977163Y10686103D01*
X177072590Y10733816D01*
X177263443Y10781530D01*
X177502010Y10781530D01*
X177692863Y10733816D01*
X177788290Y10686103D01*
X177836003Y10638390D01*
X177883716Y10542963D01*
X177883716Y10447536D01*
X177836003Y10352110D01*
X177788290Y10304396D01*
X177692863Y10256683D01*
X177502010Y10208970D01*
X177263443Y10208970D01*
X177072590Y10256683D01*
X176977163Y10304396D01*
X176929450Y10352110D01*
X176881736Y10447536D01*
X177979143Y11878936D02*
X177931430Y11783510D01*
X177836003Y11688083D01*
X177692863Y11544943D01*
X177645150Y11449516D01*
X177645150Y11354090D01*
X177883716Y11401803D02*
X177836003Y11306376D01*
X177740576Y11210950D01*
X177549723Y11163236D01*
X177215730Y11163236D01*
X177024876Y11210950D01*
X176929450Y11306376D01*
X176881736Y11401803D01*
X176881736Y11592656D01*
X176929450Y11688083D01*
X177024876Y11783510D01*
X177215730Y11831223D01*
X177549723Y11831223D01*
X177740576Y11783510D01*
X177836003Y11688083D01*
X177883716Y11592656D01*
X177883716Y11401803D01*
X176929450Y12785490D02*
X176881736Y12690063D01*
X176881736Y12546923D01*
X176929450Y12403783D01*
X177024876Y12308356D01*
X177120303Y12260643D01*
X177311156Y12212930D01*
X177454296Y12212930D01*
X177645150Y12260643D01*
X177740576Y12308356D01*
X177836003Y12403783D01*
X177883716Y12546923D01*
X177883716Y12642350D01*
X177836003Y12785490D01*
X177788290Y12833203D01*
X177454296Y12833203D01*
X177454296Y12642350D01*
D22*
X76465286Y12245458D02*
X76608143Y12197839D01*
X76846239Y12197839D01*
X76941477Y12245458D01*
X76989096Y12293077D01*
X77036715Y12388315D01*
X77036715Y12483553D01*
X76989096Y12578791D01*
X76941477Y12626410D01*
X76846239Y12674029D01*
X76655762Y12721648D01*
X76560524Y12769267D01*
X76512905Y12816886D01*
X76465286Y12912124D01*
X76465286Y13007362D01*
X76512905Y13102600D01*
X76560524Y13150220D01*
X76655762Y13197839D01*
X76893858Y13197839D01*
X77036715Y13150220D01*
X77370048Y13197839D02*
X77608143Y12197839D01*
X77798620Y12912124D01*
X77989096Y12197839D01*
X78227191Y13197839D01*
X79131953Y12197839D02*
X78560524Y12197839D01*
X78846239Y12197839D02*
X78846239Y13197839D01*
X78751000Y13054981D01*
X78655762Y12959743D01*
X78560524Y12912124D01*
D16*
X168318275Y29991299D02*
X168318275Y29181775D01*
X168365894Y29086537D01*
X168413513Y29038918D01*
X168508751Y28991299D01*
X168699227Y28991299D01*
X168794465Y29038918D01*
X168842084Y29086537D01*
X168889703Y29181775D01*
X168889703Y29991299D01*
X169318275Y29896060D02*
X169365894Y29943680D01*
X169461132Y29991299D01*
X169699227Y29991299D01*
X169794465Y29943680D01*
X169842084Y29896060D01*
X169889703Y29800822D01*
X169889703Y29705584D01*
X169842084Y29562727D01*
X169270656Y28991299D01*
X169889703Y28991299D01*
X45707395Y3166359D02*
X45707395Y2356835D01*
X45755014Y2261597D01*
X45802633Y2213978D01*
X45897871Y2166359D01*
X46088347Y2166359D01*
X46183585Y2213978D01*
X46231204Y2261597D01*
X46278823Y2356835D01*
X46278823Y3166359D01*
X47183585Y2833025D02*
X47183585Y2166359D01*
X46945490Y3213978D02*
X46707395Y2499692D01*
X47326442Y2499692D01*
X210667695Y21640419D02*
X210667695Y20830895D01*
X210715314Y20735657D01*
X210762933Y20688038D01*
X210858171Y20640419D01*
X211048647Y20640419D01*
X211143885Y20688038D01*
X211191504Y20735657D01*
X211239123Y20830895D01*
X211239123Y21640419D01*
X212191504Y21640419D02*
X211715314Y21640419D01*
X211667695Y21164228D01*
X211715314Y21211847D01*
X211810552Y21259466D01*
X212048647Y21259466D01*
X212143885Y21211847D01*
X212191504Y21164228D01*
X212239123Y21068990D01*
X212239123Y20830895D01*
X212191504Y20735657D01*
X212143885Y20688038D01*
X212048647Y20640419D01*
X211810552Y20640419D01*
X211715314Y20688038D01*
X211667695Y20735657D01*
D22*
X182508246Y30867242D02*
X182459865Y30818861D01*
X182314722Y30770480D01*
X182217960Y30770480D01*
X182072818Y30818861D01*
X181976056Y30915623D01*
X181927675Y31012385D01*
X181879294Y31205909D01*
X181879294Y31351052D01*
X181927675Y31544576D01*
X181976056Y31641338D01*
X182072818Y31738100D01*
X182217960Y31786480D01*
X182314722Y31786480D01*
X182459865Y31738100D01*
X182508246Y31689719D01*
X183379103Y31786480D02*
X183185580Y31786480D01*
X183088818Y31738100D01*
X183040437Y31689719D01*
X182943675Y31544576D01*
X182895294Y31351052D01*
X182895294Y30964004D01*
X182943675Y30867242D01*
X182992056Y30818861D01*
X183088818Y30770480D01*
X183282341Y30770480D01*
X183379103Y30818861D01*
X183427484Y30867242D01*
X183475865Y30964004D01*
X183475865Y31205909D01*
X183427484Y31302671D01*
X183379103Y31351052D01*
X183282341Y31399433D01*
X183088818Y31399433D01*
X182992056Y31351052D01*
X182943675Y31302671D01*
X182895294Y31205909D01*
X13464177Y9892937D02*
X13512558Y9844556D01*
X13560939Y9699413D01*
X13560939Y9602651D01*
X13512558Y9457508D01*
X13415796Y9360746D01*
X13319034Y9312365D01*
X13125510Y9263984D01*
X12980367Y9263984D01*
X12786843Y9312365D01*
X12690081Y9360746D01*
X12593320Y9457508D01*
X12544939Y9602651D01*
X12544939Y9699413D01*
X12593320Y9844556D01*
X12641700Y9892937D01*
X13560939Y10860556D02*
X13560939Y10279984D01*
X13560939Y10570270D02*
X12544939Y10570270D01*
X12690081Y10473508D01*
X12786843Y10376746D01*
X12835224Y10279984D01*
X12883605Y11731413D02*
X13560939Y11731413D01*
X12496558Y11489508D02*
X13222272Y11247603D01*
X13222272Y11876556D01*
X85762253Y33779580D02*
X85762253Y33053866D01*
X85713872Y32908723D01*
X85617110Y32811961D01*
X85471967Y32763580D01*
X85375205Y32763580D01*
X86149300Y33779580D02*
X86826634Y33779580D01*
X86391205Y32763580D01*
X228141913Y6603180D02*
X228141913Y5877466D01*
X228093532Y5732323D01*
X227996770Y5635561D01*
X227851627Y5587180D01*
X227754865Y5587180D01*
X228770865Y6167752D02*
X228674103Y6216133D01*
X228625722Y6264514D01*
X228577341Y6361276D01*
X228577341Y6409657D01*
X228625722Y6506419D01*
X228674103Y6554800D01*
X228770865Y6603180D01*
X228964389Y6603180D01*
X229061151Y6554800D01*
X229109532Y6506419D01*
X229157913Y6409657D01*
X229157913Y6361276D01*
X229109532Y6264514D01*
X229061151Y6216133D01*
X228964389Y6167752D01*
X228770865Y6167752D01*
X228674103Y6119371D01*
X228625722Y6070990D01*
X228577341Y5974228D01*
X228577341Y5780704D01*
X228625722Y5683942D01*
X228674103Y5635561D01*
X228770865Y5587180D01*
X228964389Y5587180D01*
X229061151Y5635561D01*
X229109532Y5683942D01*
X229157913Y5780704D01*
X229157913Y5974228D01*
X229109532Y6070990D01*
X229061151Y6119371D01*
X228964389Y6167752D01*
M02*
