G04 #@! TF.GenerationSoftware,KiCad,Pcbnew,(5.1.4-0-10_14)*
G04 #@! TF.CreationDate,2021-04-14T17:20:28-04:00*
G04 #@! TF.ProjectId,Vindor,56696e64-6f72-42e6-9b69-6361645f7063,rev?*
G04 #@! TF.SameCoordinates,Original*
G04 #@! TF.FileFunction,Soldermask,Bot*
G04 #@! TF.FilePolarity,Negative*
%FSLAX46Y46*%
G04 Gerber Fmt 4.6, Leading zero omitted, Abs format (unit mm)*
G04 Created by KiCad (PCBNEW (5.1.4-0-10_14)) date 2021-04-14 17:20:28*
%MOMM*%
%LPD*%
G04 APERTURE LIST*
%ADD10C,0.100000*%
G04 APERTURE END LIST*
D10*
G36*
X193631606Y2556891D02*
G01*
X193697036Y2543876D01*
X193881936Y2467288D01*
X194048342Y2356099D01*
X194189859Y2214582D01*
X194301048Y2048176D01*
X194363510Y1897380D01*
X194377636Y1863275D01*
X194416680Y1666989D01*
X194416680Y1466851D01*
X194392641Y1346000D01*
X194377636Y1270564D01*
X194301048Y1085664D01*
X194189859Y919258D01*
X194048342Y777741D01*
X193881936Y666552D01*
X193697036Y589964D01*
X193631606Y576949D01*
X193500749Y550920D01*
X193300611Y550920D01*
X193169754Y576949D01*
X193104324Y589964D01*
X192919424Y666552D01*
X192753018Y777741D01*
X192611501Y919258D01*
X192500312Y1085664D01*
X192423724Y1270564D01*
X192408719Y1346000D01*
X192384680Y1466851D01*
X192384680Y1666989D01*
X192423724Y1863275D01*
X192437851Y1897380D01*
X192500312Y2048176D01*
X192611501Y2214582D01*
X192753018Y2356099D01*
X192919424Y2467288D01*
X193104324Y2543876D01*
X193169754Y2556891D01*
X193300611Y2582920D01*
X193500749Y2582920D01*
X193631606Y2556891D01*
X193631606Y2556891D01*
G37*
G36*
X207392742Y2940758D02*
G01*
X207540701Y2879471D01*
X207673855Y2790501D01*
X207787101Y2677255D01*
X207876071Y2544101D01*
X207937358Y2396142D01*
X207968600Y2239075D01*
X207968600Y2078925D01*
X207937358Y1921858D01*
X207876071Y1773899D01*
X207787101Y1640745D01*
X207673855Y1527499D01*
X207540701Y1438529D01*
X207392742Y1377242D01*
X207235675Y1346000D01*
X207075525Y1346000D01*
X206918458Y1377242D01*
X206770499Y1438529D01*
X206637345Y1527499D01*
X206524099Y1640745D01*
X206435129Y1773899D01*
X206373842Y1921858D01*
X206342600Y2078925D01*
X206342600Y2239075D01*
X206373842Y2396142D01*
X206435129Y2544101D01*
X206524099Y2677255D01*
X206637345Y2790501D01*
X206770499Y2879471D01*
X206918458Y2940758D01*
X207075525Y2972000D01*
X207235675Y2972000D01*
X207392742Y2940758D01*
X207392742Y2940758D01*
G37*
G36*
X205392742Y2940758D02*
G01*
X205540701Y2879471D01*
X205673855Y2790501D01*
X205787101Y2677255D01*
X205876071Y2544101D01*
X205937358Y2396142D01*
X205968600Y2239075D01*
X205968600Y2078925D01*
X205937358Y1921858D01*
X205876071Y1773899D01*
X205787101Y1640745D01*
X205673855Y1527499D01*
X205540701Y1438529D01*
X205392742Y1377242D01*
X205235675Y1346000D01*
X205075525Y1346000D01*
X204918458Y1377242D01*
X204770499Y1438529D01*
X204637345Y1527499D01*
X204524099Y1640745D01*
X204435129Y1773899D01*
X204373842Y1921858D01*
X204342600Y2078925D01*
X204342600Y2239075D01*
X204373842Y2396142D01*
X204435129Y2544101D01*
X204524099Y2677255D01*
X204637345Y2790501D01*
X204770499Y2879471D01*
X204918458Y2940758D01*
X205075525Y2972000D01*
X205235675Y2972000D01*
X205392742Y2940758D01*
X205392742Y2940758D01*
G37*
G36*
X203392742Y2940758D02*
G01*
X203540701Y2879471D01*
X203673855Y2790501D01*
X203787101Y2677255D01*
X203876071Y2544101D01*
X203937358Y2396142D01*
X203968600Y2239075D01*
X203968600Y2078925D01*
X203937358Y1921858D01*
X203876071Y1773899D01*
X203787101Y1640745D01*
X203673855Y1527499D01*
X203540701Y1438529D01*
X203392742Y1377242D01*
X203235675Y1346000D01*
X203075525Y1346000D01*
X202918458Y1377242D01*
X202770499Y1438529D01*
X202637345Y1527499D01*
X202524099Y1640745D01*
X202435129Y1773899D01*
X202373842Y1921858D01*
X202342600Y2078925D01*
X202342600Y2239075D01*
X202373842Y2396142D01*
X202435129Y2544101D01*
X202524099Y2677255D01*
X202637345Y2790501D01*
X202770499Y2879471D01*
X202918458Y2940758D01*
X203075525Y2972000D01*
X203235675Y2972000D01*
X203392742Y2940758D01*
X203392742Y2940758D01*
G37*
G36*
X237692400Y1789960D02*
G01*
X236952400Y1789960D01*
X236952400Y2979960D01*
X237692400Y2979960D01*
X237692400Y1789960D01*
X237692400Y1789960D01*
G37*
G36*
X235792400Y1789960D02*
G01*
X235052400Y1789960D01*
X235052400Y2979960D01*
X235792400Y2979960D01*
X235792400Y1789960D01*
X235792400Y1789960D01*
G37*
G36*
X259767498Y5476615D02*
G01*
X260003831Y5429606D01*
X260280467Y5315019D01*
X260337757Y5291289D01*
X260337761Y5291287D01*
X260638290Y5090480D01*
X260893870Y4834900D01*
X261094677Y4534371D01*
X261232996Y4200441D01*
X261280005Y3964108D01*
X261303510Y3845943D01*
X261303510Y3484497D01*
X261280005Y3366332D01*
X261232996Y3129999D01*
X261094677Y2796069D01*
X260893870Y2495540D01*
X260638290Y2239960D01*
X260337761Y2039153D01*
X260003831Y1900834D01*
X259767498Y1853825D01*
X259649333Y1830320D01*
X259287887Y1830320D01*
X259169722Y1853825D01*
X258933389Y1900834D01*
X258599459Y2039153D01*
X258298930Y2239960D01*
X258043350Y2495540D01*
X257842543Y2796069D01*
X257704224Y3129999D01*
X257657215Y3366332D01*
X257633710Y3484497D01*
X257633710Y3845943D01*
X257657215Y3964108D01*
X257704224Y4200441D01*
X257842543Y4534371D01*
X258043350Y4834900D01*
X258298930Y5090480D01*
X258599459Y5291287D01*
X258599464Y5291289D01*
X258656753Y5315019D01*
X258933389Y5429606D01*
X259169722Y5476615D01*
X259287887Y5500120D01*
X259649333Y5500120D01*
X259767498Y5476615D01*
X259767498Y5476615D01*
G37*
G36*
X78182908Y5476615D02*
G01*
X78419241Y5429606D01*
X78695877Y5315019D01*
X78753167Y5291289D01*
X78753171Y5291287D01*
X79053700Y5090480D01*
X79309280Y4834900D01*
X79510087Y4534371D01*
X79648406Y4200441D01*
X79695415Y3964108D01*
X79718920Y3845943D01*
X79718920Y3484497D01*
X79695415Y3366332D01*
X79648406Y3129999D01*
X79510087Y2796069D01*
X79309280Y2495540D01*
X79053700Y2239960D01*
X78753171Y2039153D01*
X78419241Y1900834D01*
X78182908Y1853825D01*
X78064743Y1830320D01*
X77703297Y1830320D01*
X77585132Y1853825D01*
X77348799Y1900834D01*
X77014869Y2039153D01*
X76714340Y2239960D01*
X76458760Y2495540D01*
X76257953Y2796069D01*
X76119634Y3129999D01*
X76072625Y3366332D01*
X76049120Y3484497D01*
X76049120Y3845943D01*
X76072625Y3964108D01*
X76119634Y4200441D01*
X76257953Y4534371D01*
X76458760Y4834900D01*
X76714340Y5090480D01*
X77014869Y5291287D01*
X77014874Y5291289D01*
X77072163Y5315019D01*
X77348799Y5429606D01*
X77585132Y5476615D01*
X77703297Y5500120D01*
X78064743Y5500120D01*
X78182908Y5476615D01*
X78182908Y5476615D01*
G37*
G36*
X156491108Y5476617D02*
G01*
X156727441Y5429608D01*
X157061371Y5291289D01*
X157361900Y5090482D01*
X157617480Y4834902D01*
X157818287Y4534373D01*
X157956606Y4200443D01*
X157972727Y4119398D01*
X158027120Y3845945D01*
X158027120Y3484499D01*
X158013416Y3415607D01*
X157956606Y3130001D01*
X157818287Y2796071D01*
X157617480Y2495542D01*
X157361900Y2239962D01*
X157061371Y2039155D01*
X157061370Y2039154D01*
X157061369Y2039154D01*
X157061364Y2039152D01*
X156727441Y1900836D01*
X156538613Y1863276D01*
X156372943Y1830322D01*
X156011497Y1830322D01*
X155845827Y1863276D01*
X155656999Y1900836D01*
X155323076Y2039152D01*
X155323071Y2039154D01*
X155323070Y2039154D01*
X155323069Y2039155D01*
X155022540Y2239962D01*
X154766960Y2495542D01*
X154566153Y2796071D01*
X154427834Y3130001D01*
X154371024Y3415607D01*
X154357320Y3484499D01*
X154357320Y3845945D01*
X154411713Y4119398D01*
X154427834Y4200443D01*
X154566153Y4534373D01*
X154766960Y4834902D01*
X155022540Y5090482D01*
X155323069Y5291289D01*
X155656999Y5429608D01*
X155893332Y5476617D01*
X156011497Y5500122D01*
X156372943Y5500122D01*
X156491108Y5476617D01*
X156491108Y5476617D01*
G37*
G36*
X239946180Y1897380D02*
G01*
X238843820Y1897380D01*
X238843820Y2700020D01*
X239946180Y2700020D01*
X239946180Y1897380D01*
X239946180Y1897380D01*
G37*
G36*
X233926380Y1897380D02*
G01*
X232824020Y1897380D01*
X232824020Y2700020D01*
X233926380Y2700020D01*
X233926380Y1897380D01*
X233926380Y1897380D01*
G37*
G36*
X248130260Y2020370D02*
G01*
X245528900Y2020370D01*
X245528900Y3821630D01*
X248130260Y3821630D01*
X248130260Y2020370D01*
X248130260Y2020370D01*
G37*
G36*
X244132300Y2020370D02*
G01*
X241530940Y2020370D01*
X241530940Y3821630D01*
X244132300Y3821630D01*
X244132300Y2020370D01*
X244132300Y2020370D01*
G37*
G36*
X219272312Y4456296D02*
G01*
X219427184Y4392146D01*
X219566565Y4299014D01*
X219685099Y4180480D01*
X219778231Y4041099D01*
X219842381Y3886227D01*
X219875084Y3721815D01*
X219875084Y3554183D01*
X219842381Y3389771D01*
X219778231Y3234899D01*
X219685099Y3095518D01*
X219566565Y2976984D01*
X219427184Y2883852D01*
X219272312Y2819702D01*
X219107900Y2786999D01*
X218940268Y2786999D01*
X218775856Y2819702D01*
X218620984Y2883852D01*
X218481603Y2976984D01*
X218363069Y3095518D01*
X218269937Y3234899D01*
X218205787Y3389771D01*
X218173084Y3554183D01*
X218173084Y3721815D01*
X218205787Y3886227D01*
X218269937Y4041099D01*
X218363069Y4180480D01*
X218481603Y4299014D01*
X218620984Y4392146D01*
X218775856Y4456296D01*
X218940268Y4488999D01*
X219107900Y4488999D01*
X219272312Y4456296D01*
X219272312Y4456296D01*
G37*
G36*
X229859296Y4834902D02*
G01*
X229967350Y4813409D01*
X230113689Y4752793D01*
X230245390Y4664793D01*
X230357393Y4552790D01*
X230445393Y4421089D01*
X230506009Y4274750D01*
X230536910Y4119398D01*
X230536910Y3961002D01*
X230506009Y3805650D01*
X230445393Y3659311D01*
X230357393Y3527610D01*
X230245390Y3415607D01*
X230113689Y3327607D01*
X229967350Y3266991D01*
X229889674Y3251540D01*
X229811999Y3236090D01*
X229653601Y3236090D01*
X229575926Y3251540D01*
X229498250Y3266991D01*
X229351911Y3327607D01*
X229220210Y3415607D01*
X229108207Y3527610D01*
X229020207Y3659311D01*
X228959591Y3805650D01*
X228928690Y3961002D01*
X228928690Y4119398D01*
X228959591Y4274750D01*
X229020207Y4421089D01*
X229108207Y4552790D01*
X229220210Y4664793D01*
X229351911Y4752793D01*
X229498250Y4813409D01*
X229606304Y4834902D01*
X229653601Y4844310D01*
X229811999Y4844310D01*
X229859296Y4834902D01*
X229859296Y4834902D01*
G37*
G36*
X227319296Y4834902D02*
G01*
X227427350Y4813409D01*
X227573689Y4752793D01*
X227705390Y4664793D01*
X227817393Y4552790D01*
X227905393Y4421089D01*
X227966009Y4274750D01*
X227996910Y4119398D01*
X227996910Y3961002D01*
X227966009Y3805650D01*
X227905393Y3659311D01*
X227817393Y3527610D01*
X227705390Y3415607D01*
X227573689Y3327607D01*
X227427350Y3266991D01*
X227349674Y3251540D01*
X227271999Y3236090D01*
X227113601Y3236090D01*
X227035926Y3251540D01*
X226958250Y3266991D01*
X226811911Y3327607D01*
X226680210Y3415607D01*
X226568207Y3527610D01*
X226480207Y3659311D01*
X226419591Y3805650D01*
X226388690Y3961002D01*
X226388690Y4119398D01*
X226419591Y4274750D01*
X226480207Y4421089D01*
X226568207Y4552790D01*
X226680210Y4664793D01*
X226811911Y4752793D01*
X226958250Y4813409D01*
X227066304Y4834902D01*
X227113601Y4844310D01*
X227271999Y4844310D01*
X227319296Y4834902D01*
X227319296Y4834902D01*
G37*
G36*
X239946180Y3395980D02*
G01*
X238843820Y3395980D01*
X238843820Y4198620D01*
X239946180Y4198620D01*
X239946180Y3395980D01*
X239946180Y3395980D01*
G37*
G36*
X233926380Y3395980D02*
G01*
X232824020Y3395980D01*
X232824020Y4198620D01*
X233926380Y4198620D01*
X233926380Y3395980D01*
X233926380Y3395980D01*
G37*
G36*
X193631606Y5556891D02*
G01*
X193697036Y5543876D01*
X193881936Y5467288D01*
X194048342Y5356099D01*
X194189859Y5214582D01*
X194301048Y5048176D01*
X194377636Y4863276D01*
X194416680Y4666987D01*
X194416680Y4466853D01*
X194377636Y4270564D01*
X194301048Y4085664D01*
X194189859Y3919258D01*
X194048342Y3777741D01*
X193881936Y3666552D01*
X193697036Y3589964D01*
X193631606Y3576949D01*
X193500749Y3550920D01*
X193300611Y3550920D01*
X193169754Y3576949D01*
X193104324Y3589964D01*
X192919424Y3666552D01*
X192753018Y3777741D01*
X192611501Y3919258D01*
X192500312Y4085664D01*
X192423724Y4270564D01*
X192384680Y4466853D01*
X192384680Y4666987D01*
X192423724Y4863276D01*
X192500312Y5048176D01*
X192611501Y5214582D01*
X192753018Y5356099D01*
X192919424Y5467288D01*
X193104324Y5543876D01*
X193169754Y5556891D01*
X193300611Y5582920D01*
X193500749Y5582920D01*
X193631606Y5556891D01*
X193631606Y5556891D01*
G37*
G36*
X118344000Y3656340D02*
G01*
X116142000Y3656340D01*
X116142000Y5158340D01*
X118344000Y5158340D01*
X118344000Y3656340D01*
X118344000Y3656340D01*
G37*
G36*
X127444000Y3656340D02*
G01*
X125242000Y3656340D01*
X125242000Y5158340D01*
X127444000Y5158340D01*
X127444000Y3656340D01*
X127444000Y3656340D01*
G37*
G36*
X104079251Y9136558D02*
G01*
X104273609Y9056052D01*
X104548473Y8942200D01*
X104970760Y8660036D01*
X105329886Y8300910D01*
X105612050Y7878623D01*
X105703467Y7657922D01*
X105806408Y7409401D01*
X105905490Y6911282D01*
X105905490Y6403398D01*
X105806408Y5905279D01*
X105758220Y5788944D01*
X105612050Y5436057D01*
X105329886Y5013770D01*
X104970760Y4654644D01*
X104548473Y4372480D01*
X104302425Y4270564D01*
X104079251Y4178122D01*
X103581132Y4079040D01*
X103073248Y4079040D01*
X102575129Y4178122D01*
X102351955Y4270564D01*
X102105907Y4372480D01*
X101683620Y4654644D01*
X101324494Y5013770D01*
X101042330Y5436057D01*
X100896160Y5788944D01*
X100847972Y5905279D01*
X100748890Y6403398D01*
X100748890Y6911282D01*
X100847972Y7409401D01*
X100950913Y7657922D01*
X101042330Y7878623D01*
X101324494Y8300910D01*
X101683620Y8660036D01*
X102105907Y8942200D01*
X102380771Y9056052D01*
X102575129Y9136558D01*
X103073248Y9235640D01*
X103581132Y9235640D01*
X104079251Y9136558D01*
X104079251Y9136558D01*
G37*
G36*
X144008061Y9136558D02*
G01*
X144202419Y9056052D01*
X144477283Y8942200D01*
X144899570Y8660036D01*
X145258696Y8300910D01*
X145540860Y7878623D01*
X145632277Y7657922D01*
X145735218Y7409401D01*
X145834300Y6911282D01*
X145834300Y6403398D01*
X145735218Y5905279D01*
X145687030Y5788944D01*
X145540860Y5436057D01*
X145258696Y5013770D01*
X144899570Y4654644D01*
X144477283Y4372480D01*
X144231235Y4270564D01*
X144008061Y4178122D01*
X143509942Y4079040D01*
X143002058Y4079040D01*
X142503939Y4178122D01*
X142280765Y4270564D01*
X142034717Y4372480D01*
X141612430Y4654644D01*
X141253304Y5013770D01*
X140971140Y5436057D01*
X140824970Y5788944D01*
X140776782Y5905279D01*
X140677700Y6403398D01*
X140677700Y6911282D01*
X140776782Y7409401D01*
X140879723Y7657922D01*
X140971140Y7878623D01*
X141253304Y8300910D01*
X141612430Y8660036D01*
X142034717Y8942200D01*
X142309581Y9056052D01*
X142503939Y9136558D01*
X143002058Y9235640D01*
X143509942Y9235640D01*
X144008061Y9136558D01*
X144008061Y9136558D01*
G37*
G36*
X164239161Y9136558D02*
G01*
X164433519Y9056052D01*
X164708383Y8942200D01*
X165130670Y8660036D01*
X165489796Y8300910D01*
X165771960Y7878623D01*
X165863377Y7657922D01*
X165966318Y7409401D01*
X166065400Y6911282D01*
X166065400Y6403398D01*
X165966318Y5905279D01*
X165918130Y5788944D01*
X165771960Y5436057D01*
X165489796Y5013770D01*
X165130670Y4654644D01*
X164708383Y4372480D01*
X164462335Y4270564D01*
X164239161Y4178122D01*
X163741042Y4079040D01*
X163233158Y4079040D01*
X162735039Y4178122D01*
X162511865Y4270564D01*
X162265817Y4372480D01*
X161843530Y4654644D01*
X161484404Y5013770D01*
X161202240Y5436057D01*
X161056070Y5788944D01*
X161007882Y5905279D01*
X160908800Y6403398D01*
X160908800Y6911282D01*
X161007882Y7409401D01*
X161110823Y7657922D01*
X161202240Y7878623D01*
X161484404Y8300910D01*
X161843530Y8660036D01*
X162265817Y8942200D01*
X162540681Y9056052D01*
X162735039Y9136558D01*
X163233158Y9235640D01*
X163741042Y9235640D01*
X164239161Y9136558D01*
X164239161Y9136558D01*
G37*
G36*
X184470251Y9136558D02*
G01*
X184664609Y9056052D01*
X184939473Y8942200D01*
X185361760Y8660036D01*
X185720886Y8300910D01*
X186003050Y7878623D01*
X186094467Y7657922D01*
X186197408Y7409401D01*
X186296490Y6911282D01*
X186296490Y6403398D01*
X186197408Y5905279D01*
X186149220Y5788944D01*
X186003050Y5436057D01*
X185720886Y5013770D01*
X185361760Y4654644D01*
X184939473Y4372480D01*
X184693425Y4270564D01*
X184470251Y4178122D01*
X183972132Y4079040D01*
X183464248Y4079040D01*
X182966129Y4178122D01*
X182742955Y4270564D01*
X182496907Y4372480D01*
X182074620Y4654644D01*
X181715494Y5013770D01*
X181433330Y5436057D01*
X181287160Y5788944D01*
X181238972Y5905279D01*
X181139890Y6403398D01*
X181139890Y6911282D01*
X181238972Y7409401D01*
X181341913Y7657922D01*
X181433330Y7878623D01*
X181715494Y8300910D01*
X182074620Y8660036D01*
X182496907Y8942200D01*
X182771771Y9056052D01*
X182966129Y9136558D01*
X183464248Y9235640D01*
X183972132Y9235640D01*
X184470251Y9136558D01*
X184470251Y9136558D01*
G37*
G36*
X237692400Y4489960D02*
G01*
X235052400Y4489960D01*
X235052400Y5679960D01*
X237692400Y5679960D01*
X237692400Y4489960D01*
X237692400Y4489960D01*
G37*
G36*
X70173831Y7381927D02*
G01*
X70379057Y7341106D01*
X70604450Y7247745D01*
X70807298Y7112206D01*
X70979806Y6939698D01*
X71115345Y6736850D01*
X71208706Y6511457D01*
X71256300Y6272182D01*
X71256300Y6028218D01*
X71208706Y5788943D01*
X71115345Y5563550D01*
X70979806Y5360702D01*
X70807298Y5188194D01*
X70604450Y5052655D01*
X70379057Y4959294D01*
X70173831Y4918473D01*
X70139783Y4911700D01*
X69895817Y4911700D01*
X69861769Y4918473D01*
X69656543Y4959294D01*
X69431150Y5052655D01*
X69228302Y5188194D01*
X69055794Y5360702D01*
X68920255Y5563550D01*
X68826894Y5788943D01*
X68779300Y6028218D01*
X68779300Y6272182D01*
X68826894Y6511457D01*
X68920255Y6736850D01*
X69055794Y6939698D01*
X69228302Y7112206D01*
X69431150Y7247745D01*
X69656543Y7341106D01*
X69861769Y7381927D01*
X69895817Y7388700D01*
X70139783Y7388700D01*
X70173831Y7381927D01*
X70173831Y7381927D01*
G37*
G36*
X66998831Y7381927D02*
G01*
X67204057Y7341106D01*
X67429450Y7247745D01*
X67632298Y7112206D01*
X67804806Y6939698D01*
X67940345Y6736850D01*
X68033706Y6511457D01*
X68081300Y6272182D01*
X68081300Y6028218D01*
X68033706Y5788943D01*
X67940345Y5563550D01*
X67804806Y5360702D01*
X67632298Y5188194D01*
X67429450Y5052655D01*
X67204057Y4959294D01*
X66998831Y4918473D01*
X66964783Y4911700D01*
X66720817Y4911700D01*
X66686769Y4918473D01*
X66481543Y4959294D01*
X66256150Y5052655D01*
X66053302Y5188194D01*
X65880794Y5360702D01*
X65745255Y5563550D01*
X65651894Y5788943D01*
X65604300Y6028218D01*
X65604300Y6272182D01*
X65651894Y6511457D01*
X65745255Y6736850D01*
X65880794Y6939698D01*
X66053302Y7112206D01*
X66256150Y7247745D01*
X66481543Y7341106D01*
X66686769Y7381927D01*
X66720817Y7388700D01*
X66964783Y7388700D01*
X66998831Y7381927D01*
X66998831Y7381927D01*
G37*
G36*
X233763820Y5544820D02*
G01*
X232961180Y5544820D01*
X232961180Y6647180D01*
X233763820Y6647180D01*
X233763820Y5544820D01*
X233763820Y5544820D01*
G37*
G36*
X232265220Y5544820D02*
G01*
X231462580Y5544820D01*
X231462580Y6647180D01*
X232265220Y6647180D01*
X232265220Y5544820D01*
X232265220Y5544820D01*
G37*
G36*
X42714314Y7365494D02*
G01*
X42714317Y7365493D01*
X42714316Y7365493D01*
X42759991Y7346575D01*
X42770701Y7339418D01*
X42792312Y7327867D01*
X42795052Y7327036D01*
X42803659Y7316548D01*
X42836064Y7284143D01*
X42836066Y7284140D01*
X42836068Y7284138D01*
X42863533Y7243034D01*
X42863533Y7243033D01*
X42882454Y7197354D01*
X42892100Y7148861D01*
X42892100Y7099419D01*
X42882454Y7050926D01*
X42882453Y7050924D01*
X42863533Y7005246D01*
X42836068Y6964142D01*
X42836066Y6964140D01*
X42836064Y6964137D01*
X42801103Y6929176D01*
X42801100Y6929174D01*
X42801098Y6929172D01*
X42759994Y6901707D01*
X42727694Y6888328D01*
X42714314Y6882786D01*
X42665821Y6873140D01*
X42616379Y6873140D01*
X42567886Y6882786D01*
X42554506Y6888328D01*
X42522206Y6901707D01*
X42481102Y6929172D01*
X42481100Y6929174D01*
X42481097Y6929176D01*
X42446136Y6964137D01*
X42446134Y6964140D01*
X42446132Y6964142D01*
X42418667Y7005246D01*
X42399747Y7050924D01*
X42399746Y7050926D01*
X42390100Y7099419D01*
X42390100Y7148861D01*
X42399746Y7197354D01*
X42418667Y7243033D01*
X42418667Y7243034D01*
X42446132Y7284138D01*
X42446134Y7284140D01*
X42446136Y7284143D01*
X42481097Y7319104D01*
X42481100Y7319106D01*
X42481102Y7319108D01*
X42522206Y7346573D01*
X42567884Y7365493D01*
X42567883Y7365493D01*
X42567886Y7365494D01*
X42616379Y7375140D01*
X42665821Y7375140D01*
X42714314Y7365494D01*
X42714314Y7365494D01*
G37*
G36*
X43614314Y7365494D02*
G01*
X43614317Y7365493D01*
X43614316Y7365493D01*
X43659994Y7346573D01*
X43701098Y7319108D01*
X43701100Y7319106D01*
X43701103Y7319104D01*
X43736064Y7284143D01*
X43736066Y7284140D01*
X43736068Y7284138D01*
X43763533Y7243034D01*
X43763533Y7243033D01*
X43782454Y7197354D01*
X43792100Y7148861D01*
X43792100Y7099419D01*
X43782454Y7050926D01*
X43782453Y7050924D01*
X43763533Y7005246D01*
X43736068Y6964142D01*
X43736066Y6964140D01*
X43736064Y6964137D01*
X43701103Y6929176D01*
X43701100Y6929174D01*
X43701098Y6929172D01*
X43659994Y6901707D01*
X43627694Y6888328D01*
X43614314Y6882786D01*
X43565821Y6873140D01*
X43516379Y6873140D01*
X43467886Y6882786D01*
X43454506Y6888328D01*
X43422206Y6901707D01*
X43381102Y6929172D01*
X43381100Y6929174D01*
X43381097Y6929176D01*
X43346136Y6964137D01*
X43346134Y6964140D01*
X43346132Y6964142D01*
X43318667Y7005246D01*
X43299747Y7050924D01*
X43299746Y7050926D01*
X43290100Y7099419D01*
X43290100Y7148861D01*
X43299746Y7197354D01*
X43318667Y7243033D01*
X43318667Y7243034D01*
X43346132Y7284138D01*
X43346134Y7284140D01*
X43346136Y7284143D01*
X43378541Y7316548D01*
X43387147Y7327035D01*
X43389887Y7327866D01*
X43411499Y7339418D01*
X43422209Y7346575D01*
X43467884Y7365493D01*
X43467883Y7365493D01*
X43467886Y7365494D01*
X43516379Y7375140D01*
X43565821Y7375140D01*
X43614314Y7365494D01*
X43614314Y7365494D01*
G37*
G36*
X72082208Y8199699D02*
G01*
X72168049Y8164142D01*
X72181665Y8158502D01*
X72217670Y8134444D01*
X72271172Y8098695D01*
X72347295Y8022572D01*
X72407103Y7933063D01*
X72448299Y7833608D01*
X72469300Y7728027D01*
X72469300Y7620373D01*
X72448299Y7514792D01*
X72407103Y7415337D01*
X72407102Y7415335D01*
X72403137Y7409401D01*
X72347295Y7325828D01*
X72271172Y7249705D01*
X72226723Y7220005D01*
X72181665Y7189898D01*
X72181664Y7189897D01*
X72181663Y7189897D01*
X72082208Y7148701D01*
X71976627Y7127700D01*
X71868973Y7127700D01*
X71763392Y7148701D01*
X71663937Y7189897D01*
X71663936Y7189897D01*
X71663935Y7189898D01*
X71618877Y7220005D01*
X71574428Y7249705D01*
X71498305Y7325828D01*
X71442463Y7409401D01*
X71438498Y7415335D01*
X71438497Y7415337D01*
X71397301Y7514792D01*
X71376300Y7620373D01*
X71376300Y7728027D01*
X71397301Y7833608D01*
X71438497Y7933063D01*
X71498305Y8022572D01*
X71574428Y8098695D01*
X71627930Y8134444D01*
X71663935Y8158502D01*
X71677551Y8164142D01*
X71763392Y8199699D01*
X71868973Y8220700D01*
X71976627Y8220700D01*
X72082208Y8199699D01*
X72082208Y8199699D01*
G37*
G36*
X43164314Y7965494D02*
G01*
X43164317Y7965493D01*
X43164316Y7965493D01*
X43209991Y7946575D01*
X43220701Y7939418D01*
X43242312Y7927867D01*
X43245052Y7927036D01*
X43253659Y7916548D01*
X43286064Y7884143D01*
X43286066Y7884140D01*
X43286068Y7884138D01*
X43313533Y7843034D01*
X43313533Y7843033D01*
X43332454Y7797354D01*
X43342100Y7748861D01*
X43342100Y7699419D01*
X43332454Y7650926D01*
X43332453Y7650924D01*
X43313533Y7605246D01*
X43286068Y7564142D01*
X43286066Y7564140D01*
X43286064Y7564137D01*
X43253659Y7531732D01*
X43245053Y7521245D01*
X43242313Y7520414D01*
X43220701Y7508862D01*
X43209991Y7501705D01*
X43170150Y7485204D01*
X43164314Y7482786D01*
X43115821Y7473140D01*
X43066379Y7473140D01*
X43017886Y7482786D01*
X43012050Y7485204D01*
X42972209Y7501705D01*
X42961499Y7508862D01*
X42939888Y7520413D01*
X42937148Y7521244D01*
X42928541Y7531732D01*
X42896136Y7564137D01*
X42896134Y7564140D01*
X42896132Y7564142D01*
X42868667Y7605246D01*
X42849747Y7650924D01*
X42849746Y7650926D01*
X42840100Y7699419D01*
X42840100Y7748861D01*
X42849746Y7797354D01*
X42868667Y7843033D01*
X42868667Y7843034D01*
X42896132Y7884138D01*
X42896134Y7884140D01*
X42896136Y7884143D01*
X42928541Y7916548D01*
X42937147Y7927035D01*
X42939887Y7927866D01*
X42961499Y7939418D01*
X42972209Y7946575D01*
X43017884Y7965493D01*
X43017883Y7965493D01*
X43017886Y7965494D01*
X43066379Y7975140D01*
X43115821Y7975140D01*
X43164314Y7965494D01*
X43164314Y7965494D01*
G37*
G36*
X88813861Y12616358D02*
G01*
X88939426Y12564347D01*
X89283083Y12422000D01*
X89705370Y12139836D01*
X90064496Y11780710D01*
X90346660Y11358423D01*
X90450298Y11108218D01*
X90541018Y10889201D01*
X90640100Y10391082D01*
X90640100Y9883198D01*
X90541018Y9385079D01*
X90470858Y9215699D01*
X90346660Y8915857D01*
X90064496Y8493570D01*
X89705370Y8134444D01*
X89283083Y7852280D01*
X89008219Y7738428D01*
X88813861Y7657922D01*
X88315742Y7558840D01*
X87807858Y7558840D01*
X87309739Y7657922D01*
X87115381Y7738428D01*
X86840517Y7852280D01*
X86418230Y8134444D01*
X86059104Y8493570D01*
X85776940Y8915857D01*
X85652742Y9215699D01*
X85582582Y9385079D01*
X85483500Y9883198D01*
X85483500Y10391082D01*
X85582582Y10889201D01*
X85673302Y11108218D01*
X85776940Y11358423D01*
X86059104Y11780710D01*
X86418230Y12139836D01*
X86840517Y12422000D01*
X87184174Y12564347D01*
X87309739Y12616358D01*
X87807858Y12715440D01*
X88315742Y12715440D01*
X88813861Y12616358D01*
X88813861Y12616358D01*
G37*
G36*
X247757715Y10180317D02*
G01*
X247885322Y10154935D01*
X248026148Y10096603D01*
X248125727Y10055356D01*
X248126900Y10054572D01*
X248342089Y9910788D01*
X248526088Y9726789D01*
X248571824Y9658340D01*
X248670656Y9510427D01*
X248696789Y9447335D01*
X248770235Y9270022D01*
X248788002Y9180702D01*
X248821000Y9014809D01*
X248821000Y8754591D01*
X248818898Y8744026D01*
X248770235Y8499378D01*
X248727976Y8397356D01*
X248670656Y8258973D01*
X248670655Y8258972D01*
X248526088Y8042611D01*
X248342089Y7858612D01*
X248250412Y7797356D01*
X248125727Y7714044D01*
X248026148Y7672797D01*
X247885322Y7614465D01*
X247757715Y7589083D01*
X247630109Y7563700D01*
X247369891Y7563700D01*
X247242285Y7589083D01*
X247114678Y7614465D01*
X246973852Y7672797D01*
X246874273Y7714044D01*
X246749588Y7797356D01*
X246657911Y7858612D01*
X246473912Y8042611D01*
X246329345Y8258972D01*
X246329344Y8258973D01*
X246272024Y8397356D01*
X246229765Y8499378D01*
X246181102Y8744026D01*
X246179000Y8754591D01*
X246179000Y9014809D01*
X246211998Y9180702D01*
X246229765Y9270022D01*
X246303211Y9447335D01*
X246329344Y9510427D01*
X246428176Y9658340D01*
X246473912Y9726789D01*
X246657911Y9910788D01*
X246873100Y10054572D01*
X246874273Y10055356D01*
X246973852Y10096603D01*
X247114678Y10154935D01*
X247242286Y10180318D01*
X247369891Y10205700D01*
X247630109Y10205700D01*
X247757715Y10180317D01*
X247757715Y10180317D01*
G37*
G36*
X254107715Y10180317D02*
G01*
X254235322Y10154935D01*
X254376148Y10096603D01*
X254475727Y10055356D01*
X254476900Y10054572D01*
X254692089Y9910788D01*
X254876088Y9726789D01*
X254921824Y9658340D01*
X255020656Y9510427D01*
X255046789Y9447335D01*
X255120235Y9270022D01*
X255138002Y9180702D01*
X255171000Y9014809D01*
X255171000Y8754591D01*
X255168898Y8744026D01*
X255120235Y8499378D01*
X255077976Y8397356D01*
X255020656Y8258973D01*
X255020655Y8258972D01*
X254876088Y8042611D01*
X254692089Y7858612D01*
X254600412Y7797356D01*
X254475727Y7714044D01*
X254376148Y7672797D01*
X254235322Y7614465D01*
X254107715Y7589083D01*
X253980109Y7563700D01*
X253719891Y7563700D01*
X253592285Y7589083D01*
X253464678Y7614465D01*
X253323852Y7672797D01*
X253224273Y7714044D01*
X253099588Y7797356D01*
X253007911Y7858612D01*
X252823912Y8042611D01*
X252679345Y8258972D01*
X252679344Y8258973D01*
X252622024Y8397356D01*
X252579765Y8499378D01*
X252531102Y8744026D01*
X252529000Y8754591D01*
X252529000Y9014809D01*
X252561998Y9180702D01*
X252579765Y9270022D01*
X252653211Y9447335D01*
X252679344Y9510427D01*
X252778176Y9658340D01*
X252823912Y9726789D01*
X253007911Y9910788D01*
X253223100Y10054572D01*
X253224273Y10055356D01*
X253323852Y10096603D01*
X253464678Y10154935D01*
X253592286Y10180318D01*
X253719891Y10205700D01*
X253980109Y10205700D01*
X254107715Y10180317D01*
X254107715Y10180317D01*
G37*
G36*
X241407715Y10180317D02*
G01*
X241535322Y10154935D01*
X241676148Y10096603D01*
X241775727Y10055356D01*
X241776900Y10054572D01*
X241992089Y9910788D01*
X242176088Y9726789D01*
X242221824Y9658340D01*
X242320656Y9510427D01*
X242346789Y9447335D01*
X242420235Y9270022D01*
X242438002Y9180702D01*
X242471000Y9014809D01*
X242471000Y8754591D01*
X242468898Y8744026D01*
X242420235Y8499378D01*
X242377976Y8397356D01*
X242320656Y8258973D01*
X242320655Y8258972D01*
X242176088Y8042611D01*
X241992089Y7858612D01*
X241900412Y7797356D01*
X241775727Y7714044D01*
X241676148Y7672797D01*
X241535322Y7614465D01*
X241407715Y7589083D01*
X241280109Y7563700D01*
X241019891Y7563700D01*
X240892285Y7589083D01*
X240764678Y7614465D01*
X240623852Y7672797D01*
X240524273Y7714044D01*
X240399588Y7797356D01*
X240307911Y7858612D01*
X240123912Y8042611D01*
X239979345Y8258972D01*
X239979344Y8258973D01*
X239922024Y8397356D01*
X239879765Y8499378D01*
X239831102Y8744026D01*
X239829000Y8754591D01*
X239829000Y9014809D01*
X239861998Y9180702D01*
X239879765Y9270022D01*
X239953211Y9447335D01*
X239979344Y9510427D01*
X240078176Y9658340D01*
X240123912Y9726789D01*
X240307911Y9910788D01*
X240523100Y10054572D01*
X240524273Y10055356D01*
X240623852Y10096603D01*
X240764678Y10154935D01*
X240892286Y10180318D01*
X241019891Y10205700D01*
X241280109Y10205700D01*
X241407715Y10180317D01*
X241407715Y10180317D01*
G37*
G36*
X42714314Y8565494D02*
G01*
X42714317Y8565493D01*
X42714316Y8565493D01*
X42759994Y8546573D01*
X42801098Y8519108D01*
X42801100Y8519106D01*
X42801103Y8519104D01*
X42836064Y8484143D01*
X42836066Y8484140D01*
X42836068Y8484138D01*
X42863533Y8443034D01*
X42863533Y8443033D01*
X42882454Y8397354D01*
X42892100Y8348861D01*
X42892100Y8299419D01*
X42882454Y8250926D01*
X42882453Y8250924D01*
X42863533Y8205246D01*
X42836068Y8164142D01*
X42836066Y8164140D01*
X42836064Y8164137D01*
X42803659Y8131732D01*
X42795053Y8121245D01*
X42792313Y8120414D01*
X42770701Y8108862D01*
X42759991Y8101705D01*
X42720150Y8085204D01*
X42714314Y8082786D01*
X42665821Y8073140D01*
X42616379Y8073140D01*
X42567886Y8082786D01*
X42554506Y8088328D01*
X42522206Y8101707D01*
X42481102Y8129172D01*
X42481100Y8129174D01*
X42481097Y8129176D01*
X42446136Y8164137D01*
X42446134Y8164140D01*
X42446132Y8164142D01*
X42418667Y8205246D01*
X42399747Y8250924D01*
X42399746Y8250926D01*
X42390100Y8299419D01*
X42390100Y8348861D01*
X42399746Y8397354D01*
X42418667Y8443033D01*
X42418667Y8443034D01*
X42446132Y8484138D01*
X42446134Y8484140D01*
X42446136Y8484143D01*
X42481097Y8519104D01*
X42481100Y8519106D01*
X42481102Y8519108D01*
X42522206Y8546573D01*
X42567884Y8565493D01*
X42567883Y8565493D01*
X42567886Y8565494D01*
X42616379Y8575140D01*
X42665821Y8575140D01*
X42714314Y8565494D01*
X42714314Y8565494D01*
G37*
G36*
X43614314Y8565494D02*
G01*
X43614317Y8565493D01*
X43614316Y8565493D01*
X43659994Y8546573D01*
X43701098Y8519108D01*
X43701100Y8519106D01*
X43701103Y8519104D01*
X43736064Y8484143D01*
X43736066Y8484140D01*
X43736068Y8484138D01*
X43763533Y8443034D01*
X43763533Y8443033D01*
X43782454Y8397354D01*
X43792100Y8348861D01*
X43792100Y8299419D01*
X43782454Y8250926D01*
X43782453Y8250924D01*
X43763533Y8205246D01*
X43736068Y8164142D01*
X43736066Y8164140D01*
X43736064Y8164137D01*
X43701103Y8129176D01*
X43701100Y8129174D01*
X43701098Y8129172D01*
X43659994Y8101707D01*
X43627694Y8088328D01*
X43614314Y8082786D01*
X43565821Y8073140D01*
X43516379Y8073140D01*
X43467886Y8082786D01*
X43462050Y8085204D01*
X43422209Y8101705D01*
X43411499Y8108862D01*
X43389888Y8120413D01*
X43387148Y8121244D01*
X43378541Y8131732D01*
X43346136Y8164137D01*
X43346134Y8164140D01*
X43346132Y8164142D01*
X43318667Y8205246D01*
X43299747Y8250924D01*
X43299746Y8250926D01*
X43290100Y8299419D01*
X43290100Y8348861D01*
X43299746Y8397354D01*
X43318667Y8443033D01*
X43318667Y8443034D01*
X43346132Y8484138D01*
X43346134Y8484140D01*
X43346136Y8484143D01*
X43381097Y8519104D01*
X43381100Y8519106D01*
X43381102Y8519108D01*
X43422206Y8546573D01*
X43467884Y8565493D01*
X43467883Y8565493D01*
X43467886Y8565494D01*
X43516379Y8575140D01*
X43565821Y8575140D01*
X43614314Y8565494D01*
X43614314Y8565494D01*
G37*
G36*
X67002208Y9215699D02*
G01*
X67101663Y9174503D01*
X67101665Y9174502D01*
X67146723Y9144395D01*
X67191172Y9114695D01*
X67267295Y9038572D01*
X67327103Y8949063D01*
X67368299Y8849608D01*
X67389300Y8744027D01*
X67389300Y8636373D01*
X67368299Y8530792D01*
X67327103Y8431337D01*
X67267295Y8341828D01*
X67191172Y8265705D01*
X67146723Y8236005D01*
X67101665Y8205898D01*
X67101664Y8205897D01*
X67101663Y8205897D01*
X67002208Y8164701D01*
X66896627Y8143700D01*
X66788973Y8143700D01*
X66683392Y8164701D01*
X66583937Y8205897D01*
X66583936Y8205897D01*
X66583935Y8205898D01*
X66538877Y8236005D01*
X66494428Y8265705D01*
X66418305Y8341828D01*
X66358497Y8431337D01*
X66317301Y8530792D01*
X66296300Y8636373D01*
X66296300Y8744027D01*
X66317301Y8849608D01*
X66358497Y8949063D01*
X66418305Y9038572D01*
X66494428Y9114695D01*
X66538877Y9144395D01*
X66583935Y9174502D01*
X66583937Y9174503D01*
X66683392Y9215699D01*
X66788973Y9236700D01*
X66896627Y9236700D01*
X67002208Y9215699D01*
X67002208Y9215699D01*
G37*
G36*
X118344000Y8156340D02*
G01*
X116142000Y8156340D01*
X116142000Y9658340D01*
X118344000Y9658340D01*
X118344000Y8156340D01*
X118344000Y8156340D01*
G37*
G36*
X127444000Y8156340D02*
G01*
X125242000Y8156340D01*
X125242000Y9658340D01*
X127444000Y9658340D01*
X127444000Y8156340D01*
X127444000Y8156340D01*
G37*
G36*
X72082208Y10231699D02*
G01*
X72181663Y10190503D01*
X72181665Y10190502D01*
X72226723Y10160395D01*
X72271172Y10130695D01*
X72347295Y10054572D01*
X72407103Y9965063D01*
X72448299Y9865608D01*
X72469300Y9760027D01*
X72469300Y9652373D01*
X72448299Y9546792D01*
X72407103Y9447337D01*
X72365504Y9385079D01*
X72347294Y9357827D01*
X72271173Y9281706D01*
X72181665Y9221898D01*
X72181664Y9221897D01*
X72181663Y9221897D01*
X72082208Y9180701D01*
X71976627Y9159700D01*
X71868973Y9159700D01*
X71763392Y9180701D01*
X71663937Y9221897D01*
X71663936Y9221897D01*
X71663935Y9221898D01*
X71574427Y9281706D01*
X71498306Y9357827D01*
X71480097Y9385079D01*
X71438497Y9447337D01*
X71397301Y9546792D01*
X71376300Y9652373D01*
X71376300Y9760027D01*
X71397301Y9865608D01*
X71438497Y9965063D01*
X71498305Y10054572D01*
X71574428Y10130695D01*
X71618877Y10160395D01*
X71663935Y10190502D01*
X71663937Y10190503D01*
X71763392Y10231699D01*
X71868973Y10252700D01*
X71976627Y10252700D01*
X72082208Y10231699D01*
X72082208Y10231699D01*
G37*
G36*
X219272312Y11456296D02*
G01*
X219427184Y11392146D01*
X219566565Y11299014D01*
X219685099Y11180480D01*
X219778231Y11041099D01*
X219842381Y10886227D01*
X219875084Y10721815D01*
X219875084Y10554183D01*
X219842381Y10389771D01*
X219778231Y10234899D01*
X219685099Y10095518D01*
X219566565Y9976984D01*
X219427184Y9883852D01*
X219272312Y9819702D01*
X219107900Y9786999D01*
X218940268Y9786999D01*
X218775856Y9819702D01*
X218620984Y9883852D01*
X218481603Y9976984D01*
X218363069Y10095518D01*
X218269937Y10234899D01*
X218205787Y10389771D01*
X218173084Y10554183D01*
X218173084Y10721815D01*
X218205787Y10886227D01*
X218269937Y11041099D01*
X218363069Y11180480D01*
X218481603Y11299014D01*
X218620984Y11392146D01*
X218775856Y11456296D01*
X218940268Y11488999D01*
X219107900Y11488999D01*
X219272312Y11456296D01*
X219272312Y11456296D01*
G37*
G36*
X66998831Y12461927D02*
G01*
X67204057Y12421106D01*
X67429450Y12327745D01*
X67632298Y12192206D01*
X67804806Y12019698D01*
X67940345Y11816850D01*
X68033706Y11591457D01*
X68081300Y11352182D01*
X68081300Y11108218D01*
X68033706Y10868943D01*
X67940345Y10643550D01*
X67804806Y10440702D01*
X67632298Y10268194D01*
X67429450Y10132655D01*
X67204057Y10039294D01*
X66998831Y9998473D01*
X66964783Y9991700D01*
X66720817Y9991700D01*
X66686769Y9998473D01*
X66481543Y10039294D01*
X66256150Y10132655D01*
X66053302Y10268194D01*
X65880794Y10440702D01*
X65745255Y10643550D01*
X65651894Y10868943D01*
X65604300Y11108218D01*
X65604300Y11352182D01*
X65651894Y11591457D01*
X65745255Y11816850D01*
X65880794Y12019698D01*
X66053302Y12192206D01*
X66256150Y12327745D01*
X66481543Y12421106D01*
X66686769Y12461927D01*
X66720817Y12468700D01*
X66964783Y12468700D01*
X66998831Y12461927D01*
X66998831Y12461927D01*
G37*
G36*
X70173831Y12461927D02*
G01*
X70379057Y12421106D01*
X70604450Y12327745D01*
X70807298Y12192206D01*
X70979806Y12019698D01*
X71115345Y11816850D01*
X71208706Y11591457D01*
X71256300Y11352182D01*
X71256300Y11108218D01*
X71208706Y10868943D01*
X71115345Y10643550D01*
X70979806Y10440702D01*
X70807298Y10268194D01*
X70604450Y10132655D01*
X70379057Y10039294D01*
X70173831Y9998473D01*
X70139783Y9991700D01*
X69895817Y9991700D01*
X69861769Y9998473D01*
X69656543Y10039294D01*
X69431150Y10132655D01*
X69228302Y10268194D01*
X69055794Y10440702D01*
X68920255Y10643550D01*
X68826894Y10868943D01*
X68779300Y11108218D01*
X68779300Y11352182D01*
X68826894Y11591457D01*
X68920255Y11816850D01*
X69055794Y12019698D01*
X69228302Y12192206D01*
X69431150Y12327745D01*
X69656543Y12421106D01*
X69861769Y12461927D01*
X69895817Y12468700D01*
X70139783Y12468700D01*
X70173831Y12461927D01*
X70173831Y12461927D01*
G37*
G36*
X207228783Y10914511D02*
G01*
X207228786Y10914510D01*
X207228785Y10914510D01*
X207292658Y10888054D01*
X207350148Y10849640D01*
X207399040Y10800748D01*
X207437454Y10743258D01*
X207446336Y10721814D01*
X207463911Y10679383D01*
X207477400Y10611570D01*
X207477400Y10542430D01*
X207463911Y10474617D01*
X207463910Y10474615D01*
X207437454Y10410742D01*
X207399040Y10353252D01*
X207350148Y10304360D01*
X207292658Y10265946D01*
X207240582Y10244376D01*
X207228783Y10239489D01*
X207160970Y10226000D01*
X207091830Y10226000D01*
X207024017Y10239489D01*
X207012218Y10244376D01*
X206960142Y10265946D01*
X206902652Y10304360D01*
X206853760Y10353252D01*
X206815346Y10410742D01*
X206788890Y10474615D01*
X206788889Y10474617D01*
X206775400Y10542430D01*
X206775400Y10611570D01*
X206788889Y10679383D01*
X206806464Y10721814D01*
X206815346Y10743258D01*
X206853760Y10800748D01*
X206902652Y10849640D01*
X206960142Y10888054D01*
X207024015Y10914510D01*
X207024014Y10914510D01*
X207024017Y10914511D01*
X207091830Y10928000D01*
X207160970Y10928000D01*
X207228783Y10914511D01*
X207228783Y10914511D01*
G37*
G36*
X206228783Y10914511D02*
G01*
X206228786Y10914510D01*
X206228785Y10914510D01*
X206292658Y10888054D01*
X206350148Y10849640D01*
X206399040Y10800748D01*
X206437454Y10743258D01*
X206446336Y10721814D01*
X206463911Y10679383D01*
X206477400Y10611570D01*
X206477400Y10542430D01*
X206463911Y10474617D01*
X206463910Y10474615D01*
X206437454Y10410742D01*
X206399040Y10353252D01*
X206350148Y10304360D01*
X206292658Y10265946D01*
X206240582Y10244376D01*
X206228783Y10239489D01*
X206160970Y10226000D01*
X206091830Y10226000D01*
X206024017Y10239489D01*
X206012218Y10244376D01*
X205960142Y10265946D01*
X205902652Y10304360D01*
X205853760Y10353252D01*
X205815346Y10410742D01*
X205788890Y10474615D01*
X205788889Y10474617D01*
X205775400Y10542430D01*
X205773997Y10549483D01*
X205766884Y10572932D01*
X205764709Y10577001D01*
X205766884Y10581070D01*
X205773997Y10604517D01*
X205775400Y10611570D01*
X205788889Y10679383D01*
X205806464Y10721814D01*
X205815346Y10743258D01*
X205853760Y10800748D01*
X205902652Y10849640D01*
X205960142Y10888054D01*
X206024015Y10914510D01*
X206024014Y10914510D01*
X206024017Y10914511D01*
X206091830Y10928000D01*
X206160970Y10928000D01*
X206228783Y10914511D01*
X206228783Y10914511D01*
G37*
G36*
X205278783Y10914511D02*
G01*
X205278786Y10914510D01*
X205278785Y10914510D01*
X205342658Y10888054D01*
X205400148Y10849640D01*
X205449040Y10800748D01*
X205487454Y10743258D01*
X205496336Y10721814D01*
X205513911Y10679383D01*
X205527400Y10611570D01*
X205528803Y10604517D01*
X205535916Y10581068D01*
X205538091Y10576999D01*
X205535916Y10572930D01*
X205528803Y10549483D01*
X205527400Y10542430D01*
X205513911Y10474617D01*
X205513910Y10474615D01*
X205487454Y10410742D01*
X205449040Y10353252D01*
X205400148Y10304360D01*
X205342658Y10265946D01*
X205290582Y10244376D01*
X205278783Y10239489D01*
X205210970Y10226000D01*
X205141830Y10226000D01*
X205074017Y10239489D01*
X205062218Y10244376D01*
X205010142Y10265946D01*
X204952652Y10304360D01*
X204903760Y10353252D01*
X204865346Y10410742D01*
X204838890Y10474615D01*
X204838889Y10474617D01*
X204825400Y10542430D01*
X204825400Y10611570D01*
X204838889Y10679383D01*
X204856464Y10721814D01*
X204865346Y10743258D01*
X204903760Y10800748D01*
X204952652Y10849640D01*
X205010142Y10888054D01*
X205074015Y10914510D01*
X205074014Y10914510D01*
X205074017Y10914511D01*
X205141830Y10928000D01*
X205210970Y10928000D01*
X205278783Y10914511D01*
X205278783Y10914511D01*
G37*
G36*
X205288783Y11964511D02*
G01*
X205288786Y11964510D01*
X205288785Y11964510D01*
X205352658Y11938054D01*
X205410148Y11899640D01*
X205459040Y11850748D01*
X205497454Y11793258D01*
X205502651Y11780710D01*
X205523911Y11729383D01*
X205533803Y11679653D01*
X205540916Y11656204D01*
X205552468Y11634594D01*
X205558700Y11627000D01*
X205552467Y11619405D01*
X205540916Y11597794D01*
X205533803Y11574347D01*
X205523911Y11524617D01*
X205523910Y11524615D01*
X205497454Y11460742D01*
X205459040Y11403252D01*
X205410148Y11354360D01*
X205352658Y11315946D01*
X205311779Y11299014D01*
X205288783Y11289489D01*
X205220970Y11276000D01*
X205151830Y11276000D01*
X205084017Y11289489D01*
X205061021Y11299014D01*
X205020142Y11315946D01*
X204962652Y11354360D01*
X204913760Y11403252D01*
X204875346Y11460742D01*
X204848890Y11524615D01*
X204848889Y11524617D01*
X204835400Y11592430D01*
X204835400Y11661570D01*
X204848889Y11729383D01*
X204870149Y11780710D01*
X204875346Y11793258D01*
X204913760Y11850748D01*
X204962652Y11899640D01*
X205020142Y11938054D01*
X205084015Y11964510D01*
X205084014Y11964510D01*
X205084017Y11964511D01*
X205151830Y11978000D01*
X205220970Y11978000D01*
X205288783Y11964511D01*
X205288783Y11964511D01*
G37*
G36*
X207228783Y11964511D02*
G01*
X207228786Y11964510D01*
X207228785Y11964510D01*
X207292658Y11938054D01*
X207350148Y11899640D01*
X207399040Y11850748D01*
X207437454Y11793258D01*
X207442651Y11780710D01*
X207463911Y11729383D01*
X207477400Y11661570D01*
X207477400Y11592430D01*
X207463911Y11524617D01*
X207463910Y11524615D01*
X207437454Y11460742D01*
X207399040Y11403252D01*
X207350148Y11354360D01*
X207292658Y11315946D01*
X207251779Y11299014D01*
X207228783Y11289489D01*
X207160970Y11276000D01*
X207091830Y11276000D01*
X207024017Y11289489D01*
X207001021Y11299014D01*
X206960142Y11315946D01*
X206902652Y11354360D01*
X206853760Y11403252D01*
X206815346Y11460742D01*
X206788890Y11524615D01*
X206788889Y11524617D01*
X206775400Y11592430D01*
X206775400Y11661570D01*
X206788889Y11729383D01*
X206810149Y11780710D01*
X206815346Y11793258D01*
X206853760Y11850748D01*
X206902652Y11899640D01*
X206960142Y11938054D01*
X207024015Y11964510D01*
X207024014Y11964510D01*
X207024017Y11964511D01*
X207091830Y11978000D01*
X207160970Y11978000D01*
X207228783Y11964511D01*
X207228783Y11964511D01*
G37*
G36*
X206228783Y11964511D02*
G01*
X206228786Y11964510D01*
X206228785Y11964510D01*
X206292658Y11938054D01*
X206350148Y11899640D01*
X206399040Y11850748D01*
X206437454Y11793258D01*
X206442651Y11780710D01*
X206463911Y11729383D01*
X206477400Y11661570D01*
X206477400Y11592430D01*
X206463911Y11524617D01*
X206463910Y11524615D01*
X206437454Y11460742D01*
X206399040Y11403252D01*
X206350148Y11354360D01*
X206292658Y11315946D01*
X206251779Y11299014D01*
X206228783Y11289489D01*
X206160970Y11276000D01*
X206091830Y11276000D01*
X206024017Y11289489D01*
X206001021Y11299014D01*
X205960142Y11315946D01*
X205902652Y11354360D01*
X205853760Y11403252D01*
X205815346Y11460742D01*
X205788890Y11524615D01*
X205788889Y11524617D01*
X205778997Y11574347D01*
X205771884Y11597796D01*
X205760332Y11619406D01*
X205754100Y11627000D01*
X205760333Y11634595D01*
X205771884Y11656206D01*
X205778997Y11679653D01*
X205788889Y11729383D01*
X205810149Y11780710D01*
X205815346Y11793258D01*
X205853760Y11850748D01*
X205902652Y11899640D01*
X205960142Y11938054D01*
X206024015Y11964510D01*
X206024014Y11964510D01*
X206024017Y11964511D01*
X206091830Y11978000D01*
X206160970Y11978000D01*
X206228783Y11964511D01*
X206228783Y11964511D01*
G37*
G36*
X262973135Y13053027D02*
G01*
X263076999Y13021521D01*
X263104175Y13006995D01*
X263172720Y12970357D01*
X263256621Y12901501D01*
X263325477Y12817600D01*
X263343831Y12783261D01*
X263376641Y12721879D01*
X263408147Y12618015D01*
X263418786Y12510000D01*
X263408147Y12401985D01*
X263376641Y12298121D01*
X263376639Y12298118D01*
X263325477Y12202400D01*
X263256621Y12118499D01*
X263172720Y12049643D01*
X263104175Y12013005D01*
X263076999Y11998479D01*
X262973135Y11966973D01*
X262892187Y11959000D01*
X262238053Y11959000D01*
X262157105Y11966973D01*
X262053241Y11998479D01*
X262026065Y12013005D01*
X261957520Y12049643D01*
X261873619Y12118499D01*
X261804763Y12202400D01*
X261753601Y12298118D01*
X261753599Y12298121D01*
X261722093Y12401985D01*
X261711454Y12510000D01*
X261722093Y12618015D01*
X261753599Y12721879D01*
X261786409Y12783261D01*
X261804763Y12817600D01*
X261873619Y12901501D01*
X261957520Y12970357D01*
X262026065Y13006995D01*
X262053241Y13021521D01*
X262157105Y13053027D01*
X262238053Y13061000D01*
X262892187Y13061000D01*
X262973135Y13053027D01*
X262973135Y13053027D01*
G37*
G36*
X206228783Y12954511D02*
G01*
X206228786Y12954510D01*
X206228785Y12954510D01*
X206292658Y12928054D01*
X206350148Y12889640D01*
X206399040Y12840748D01*
X206437454Y12783258D01*
X206459024Y12731182D01*
X206463911Y12719383D01*
X206477400Y12651570D01*
X206477400Y12582430D01*
X206463911Y12514617D01*
X206459024Y12502818D01*
X206437454Y12450742D01*
X206399040Y12393252D01*
X206350148Y12344360D01*
X206292658Y12305946D01*
X206240582Y12284376D01*
X206228783Y12279489D01*
X206160970Y12266000D01*
X206091830Y12266000D01*
X206024017Y12279489D01*
X206012218Y12284376D01*
X205960142Y12305946D01*
X205902652Y12344360D01*
X205853760Y12393252D01*
X205815346Y12450742D01*
X205793776Y12502818D01*
X205788889Y12514617D01*
X205778997Y12564347D01*
X205771884Y12587796D01*
X205760332Y12609406D01*
X205754100Y12617000D01*
X205760333Y12624595D01*
X205771884Y12646206D01*
X205778997Y12669653D01*
X205788889Y12719383D01*
X205793776Y12731182D01*
X205815346Y12783258D01*
X205853760Y12840748D01*
X205902652Y12889640D01*
X205960142Y12928054D01*
X206024015Y12954510D01*
X206024014Y12954510D01*
X206024017Y12954511D01*
X206091830Y12968000D01*
X206160970Y12968000D01*
X206228783Y12954511D01*
X206228783Y12954511D01*
G37*
G36*
X207228783Y12954511D02*
G01*
X207228786Y12954510D01*
X207228785Y12954510D01*
X207292658Y12928054D01*
X207350148Y12889640D01*
X207399040Y12840748D01*
X207437454Y12783258D01*
X207459024Y12731182D01*
X207463911Y12719383D01*
X207477400Y12651570D01*
X207477400Y12582430D01*
X207463911Y12514617D01*
X207459024Y12502818D01*
X207437454Y12450742D01*
X207399040Y12393252D01*
X207350148Y12344360D01*
X207292658Y12305946D01*
X207240582Y12284376D01*
X207228783Y12279489D01*
X207160970Y12266000D01*
X207091830Y12266000D01*
X207024017Y12279489D01*
X207012218Y12284376D01*
X206960142Y12305946D01*
X206902652Y12344360D01*
X206853760Y12393252D01*
X206815346Y12450742D01*
X206793776Y12502818D01*
X206788889Y12514617D01*
X206775400Y12582430D01*
X206775400Y12651570D01*
X206788889Y12719383D01*
X206793776Y12731182D01*
X206815346Y12783258D01*
X206853760Y12840748D01*
X206902652Y12889640D01*
X206960142Y12928054D01*
X207024015Y12954510D01*
X207024014Y12954510D01*
X207024017Y12954511D01*
X207091830Y12968000D01*
X207160970Y12968000D01*
X207228783Y12954511D01*
X207228783Y12954511D01*
G37*
G36*
X205288783Y12954511D02*
G01*
X205288786Y12954510D01*
X205288785Y12954510D01*
X205352658Y12928054D01*
X205410148Y12889640D01*
X205459040Y12840748D01*
X205497454Y12783258D01*
X205519024Y12731182D01*
X205523911Y12719383D01*
X205533803Y12669653D01*
X205540916Y12646204D01*
X205552468Y12624594D01*
X205558700Y12617000D01*
X205552467Y12609405D01*
X205540916Y12587794D01*
X205533803Y12564347D01*
X205523911Y12514617D01*
X205519024Y12502818D01*
X205497454Y12450742D01*
X205459040Y12393252D01*
X205410148Y12344360D01*
X205352658Y12305946D01*
X205300582Y12284376D01*
X205288783Y12279489D01*
X205220970Y12266000D01*
X205151830Y12266000D01*
X205084017Y12279489D01*
X205072218Y12284376D01*
X205020142Y12305946D01*
X204962652Y12344360D01*
X204913760Y12393252D01*
X204875346Y12450742D01*
X204853776Y12502818D01*
X204848889Y12514617D01*
X204835400Y12582430D01*
X204835400Y12651570D01*
X204848889Y12719383D01*
X204853776Y12731182D01*
X204875346Y12783258D01*
X204913760Y12840748D01*
X204962652Y12889640D01*
X205020142Y12928054D01*
X205084015Y12954510D01*
X205084014Y12954510D01*
X205084017Y12954511D01*
X205151830Y12968000D01*
X205220970Y12968000D01*
X205288783Y12954511D01*
X205288783Y12954511D01*
G37*
G36*
X257617503Y20087511D02*
G01*
X257617506Y20087510D01*
X257617505Y20087510D01*
X257681378Y20061054D01*
X257738868Y20022640D01*
X257787760Y19973748D01*
X257826174Y19916258D01*
X257843056Y19875500D01*
X257852631Y19852383D01*
X257866120Y19784570D01*
X257866120Y19772433D01*
X257868522Y19748047D01*
X257875635Y19724598D01*
X257887186Y19702987D01*
X257902731Y19684045D01*
X257921673Y19668500D01*
X257943284Y19656949D01*
X257966733Y19649836D01*
X257991119Y19647434D01*
X258015505Y19649836D01*
X258038954Y19656949D01*
X258066841Y19668500D01*
X258112737Y19687511D01*
X258180550Y19701000D01*
X258249690Y19701000D01*
X258317503Y19687511D01*
X258317506Y19687510D01*
X258317505Y19687510D01*
X258381378Y19661054D01*
X258438868Y19622640D01*
X258487760Y19573748D01*
X258526174Y19516258D01*
X258542285Y19477361D01*
X258552631Y19452383D01*
X258566120Y19384570D01*
X258566120Y19315430D01*
X258552631Y19247617D01*
X258552630Y19247615D01*
X258526174Y19183742D01*
X258487760Y19126252D01*
X258438868Y19077360D01*
X258403807Y19053933D01*
X258384865Y19038387D01*
X258369320Y19019445D01*
X258357769Y18997835D01*
X258350656Y18974386D01*
X258348254Y18950000D01*
X258350656Y18925614D01*
X258357769Y18902165D01*
X258369320Y18880554D01*
X258384866Y18861612D01*
X258403807Y18846067D01*
X258438868Y18822640D01*
X258487760Y18773748D01*
X258526174Y18716258D01*
X258547744Y18664182D01*
X258552631Y18652383D01*
X258566120Y18584570D01*
X258566120Y18515430D01*
X258552631Y18447617D01*
X258552630Y18447615D01*
X258526174Y18383742D01*
X258487760Y18326252D01*
X258438868Y18277360D01*
X258403807Y18253933D01*
X258384865Y18238387D01*
X258369320Y18219445D01*
X258357769Y18197835D01*
X258350656Y18174386D01*
X258348254Y18150000D01*
X258350656Y18125614D01*
X258357769Y18102165D01*
X258369320Y18080554D01*
X258384866Y18061612D01*
X258403807Y18046067D01*
X258438868Y18022640D01*
X258487760Y17973748D01*
X258526174Y17916258D01*
X258542285Y17877361D01*
X258552631Y17852383D01*
X258566120Y17784570D01*
X258566120Y17715430D01*
X258552631Y17647617D01*
X258552630Y17647615D01*
X258526174Y17583742D01*
X258487760Y17526252D01*
X258438868Y17477360D01*
X258381378Y17438946D01*
X258329302Y17417376D01*
X258317503Y17412489D01*
X258249690Y17399000D01*
X258180550Y17399000D01*
X258112737Y17412489D01*
X258104372Y17415954D01*
X258048859Y17438948D01*
X258048858Y17438949D01*
X258038954Y17443051D01*
X258015505Y17450164D01*
X257991119Y17452566D01*
X257966733Y17450164D01*
X257943284Y17443051D01*
X257921673Y17431500D01*
X257902731Y17415954D01*
X257887186Y17397013D01*
X257875635Y17375402D01*
X257868522Y17351953D01*
X257866120Y17327567D01*
X257866120Y17315430D01*
X257852631Y17247617D01*
X257852630Y17247615D01*
X257826174Y17183742D01*
X257787760Y17126252D01*
X257738868Y17077360D01*
X257703807Y17053933D01*
X257684865Y17038387D01*
X257669320Y17019445D01*
X257657769Y16997835D01*
X257650656Y16974386D01*
X257648254Y16950000D01*
X257650656Y16925614D01*
X257657769Y16902165D01*
X257669320Y16880554D01*
X257684866Y16861612D01*
X257703807Y16846067D01*
X257738868Y16822640D01*
X257787760Y16773748D01*
X257826174Y16716258D01*
X257847744Y16664182D01*
X257852631Y16652383D01*
X257866120Y16584570D01*
X257866120Y16572433D01*
X257868522Y16548047D01*
X257875635Y16524598D01*
X257887186Y16502987D01*
X257902731Y16484045D01*
X257921673Y16468500D01*
X257943284Y16456949D01*
X257966733Y16449836D01*
X257991119Y16447434D01*
X258015505Y16449836D01*
X258038954Y16456949D01*
X258066841Y16468500D01*
X258112737Y16487511D01*
X258180550Y16501000D01*
X258249690Y16501000D01*
X258317503Y16487511D01*
X258317506Y16487510D01*
X258317505Y16487510D01*
X258381378Y16461054D01*
X258438868Y16422640D01*
X258487760Y16373748D01*
X258526174Y16316258D01*
X258542285Y16277361D01*
X258552631Y16252383D01*
X258566120Y16184570D01*
X258566120Y16115430D01*
X258552631Y16047617D01*
X258552630Y16047615D01*
X258526174Y15983742D01*
X258487760Y15926252D01*
X258438868Y15877360D01*
X258403807Y15853933D01*
X258384865Y15838387D01*
X258369320Y15819445D01*
X258357769Y15797835D01*
X258350656Y15774386D01*
X258348254Y15750000D01*
X258350656Y15725614D01*
X258357769Y15702165D01*
X258369320Y15680554D01*
X258384866Y15661612D01*
X258403807Y15646067D01*
X258438868Y15622640D01*
X258487760Y15573748D01*
X258526174Y15516258D01*
X258541974Y15478111D01*
X258552631Y15452383D01*
X258566120Y15384570D01*
X258566120Y15315430D01*
X258552631Y15247617D01*
X258552630Y15247615D01*
X258526174Y15183742D01*
X258487760Y15126252D01*
X258438868Y15077360D01*
X258403807Y15053933D01*
X258384865Y15038387D01*
X258369320Y15019445D01*
X258357769Y14997835D01*
X258350656Y14974386D01*
X258348254Y14950000D01*
X258350656Y14925614D01*
X258357769Y14902165D01*
X258369320Y14880554D01*
X258384866Y14861612D01*
X258403807Y14846067D01*
X258438868Y14822640D01*
X258487760Y14773748D01*
X258526174Y14716258D01*
X258547744Y14664182D01*
X258552631Y14652383D01*
X258566120Y14584570D01*
X258566120Y14515430D01*
X258552631Y14447617D01*
X258552630Y14447615D01*
X258526174Y14383742D01*
X258487760Y14326252D01*
X258438868Y14277360D01*
X258381378Y14238946D01*
X258329302Y14217376D01*
X258317503Y14212489D01*
X258249690Y14199000D01*
X258180550Y14199000D01*
X258112737Y14212489D01*
X258104372Y14215954D01*
X258048859Y14238948D01*
X258048858Y14238949D01*
X258038954Y14243051D01*
X258015505Y14250164D01*
X257991119Y14252566D01*
X257966733Y14250164D01*
X257943284Y14243051D01*
X257921673Y14231500D01*
X257902731Y14215954D01*
X257887186Y14197013D01*
X257875635Y14175402D01*
X257868522Y14151953D01*
X257866120Y14127567D01*
X257866120Y14115430D01*
X257852631Y14047617D01*
X257847744Y14035818D01*
X257826174Y13983742D01*
X257787760Y13926252D01*
X257738868Y13877360D01*
X257681378Y13838946D01*
X257653444Y13827376D01*
X257617503Y13812489D01*
X257549690Y13799000D01*
X257480550Y13799000D01*
X257412737Y13812489D01*
X257365205Y13832177D01*
X257341757Y13839289D01*
X257317370Y13841691D01*
X257292984Y13839289D01*
X257269536Y13832175D01*
X257247925Y13820624D01*
X257228983Y13805079D01*
X257213438Y13786136D01*
X257201887Y13764526D01*
X257194775Y13741077D01*
X257192373Y13716690D01*
X257194775Y13692304D01*
X257207133Y13657767D01*
X257214179Y13644585D01*
X257235680Y13573706D01*
X257241120Y13518471D01*
X257241120Y13326016D01*
X257243522Y13301630D01*
X257250635Y13278181D01*
X257262186Y13256570D01*
X257277731Y13237628D01*
X257296673Y13222083D01*
X257318284Y13210532D01*
X257341733Y13203419D01*
X257366119Y13201017D01*
X257390505Y13203419D01*
X257413954Y13210532D01*
X257445417Y13229390D01*
X257507521Y13280357D01*
X257559213Y13307987D01*
X257603241Y13331521D01*
X257707105Y13363027D01*
X257788053Y13371000D01*
X258442187Y13371000D01*
X258523135Y13363027D01*
X258626999Y13331521D01*
X258654175Y13316995D01*
X258722720Y13280357D01*
X258806621Y13211501D01*
X258875477Y13127600D01*
X258911075Y13061000D01*
X258926641Y13031879D01*
X258958147Y12928015D01*
X258968786Y12820000D01*
X258958147Y12711985D01*
X258926641Y12608121D01*
X258926639Y12608118D01*
X258875477Y12512400D01*
X258806621Y12428499D01*
X258722720Y12359643D01*
X258654175Y12323005D01*
X258626999Y12308479D01*
X258523135Y12276973D01*
X258442187Y12269000D01*
X257788053Y12269000D01*
X257707105Y12276973D01*
X257603241Y12308479D01*
X257576065Y12323005D01*
X257507520Y12359643D01*
X257423619Y12428499D01*
X257354763Y12512400D01*
X257303601Y12608118D01*
X257303599Y12608121D01*
X257272093Y12711985D01*
X257264304Y12791061D01*
X257259526Y12815086D01*
X257250148Y12837725D01*
X257236535Y12858099D01*
X257219208Y12875426D01*
X257198833Y12889040D01*
X257176195Y12898417D01*
X257152161Y12903198D01*
X257127657Y12903198D01*
X257103624Y12898418D01*
X257080986Y12889041D01*
X257009703Y12850940D01*
X256938829Y12829440D01*
X256865120Y12822181D01*
X256791410Y12829440D01*
X256720535Y12850940D01*
X256655216Y12885854D01*
X256597961Y12932841D01*
X256550975Y12990094D01*
X256516060Y13055417D01*
X256494560Y13126291D01*
X256489120Y13181529D01*
X256489120Y13518472D01*
X256494560Y13573708D01*
X256505311Y13609147D01*
X256516061Y13644585D01*
X256550976Y13709905D01*
X256556544Y13716690D01*
X256597962Y13767159D01*
X256655843Y13814660D01*
X256674873Y13827376D01*
X256692200Y13844703D01*
X256705814Y13865077D01*
X256715191Y13887716D01*
X256719971Y13911750D01*
X256719971Y13936254D01*
X256715190Y13960287D01*
X256705813Y13982926D01*
X256692199Y14003300D01*
X256674872Y14020627D01*
X256654498Y14034241D01*
X256631859Y14043618D01*
X256595574Y14049000D01*
X255804120Y14049000D01*
X255804120Y19951000D01*
X256700286Y19951000D01*
X256724672Y19953402D01*
X256748121Y19960515D01*
X256769732Y19972066D01*
X256788674Y19987611D01*
X256804219Y20006553D01*
X256806120Y20010110D01*
X256806120Y13996923D01*
X256808522Y13972537D01*
X256815635Y13949088D01*
X256827186Y13927477D01*
X256842731Y13908535D01*
X256861673Y13892990D01*
X256883284Y13881439D01*
X256918866Y13872526D01*
X256938830Y13870560D01*
X257009702Y13849061D01*
X257022887Y13842013D01*
X257045525Y13832636D01*
X257069559Y13827855D01*
X257094063Y13827855D01*
X257118096Y13832635D01*
X257140735Y13842012D01*
X257161109Y13855626D01*
X257178437Y13872952D01*
X257192051Y13893327D01*
X257201428Y13915965D01*
X257206209Y13939999D01*
X257206209Y13964503D01*
X257197297Y14000086D01*
X257188789Y14020627D01*
X257177609Y14047617D01*
X257164120Y14115430D01*
X257164120Y14184570D01*
X257177609Y14252383D01*
X257187955Y14277361D01*
X257204066Y14316258D01*
X257242480Y14373748D01*
X257291372Y14422640D01*
X257348862Y14461054D01*
X257412735Y14487510D01*
X257412734Y14487510D01*
X257412737Y14487511D01*
X257480550Y14501000D01*
X257549690Y14501000D01*
X257617503Y14487511D01*
X257663400Y14468500D01*
X257691286Y14456949D01*
X257714735Y14449836D01*
X257739121Y14447434D01*
X257763507Y14449836D01*
X257786956Y14456949D01*
X257808567Y14468500D01*
X257827509Y14484046D01*
X257843054Y14502987D01*
X257854605Y14524598D01*
X257861718Y14548047D01*
X257864120Y14572433D01*
X257864120Y14584570D01*
X257877609Y14652383D01*
X257882496Y14664182D01*
X257904066Y14716258D01*
X257942480Y14773748D01*
X257991372Y14822640D01*
X258026433Y14846067D01*
X258045375Y14861613D01*
X258060920Y14880555D01*
X258072471Y14902165D01*
X258079584Y14925614D01*
X258081986Y14950000D01*
X258079584Y14974386D01*
X258072471Y14997835D01*
X258060920Y15019446D01*
X258045374Y15038388D01*
X258026433Y15053933D01*
X257991372Y15077360D01*
X257942480Y15126252D01*
X257904066Y15183742D01*
X257877610Y15247615D01*
X257877609Y15247617D01*
X257864120Y15315430D01*
X257864120Y15327567D01*
X257861718Y15351953D01*
X257854605Y15375402D01*
X257843054Y15397013D01*
X257827509Y15415955D01*
X257808567Y15431500D01*
X257786956Y15443051D01*
X257763507Y15450164D01*
X257739121Y15452566D01*
X257714735Y15450164D01*
X257691286Y15443051D01*
X257681382Y15438949D01*
X257681381Y15438948D01*
X257625871Y15415955D01*
X257617503Y15412489D01*
X257549690Y15399000D01*
X257480550Y15399000D01*
X257412737Y15412489D01*
X257400938Y15417376D01*
X257348862Y15438946D01*
X257291372Y15477360D01*
X257242480Y15526252D01*
X257204066Y15583742D01*
X257177610Y15647615D01*
X257177609Y15647617D01*
X257164120Y15715430D01*
X257164120Y15784570D01*
X257177609Y15852383D01*
X257187955Y15877361D01*
X257204066Y15916258D01*
X257242480Y15973748D01*
X257291372Y16022640D01*
X257326433Y16046067D01*
X257345375Y16061613D01*
X257360920Y16080555D01*
X257372471Y16102165D01*
X257379584Y16125614D01*
X257381986Y16150000D01*
X257379584Y16174386D01*
X257372471Y16197835D01*
X257360920Y16219446D01*
X257345374Y16238388D01*
X257326433Y16253933D01*
X257291372Y16277360D01*
X257242480Y16326252D01*
X257204066Y16383742D01*
X257177610Y16447615D01*
X257177609Y16447617D01*
X257164120Y16515430D01*
X257164120Y16584570D01*
X257177609Y16652383D01*
X257182496Y16664182D01*
X257204066Y16716258D01*
X257242480Y16773748D01*
X257291372Y16822640D01*
X257326433Y16846067D01*
X257345375Y16861613D01*
X257360920Y16880555D01*
X257372471Y16902165D01*
X257379584Y16925614D01*
X257381986Y16950000D01*
X257379584Y16974386D01*
X257372471Y16997835D01*
X257360920Y17019446D01*
X257345374Y17038388D01*
X257326433Y17053933D01*
X257291372Y17077360D01*
X257242480Y17126252D01*
X257204066Y17183742D01*
X257177610Y17247615D01*
X257177609Y17247617D01*
X257164120Y17315430D01*
X257164120Y17384570D01*
X257177609Y17452383D01*
X257187955Y17477361D01*
X257204066Y17516258D01*
X257242480Y17573748D01*
X257291372Y17622640D01*
X257326433Y17646067D01*
X257345375Y17661613D01*
X257360920Y17680555D01*
X257372471Y17702165D01*
X257379584Y17725614D01*
X257381986Y17750000D01*
X257379584Y17774386D01*
X257372471Y17797835D01*
X257360920Y17819446D01*
X257345374Y17838388D01*
X257326433Y17853933D01*
X257291372Y17877360D01*
X257242480Y17926252D01*
X257204066Y17983742D01*
X257177610Y18047615D01*
X257177609Y18047617D01*
X257164120Y18115430D01*
X257164120Y18184570D01*
X257177609Y18252383D01*
X257196952Y18299082D01*
X257204066Y18316258D01*
X257242480Y18373748D01*
X257291372Y18422640D01*
X257348862Y18461054D01*
X257412735Y18487510D01*
X257412734Y18487510D01*
X257412737Y18487511D01*
X257480550Y18501000D01*
X257549690Y18501000D01*
X257617503Y18487511D01*
X257674245Y18464008D01*
X257691286Y18456949D01*
X257714735Y18449836D01*
X257739121Y18447434D01*
X257763507Y18449836D01*
X257786956Y18456949D01*
X257808567Y18468500D01*
X257827509Y18484046D01*
X257843054Y18502987D01*
X257854605Y18524598D01*
X257861718Y18548047D01*
X257864120Y18572433D01*
X257864120Y18584570D01*
X257877609Y18652383D01*
X257882496Y18664182D01*
X257904066Y18716258D01*
X257942480Y18773748D01*
X257991372Y18822640D01*
X258026433Y18846067D01*
X258045375Y18861613D01*
X258060920Y18880555D01*
X258072471Y18902165D01*
X258079584Y18925614D01*
X258081986Y18950000D01*
X258079584Y18974386D01*
X258072471Y18997835D01*
X258060920Y19019446D01*
X258045374Y19038388D01*
X258026433Y19053933D01*
X257991372Y19077360D01*
X257942480Y19126252D01*
X257904066Y19183742D01*
X257877610Y19247615D01*
X257877609Y19247617D01*
X257864120Y19315430D01*
X257864120Y19327567D01*
X257861718Y19351953D01*
X257854605Y19375402D01*
X257843054Y19397013D01*
X257827509Y19415955D01*
X257808567Y19431500D01*
X257786956Y19443051D01*
X257763507Y19450164D01*
X257739121Y19452566D01*
X257714735Y19450164D01*
X257691286Y19443051D01*
X257681382Y19438949D01*
X257681381Y19438948D01*
X257617503Y19412489D01*
X257549690Y19399000D01*
X257480550Y19399000D01*
X257412737Y19412489D01*
X257400938Y19417376D01*
X257348862Y19438946D01*
X257291372Y19477360D01*
X257242480Y19526252D01*
X257204066Y19583742D01*
X257177610Y19647615D01*
X257177609Y19647617D01*
X257164120Y19715430D01*
X257164120Y19784570D01*
X257177609Y19852383D01*
X257187184Y19875500D01*
X257204066Y19916258D01*
X257242480Y19973748D01*
X257291372Y20022640D01*
X257348862Y20061054D01*
X257412735Y20087510D01*
X257412734Y20087510D01*
X257412737Y20087511D01*
X257480550Y20101000D01*
X257549690Y20101000D01*
X257617503Y20087511D01*
X257617503Y20087511D01*
G37*
G36*
X253342140Y13703300D02*
G01*
X252539500Y13703300D01*
X252539500Y14805660D01*
X253342140Y14805660D01*
X253342140Y13703300D01*
X253342140Y13703300D01*
G37*
G36*
X251843540Y13703300D02*
G01*
X251040900Y13703300D01*
X251040900Y14805660D01*
X251843540Y14805660D01*
X251843540Y13703300D01*
X251843540Y13703300D01*
G37*
G36*
X25686695Y19126252D02*
G01*
X25932306Y19077397D01*
X26266236Y18939078D01*
X26566765Y18738271D01*
X26822345Y18482691D01*
X27023152Y18182162D01*
X27161471Y17848232D01*
X27231985Y17493733D01*
X27231985Y17132289D01*
X27161471Y16777790D01*
X27066308Y16548047D01*
X27024633Y16447434D01*
X27023152Y16443860D01*
X26822345Y16143331D01*
X26566765Y15887751D01*
X26266236Y15686944D01*
X26266235Y15686943D01*
X26266234Y15686943D01*
X26208942Y15663212D01*
X25932306Y15548625D01*
X25695973Y15501616D01*
X25577808Y15478111D01*
X25216362Y15478111D01*
X25098197Y15501616D01*
X24861864Y15548625D01*
X24585228Y15663212D01*
X24527936Y15686943D01*
X24527935Y15686943D01*
X24527934Y15686944D01*
X24227405Y15887751D01*
X23971825Y16143331D01*
X23771018Y16443860D01*
X23769538Y16447434D01*
X23727862Y16548047D01*
X23632699Y16777790D01*
X23562185Y17132289D01*
X23562185Y17493733D01*
X23632699Y17848232D01*
X23771018Y18182162D01*
X23971825Y18482691D01*
X24227405Y18738271D01*
X24527934Y18939078D01*
X24861864Y19077397D01*
X25107475Y19126252D01*
X25216362Y19147911D01*
X25577808Y19147911D01*
X25686695Y19126252D01*
X25686695Y19126252D01*
G37*
G36*
X156357682Y18299082D02*
G01*
X156599303Y18199000D01*
X156603549Y18197241D01*
X156710746Y18125614D01*
X156824821Y18049391D01*
X157013001Y17861211D01*
X157064211Y17784570D01*
X157155721Y17647617D01*
X157160852Y17639937D01*
X157262692Y17394072D01*
X157314610Y17133063D01*
X157314610Y16866937D01*
X157262692Y16605928D01*
X157193076Y16437858D01*
X157160851Y16360061D01*
X157089938Y16253933D01*
X157013001Y16138789D01*
X156824821Y15950609D01*
X156773411Y15916258D01*
X156603549Y15802759D01*
X156603548Y15802758D01*
X156603547Y15802758D01*
X156357682Y15700918D01*
X156096673Y15649000D01*
X155830547Y15649000D01*
X155569538Y15700918D01*
X155323673Y15802758D01*
X155323672Y15802758D01*
X155323671Y15802759D01*
X155153809Y15916258D01*
X155102399Y15950609D01*
X154914219Y16138789D01*
X154837282Y16253933D01*
X154766369Y16360061D01*
X154734145Y16437858D01*
X154664528Y16605928D01*
X154612610Y16866937D01*
X154612610Y17133063D01*
X154664528Y17394072D01*
X154766368Y17639937D01*
X154771500Y17647617D01*
X154863009Y17784570D01*
X154914219Y17861211D01*
X155102399Y18049391D01*
X155216474Y18125614D01*
X155323671Y18197241D01*
X155327918Y18199000D01*
X155569538Y18299082D01*
X155830547Y18351000D01*
X156096673Y18351000D01*
X156357682Y18299082D01*
X156357682Y18299082D01*
G37*
G36*
X253342140Y15760700D02*
G01*
X252539500Y15760700D01*
X252539500Y16863060D01*
X253342140Y16863060D01*
X253342140Y15760700D01*
X253342140Y15760700D01*
G37*
G36*
X251843540Y15760700D02*
G01*
X251040900Y15760700D01*
X251040900Y16863060D01*
X251843540Y16863060D01*
X251843540Y15760700D01*
X251843540Y15760700D01*
G37*
G36*
X44382101Y17951000D02*
G01*
X44519550Y17923660D01*
X44665889Y17863044D01*
X44797590Y17775044D01*
X44909593Y17663041D01*
X44997593Y17531340D01*
X45058209Y17385001D01*
X45069633Y17327567D01*
X45085537Y17247615D01*
X45089110Y17229649D01*
X45089110Y17071253D01*
X45058209Y16915901D01*
X44997593Y16769562D01*
X44909593Y16637861D01*
X44797590Y16525858D01*
X44665889Y16437858D01*
X44519550Y16377242D01*
X44441874Y16361792D01*
X44364199Y16346341D01*
X44205801Y16346341D01*
X44128126Y16361792D01*
X44050450Y16377242D01*
X43904111Y16437858D01*
X43772410Y16525858D01*
X43660407Y16637861D01*
X43572407Y16769562D01*
X43511791Y16915901D01*
X43480890Y17071253D01*
X43480890Y17229649D01*
X43484464Y17247615D01*
X43500367Y17327567D01*
X43511791Y17385001D01*
X43572407Y17531340D01*
X43660407Y17663041D01*
X43772410Y17775044D01*
X43904111Y17863044D01*
X44050450Y17923660D01*
X44187899Y17951000D01*
X44205801Y17954561D01*
X44364199Y17954561D01*
X44382101Y17951000D01*
X44382101Y17951000D01*
G37*
G36*
X49462101Y17951000D02*
G01*
X49599550Y17923660D01*
X49745889Y17863044D01*
X49877590Y17775044D01*
X49989593Y17663041D01*
X50077593Y17531340D01*
X50138209Y17385001D01*
X50149633Y17327567D01*
X50165537Y17247615D01*
X50169110Y17229649D01*
X50169110Y17071253D01*
X50138209Y16915901D01*
X50077593Y16769562D01*
X49989593Y16637861D01*
X49877590Y16525858D01*
X49745889Y16437858D01*
X49599550Y16377242D01*
X49521874Y16361792D01*
X49444199Y16346341D01*
X49285801Y16346341D01*
X49208126Y16361792D01*
X49130450Y16377242D01*
X48984111Y16437858D01*
X48852410Y16525858D01*
X48740407Y16637861D01*
X48652407Y16769562D01*
X48591791Y16915901D01*
X48560890Y17071253D01*
X48560890Y17229649D01*
X48564464Y17247615D01*
X48580367Y17327567D01*
X48591791Y17385001D01*
X48652407Y17531340D01*
X48740407Y17663041D01*
X48852410Y17775044D01*
X48984111Y17863044D01*
X49130450Y17923660D01*
X49267899Y17951000D01*
X49285801Y17954561D01*
X49444199Y17954561D01*
X49462101Y17951000D01*
X49462101Y17951000D01*
G37*
G36*
X52002101Y17951000D02*
G01*
X52139550Y17923660D01*
X52285889Y17863044D01*
X52417590Y17775044D01*
X52529593Y17663041D01*
X52617593Y17531340D01*
X52678209Y17385001D01*
X52689633Y17327567D01*
X52705537Y17247615D01*
X52709110Y17229649D01*
X52709110Y17071253D01*
X52678209Y16915901D01*
X52617593Y16769562D01*
X52529593Y16637861D01*
X52417590Y16525858D01*
X52285889Y16437858D01*
X52139550Y16377242D01*
X52061874Y16361792D01*
X51984199Y16346341D01*
X51825801Y16346341D01*
X51748126Y16361792D01*
X51670450Y16377242D01*
X51524111Y16437858D01*
X51392410Y16525858D01*
X51280407Y16637861D01*
X51192407Y16769562D01*
X51131791Y16915901D01*
X51100890Y17071253D01*
X51100890Y17229649D01*
X51104464Y17247615D01*
X51120367Y17327567D01*
X51131791Y17385001D01*
X51192407Y17531340D01*
X51280407Y17663041D01*
X51392410Y17775044D01*
X51524111Y17863044D01*
X51670450Y17923660D01*
X51807899Y17951000D01*
X51825801Y17954561D01*
X51984199Y17954561D01*
X52002101Y17951000D01*
X52002101Y17951000D01*
G37*
G36*
X54542101Y17951000D02*
G01*
X54679550Y17923660D01*
X54825889Y17863044D01*
X54957590Y17775044D01*
X55069593Y17663041D01*
X55157593Y17531340D01*
X55218209Y17385001D01*
X55229633Y17327567D01*
X55245537Y17247615D01*
X55249110Y17229649D01*
X55249110Y17071253D01*
X55218209Y16915901D01*
X55157593Y16769562D01*
X55069593Y16637861D01*
X54957590Y16525858D01*
X54825889Y16437858D01*
X54679550Y16377242D01*
X54601874Y16361792D01*
X54524199Y16346341D01*
X54365801Y16346341D01*
X54288126Y16361792D01*
X54210450Y16377242D01*
X54064111Y16437858D01*
X53932410Y16525858D01*
X53820407Y16637861D01*
X53732407Y16769562D01*
X53671791Y16915901D01*
X53640890Y17071253D01*
X53640890Y17229649D01*
X53644464Y17247615D01*
X53660367Y17327567D01*
X53671791Y17385001D01*
X53732407Y17531340D01*
X53820407Y17663041D01*
X53932410Y17775044D01*
X54064111Y17863044D01*
X54210450Y17923660D01*
X54347899Y17951000D01*
X54365801Y17954561D01*
X54524199Y17954561D01*
X54542101Y17951000D01*
X54542101Y17951000D01*
G37*
G36*
X57082101Y17951000D02*
G01*
X57219550Y17923660D01*
X57365889Y17863044D01*
X57497590Y17775044D01*
X57609593Y17663041D01*
X57697593Y17531340D01*
X57758209Y17385001D01*
X57769633Y17327567D01*
X57785537Y17247615D01*
X57789110Y17229649D01*
X57789110Y17071253D01*
X57758209Y16915901D01*
X57697593Y16769562D01*
X57609593Y16637861D01*
X57497590Y16525858D01*
X57365889Y16437858D01*
X57219550Y16377242D01*
X57141874Y16361792D01*
X57064199Y16346341D01*
X56905801Y16346341D01*
X56828126Y16361792D01*
X56750450Y16377242D01*
X56604111Y16437858D01*
X56472410Y16525858D01*
X56360407Y16637861D01*
X56272407Y16769562D01*
X56211791Y16915901D01*
X56180890Y17071253D01*
X56180890Y17229649D01*
X56184464Y17247615D01*
X56200367Y17327567D01*
X56211791Y17385001D01*
X56272407Y17531340D01*
X56360407Y17663041D01*
X56472410Y17775044D01*
X56604111Y17863044D01*
X56750450Y17923660D01*
X56887899Y17951000D01*
X56905801Y17954561D01*
X57064199Y17954561D01*
X57082101Y17951000D01*
X57082101Y17951000D01*
G37*
G36*
X46922101Y17951000D02*
G01*
X47059550Y17923660D01*
X47205889Y17863044D01*
X47337590Y17775044D01*
X47449593Y17663041D01*
X47537593Y17531340D01*
X47598209Y17385001D01*
X47609633Y17327567D01*
X47625537Y17247615D01*
X47629110Y17229649D01*
X47629110Y17071253D01*
X47598209Y16915901D01*
X47537593Y16769562D01*
X47449593Y16637861D01*
X47337590Y16525858D01*
X47205889Y16437858D01*
X47059550Y16377242D01*
X46981874Y16361792D01*
X46904199Y16346341D01*
X46745801Y16346341D01*
X46668126Y16361792D01*
X46590450Y16377242D01*
X46444111Y16437858D01*
X46312410Y16525858D01*
X46200407Y16637861D01*
X46112407Y16769562D01*
X46051791Y16915901D01*
X46020890Y17071253D01*
X46020890Y17229649D01*
X46024464Y17247615D01*
X46040367Y17327567D01*
X46051791Y17385001D01*
X46112407Y17531340D01*
X46200407Y17663041D01*
X46312410Y17775044D01*
X46444111Y17863044D01*
X46590450Y17923660D01*
X46727899Y17951000D01*
X46745801Y17954561D01*
X46904199Y17954561D01*
X46922101Y17951000D01*
X46922101Y17951000D01*
G37*
G36*
X62162101Y17951000D02*
G01*
X62299550Y17923660D01*
X62445889Y17863044D01*
X62577590Y17775044D01*
X62689593Y17663041D01*
X62777593Y17531340D01*
X62838209Y17385001D01*
X62849633Y17327567D01*
X62865537Y17247615D01*
X62869110Y17229649D01*
X62869110Y17071253D01*
X62838209Y16915901D01*
X62777593Y16769562D01*
X62689593Y16637861D01*
X62577590Y16525858D01*
X62445889Y16437858D01*
X62299550Y16377242D01*
X62221874Y16361792D01*
X62144199Y16346341D01*
X61985801Y16346341D01*
X61908126Y16361792D01*
X61830450Y16377242D01*
X61684111Y16437858D01*
X61552410Y16525858D01*
X61440407Y16637861D01*
X61352407Y16769562D01*
X61291791Y16915901D01*
X61260890Y17071253D01*
X61260890Y17229649D01*
X61264464Y17247615D01*
X61280367Y17327567D01*
X61291791Y17385001D01*
X61352407Y17531340D01*
X61440407Y17663041D01*
X61552410Y17775044D01*
X61684111Y17863044D01*
X61830450Y17923660D01*
X61967899Y17951000D01*
X61985801Y17954561D01*
X62144199Y17954561D01*
X62162101Y17951000D01*
X62162101Y17951000D01*
G37*
G36*
X59622101Y17951000D02*
G01*
X59759550Y17923660D01*
X59905889Y17863044D01*
X60037590Y17775044D01*
X60149593Y17663041D01*
X60237593Y17531340D01*
X60298209Y17385001D01*
X60309633Y17327567D01*
X60325537Y17247615D01*
X60329110Y17229649D01*
X60329110Y17071253D01*
X60298209Y16915901D01*
X60237593Y16769562D01*
X60149593Y16637861D01*
X60037590Y16525858D01*
X59905889Y16437858D01*
X59759550Y16377242D01*
X59681874Y16361792D01*
X59604199Y16346341D01*
X59445801Y16346341D01*
X59368126Y16361792D01*
X59290450Y16377242D01*
X59144111Y16437858D01*
X59012410Y16525858D01*
X58900407Y16637861D01*
X58812407Y16769562D01*
X58751791Y16915901D01*
X58720890Y17071253D01*
X58720890Y17229649D01*
X58724464Y17247615D01*
X58740367Y17327567D01*
X58751791Y17385001D01*
X58812407Y17531340D01*
X58900407Y17663041D01*
X59012410Y17775044D01*
X59144111Y17863044D01*
X59290450Y17923660D01*
X59427899Y17951000D01*
X59445801Y17954561D01*
X59604199Y17954561D01*
X59622101Y17951000D01*
X59622101Y17951000D01*
G37*
G36*
X187048415Y20728103D02*
G01*
X187239590Y20690076D01*
X187521854Y20573159D01*
X187775885Y20403421D01*
X187991921Y20187385D01*
X188161659Y19933354D01*
X188276149Y19656949D01*
X188278576Y19651089D01*
X188338180Y19351441D01*
X188338180Y19045919D01*
X188309585Y18902165D01*
X188278576Y18746270D01*
X188161659Y18464006D01*
X187991921Y18209975D01*
X187775885Y17993939D01*
X187521854Y17824201D01*
X187239590Y17707284D01*
X187140184Y17687511D01*
X186939941Y17647680D01*
X186634419Y17647680D01*
X186434176Y17687511D01*
X186334770Y17707284D01*
X186052506Y17824201D01*
X185798475Y17993939D01*
X185582439Y18209975D01*
X185412701Y18464006D01*
X185295784Y18746270D01*
X185264775Y18902165D01*
X185236180Y19045919D01*
X185236180Y19351441D01*
X185295784Y19651089D01*
X185298211Y19656949D01*
X185412701Y19933354D01*
X185582439Y20187385D01*
X185798475Y20403421D01*
X186052506Y20573159D01*
X186334770Y20690076D01*
X186525945Y20728103D01*
X186634419Y20749680D01*
X186939941Y20749680D01*
X187048415Y20728103D01*
X187048415Y20728103D01*
G37*
G36*
X172164035Y20728103D02*
G01*
X172355210Y20690076D01*
X172637474Y20573159D01*
X172891505Y20403421D01*
X173107541Y20187385D01*
X173277279Y19933354D01*
X173391769Y19656949D01*
X173394196Y19651089D01*
X173453800Y19351441D01*
X173453800Y19045919D01*
X173425205Y18902165D01*
X173394196Y18746270D01*
X173277279Y18464006D01*
X173107541Y18209975D01*
X172891505Y17993939D01*
X172637474Y17824201D01*
X172355210Y17707284D01*
X172255804Y17687511D01*
X172055561Y17647680D01*
X171750039Y17647680D01*
X171549796Y17687511D01*
X171450390Y17707284D01*
X171168126Y17824201D01*
X170914095Y17993939D01*
X170698059Y18209975D01*
X170528321Y18464006D01*
X170411404Y18746270D01*
X170380395Y18902165D01*
X170351800Y19045919D01*
X170351800Y19351441D01*
X170411404Y19651089D01*
X170413831Y19656949D01*
X170528321Y19933354D01*
X170698059Y20187385D01*
X170914095Y20403421D01*
X171168126Y20573159D01*
X171450390Y20690076D01*
X171641565Y20728103D01*
X171750039Y20749680D01*
X172055561Y20749680D01*
X172164035Y20728103D01*
X172164035Y20728103D01*
G37*
G36*
X253342140Y17818100D02*
G01*
X252539500Y17818100D01*
X252539500Y18920460D01*
X253342140Y18920460D01*
X253342140Y17818100D01*
X253342140Y17818100D01*
G37*
G36*
X251843540Y17818100D02*
G01*
X251040900Y17818100D01*
X251040900Y18920460D01*
X251843540Y18920460D01*
X251843540Y17818100D01*
X251843540Y17818100D01*
G37*
G36*
X35650040Y22649000D02*
G01*
X35640448Y22649000D01*
X35616062Y22646598D01*
X35592613Y22639485D01*
X35571002Y22627934D01*
X35552060Y22612389D01*
X35536515Y22593447D01*
X35524964Y22571836D01*
X35517851Y22548387D01*
X35515449Y22524001D01*
X35517851Y22499615D01*
X35524964Y22476166D01*
X35536515Y22454556D01*
X35546281Y22439941D01*
X35648122Y22194072D01*
X35700040Y21933063D01*
X35700040Y21666937D01*
X35648122Y21405928D01*
X35546281Y21160059D01*
X35536515Y21145444D01*
X35524964Y21123833D01*
X35517851Y21100384D01*
X35515449Y21075998D01*
X35517851Y21051612D01*
X35524964Y21028163D01*
X35536516Y21006553D01*
X35552061Y20987611D01*
X35571003Y20972066D01*
X35592614Y20960515D01*
X35616063Y20953402D01*
X35640448Y20951000D01*
X35650040Y20951000D01*
X35650040Y18649000D01*
X33048040Y18649000D01*
X33048040Y20951000D01*
X33057632Y20951000D01*
X33082018Y20953402D01*
X33105467Y20960515D01*
X33127078Y20972066D01*
X33146020Y20987611D01*
X33161565Y21006553D01*
X33173116Y21028164D01*
X33180229Y21051613D01*
X33182631Y21075999D01*
X33180229Y21100385D01*
X33173116Y21123834D01*
X33161565Y21145444D01*
X33151799Y21160059D01*
X33049958Y21405928D01*
X32998040Y21666937D01*
X32998040Y21933063D01*
X33049958Y22194072D01*
X33151799Y22439941D01*
X33161565Y22454556D01*
X33173116Y22476167D01*
X33180229Y22499616D01*
X33182631Y22524002D01*
X33180229Y22548388D01*
X33173116Y22571837D01*
X33161564Y22593447D01*
X33146019Y22612389D01*
X33127077Y22627934D01*
X33105466Y22639485D01*
X33082017Y22646598D01*
X33057632Y22649000D01*
X33048040Y22649000D01*
X33048040Y24951000D01*
X35650040Y24951000D01*
X35650040Y22649000D01*
X35650040Y22649000D01*
G37*
G36*
X253342140Y19875500D02*
G01*
X252539500Y19875500D01*
X252539500Y20977860D01*
X253342140Y20977860D01*
X253342140Y19875500D01*
X253342140Y19875500D01*
G37*
G36*
X251843540Y19875500D02*
G01*
X251040900Y19875500D01*
X251040900Y20977860D01*
X251843540Y20977860D01*
X251843540Y19875500D01*
X251843540Y19875500D01*
G37*
G36*
X258523135Y21623027D02*
G01*
X258626999Y21591521D01*
X258637479Y21585919D01*
X258722720Y21540357D01*
X258806621Y21471501D01*
X258875477Y21387600D01*
X258912115Y21319055D01*
X258926641Y21291879D01*
X258958147Y21188015D01*
X258968786Y21080000D01*
X258958147Y20971985D01*
X258926641Y20868121D01*
X258916170Y20848532D01*
X258875477Y20772400D01*
X258806621Y20688499D01*
X258722720Y20619643D01*
X258654175Y20583005D01*
X258626999Y20568479D01*
X258523135Y20536973D01*
X258442187Y20529000D01*
X257788053Y20529000D01*
X257707105Y20536973D01*
X257603241Y20568479D01*
X257539109Y20602759D01*
X257507521Y20619643D01*
X257445417Y20670610D01*
X257425043Y20684223D01*
X257402404Y20693601D01*
X257378371Y20698381D01*
X257353867Y20698381D01*
X257329834Y20693601D01*
X257307195Y20684223D01*
X257286820Y20670609D01*
X257269493Y20653282D01*
X257255880Y20632908D01*
X257246502Y20610269D01*
X257241120Y20573984D01*
X257241120Y20512967D01*
X257226670Y20440325D01*
X257198327Y20371897D01*
X257157178Y20310314D01*
X257104806Y20257942D01*
X257043223Y20216793D01*
X256974795Y20188450D01*
X256974794Y20188450D01*
X256974792Y20188449D01*
X256906733Y20174911D01*
X256883284Y20167798D01*
X256861674Y20156247D01*
X256842732Y20140702D01*
X256827186Y20121760D01*
X256820305Y20108885D01*
X256815770Y20123834D01*
X256804219Y20145445D01*
X256788674Y20164387D01*
X256769732Y20179932D01*
X256748122Y20191483D01*
X256737951Y20195696D01*
X256687017Y20216793D01*
X256625434Y20257942D01*
X256573062Y20310314D01*
X256531913Y20371897D01*
X256503570Y20440325D01*
X256489120Y20512967D01*
X256489120Y20587033D01*
X256503570Y20659675D01*
X256531913Y20728103D01*
X256573062Y20789686D01*
X256625434Y20842058D01*
X256687017Y20883207D01*
X256755445Y20911550D01*
X256755446Y20911550D01*
X256755448Y20911551D01*
X256828086Y20926000D01*
X256902154Y20926000D01*
X256974792Y20911551D01*
X256974794Y20911550D01*
X256974795Y20911550D01*
X257043223Y20883207D01*
X257077835Y20860080D01*
X257099438Y20848532D01*
X257122887Y20841419D01*
X257147273Y20839017D01*
X257171659Y20841419D01*
X257195108Y20848532D01*
X257216719Y20860083D01*
X257235661Y20875628D01*
X257251206Y20894569D01*
X257262758Y20916180D01*
X257269871Y20939629D01*
X257272273Y20964015D01*
X257271671Y20976268D01*
X257266414Y21029644D01*
X257261454Y21080000D01*
X257272093Y21188015D01*
X257303599Y21291879D01*
X257318125Y21319055D01*
X257354763Y21387600D01*
X257423619Y21471501D01*
X257507520Y21540357D01*
X257592761Y21585919D01*
X257603241Y21591521D01*
X257707105Y21623027D01*
X257788053Y21631000D01*
X258442187Y21631000D01*
X258523135Y21623027D01*
X258523135Y21623027D01*
G37*
G36*
X164585385Y23259878D02*
G01*
X164735210Y23230076D01*
X165017474Y23113159D01*
X165271505Y22943421D01*
X165487541Y22727385D01*
X165657279Y22473354D01*
X165774196Y22191090D01*
X165833800Y21891440D01*
X165833800Y21585920D01*
X165774196Y21286270D01*
X165657279Y21004006D01*
X165487541Y20749975D01*
X165271505Y20533939D01*
X165017474Y20364201D01*
X164735210Y20247284D01*
X164585385Y20217482D01*
X164435561Y20187680D01*
X164130039Y20187680D01*
X163980215Y20217482D01*
X163830390Y20247284D01*
X163548126Y20364201D01*
X163294095Y20533939D01*
X163078059Y20749975D01*
X162908321Y21004006D01*
X162791404Y21286270D01*
X162731800Y21585920D01*
X162731800Y21891440D01*
X162791404Y22191090D01*
X162908321Y22473354D01*
X163078059Y22727385D01*
X163294095Y22943421D01*
X163548126Y23113159D01*
X163830390Y23230076D01*
X163980215Y23259878D01*
X164130039Y23289680D01*
X164435561Y23289680D01*
X164585385Y23259878D01*
X164585385Y23259878D01*
G37*
G36*
X194709765Y23259878D02*
G01*
X194859590Y23230076D01*
X195141854Y23113159D01*
X195395885Y22943421D01*
X195611921Y22727385D01*
X195781659Y22473354D01*
X195898576Y22191090D01*
X195958180Y21891440D01*
X195958180Y21585920D01*
X195898576Y21286270D01*
X195781659Y21004006D01*
X195611921Y20749975D01*
X195395885Y20533939D01*
X195141854Y20364201D01*
X194859590Y20247284D01*
X194709765Y20217482D01*
X194559941Y20187680D01*
X194254419Y20187680D01*
X194104595Y20217482D01*
X193954770Y20247284D01*
X193672506Y20364201D01*
X193418475Y20533939D01*
X193202439Y20749975D01*
X193032701Y21004006D01*
X192915784Y21286270D01*
X192856180Y21585920D01*
X192856180Y21891440D01*
X192915784Y22191090D01*
X193032701Y22473354D01*
X193202439Y22727385D01*
X193418475Y22943421D01*
X193672506Y23113159D01*
X193954770Y23230076D01*
X194104595Y23259878D01*
X194254419Y23289680D01*
X194559941Y23289680D01*
X194709765Y23259878D01*
X194709765Y23259878D01*
G37*
G36*
X262973135Y22033027D02*
G01*
X263076999Y22001521D01*
X263104175Y21986995D01*
X263172720Y21950357D01*
X263256621Y21881501D01*
X263325477Y21797600D01*
X263362115Y21729055D01*
X263376641Y21701879D01*
X263408147Y21598015D01*
X263418786Y21490000D01*
X263408147Y21381985D01*
X263376641Y21278121D01*
X263376639Y21278118D01*
X263325477Y21182400D01*
X263256621Y21098499D01*
X263172720Y21029643D01*
X263124756Y21004006D01*
X263076999Y20978479D01*
X262973135Y20946973D01*
X262892187Y20939000D01*
X262238053Y20939000D01*
X262157105Y20946973D01*
X262053241Y20978479D01*
X262005484Y21004006D01*
X261957520Y21029643D01*
X261873619Y21098499D01*
X261804763Y21182400D01*
X261753601Y21278118D01*
X261753599Y21278121D01*
X261722093Y21381985D01*
X261711454Y21490000D01*
X261722093Y21598015D01*
X261753599Y21701879D01*
X261768125Y21729055D01*
X261804763Y21797600D01*
X261873619Y21881501D01*
X261957520Y21950357D01*
X262026065Y21986995D01*
X262053241Y22001521D01*
X262157105Y22033027D01*
X262238053Y22041000D01*
X262892187Y22041000D01*
X262973135Y22033027D01*
X262973135Y22033027D01*
G37*
G36*
X205044251Y26342518D02*
G01*
X205238609Y26262012D01*
X205513473Y26148160D01*
X205935760Y25865996D01*
X206294886Y25506870D01*
X206577050Y25084583D01*
X206668467Y24863882D01*
X206771408Y24615361D01*
X206870490Y24117242D01*
X206870490Y23609358D01*
X206771408Y23111239D01*
X206724188Y22997241D01*
X206577050Y22642017D01*
X206294886Y22219730D01*
X205935760Y21860604D01*
X205513473Y21578440D01*
X205299959Y21490000D01*
X205044251Y21384082D01*
X204546132Y21285000D01*
X204038248Y21285000D01*
X203540129Y21384082D01*
X203284421Y21490000D01*
X203070907Y21578440D01*
X202648620Y21860604D01*
X202289494Y22219730D01*
X202007330Y22642017D01*
X201860192Y22997241D01*
X201812972Y23111239D01*
X201713890Y23609358D01*
X201713890Y24117242D01*
X201812972Y24615361D01*
X201915913Y24863882D01*
X202007330Y25084583D01*
X202289494Y25506870D01*
X202648620Y25865996D01*
X203070907Y26148160D01*
X203345771Y26262012D01*
X203540129Y26342518D01*
X204038248Y26441600D01*
X204546132Y26441600D01*
X205044251Y26342518D01*
X205044251Y26342518D01*
G37*
G36*
X187089765Y25799878D02*
G01*
X187239590Y25770076D01*
X187521854Y25653159D01*
X187775885Y25483421D01*
X187991921Y25267385D01*
X188161659Y25013354D01*
X188278576Y24731090D01*
X188278576Y24731089D01*
X188338180Y24431441D01*
X188338180Y24125919D01*
X188330878Y24089212D01*
X188278576Y23826270D01*
X188161659Y23544006D01*
X187991921Y23289975D01*
X187775885Y23073939D01*
X187521854Y22904201D01*
X187239590Y22787284D01*
X187089765Y22757482D01*
X186939941Y22727680D01*
X186634419Y22727680D01*
X186484595Y22757482D01*
X186334770Y22787284D01*
X186052506Y22904201D01*
X185798475Y23073939D01*
X185582439Y23289975D01*
X185412701Y23544006D01*
X185295784Y23826270D01*
X185243482Y24089212D01*
X185236180Y24125919D01*
X185236180Y24431441D01*
X185295784Y24731089D01*
X185295784Y24731090D01*
X185412701Y25013354D01*
X185582439Y25267385D01*
X185798475Y25483421D01*
X186052506Y25653159D01*
X186334770Y25770076D01*
X186484595Y25799878D01*
X186634419Y25829680D01*
X186939941Y25829680D01*
X187089765Y25799878D01*
X187089765Y25799878D01*
G37*
G36*
X172205385Y25799878D02*
G01*
X172355210Y25770076D01*
X172637474Y25653159D01*
X172891505Y25483421D01*
X173107541Y25267385D01*
X173277279Y25013354D01*
X173394196Y24731090D01*
X173394196Y24731089D01*
X173453800Y24431441D01*
X173453800Y24125919D01*
X173446498Y24089212D01*
X173394196Y23826270D01*
X173277279Y23544006D01*
X173107541Y23289975D01*
X172891505Y23073939D01*
X172637474Y22904201D01*
X172355210Y22787284D01*
X172205385Y22757482D01*
X172055561Y22727680D01*
X171750039Y22727680D01*
X171600215Y22757482D01*
X171450390Y22787284D01*
X171168126Y22904201D01*
X170914095Y23073939D01*
X170698059Y23289975D01*
X170528321Y23544006D01*
X170411404Y23826270D01*
X170359102Y24089212D01*
X170351800Y24125919D01*
X170351800Y24431441D01*
X170411404Y24731089D01*
X170411404Y24731090D01*
X170528321Y25013354D01*
X170698059Y25267385D01*
X170914095Y25483421D01*
X171168126Y25653159D01*
X171450390Y25770076D01*
X171600215Y25799878D01*
X171750039Y25829680D01*
X172055561Y25829680D01*
X172205385Y25799878D01*
X172205385Y25799878D01*
G37*
G36*
X254107714Y26410918D02*
G01*
X254235322Y26385535D01*
X254339176Y26342517D01*
X254475727Y26285956D01*
X254475728Y26285955D01*
X254692089Y26141388D01*
X254876088Y25957389D01*
X254961420Y25829680D01*
X255020656Y25741027D01*
X255037844Y25699530D01*
X255120235Y25500622D01*
X255123740Y25483000D01*
X255166629Y25267385D01*
X255171000Y25245407D01*
X255171000Y24985193D01*
X255120235Y24729978D01*
X255072759Y24615362D01*
X255020656Y24489573D01*
X255020655Y24489572D01*
X254876088Y24273211D01*
X254692089Y24089212D01*
X254547521Y23992615D01*
X254475727Y23944644D01*
X254376148Y23903397D01*
X254235322Y23845065D01*
X254140837Y23826271D01*
X253980109Y23794300D01*
X253719891Y23794300D01*
X253559163Y23826271D01*
X253464678Y23845065D01*
X253323852Y23903397D01*
X253224273Y23944644D01*
X253152479Y23992615D01*
X253007911Y24089212D01*
X252823912Y24273211D01*
X252679345Y24489572D01*
X252679344Y24489573D01*
X252627241Y24615362D01*
X252579765Y24729978D01*
X252529000Y24985193D01*
X252529000Y25245407D01*
X252533372Y25267385D01*
X252576260Y25483000D01*
X252579765Y25500622D01*
X252662156Y25699530D01*
X252679344Y25741027D01*
X252738580Y25829680D01*
X252823912Y25957389D01*
X253007911Y26141388D01*
X253224272Y26285955D01*
X253224273Y26285956D01*
X253360824Y26342517D01*
X253464678Y26385535D01*
X253592286Y26410918D01*
X253719891Y26436300D01*
X253980109Y26436300D01*
X254107714Y26410918D01*
X254107714Y26410918D01*
G37*
G36*
X247757714Y26410918D02*
G01*
X247885322Y26385535D01*
X247989176Y26342517D01*
X248125727Y26285956D01*
X248125728Y26285955D01*
X248342089Y26141388D01*
X248526088Y25957389D01*
X248611420Y25829680D01*
X248670656Y25741027D01*
X248687844Y25699530D01*
X248770235Y25500622D01*
X248773740Y25483000D01*
X248816629Y25267385D01*
X248821000Y25245407D01*
X248821000Y24985193D01*
X248770235Y24729978D01*
X248722759Y24615362D01*
X248670656Y24489573D01*
X248670655Y24489572D01*
X248526088Y24273211D01*
X248342089Y24089212D01*
X248197521Y23992615D01*
X248125727Y23944644D01*
X248026148Y23903397D01*
X247885322Y23845065D01*
X247790837Y23826271D01*
X247630109Y23794300D01*
X247369891Y23794300D01*
X247209163Y23826271D01*
X247114678Y23845065D01*
X246973852Y23903397D01*
X246874273Y23944644D01*
X246802479Y23992615D01*
X246657911Y24089212D01*
X246473912Y24273211D01*
X246329345Y24489572D01*
X246329344Y24489573D01*
X246277241Y24615362D01*
X246229765Y24729978D01*
X246179000Y24985193D01*
X246179000Y25245407D01*
X246183372Y25267385D01*
X246226260Y25483000D01*
X246229765Y25500622D01*
X246312156Y25699530D01*
X246329344Y25741027D01*
X246388580Y25829680D01*
X246473912Y25957389D01*
X246657911Y26141388D01*
X246874272Y26285955D01*
X246874273Y26285956D01*
X247010824Y26342517D01*
X247114678Y26385535D01*
X247242286Y26410918D01*
X247369891Y26436300D01*
X247630109Y26436300D01*
X247757714Y26410918D01*
X247757714Y26410918D01*
G37*
G36*
X241407714Y26410918D02*
G01*
X241535322Y26385535D01*
X241639176Y26342517D01*
X241775727Y26285956D01*
X241775728Y26285955D01*
X241992089Y26141388D01*
X242176088Y25957389D01*
X242261420Y25829680D01*
X242320656Y25741027D01*
X242337844Y25699530D01*
X242420235Y25500622D01*
X242423740Y25483000D01*
X242466629Y25267385D01*
X242471000Y25245407D01*
X242471000Y24985193D01*
X242420235Y24729978D01*
X242372759Y24615362D01*
X242320656Y24489573D01*
X242320655Y24489572D01*
X242176088Y24273211D01*
X241992089Y24089212D01*
X241847521Y23992615D01*
X241775727Y23944644D01*
X241676148Y23903397D01*
X241535322Y23845065D01*
X241440837Y23826271D01*
X241280109Y23794300D01*
X241019891Y23794300D01*
X240859163Y23826271D01*
X240764678Y23845065D01*
X240623852Y23903397D01*
X240524273Y23944644D01*
X240452479Y23992615D01*
X240307911Y24089212D01*
X240123912Y24273211D01*
X239979345Y24489572D01*
X239979344Y24489573D01*
X239927241Y24615362D01*
X239879765Y24729978D01*
X239829000Y24985193D01*
X239829000Y25245407D01*
X239833372Y25267385D01*
X239876260Y25483000D01*
X239879765Y25500622D01*
X239962156Y25699530D01*
X239979344Y25741027D01*
X240038580Y25829680D01*
X240123912Y25957389D01*
X240307911Y26141388D01*
X240524272Y26285955D01*
X240524273Y26285956D01*
X240660824Y26342517D01*
X240764678Y26385535D01*
X240892286Y26410918D01*
X241019891Y26436300D01*
X241280109Y26436300D01*
X241407714Y26410918D01*
X241407714Y26410918D01*
G37*
G36*
X22327061Y29779218D02*
G01*
X22521419Y29698712D01*
X22796283Y29584860D01*
X23218570Y29302696D01*
X23577696Y28943570D01*
X23859860Y28521283D01*
X23973712Y28246419D01*
X24054218Y28052061D01*
X24153300Y27553942D01*
X24153300Y27046058D01*
X24054218Y26547939D01*
X24010171Y26441600D01*
X23859860Y26078717D01*
X23577696Y25656430D01*
X23218570Y25297304D01*
X22796283Y25015140D01*
X22521419Y24901288D01*
X22327061Y24820782D01*
X21828942Y24721700D01*
X21321058Y24721700D01*
X20822939Y24820782D01*
X20628581Y24901288D01*
X20353717Y25015140D01*
X19931430Y25297304D01*
X19572304Y25656430D01*
X19290140Y26078717D01*
X19139829Y26441600D01*
X19095782Y26547939D01*
X18996700Y27046058D01*
X18996700Y27553942D01*
X19095782Y28052061D01*
X19176288Y28246419D01*
X19290140Y28521283D01*
X19572304Y28943570D01*
X19931430Y29302696D01*
X20353717Y29584860D01*
X20628581Y29698712D01*
X20822939Y29779218D01*
X21321058Y29878300D01*
X21828942Y29878300D01*
X22327061Y29779218D01*
X22327061Y29779218D01*
G37*
G36*
X47843661Y29822318D02*
G01*
X47993040Y29760443D01*
X48312883Y29627960D01*
X48735170Y29345796D01*
X49094296Y28986670D01*
X49376460Y28564383D01*
X49435846Y28421011D01*
X49570818Y28095161D01*
X49669900Y27597042D01*
X49669900Y27089158D01*
X49570818Y26591039D01*
X49508918Y26441600D01*
X49376460Y26121817D01*
X49094296Y25699530D01*
X48735170Y25340404D01*
X48312883Y25058240D01*
X48136531Y24985193D01*
X47843661Y24863882D01*
X47345542Y24764800D01*
X46837658Y24764800D01*
X46339539Y24863882D01*
X46046669Y24985193D01*
X45870317Y25058240D01*
X45448030Y25340404D01*
X45088904Y25699530D01*
X44806740Y26121817D01*
X44674282Y26441600D01*
X44612382Y26591039D01*
X44513300Y27089158D01*
X44513300Y27597042D01*
X44612382Y28095161D01*
X44747354Y28421011D01*
X44806740Y28564383D01*
X45088904Y28986670D01*
X45448030Y29345796D01*
X45870317Y29627960D01*
X46190160Y29760443D01*
X46339539Y29822318D01*
X46837658Y29921400D01*
X47345542Y29921400D01*
X47843661Y29822318D01*
X47843661Y29822318D01*
G37*
G36*
X220309661Y29822318D02*
G01*
X220459040Y29760443D01*
X220778883Y29627960D01*
X221201170Y29345796D01*
X221560296Y28986670D01*
X221842460Y28564383D01*
X221901846Y28421011D01*
X222036818Y28095161D01*
X222135900Y27597042D01*
X222135900Y27089158D01*
X222036818Y26591039D01*
X221974918Y26441600D01*
X221842460Y26121817D01*
X221560296Y25699530D01*
X221201170Y25340404D01*
X220778883Y25058240D01*
X220602531Y24985193D01*
X220309661Y24863882D01*
X219811542Y24764800D01*
X219303658Y24764800D01*
X218805539Y24863882D01*
X218512669Y24985193D01*
X218336317Y25058240D01*
X217914030Y25340404D01*
X217554904Y25699530D01*
X217272740Y26121817D01*
X217140282Y26441600D01*
X217078382Y26591039D01*
X216979300Y27089158D01*
X216979300Y27597042D01*
X217078382Y28095161D01*
X217213354Y28421011D01*
X217272740Y28564383D01*
X217554904Y28986670D01*
X217914030Y29345796D01*
X218336317Y29627960D01*
X218656160Y29760443D01*
X218805539Y29822318D01*
X219303658Y29921400D01*
X219811542Y29921400D01*
X220309661Y29822318D01*
X220309661Y29822318D01*
G37*
G36*
X68239861Y29822318D02*
G01*
X68389240Y29760443D01*
X68709083Y29627960D01*
X69131370Y29345796D01*
X69490496Y28986670D01*
X69772660Y28564383D01*
X69832046Y28421011D01*
X69967018Y28095161D01*
X70066100Y27597042D01*
X70066100Y27089158D01*
X69967018Y26591039D01*
X69905118Y26441600D01*
X69772660Y26121817D01*
X69490496Y25699530D01*
X69131370Y25340404D01*
X68709083Y25058240D01*
X68532731Y24985193D01*
X68239861Y24863882D01*
X67741742Y24764800D01*
X67233858Y24764800D01*
X66735739Y24863882D01*
X66442869Y24985193D01*
X66266517Y25058240D01*
X65844230Y25340404D01*
X65485104Y25699530D01*
X65202940Y26121817D01*
X65070482Y26441600D01*
X65008582Y26591039D01*
X64909500Y27089158D01*
X64909500Y27597042D01*
X65008582Y28095161D01*
X65143554Y28421011D01*
X65202940Y28564383D01*
X65485104Y28986670D01*
X65844230Y29345796D01*
X66266517Y29627960D01*
X66586360Y29760443D01*
X66735739Y29822318D01*
X67233858Y29921400D01*
X67741742Y29921400D01*
X68239861Y29822318D01*
X68239861Y29822318D01*
G37*
G36*
X122545061Y29822318D02*
G01*
X122694440Y29760443D01*
X123014283Y29627960D01*
X123436570Y29345796D01*
X123795696Y28986670D01*
X124077860Y28564383D01*
X124137246Y28421011D01*
X124272218Y28095161D01*
X124371300Y27597042D01*
X124371300Y27089158D01*
X124272218Y26591039D01*
X124210318Y26441600D01*
X124077860Y26121817D01*
X123795696Y25699530D01*
X123436570Y25340404D01*
X123014283Y25058240D01*
X122837931Y24985193D01*
X122545061Y24863882D01*
X122046942Y24764800D01*
X121539058Y24764800D01*
X121040939Y24863882D01*
X120748069Y24985193D01*
X120571717Y25058240D01*
X120149430Y25340404D01*
X119790304Y25699530D01*
X119508140Y26121817D01*
X119375682Y26441600D01*
X119313782Y26591039D01*
X119214700Y27089158D01*
X119214700Y27597042D01*
X119313782Y28095161D01*
X119448754Y28421011D01*
X119508140Y28564383D01*
X119790304Y28986670D01*
X120149430Y29345796D01*
X120571717Y29627960D01*
X120891560Y29760443D01*
X121040939Y29822318D01*
X121539058Y29921400D01*
X122046942Y29921400D01*
X122545061Y29822318D01*
X122545061Y29822318D01*
G37*
G36*
X93614443Y27278481D02*
G01*
X93680627Y27271963D01*
X93850466Y27220443D01*
X94006991Y27136778D01*
X94042729Y27107448D01*
X94144186Y27024186D01*
X94227448Y26922729D01*
X94256778Y26886991D01*
X94340443Y26730466D01*
X94391963Y26560627D01*
X94409359Y26384000D01*
X94391963Y26207373D01*
X94340443Y26037534D01*
X94256778Y25881009D01*
X94244457Y25865996D01*
X94144186Y25743814D01*
X94042729Y25660552D01*
X94006991Y25631222D01*
X93850466Y25547557D01*
X93680627Y25496037D01*
X93614442Y25489518D01*
X93548260Y25483000D01*
X93459740Y25483000D01*
X93393557Y25489519D01*
X93327373Y25496037D01*
X93157534Y25547557D01*
X93001009Y25631222D01*
X92965271Y25660552D01*
X92863814Y25743814D01*
X92763543Y25865996D01*
X92751222Y25881009D01*
X92667557Y26037534D01*
X92616037Y26207373D01*
X92598641Y26384000D01*
X92616037Y26560627D01*
X92667557Y26730466D01*
X92751222Y26886991D01*
X92780552Y26922729D01*
X92863814Y27024186D01*
X92965271Y27107448D01*
X93001009Y27136778D01*
X93157534Y27220443D01*
X93327373Y27271963D01*
X93393557Y27278481D01*
X93459740Y27285000D01*
X93548260Y27285000D01*
X93614443Y27278481D01*
X93614443Y27278481D01*
G37*
G36*
X91074443Y27278481D02*
G01*
X91140627Y27271963D01*
X91310466Y27220443D01*
X91466991Y27136778D01*
X91502729Y27107448D01*
X91604186Y27024186D01*
X91687448Y26922729D01*
X91716778Y26886991D01*
X91800443Y26730466D01*
X91851963Y26560627D01*
X91869359Y26384000D01*
X91851963Y26207373D01*
X91800443Y26037534D01*
X91716778Y25881009D01*
X91704457Y25865996D01*
X91604186Y25743814D01*
X91502729Y25660552D01*
X91466991Y25631222D01*
X91310466Y25547557D01*
X91140627Y25496037D01*
X91074442Y25489518D01*
X91008260Y25483000D01*
X90919740Y25483000D01*
X90853557Y25489519D01*
X90787373Y25496037D01*
X90617534Y25547557D01*
X90461009Y25631222D01*
X90425271Y25660552D01*
X90323814Y25743814D01*
X90223543Y25865996D01*
X90211222Y25881009D01*
X90127557Y26037534D01*
X90076037Y26207373D01*
X90058641Y26384000D01*
X90076037Y26560627D01*
X90127557Y26730466D01*
X90211222Y26886991D01*
X90240552Y26922729D01*
X90323814Y27024186D01*
X90425271Y27107448D01*
X90461009Y27136778D01*
X90617534Y27220443D01*
X90787373Y27271963D01*
X90853557Y27278481D01*
X90919740Y27285000D01*
X91008260Y27285000D01*
X91074443Y27278481D01*
X91074443Y27278481D01*
G37*
G36*
X88534443Y27278481D02*
G01*
X88600627Y27271963D01*
X88770466Y27220443D01*
X88926991Y27136778D01*
X88962729Y27107448D01*
X89064186Y27024186D01*
X89147448Y26922729D01*
X89176778Y26886991D01*
X89260443Y26730466D01*
X89311963Y26560627D01*
X89329359Y26384000D01*
X89311963Y26207373D01*
X89260443Y26037534D01*
X89176778Y25881009D01*
X89164457Y25865996D01*
X89064186Y25743814D01*
X88962729Y25660552D01*
X88926991Y25631222D01*
X88770466Y25547557D01*
X88600627Y25496037D01*
X88534442Y25489518D01*
X88468260Y25483000D01*
X88379740Y25483000D01*
X88313557Y25489519D01*
X88247373Y25496037D01*
X88077534Y25547557D01*
X87921009Y25631222D01*
X87885271Y25660552D01*
X87783814Y25743814D01*
X87683543Y25865996D01*
X87671222Y25881009D01*
X87587557Y26037534D01*
X87536037Y26207373D01*
X87518641Y26384000D01*
X87536037Y26560627D01*
X87587557Y26730466D01*
X87671222Y26886991D01*
X87700552Y26922729D01*
X87783814Y27024186D01*
X87885271Y27107448D01*
X87921009Y27136778D01*
X88077534Y27220443D01*
X88247373Y27271963D01*
X88313557Y27278481D01*
X88379740Y27285000D01*
X88468260Y27285000D01*
X88534443Y27278481D01*
X88534443Y27278481D01*
G37*
G36*
X86785000Y25483000D02*
G01*
X84983000Y25483000D01*
X84983000Y27285000D01*
X86785000Y27285000D01*
X86785000Y25483000D01*
X86785000Y25483000D01*
G37*
G36*
X91074442Y29818482D02*
G01*
X91140627Y29811963D01*
X91310466Y29760443D01*
X91466991Y29676778D01*
X91502729Y29647448D01*
X91604186Y29564186D01*
X91684708Y29466068D01*
X91716778Y29426991D01*
X91800443Y29270466D01*
X91851963Y29100627D01*
X91869359Y28924000D01*
X91851963Y28747373D01*
X91800443Y28577534D01*
X91716778Y28421009D01*
X91687448Y28385271D01*
X91604186Y28283814D01*
X91502729Y28200552D01*
X91466991Y28171222D01*
X91310466Y28087557D01*
X91140627Y28036037D01*
X91074443Y28029519D01*
X91008260Y28023000D01*
X90919740Y28023000D01*
X90853557Y28029519D01*
X90787373Y28036037D01*
X90617534Y28087557D01*
X90461009Y28171222D01*
X90425271Y28200552D01*
X90323814Y28283814D01*
X90240552Y28385271D01*
X90211222Y28421009D01*
X90127557Y28577534D01*
X90076037Y28747373D01*
X90058641Y28924000D01*
X90076037Y29100627D01*
X90127557Y29270466D01*
X90211222Y29426991D01*
X90243292Y29466068D01*
X90323814Y29564186D01*
X90425271Y29647448D01*
X90461009Y29676778D01*
X90617534Y29760443D01*
X90787373Y29811963D01*
X90853558Y29818482D01*
X90919740Y29825000D01*
X91008260Y29825000D01*
X91074442Y29818482D01*
X91074442Y29818482D01*
G37*
G36*
X93614442Y29818482D02*
G01*
X93680627Y29811963D01*
X93850466Y29760443D01*
X94006991Y29676778D01*
X94042729Y29647448D01*
X94144186Y29564186D01*
X94224708Y29466068D01*
X94256778Y29426991D01*
X94340443Y29270466D01*
X94391963Y29100627D01*
X94409359Y28924000D01*
X94391963Y28747373D01*
X94340443Y28577534D01*
X94256778Y28421009D01*
X94227448Y28385271D01*
X94144186Y28283814D01*
X94042729Y28200552D01*
X94006991Y28171222D01*
X93850466Y28087557D01*
X93680627Y28036037D01*
X93614443Y28029519D01*
X93548260Y28023000D01*
X93459740Y28023000D01*
X93393557Y28029519D01*
X93327373Y28036037D01*
X93157534Y28087557D01*
X93001009Y28171222D01*
X92965271Y28200552D01*
X92863814Y28283814D01*
X92780552Y28385271D01*
X92751222Y28421009D01*
X92667557Y28577534D01*
X92616037Y28747373D01*
X92598641Y28924000D01*
X92616037Y29100627D01*
X92667557Y29270466D01*
X92751222Y29426991D01*
X92783292Y29466068D01*
X92863814Y29564186D01*
X92965271Y29647448D01*
X93001009Y29676778D01*
X93157534Y29760443D01*
X93327373Y29811963D01*
X93393558Y29818482D01*
X93459740Y29825000D01*
X93548260Y29825000D01*
X93614442Y29818482D01*
X93614442Y29818482D01*
G37*
G36*
X88534442Y29818482D02*
G01*
X88600627Y29811963D01*
X88770466Y29760443D01*
X88926991Y29676778D01*
X88962729Y29647448D01*
X89064186Y29564186D01*
X89144708Y29466068D01*
X89176778Y29426991D01*
X89260443Y29270466D01*
X89311963Y29100627D01*
X89329359Y28924000D01*
X89311963Y28747373D01*
X89260443Y28577534D01*
X89176778Y28421009D01*
X89147448Y28385271D01*
X89064186Y28283814D01*
X88962729Y28200552D01*
X88926991Y28171222D01*
X88770466Y28087557D01*
X88600627Y28036037D01*
X88534443Y28029519D01*
X88468260Y28023000D01*
X88379740Y28023000D01*
X88313557Y28029519D01*
X88247373Y28036037D01*
X88077534Y28087557D01*
X87921009Y28171222D01*
X87885271Y28200552D01*
X87783814Y28283814D01*
X87700552Y28385271D01*
X87671222Y28421009D01*
X87587557Y28577534D01*
X87536037Y28747373D01*
X87518641Y28924000D01*
X87536037Y29100627D01*
X87587557Y29270466D01*
X87671222Y29426991D01*
X87703292Y29466068D01*
X87783814Y29564186D01*
X87885271Y29647448D01*
X87921009Y29676778D01*
X88077534Y29760443D01*
X88247373Y29811963D01*
X88313558Y29818482D01*
X88379740Y29825000D01*
X88468260Y29825000D01*
X88534442Y29818482D01*
X88534442Y29818482D01*
G37*
G36*
X85994442Y29818482D02*
G01*
X86060627Y29811963D01*
X86230466Y29760443D01*
X86386991Y29676778D01*
X86422729Y29647448D01*
X86524186Y29564186D01*
X86604708Y29466068D01*
X86636778Y29426991D01*
X86720443Y29270466D01*
X86771963Y29100627D01*
X86789359Y28924000D01*
X86771963Y28747373D01*
X86720443Y28577534D01*
X86636778Y28421009D01*
X86607448Y28385271D01*
X86524186Y28283814D01*
X86422729Y28200552D01*
X86386991Y28171222D01*
X86230466Y28087557D01*
X86060627Y28036037D01*
X85994443Y28029519D01*
X85928260Y28023000D01*
X85839740Y28023000D01*
X85773557Y28029519D01*
X85707373Y28036037D01*
X85537534Y28087557D01*
X85381009Y28171222D01*
X85345271Y28200552D01*
X85243814Y28283814D01*
X85160552Y28385271D01*
X85131222Y28421009D01*
X85047557Y28577534D01*
X84996037Y28747373D01*
X84978641Y28924000D01*
X84996037Y29100627D01*
X85047557Y29270466D01*
X85131222Y29426991D01*
X85163292Y29466068D01*
X85243814Y29564186D01*
X85345271Y29647448D01*
X85381009Y29676778D01*
X85537534Y29760443D01*
X85707373Y29811963D01*
X85773558Y29818482D01*
X85839740Y29825000D01*
X85928260Y29825000D01*
X85994442Y29818482D01*
X85994442Y29818482D01*
G37*
G36*
X78182908Y32146614D02*
G01*
X78419241Y32099605D01*
X78753171Y31961286D01*
X79053700Y31760479D01*
X79309280Y31504899D01*
X79510087Y31204370D01*
X79648406Y30870440D01*
X79718920Y30515941D01*
X79718920Y30154497D01*
X79648406Y29799998D01*
X79510087Y29466068D01*
X79309280Y29165539D01*
X79053700Y28909959D01*
X78753171Y28709152D01*
X78419241Y28570833D01*
X78182908Y28523824D01*
X78064743Y28500319D01*
X77703297Y28500319D01*
X77585132Y28523824D01*
X77348799Y28570833D01*
X77014869Y28709152D01*
X76714340Y28909959D01*
X76458760Y29165539D01*
X76257953Y29466068D01*
X76119634Y29799998D01*
X76049120Y30154497D01*
X76049120Y30515941D01*
X76119634Y30870440D01*
X76257953Y31204370D01*
X76458760Y31504899D01*
X76714340Y31760479D01*
X77014869Y31961286D01*
X77348799Y32099605D01*
X77585132Y32146614D01*
X77703297Y32170119D01*
X78064743Y32170119D01*
X78182908Y32146614D01*
X78182908Y32146614D01*
G37*
G36*
X156491108Y32146614D02*
G01*
X156727441Y32099605D01*
X157061371Y31961286D01*
X157361900Y31760479D01*
X157617480Y31504899D01*
X157818287Y31204370D01*
X157956606Y30870440D01*
X158027120Y30515941D01*
X158027120Y30154497D01*
X157956606Y29799998D01*
X157818287Y29466068D01*
X157617480Y29165539D01*
X157361900Y28909959D01*
X157061371Y28709152D01*
X156727441Y28570833D01*
X156491108Y28523824D01*
X156372943Y28500319D01*
X156011497Y28500319D01*
X155893332Y28523824D01*
X155656999Y28570833D01*
X155323069Y28709152D01*
X155022540Y28909959D01*
X154766960Y29165539D01*
X154566153Y29466068D01*
X154427834Y29799998D01*
X154357320Y30154497D01*
X154357320Y30515941D01*
X154427834Y30870440D01*
X154566153Y31204370D01*
X154766960Y31504899D01*
X155022540Y31760479D01*
X155323069Y31961286D01*
X155656999Y32099605D01*
X155893332Y32146614D01*
X156011497Y32170119D01*
X156372943Y32170119D01*
X156491108Y32146614D01*
X156491108Y32146614D01*
G37*
G36*
X259767498Y32146614D02*
G01*
X260003831Y32099605D01*
X260337761Y31961286D01*
X260638290Y31760479D01*
X260893870Y31504899D01*
X261094677Y31204370D01*
X261232996Y30870440D01*
X261303510Y30515941D01*
X261303510Y30154497D01*
X261232996Y29799998D01*
X261094677Y29466068D01*
X260893870Y29165539D01*
X260638290Y28909959D01*
X260337761Y28709152D01*
X260003831Y28570833D01*
X259767498Y28523824D01*
X259649333Y28500319D01*
X259287887Y28500319D01*
X259169722Y28523824D01*
X258933389Y28570833D01*
X258599459Y28709152D01*
X258298930Y28909959D01*
X258043350Y29165539D01*
X257842543Y29466068D01*
X257704224Y29799998D01*
X257633710Y30154497D01*
X257633710Y30515941D01*
X257704224Y30870440D01*
X257842543Y31204370D01*
X258043350Y31504899D01*
X258298930Y31760479D01*
X258599459Y31961286D01*
X258933389Y32099605D01*
X259169722Y32146614D01*
X259287887Y32170119D01*
X259649333Y32170119D01*
X259767498Y32146614D01*
X259767498Y32146614D01*
G37*
G36*
X102747474Y32005260D02*
G01*
X102825150Y31989809D01*
X102971489Y31929193D01*
X103103190Y31841193D01*
X103215193Y31729190D01*
X103303194Y31597487D01*
X103363809Y31451149D01*
X103394710Y31295799D01*
X103394710Y31137401D01*
X103363809Y30982051D01*
X103317578Y30870438D01*
X103303193Y30835711D01*
X103215193Y30704010D01*
X103103190Y30592007D01*
X102971489Y30504007D01*
X102825150Y30443391D01*
X102747474Y30427941D01*
X102669799Y30412490D01*
X102511401Y30412490D01*
X102433726Y30427941D01*
X102356050Y30443391D01*
X102209711Y30504007D01*
X102078010Y30592007D01*
X101966007Y30704010D01*
X101878007Y30835711D01*
X101863623Y30870438D01*
X101817391Y30982051D01*
X101786490Y31137401D01*
X101786490Y31295799D01*
X101817391Y31451149D01*
X101878006Y31597487D01*
X101966007Y31729190D01*
X102078010Y31841193D01*
X102209711Y31929193D01*
X102356050Y31989809D01*
X102433726Y32005260D01*
X102511401Y32020710D01*
X102669799Y32020710D01*
X102747474Y32005260D01*
X102747474Y32005260D01*
G37*
G36*
X90047474Y32005260D02*
G01*
X90125150Y31989809D01*
X90271489Y31929193D01*
X90403190Y31841193D01*
X90515193Y31729190D01*
X90603194Y31597487D01*
X90663809Y31451149D01*
X90694710Y31295799D01*
X90694710Y31137401D01*
X90663809Y30982051D01*
X90617578Y30870438D01*
X90603193Y30835711D01*
X90515193Y30704010D01*
X90403190Y30592007D01*
X90271489Y30504007D01*
X90125150Y30443391D01*
X90047474Y30427941D01*
X89969799Y30412490D01*
X89811401Y30412490D01*
X89733726Y30427941D01*
X89656050Y30443391D01*
X89509711Y30504007D01*
X89378010Y30592007D01*
X89266007Y30704010D01*
X89178007Y30835711D01*
X89163623Y30870438D01*
X89117391Y30982051D01*
X89086490Y31137401D01*
X89086490Y31295799D01*
X89117391Y31451149D01*
X89178006Y31597487D01*
X89266007Y31729190D01*
X89378010Y31841193D01*
X89509711Y31929193D01*
X89656050Y31989809D01*
X89733726Y32005260D01*
X89811401Y32020710D01*
X89969799Y32020710D01*
X90047474Y32005260D01*
X90047474Y32005260D01*
G37*
G36*
X84967474Y32005260D02*
G01*
X85045150Y31989809D01*
X85191489Y31929193D01*
X85323190Y31841193D01*
X85435193Y31729190D01*
X85523194Y31597487D01*
X85583809Y31451149D01*
X85614710Y31295799D01*
X85614710Y31137401D01*
X85583809Y30982051D01*
X85537578Y30870438D01*
X85523193Y30835711D01*
X85435193Y30704010D01*
X85323190Y30592007D01*
X85191489Y30504007D01*
X85045150Y30443391D01*
X84967474Y30427941D01*
X84889799Y30412490D01*
X84731401Y30412490D01*
X84653726Y30427941D01*
X84576050Y30443391D01*
X84429711Y30504007D01*
X84298010Y30592007D01*
X84186007Y30704010D01*
X84098007Y30835711D01*
X84083623Y30870438D01*
X84037391Y30982051D01*
X84006490Y31137401D01*
X84006490Y31295799D01*
X84037391Y31451149D01*
X84098006Y31597487D01*
X84186007Y31729190D01*
X84298010Y31841193D01*
X84429711Y31929193D01*
X84576050Y31989809D01*
X84653726Y32005260D01*
X84731401Y32020710D01*
X84889799Y32020710D01*
X84967474Y32005260D01*
X84967474Y32005260D01*
G37*
G36*
X100207474Y32005260D02*
G01*
X100285150Y31989809D01*
X100431489Y31929193D01*
X100563190Y31841193D01*
X100675193Y31729190D01*
X100763194Y31597487D01*
X100823809Y31451149D01*
X100854710Y31295799D01*
X100854710Y31137401D01*
X100823809Y30982051D01*
X100777578Y30870438D01*
X100763193Y30835711D01*
X100675193Y30704010D01*
X100563190Y30592007D01*
X100431489Y30504007D01*
X100285150Y30443391D01*
X100207474Y30427941D01*
X100129799Y30412490D01*
X99971401Y30412490D01*
X99893726Y30427941D01*
X99816050Y30443391D01*
X99669711Y30504007D01*
X99538010Y30592007D01*
X99426007Y30704010D01*
X99338007Y30835711D01*
X99323623Y30870438D01*
X99277391Y30982051D01*
X99246490Y31137401D01*
X99246490Y31295799D01*
X99277391Y31451149D01*
X99338006Y31597487D01*
X99426007Y31729190D01*
X99538010Y31841193D01*
X99669711Y31929193D01*
X99816050Y31989809D01*
X99893726Y32005260D01*
X99971401Y32020710D01*
X100129799Y32020710D01*
X100207474Y32005260D01*
X100207474Y32005260D01*
G37*
G36*
X97667474Y32005260D02*
G01*
X97745150Y31989809D01*
X97891489Y31929193D01*
X98023190Y31841193D01*
X98135193Y31729190D01*
X98223194Y31597487D01*
X98283809Y31451149D01*
X98314710Y31295799D01*
X98314710Y31137401D01*
X98283809Y30982051D01*
X98237578Y30870438D01*
X98223193Y30835711D01*
X98135193Y30704010D01*
X98023190Y30592007D01*
X97891489Y30504007D01*
X97745150Y30443391D01*
X97667474Y30427941D01*
X97589799Y30412490D01*
X97431401Y30412490D01*
X97353726Y30427941D01*
X97276050Y30443391D01*
X97129711Y30504007D01*
X96998010Y30592007D01*
X96886007Y30704010D01*
X96798007Y30835711D01*
X96783623Y30870438D01*
X96737391Y30982051D01*
X96706490Y31137401D01*
X96706490Y31295799D01*
X96737391Y31451149D01*
X96798006Y31597487D01*
X96886007Y31729190D01*
X96998010Y31841193D01*
X97129711Y31929193D01*
X97276050Y31989809D01*
X97353726Y32005260D01*
X97431401Y32020710D01*
X97589799Y32020710D01*
X97667474Y32005260D01*
X97667474Y32005260D01*
G37*
G36*
X95127474Y32005260D02*
G01*
X95205150Y31989809D01*
X95351489Y31929193D01*
X95483190Y31841193D01*
X95595193Y31729190D01*
X95683194Y31597487D01*
X95743809Y31451149D01*
X95774710Y31295799D01*
X95774710Y31137401D01*
X95743809Y30982051D01*
X95697578Y30870438D01*
X95683193Y30835711D01*
X95595193Y30704010D01*
X95483190Y30592007D01*
X95351489Y30504007D01*
X95205150Y30443391D01*
X95127474Y30427941D01*
X95049799Y30412490D01*
X94891401Y30412490D01*
X94813726Y30427941D01*
X94736050Y30443391D01*
X94589711Y30504007D01*
X94458010Y30592007D01*
X94346007Y30704010D01*
X94258007Y30835711D01*
X94243623Y30870438D01*
X94197391Y30982051D01*
X94166490Y31137401D01*
X94166490Y31295799D01*
X94197391Y31451149D01*
X94258006Y31597487D01*
X94346007Y31729190D01*
X94458010Y31841193D01*
X94589711Y31929193D01*
X94736050Y31989809D01*
X94813726Y32005260D01*
X94891401Y32020710D01*
X95049799Y32020710D01*
X95127474Y32005260D01*
X95127474Y32005260D01*
G37*
G36*
X92587474Y32005260D02*
G01*
X92665150Y31989809D01*
X92811489Y31929193D01*
X92943190Y31841193D01*
X93055193Y31729190D01*
X93143194Y31597487D01*
X93203809Y31451149D01*
X93234710Y31295799D01*
X93234710Y31137401D01*
X93203809Y30982051D01*
X93157578Y30870438D01*
X93143193Y30835711D01*
X93055193Y30704010D01*
X92943190Y30592007D01*
X92811489Y30504007D01*
X92665150Y30443391D01*
X92587474Y30427941D01*
X92509799Y30412490D01*
X92351401Y30412490D01*
X92273726Y30427941D01*
X92196050Y30443391D01*
X92049711Y30504007D01*
X91918010Y30592007D01*
X91806007Y30704010D01*
X91718007Y30835711D01*
X91703623Y30870438D01*
X91657391Y30982051D01*
X91626490Y31137401D01*
X91626490Y31295799D01*
X91657391Y31451149D01*
X91718006Y31597487D01*
X91806007Y31729190D01*
X91918010Y31841193D01*
X92049711Y31929193D01*
X92196050Y31989809D01*
X92273726Y32005260D01*
X92351401Y32020710D01*
X92509799Y32020710D01*
X92587474Y32005260D01*
X92587474Y32005260D01*
G37*
G36*
X87507474Y32005260D02*
G01*
X87585150Y31989809D01*
X87731489Y31929193D01*
X87863190Y31841193D01*
X87975193Y31729190D01*
X88063194Y31597487D01*
X88123809Y31451149D01*
X88154710Y31295799D01*
X88154710Y31137401D01*
X88123809Y30982051D01*
X88077578Y30870438D01*
X88063193Y30835711D01*
X87975193Y30704010D01*
X87863190Y30592007D01*
X87731489Y30504007D01*
X87585150Y30443391D01*
X87507474Y30427941D01*
X87429799Y30412490D01*
X87271401Y30412490D01*
X87193726Y30427941D01*
X87116050Y30443391D01*
X86969711Y30504007D01*
X86838010Y30592007D01*
X86726007Y30704010D01*
X86638007Y30835711D01*
X86623623Y30870438D01*
X86577391Y30982051D01*
X86546490Y31137401D01*
X86546490Y31295799D01*
X86577391Y31451149D01*
X86638006Y31597487D01*
X86726007Y31729190D01*
X86838010Y31841193D01*
X86969711Y31929193D01*
X87116050Y31989809D01*
X87193726Y32005260D01*
X87271401Y32020710D01*
X87429799Y32020710D01*
X87507474Y32005260D01*
X87507474Y32005260D01*
G37*
M02*
